%TF.GenerationSoftware,KiCad,Pcbnew,8.0.3-rc1*%
%TF.CreationDate,2024-06-29T16:34:32+08:00*%
%TF.ProjectId,MC_G431C8,4d435f47-3433-4314-9338-2e6b69636164,rev?*%
%TF.SameCoordinates,Original*%
%TF.FileFunction,Profile,NP*%
%FSLAX46Y46*%
G04 Gerber Fmt 4.6, Leading zero omitted, Abs format (unit mm)*
G04 Created by KiCad (PCBNEW 8.0.3-rc1) date 2024-06-29 16:34:32*
%MOMM*%
%LPD*%
G01*
G04 APERTURE LIST*
%TA.AperFunction,Profile*%
%ADD10C,0.200000*%
%TD*%
G04 APERTURE END LIST*
D10*
X176600000Y-85000000D02*
G75*
G02*
X173400000Y-85000000I-1600000J0D01*
G01*
X173400000Y-85000000D02*
G75*
G02*
X176600000Y-85000000I1600000J0D01*
G01*
X203499968Y-60000000D02*
G75*
G02*
X205499994Y-61995140I32J-2000000D01*
G01*
X105500000Y-62000139D02*
G75*
G02*
X107489298Y-59999930I2000200J39D01*
G01*
X205500000Y-108000039D02*
X205500000Y-61995140D01*
X202600000Y-105000000D02*
G75*
G02*
X198400000Y-105000000I-2100000J0D01*
G01*
X198400000Y-105000000D02*
G75*
G02*
X202600000Y-105000000I2100000J0D01*
G01*
X205500000Y-108000039D02*
G75*
G02*
X203500000Y-110000000I-2000000J39D01*
G01*
X107499968Y-110000000D02*
X203500000Y-110000000D01*
X189350000Y-75250000D02*
G75*
G02*
X186150000Y-75250000I-1600000J0D01*
G01*
X186150000Y-75250000D02*
G75*
G02*
X189350000Y-75250000I1600000J0D01*
G01*
X107499968Y-110000000D02*
G75*
G02*
X105500000Y-108000000I32J2000000D01*
G01*
X202100000Y-85000000D02*
G75*
G02*
X198900000Y-85000000I-1600000J0D01*
G01*
X198900000Y-85000000D02*
G75*
G02*
X202100000Y-85000000I1600000J0D01*
G01*
X112600000Y-105000000D02*
G75*
G02*
X108400000Y-105000000I-2100000J0D01*
G01*
X108400000Y-105000000D02*
G75*
G02*
X112600000Y-105000000I2100000J0D01*
G01*
X189350000Y-94750000D02*
G75*
G02*
X186150000Y-94750000I-1600000J0D01*
G01*
X186150000Y-94750000D02*
G75*
G02*
X189350000Y-94750000I1600000J0D01*
G01*
X203499968Y-60000000D02*
X107489298Y-60000000D01*
X105500000Y-62000139D02*
X105500000Y-108000000D01*
X112600000Y-65000000D02*
G75*
G02*
X108400000Y-65000000I-2100000J0D01*
G01*
X108400000Y-65000000D02*
G75*
G02*
X112600000Y-65000000I2100000J0D01*
G01*
X202600000Y-65000000D02*
G75*
G02*
X198400000Y-65000000I-2100000J0D01*
G01*
X198400000Y-65000000D02*
G75*
G02*
X202600000Y-65000000I2100000J0D01*
G01*
M02*
