M48
; DRILL file {KiCad 8.0.3-rc1} date 2024-06-29T16:35:12+0800
; FORMAT={-:-/ absolute / metric / decimal}
; #@! TF.CreationDate,2024-06-29T16:35:12+08:00
; #@! TF.GenerationSoftware,Kicad,Pcbnew,8.0.3-rc1
; #@! TF.FileFunction,Plated,1,4,PTH
FMAT,2
METRIC
; #@! TA.AperFunction,Plated,PTH,ViaDrill
T1C0.300
; #@! TA.AperFunction,Plated,PTH,ComponentDrill
T2C1.000
; #@! TA.AperFunction,Plated,PTH,ComponentDrill
T3C1.520
%
G90
G05
T1
X108.126Y-75.53
X108.722Y-68.932
X110.5Y-90.776
X110.5Y-93.57
X110.754Y-77.568
X110.82Y-72.93
X111.008Y-81.124
X111.77Y-71.98
X112.72Y-72.676
X113.04Y-90.776
X113.059Y-93.824
X115.127Y-69.893
X115.202Y-64.236
X115.326Y-74.493
X116.575Y-68.267
X116.596Y-106.524
X116.596Y-107.54
X116.596Y-108.556
X117.358Y-99.92
X117.967Y-78.685
X118.183Y-93.868
X118.287Y-103.984
X118.374Y-89.252
X118.374Y-98.65
X118.628Y-86.966
X118.882Y-81.378
X119.136Y-105.762
X119.644Y-70.964
X119.644Y-89.252
X119.656Y-76.806
X119.92Y-103.911
X120.418Y-72.996
X120.66Y-66.536
X121.422Y-86.966
X121.553Y-103.911
X121.754Y-66.847
X121.93Y-89.252
X121.93Y-91.284
X122.284Y-106.521
X122.692Y-83.41
X122.815Y-94.626
X122.946Y-90.776
X123.113Y-103.911
X123.441Y-89.265
X123.665Y-94.626
X123.708Y-90.22
X123.875Y-106.524
X123.962Y-74.774
X123.962Y-86.712
X124.216Y-93.824
X124.818Y-103.911
X124.978Y-83.41
X124.978Y-98.142
X125.549Y-106.504
X125.74Y-107.54
X125.924Y-108.243
X125.994Y-63.598
X126.212Y-102.078
X126.451Y-103.911
X126.712Y-97.888
X127.01Y-70.456
X127.01Y-108.264
X127.177Y-106.524
X127.518Y-107.54
X127.518Y-108.791
X127.595Y-72.157
X128.084Y-103.911
X128.581Y-108.464
X128.869Y-77.995
X129.55Y-79.6
X129.55Y-83.41
X129.55Y-96.341
X129.55Y-99.666
X129.677Y-63.598
X129.717Y-103.911
X131.074Y-94.332
X131.074Y-95.348
X131.074Y-96.355
X131.074Y-98.65
X131.17Y-105.235
X131.328Y-99.666
X131.328Y-100.428
X131.836Y-93.57
X131.836Y-94.665
X131.836Y-101.19
X132.09Y-75.536
X132.344Y-77.822
X132.598Y-93.57
X132.72Y-80.992
X132.852Y-101.19
X132.979Y-68.805
X133.614Y-93.57
X133.868Y-68.805
X133.868Y-83.41
X133.868Y-101.19
X134.122Y-79.6
X134.376Y-87.474
X134.63Y-93.57
X134.884Y-68.805
X134.884Y-101.19
X135.058Y-99.745
X135.392Y-94.078
X135.392Y-94.84
X135.519Y-73.123
X135.519Y-73.885
X135.519Y-74.774
X135.519Y-75.663
X135.519Y-76.425
X135.773Y-68.932
X135.773Y-69.694
X135.773Y-70.583
X135.773Y-71.472
X135.812Y-98.055
X135.9Y-72.361
X135.9Y-95.602
X135.9Y-96.364
X135.9Y-97.126
X135.9Y-99.158
X135.9Y-100.174
X135.9Y-101.19
X136.408Y-73.123
X136.408Y-73.885
X136.408Y-74.774
X136.535Y-75.536
X136.535Y-76.298
X136.662Y-98.142
X136.916Y-72.361
X136.916Y-92.808
X136.916Y-93.824
X136.916Y-94.84
X136.916Y-95.602
X136.916Y-96.364
X136.916Y-97.126
X137.424Y-102.206
X137.678Y-78.838
X137.932Y-72.361
X138.009Y-68.755
X138.948Y-72.361
X138.948Y-103.984
X138.948Y-104.746
X138.948Y-105.508
X139.964Y-77.822
X140.218Y-89.779
X140.929Y-75.648
X141.488Y-93.824
X141.742Y-88.828
X141.742Y-90.014
X142.06Y-95.111
X142.103Y-60.95
X142.103Y-61.748
X142.103Y-62.546
X142.103Y-63.344
X142.504Y-79.854
X142.758Y-70.964
X143.012Y-60.95
X143.012Y-61.748
X143.012Y-62.546
X143.012Y-63.344
X143.52Y-103.984
X143.774Y-105.508
X144.028Y-60.95
X144.028Y-61.748
X144.028Y-62.546
X144.028Y-63.344
X144.163Y-98.261
X144.282Y-72.742
X144.282Y-102.968
X144.536Y-75.282
X144.536Y-103.984
X145.044Y-60.95
X145.552Y-84.68
X145.806Y-80.616
X146.06Y-60.95
X146.06Y-62.582
X146.06Y-63.344
X146.06Y-82.394
X146.314Y-106.524
X146.314Y-107.286
X146.314Y-108.013
X146.314Y-108.81
X146.579Y-99.909
X146.785Y-80.072
X147.584Y-71.726
X147.584Y-72.488
X147.584Y-73.25
X147.584Y-74.012
X147.584Y-74.774
X147.584Y-80.509
X147.584Y-101.952
X147.92Y-106.606
X148.346Y-71.726
X148.346Y-72.488
X148.346Y-73.25
X148.346Y-74.012
X148.346Y-74.774
X148.346Y-100.936
X148.6Y-60.95
X148.6Y-62.582
X148.6Y-63.344
X148.97Y-95.718
X149.108Y-71.726
X149.108Y-72.488
X149.108Y-73.25
X149.108Y-74.012
X149.108Y-74.774
X149.87Y-71.726
X149.87Y-72.488
X149.87Y-73.25
X149.87Y-74.012
X149.87Y-74.774
X150.378Y-90.776
X150.378Y-91.602
X150.378Y-92.427
X150.378Y-93.252
X150.378Y-94.078
X151.14Y-60.95
X151.14Y-62.582
X151.14Y-63.344
X151.14Y-90.776
X151.14Y-91.602
X151.14Y-92.427
X151.14Y-93.252
X151.14Y-94.078
X151.648Y-103.479
X151.984Y-101.78
X152.156Y-70.202
X152.156Y-100.682
X152.664Y-102.714
X152.918Y-100.174
X153.68Y-60.95
X153.68Y-62.582
X153.68Y-63.344
X153.68Y-72.742
X153.726Y-75.49
X153.934Y-80.362
X154.278Y-99.83
X155.204Y-82.648
X155.416Y-104.45
X156.474Y-60.95
X156.474Y-62.582
X156.474Y-63.344
X156.982Y-71.726
X156.982Y-72.488
X156.982Y-73.25
X156.982Y-74.012
X156.982Y-74.774
X157.871Y-73.25
X157.871Y-74.012
X157.871Y-74.774
X157.913Y-71.726
X157.913Y-72.488
X158.252Y-63.344
X158.76Y-73.25
X158.76Y-74.012
X158.76Y-74.774
X158.845Y-71.726
X158.845Y-72.488
X159.522Y-90.776
X159.522Y-91.602
X159.522Y-92.427
X159.522Y-93.252
X159.522Y-94.078
X160.284Y-90.776
X160.284Y-91.602
X160.284Y-92.427
X160.284Y-93.252
X160.284Y-94.078
X161.3Y-70.71
X162.824Y-72.742
X163.098Y-75.453
X163.332Y-81.124
X163.758Y-101.78
X164.348Y-82.648
X164.348Y-105.0
X164.856Y-98.904
X164.856Y-101.13
X164.856Y-103.476
X165.383Y-104.981
X166.126Y-71.726
X166.126Y-72.488
X166.126Y-73.25
X166.126Y-74.012
X166.126Y-74.774
X166.888Y-71.726
X166.888Y-72.488
X166.888Y-73.25
X166.888Y-74.012
X166.888Y-74.774
X167.65Y-71.726
X167.65Y-72.488
X167.65Y-73.25
X167.65Y-74.012
X167.65Y-74.774
X168.412Y-71.726
X168.412Y-72.488
X168.412Y-73.25
X168.412Y-74.012
X168.412Y-74.774
X168.92Y-90.776
X168.92Y-91.602
X168.92Y-92.427
X168.92Y-93.252
X168.92Y-94.078
X169.097Y-101.875
X169.174Y-71.726
X169.174Y-72.488
X169.174Y-73.25
X169.174Y-74.012
X169.174Y-74.774
X169.174Y-100.351
X169.682Y-90.776
X169.682Y-91.602
X169.682Y-92.427
X169.682Y-93.252
X169.682Y-94.078
X170.698Y-101.952
X171.206Y-105.0
X171.968Y-104.492
X172.476Y-107.54
X172.596Y-103.864
X173.315Y-100.351
X176.54Y-86.966
X176.664Y-87.982
X177.318Y-86.966
X179.421Y-103.984
X179.588Y-86.966
X179.588Y-87.982
X180.102Y-86.43
X180.35Y-102.206
X181.112Y-99.666
X181.874Y-102.206
X182.421Y-85.657
X182.636Y-103.984
X183.996Y-106.434
X193.05Y-83.41
X194.32Y-107.54
T2
X161.3Y-63.09
X163.84Y-63.09
T3
X170.19Y-63.344
X175.27Y-63.344
X180.35Y-63.344
M30
