%TF.GenerationSoftware,KiCad,Pcbnew,8.0.3-rc1*%
%TF.CreationDate,2024-06-29T16:34:32+08:00*%
%TF.ProjectId,MC_G431C8,4d435f47-3433-4314-9338-2e6b69636164,rev?*%
%TF.SameCoordinates,Original*%
%TF.FileFunction,Soldermask,Top*%
%TF.FilePolarity,Negative*%
%FSLAX46Y46*%
G04 Gerber Fmt 4.6, Leading zero omitted, Abs format (unit mm)*
G04 Created by KiCad (PCBNEW 8.0.3-rc1) date 2024-06-29 16:34:32*
%MOMM*%
%LPD*%
G01*
G04 APERTURE LIST*
G04 Aperture macros list*
%AMRoundRect*
0 Rectangle with rounded corners*
0 $1 Rounding radius*
0 $2 $3 $4 $5 $6 $7 $8 $9 X,Y pos of 4 corners*
0 Add a 4 corners polygon primitive as box body*
4,1,4,$2,$3,$4,$5,$6,$7,$8,$9,$2,$3,0*
0 Add four circle primitives for the rounded corners*
1,1,$1+$1,$2,$3*
1,1,$1+$1,$4,$5*
1,1,$1+$1,$6,$7*
1,1,$1+$1,$8,$9*
0 Add four rect primitives between the rounded corners*
20,1,$1+$1,$2,$3,$4,$5,0*
20,1,$1+$1,$4,$5,$6,$7,0*
20,1,$1+$1,$6,$7,$8,$9,0*
20,1,$1+$1,$8,$9,$2,$3,0*%
G04 Aperture macros list end*
%ADD10RoundRect,0.200000X-0.275000X0.200000X-0.275000X-0.200000X0.275000X-0.200000X0.275000X0.200000X0*%
%ADD11RoundRect,0.150000X-0.150000X0.587500X-0.150000X-0.587500X0.150000X-0.587500X0.150000X0.587500X0*%
%ADD12RoundRect,0.250000X0.650000X-0.412500X0.650000X0.412500X-0.650000X0.412500X-0.650000X-0.412500X0*%
%ADD13R,0.500000X1.100000*%
%ADD14R,4.000000X4.000000*%
%ADD15RoundRect,0.225000X0.250000X-0.225000X0.250000X0.225000X-0.250000X0.225000X-0.250000X-0.225000X0*%
%ADD16RoundRect,0.225000X0.225000X0.250000X-0.225000X0.250000X-0.225000X-0.250000X0.225000X-0.250000X0*%
%ADD17C,1.000000*%
%ADD18R,1.500000X1.500000*%
%ADD19RoundRect,0.200000X-0.200000X-0.275000X0.200000X-0.275000X0.200000X0.275000X-0.200000X0.275000X0*%
%ADD20RoundRect,0.200000X-0.450000X0.200000X-0.450000X-0.200000X0.450000X-0.200000X0.450000X0.200000X0*%
%ADD21RoundRect,0.250001X-1.249999X0.799999X-1.249999X-0.799999X1.249999X-0.799999X1.249999X0.799999X0*%
%ADD22RoundRect,0.062500X-0.675000X-0.062500X0.675000X-0.062500X0.675000X0.062500X-0.675000X0.062500X0*%
%ADD23RoundRect,0.250000X-0.362500X-1.425000X0.362500X-1.425000X0.362500X1.425000X-0.362500X1.425000X0*%
%ADD24RoundRect,0.250000X1.000000X0.650000X-1.000000X0.650000X-1.000000X-0.650000X1.000000X-0.650000X0*%
%ADD25RoundRect,0.150000X-0.150000X0.825000X-0.150000X-0.825000X0.150000X-0.825000X0.150000X0.825000X0*%
%ADD26RoundRect,0.375000X-0.625000X-0.375000X0.625000X-0.375000X0.625000X0.375000X-0.625000X0.375000X0*%
%ADD27RoundRect,0.500000X-0.500000X-1.400000X0.500000X-1.400000X0.500000X1.400000X-0.500000X1.400000X0*%
%ADD28RoundRect,0.150000X0.825000X0.150000X-0.825000X0.150000X-0.825000X-0.150000X0.825000X-0.150000X0*%
%ADD29RoundRect,0.200000X-0.200000X-0.450000X0.200000X-0.450000X0.200000X0.450000X-0.200000X0.450000X0*%
%ADD30RoundRect,0.250001X-0.799999X-1.249999X0.799999X-1.249999X0.799999X1.249999X-0.799999X1.249999X0*%
%ADD31R,1.200000X0.400000*%
%ADD32RoundRect,0.225000X-0.225000X-0.250000X0.225000X-0.250000X0.225000X0.250000X-0.225000X0.250000X0*%
%ADD33R,3.000000X3.000000*%
%ADD34C,3.000000*%
%ADD35RoundRect,0.225000X0.375000X-0.225000X0.375000X0.225000X-0.375000X0.225000X-0.375000X-0.225000X0*%
%ADD36R,1.700000X1.700000*%
%ADD37O,1.700000X1.700000*%
%ADD38RoundRect,0.100000X-0.637500X-0.100000X0.637500X-0.100000X0.637500X0.100000X-0.637500X0.100000X0*%
%ADD39R,1.400000X1.200000*%
%ADD40RoundRect,0.235000X0.940000X1.465000X-0.940000X1.465000X-0.940000X-1.465000X0.940000X-1.465000X0*%
%ADD41RoundRect,0.200000X0.200000X0.275000X-0.200000X0.275000X-0.200000X-0.275000X0.200000X-0.275000X0*%
%ADD42RoundRect,0.375000X0.625000X0.375000X-0.625000X0.375000X-0.625000X-0.375000X0.625000X-0.375000X0*%
%ADD43RoundRect,0.500000X0.500000X1.400000X-0.500000X1.400000X-0.500000X-1.400000X0.500000X-1.400000X0*%
%ADD44RoundRect,0.075000X0.662500X0.075000X-0.662500X0.075000X-0.662500X-0.075000X0.662500X-0.075000X0*%
%ADD45RoundRect,0.075000X0.075000X0.662500X-0.075000X0.662500X-0.075000X-0.662500X0.075000X-0.662500X0*%
G04 APERTURE END LIST*
D10*
%TO.C,R22*%
X145552000Y-74711000D03*
X145552000Y-76361000D03*
%TD*%
D11*
%TO.C,U4*%
X112720000Y-71375000D03*
X110820000Y-71375000D03*
X111770000Y-73250000D03*
%TD*%
D12*
%TO.C,C42*%
X157720000Y-64945000D03*
X157720000Y-61820000D03*
%TD*%
D13*
%TO.C,Q4*%
X160292100Y-82581000D03*
X159022100Y-82581000D03*
X157752100Y-82581000D03*
X156482100Y-82581000D03*
X156482100Y-88381000D03*
X157752100Y-88381000D03*
X159022100Y-88381000D03*
X160292100Y-88381000D03*
D14*
X158387100Y-85481000D03*
%TD*%
D15*
%TO.C,C44*%
X137424000Y-100695000D03*
X137424000Y-99145000D03*
%TD*%
D16*
%TO.C,C21*%
X134148000Y-94665500D03*
X132598000Y-94665500D03*
%TD*%
D17*
%TO.C,TP3*%
X108976000Y-76298000D03*
%TD*%
D12*
%TO.C,C39*%
X147330000Y-64945000D03*
X147330000Y-61820000D03*
%TD*%
D18*
%TO.C,reset1*%
X195680000Y-107540000D03*
X187880000Y-107540000D03*
%TD*%
D19*
%TO.C,R8*%
X128819234Y-70569556D03*
X130469234Y-70569556D03*
%TD*%
D12*
%TO.C,C41*%
X152410000Y-64945000D03*
X152410000Y-61820000D03*
%TD*%
D20*
%TO.C,J2*%
X110522000Y-94606000D03*
X110522000Y-95856000D03*
X110522000Y-97106000D03*
D21*
X107772000Y-92056000D03*
X107772000Y-99656000D03*
%TD*%
D10*
%TO.C,R6*%
X141064666Y-76997000D03*
X141064666Y-78647000D03*
%TD*%
D13*
%TO.C,Q3*%
X151077000Y-82581000D03*
X149807000Y-82581000D03*
X148537000Y-82581000D03*
X147267000Y-82581000D03*
X147267000Y-88381000D03*
X148537000Y-88381000D03*
X149807000Y-88381000D03*
X151077000Y-88381000D03*
D14*
X149172000Y-85481000D03*
%TD*%
D22*
%TO.C,U2*%
X120061334Y-84356686D03*
X120061334Y-84756686D03*
X120061334Y-85156686D03*
X120061334Y-85556686D03*
X120061334Y-85956686D03*
X120061334Y-86356686D03*
X120061334Y-86756686D03*
X120061334Y-87156686D03*
X120061334Y-87556686D03*
X120061334Y-87956686D03*
X125786334Y-87956686D03*
X125786334Y-87556686D03*
X125786334Y-87156686D03*
X125786334Y-86756686D03*
X125786334Y-86356686D03*
X125786334Y-85956686D03*
X125786334Y-85556686D03*
X125786334Y-85156686D03*
X125786334Y-84756686D03*
X125786334Y-84356686D03*
%TD*%
D23*
%TO.C,R34*%
X164714768Y-92363000D03*
X170639768Y-92363000D03*
%TD*%
D12*
%TO.C,C40*%
X149870000Y-64945000D03*
X149870000Y-61820000D03*
%TD*%
D24*
%TO.C,D5*%
X138008845Y-70163453D03*
X134008845Y-70163453D03*
%TD*%
D15*
%TO.C,C43*%
X194320000Y-84960000D03*
X194320000Y-83410000D03*
%TD*%
D25*
%TO.C,U9*%
X143329665Y-95413000D03*
X142059665Y-95413000D03*
X140789665Y-95413000D03*
X139519665Y-95413000D03*
X139519665Y-100363000D03*
X140789665Y-100363000D03*
X142059665Y-100363000D03*
X143329665Y-100363000D03*
%TD*%
D16*
%TO.C,C10*%
X130419234Y-73744556D03*
X128869234Y-73744556D03*
%TD*%
D18*
%TO.C,key_1*%
X183996000Y-107540000D03*
X176196000Y-107540000D03*
%TD*%
D10*
%TO.C,R32*%
X163840000Y-74711000D03*
X163840000Y-76361000D03*
%TD*%
D15*
%TO.C,C11*%
X142758000Y-78597000D03*
X142758000Y-77047000D03*
%TD*%
D17*
%TO.C,TP2*%
X114564000Y-72234000D03*
%TD*%
D26*
%TO.C,U6*%
X116953283Y-69893133D03*
X116953283Y-72193133D03*
D27*
X123253283Y-72193133D03*
D26*
X116953283Y-74493133D03*
%TD*%
D13*
%TO.C,Q6*%
X169582268Y-82570686D03*
X168312268Y-82570686D03*
X167042268Y-82570686D03*
X165772268Y-82570686D03*
X165772268Y-88370686D03*
X167042268Y-88370686D03*
X168312268Y-88370686D03*
X169582268Y-88370686D03*
D14*
X167677268Y-85470686D03*
%TD*%
D12*
%TO.C,C14*%
X129664234Y-67817056D03*
X129664234Y-64692056D03*
%TD*%
D15*
%TO.C,C4*%
X144790000Y-64932500D03*
X144790000Y-63382500D03*
%TD*%
D10*
%TO.C,R33*%
X163840000Y-86712000D03*
X163840000Y-88362000D03*
%TD*%
D11*
%TO.C,Q1*%
X109069864Y-71351245D03*
X107169864Y-71351245D03*
X108119864Y-73226245D03*
%TD*%
D23*
%TO.C,R28*%
X155462134Y-92363000D03*
X161387134Y-92363000D03*
%TD*%
D28*
%TO.C,U5*%
X138440000Y-76803782D03*
X138440000Y-75533782D03*
X138440000Y-74263782D03*
X138440000Y-72993782D03*
X133490000Y-72993782D03*
X133490000Y-74263782D03*
X133490000Y-75533782D03*
X133490000Y-76803782D03*
%TD*%
D13*
%TO.C,Q8*%
X151077000Y-70294423D03*
X149807000Y-70294423D03*
X148537000Y-70294423D03*
X147267000Y-70294423D03*
X147267000Y-76094423D03*
X148537000Y-76094423D03*
X149807000Y-76094423D03*
X151077000Y-76094423D03*
D14*
X149172000Y-73194423D03*
%TD*%
D29*
%TO.C,J4*%
X121258000Y-105232000D03*
X122508000Y-105232000D03*
X123758000Y-105232000D03*
X125008000Y-105232000D03*
X126258000Y-105232000D03*
X127508000Y-105232000D03*
D30*
X118708000Y-107982000D03*
X130058000Y-107982000D03*
%TD*%
D10*
%TO.C,R27*%
X154696000Y-86712000D03*
X154696000Y-88362000D03*
%TD*%
D17*
%TO.C,TP1*%
X125905409Y-61952695D03*
%TD*%
D31*
%TO.C,U3*%
X155416000Y-99830000D03*
X155416000Y-100480000D03*
X155416000Y-101130000D03*
X155416000Y-101780000D03*
X155416000Y-102430000D03*
X155416000Y-103080000D03*
X155416000Y-103730000D03*
X162316000Y-103730000D03*
X162316000Y-103080000D03*
X162316000Y-102430000D03*
X162316000Y-101780000D03*
X162316000Y-101130000D03*
X162316000Y-100480000D03*
X162316000Y-99830000D03*
%TD*%
D10*
%TO.C,R26*%
X154696000Y-74711000D03*
X154696000Y-76361000D03*
%TD*%
D32*
%TO.C,C20*%
X132598000Y-99745500D03*
X134148000Y-99745500D03*
%TD*%
D33*
%TO.C,J5*%
X180350000Y-63344000D03*
D34*
X175270000Y-63344000D03*
X170190000Y-63344000D03*
%TD*%
D29*
%TO.C,J6*%
X140714145Y-105232000D03*
X141964145Y-105232000D03*
D30*
X138164145Y-107982000D03*
X144514145Y-107982000D03*
%TD*%
D35*
%TO.C,D7*%
X119898000Y-82266000D03*
X119898000Y-78966000D03*
%TD*%
D36*
%TO.C,J1*%
X163840000Y-63090000D03*
D37*
X161300000Y-63090000D03*
%TD*%
D38*
%TO.C,U8*%
X184891369Y-83057220D03*
X184891369Y-83707220D03*
X184891369Y-84357220D03*
X184891369Y-85007220D03*
X184891369Y-85657220D03*
X184891369Y-86307220D03*
X184891369Y-86957220D03*
X190616369Y-86957220D03*
X190616369Y-86307220D03*
X190616369Y-85657220D03*
X190616369Y-85007220D03*
X190616369Y-84357220D03*
X190616369Y-83707220D03*
X190616369Y-83057220D03*
%TD*%
D39*
%TO.C,Y1*%
X134473000Y-96355500D03*
X132273000Y-96355500D03*
X132273000Y-98055500D03*
X134473000Y-98055500D03*
%TD*%
D10*
%TO.C,R21*%
X145552000Y-86712000D03*
X145552000Y-88362000D03*
%TD*%
D16*
%TO.C,C7*%
X130419234Y-76919556D03*
X128869234Y-76919556D03*
%TD*%
D40*
%TO.C,L1*%
X139058816Y-64535000D03*
X133008816Y-64535000D03*
%TD*%
D23*
%TO.C,R23*%
X146209500Y-92363000D03*
X152134500Y-92363000D03*
%TD*%
D41*
%TO.C,R9*%
X130469234Y-72157056D03*
X128819234Y-72157056D03*
%TD*%
D12*
%TO.C,C3*%
X154950000Y-64945000D03*
X154950000Y-61820000D03*
%TD*%
D13*
%TO.C,Q2*%
X160292100Y-70294423D03*
X159022100Y-70294423D03*
X157752100Y-70294423D03*
X156482100Y-70294423D03*
X156482100Y-76094423D03*
X157752100Y-76094423D03*
X159022100Y-76094423D03*
X160292100Y-76094423D03*
D14*
X158387100Y-73194423D03*
%TD*%
D35*
%TO.C,D2*%
X125486000Y-82266000D03*
X125486000Y-78966000D03*
%TD*%
D13*
%TO.C,Q5*%
X169607201Y-70318869D03*
X168337201Y-70318869D03*
X167067201Y-70318869D03*
X165797201Y-70318869D03*
X165797201Y-76118869D03*
X167067201Y-76118869D03*
X168337201Y-76118869D03*
X169607201Y-76118869D03*
D14*
X167702201Y-73218869D03*
%TD*%
D42*
%TO.C,U7*%
X123253283Y-66536226D03*
X123253283Y-64236226D03*
D43*
X116953283Y-64236226D03*
D42*
X123253283Y-61936226D03*
%TD*%
D20*
%TO.C,J3*%
X110522000Y-82043000D03*
X110522000Y-83293000D03*
X110522000Y-84543000D03*
X110522000Y-85793000D03*
D21*
X107772000Y-79493000D03*
X107772000Y-88343000D03*
%TD*%
D44*
%TO.C,U1*%
X128124500Y-99368000D03*
X128124500Y-98868000D03*
X128124500Y-98368000D03*
X128124500Y-97868000D03*
X128124500Y-97368000D03*
X128124500Y-96868000D03*
X128124500Y-96368000D03*
X128124500Y-95868000D03*
X128124500Y-95368000D03*
X128124500Y-94868000D03*
X128124500Y-94368000D03*
X128124500Y-93868000D03*
D45*
X126712000Y-92455500D03*
X126212000Y-92455500D03*
X125712000Y-92455500D03*
X125212000Y-92455500D03*
X124712000Y-92455500D03*
X124212000Y-92455500D03*
X123712000Y-92455500D03*
X123212000Y-92455500D03*
X122712000Y-92455500D03*
X122212000Y-92455500D03*
X121712000Y-92455500D03*
X121212000Y-92455500D03*
D44*
X119799500Y-93868000D03*
X119799500Y-94368000D03*
X119799500Y-94868000D03*
X119799500Y-95368000D03*
X119799500Y-95868000D03*
X119799500Y-96368000D03*
X119799500Y-96868000D03*
X119799500Y-97368000D03*
X119799500Y-97868000D03*
X119799500Y-98368000D03*
X119799500Y-98868000D03*
X119799500Y-99368000D03*
D45*
X121212000Y-100780500D03*
X121712000Y-100780500D03*
X122212000Y-100780500D03*
X122712000Y-100780500D03*
X123212000Y-100780500D03*
X123712000Y-100780500D03*
X124212000Y-100780500D03*
X124712000Y-100780500D03*
X125212000Y-100780500D03*
X125712000Y-100780500D03*
X126212000Y-100780500D03*
X126712000Y-100780500D03*
%TD*%
D41*
%TO.C,R5*%
X130469234Y-75332056D03*
X128819234Y-75332056D03*
%TD*%
%TO.C,R57*%
X142258267Y-102758000D03*
X140608267Y-102758000D03*
%TD*%
D35*
%TO.C,D6*%
X122692000Y-82266000D03*
X122692000Y-78966000D03*
%TD*%
M02*
