%TF.GenerationSoftware,KiCad,Pcbnew,8.0.3-rc1*%
%TF.CreationDate,2024-06-29T16:34:31+08:00*%
%TF.ProjectId,MC_G431C8,4d435f47-3433-4314-9338-2e6b69636164,rev?*%
%TF.SameCoordinates,Original*%
%TF.FileFunction,Paste,Bot*%
%TF.FilePolarity,Positive*%
%FSLAX46Y46*%
G04 Gerber Fmt 4.6, Leading zero omitted, Abs format (unit mm)*
G04 Created by KiCad (PCBNEW 8.0.3-rc1) date 2024-06-29 16:34:31*
%MOMM*%
%LPD*%
G01*
G04 APERTURE LIST*
G04 Aperture macros list*
%AMRoundRect*
0 Rectangle with rounded corners*
0 $1 Rounding radius*
0 $2 $3 $4 $5 $6 $7 $8 $9 X,Y pos of 4 corners*
0 Add a 4 corners polygon primitive as box body*
4,1,4,$2,$3,$4,$5,$6,$7,$8,$9,$2,$3,0*
0 Add four circle primitives for the rounded corners*
1,1,$1+$1,$2,$3*
1,1,$1+$1,$4,$5*
1,1,$1+$1,$6,$7*
1,1,$1+$1,$8,$9*
0 Add four rect primitives between the rounded corners*
20,1,$1+$1,$2,$3,$4,$5,0*
20,1,$1+$1,$4,$5,$6,$7,0*
20,1,$1+$1,$6,$7,$8,$9,0*
20,1,$1+$1,$8,$9,$2,$3,0*%
G04 Aperture macros list end*
%ADD10RoundRect,0.200000X0.275000X-0.200000X0.275000X0.200000X-0.275000X0.200000X-0.275000X-0.200000X0*%
%ADD11RoundRect,0.225000X0.250000X-0.225000X0.250000X0.225000X-0.250000X0.225000X-0.250000X-0.225000X0*%
%ADD12RoundRect,0.250000X-0.475000X0.250000X-0.475000X-0.250000X0.475000X-0.250000X0.475000X0.250000X0*%
%ADD13RoundRect,0.250000X0.250000X0.475000X-0.250000X0.475000X-0.250000X-0.475000X0.250000X-0.475000X0*%
%ADD14RoundRect,0.200000X-0.275000X0.200000X-0.275000X-0.200000X0.275000X-0.200000X0.275000X0.200000X0*%
%ADD15RoundRect,0.225000X-0.225000X-0.250000X0.225000X-0.250000X0.225000X0.250000X-0.225000X0.250000X0*%
%ADD16RoundRect,0.200000X0.200000X0.275000X-0.200000X0.275000X-0.200000X-0.275000X0.200000X-0.275000X0*%
%ADD17RoundRect,0.250000X-0.412500X-0.650000X0.412500X-0.650000X0.412500X0.650000X-0.412500X0.650000X0*%
%ADD18RoundRect,0.225000X-0.225000X-0.375000X0.225000X-0.375000X0.225000X0.375000X-0.225000X0.375000X0*%
%ADD19RoundRect,0.237500X-0.250000X-0.237500X0.250000X-0.237500X0.250000X0.237500X-0.250000X0.237500X0*%
%ADD20RoundRect,0.225000X-0.250000X0.225000X-0.250000X-0.225000X0.250000X-0.225000X0.250000X0.225000X0*%
%ADD21RoundRect,0.225000X0.225000X0.250000X-0.225000X0.250000X-0.225000X-0.250000X0.225000X-0.250000X0*%
%ADD22RoundRect,0.237500X0.237500X-0.287500X0.237500X0.287500X-0.237500X0.287500X-0.237500X-0.287500X0*%
%ADD23RoundRect,0.200000X-0.200000X-0.275000X0.200000X-0.275000X0.200000X0.275000X-0.200000X0.275000X0*%
%ADD24RoundRect,0.237500X0.250000X0.237500X-0.250000X0.237500X-0.250000X-0.237500X0.250000X-0.237500X0*%
%ADD25RoundRect,0.237500X-0.237500X0.287500X-0.237500X-0.287500X0.237500X-0.287500X0.237500X0.287500X0*%
G04 APERTURE END LIST*
D10*
%TO.C,R41*%
X152095500Y-98296063D03*
X152095500Y-96646063D03*
%TD*%
D11*
%TO.C,C38*%
X141843600Y-98961000D03*
X141843600Y-97411000D03*
%TD*%
D12*
%TO.C,C6*%
X117654706Y-73915000D03*
X117654706Y-75815000D03*
%TD*%
D13*
%TO.C,C13*%
X123649535Y-65766043D03*
X121749535Y-65766043D03*
%TD*%
D14*
%TO.C,R14*%
X184243615Y-101368000D03*
X184243615Y-103018000D03*
%TD*%
D15*
%TO.C,C26*%
X153336800Y-70746693D03*
X154886800Y-70746693D03*
%TD*%
D16*
%TO.C,R4*%
X134947000Y-77822000D03*
X133297000Y-77822000D03*
%TD*%
D10*
%TO.C,R45*%
X149047500Y-106606000D03*
X149047500Y-104956000D03*
%TD*%
%TO.C,R55*%
X119919857Y-106524000D03*
X119919857Y-104874000D03*
%TD*%
D16*
%TO.C,R30*%
X163903000Y-77651000D03*
X162253000Y-77651000D03*
%TD*%
D11*
%TO.C,C33*%
X150518888Y-98243612D03*
X150518888Y-96693612D03*
%TD*%
D17*
%TO.C,C27*%
X142481500Y-72742000D03*
X145606500Y-72742000D03*
%TD*%
D18*
%TO.C,D13*%
X160554340Y-83664000D03*
X163854340Y-83664000D03*
%TD*%
D11*
%TO.C,C16*%
X116342000Y-99933000D03*
X116342000Y-98383000D03*
%TD*%
D19*
%TO.C,R1*%
X108317500Y-74520000D03*
X110142500Y-74520000D03*
%TD*%
D10*
%TO.C,R37*%
X169875500Y-106606000D03*
X169875500Y-104956000D03*
%TD*%
D20*
%TO.C,C37*%
X150571500Y-105006000D03*
X150571500Y-106556000D03*
%TD*%
D10*
%TO.C,R49*%
X129717000Y-106524000D03*
X129717000Y-104874000D03*
%TD*%
D14*
%TO.C,R39*%
X148970349Y-96633476D03*
X148970349Y-98283476D03*
%TD*%
D16*
%TO.C,R35*%
X167943763Y-100351060D03*
X166293763Y-100351060D03*
%TD*%
D18*
%TO.C,D12*%
X160558000Y-75453000D03*
X163858000Y-75453000D03*
%TD*%
%TO.C,D10*%
X151591800Y-75489693D03*
X154891800Y-75489693D03*
%TD*%
D21*
%TO.C,C18*%
X119657000Y-90268000D03*
X118107000Y-90268000D03*
%TD*%
%TO.C,C32*%
X150571500Y-101780000D03*
X149021500Y-101780000D03*
%TD*%
D18*
%TO.C,D11*%
X151522000Y-83664000D03*
X154822000Y-83664000D03*
%TD*%
D11*
%TO.C,C36*%
X138694000Y-98961000D03*
X138694000Y-97411000D03*
%TD*%
D22*
%TO.C,D1*%
X176165540Y-102853000D03*
X176165540Y-101103000D03*
%TD*%
D14*
%TO.C,R47*%
X152095500Y-104956000D03*
X152095500Y-106606000D03*
%TD*%
D16*
%TO.C,R20*%
X145869000Y-77651000D03*
X144219000Y-77651000D03*
%TD*%
D13*
%TO.C,C22*%
X132720000Y-79600000D03*
X130820000Y-79600000D03*
%TD*%
D15*
%TO.C,C31*%
X162303000Y-70710000D03*
X163853000Y-70710000D03*
%TD*%
D10*
%TO.C,R2*%
X121408234Y-75910000D03*
X121408234Y-74260000D03*
%TD*%
%TO.C,R15*%
X177813155Y-103018000D03*
X177813155Y-101368000D03*
%TD*%
D18*
%TO.C,D9*%
X142524000Y-75453000D03*
X145824000Y-75453000D03*
%TD*%
D23*
%TO.C,R36*%
X166293763Y-101875060D03*
X167943763Y-101875060D03*
%TD*%
D16*
%TO.C,R16*%
X139964000Y-79600000D03*
X138314000Y-79600000D03*
%TD*%
D19*
%TO.C,R12*%
X110318260Y-68722330D03*
X112143260Y-68722330D03*
%TD*%
D15*
%TO.C,C29*%
X144269000Y-70710000D03*
X145819000Y-70710000D03*
%TD*%
D19*
%TO.C,R11*%
X112485000Y-74520000D03*
X114310000Y-74520000D03*
%TD*%
D21*
%TO.C,C17*%
X126515000Y-99158000D03*
X124965000Y-99158000D03*
%TD*%
D13*
%TO.C,C25*%
X132720000Y-87220000D03*
X130820000Y-87220000D03*
%TD*%
D16*
%TO.C,R3*%
X138503000Y-77822000D03*
X136853000Y-77822000D03*
%TD*%
D10*
%TO.C,R53*%
X123185571Y-106524000D03*
X123185571Y-104874000D03*
%TD*%
%TO.C,R44*%
X140268800Y-99011000D03*
X140268800Y-97361000D03*
%TD*%
D20*
%TO.C,C35*%
X168122131Y-105006000D03*
X168122131Y-106556000D03*
%TD*%
D10*
%TO.C,R42*%
X146568000Y-99011000D03*
X146568000Y-97361000D03*
%TD*%
D16*
%TO.C,R7*%
X118217781Y-67425705D03*
X116567781Y-67425705D03*
%TD*%
D10*
%TO.C,R50*%
X128084142Y-106524000D03*
X128084142Y-104874000D03*
%TD*%
D20*
%TO.C,C5*%
X119656470Y-74310000D03*
X119656470Y-75860000D03*
%TD*%
D21*
%TO.C,C8*%
X118226134Y-65537293D03*
X116676134Y-65537293D03*
%TD*%
D13*
%TO.C,C23*%
X132720000Y-83410000D03*
X130820000Y-83410000D03*
%TD*%
D21*
%TO.C,C12*%
X123639913Y-63886586D03*
X122089913Y-63886586D03*
%TD*%
D10*
%TO.C,R54*%
X121552714Y-106524000D03*
X121552714Y-104874000D03*
%TD*%
D13*
%TO.C,C9*%
X118120000Y-69440000D03*
X116220000Y-69440000D03*
%TD*%
D16*
%TO.C,R25*%
X154867000Y-85906000D03*
X153217000Y-85906000D03*
%TD*%
%TO.C,R18*%
X117967331Y-79626494D03*
X116317331Y-79626494D03*
%TD*%
D23*
%TO.C,R38*%
X148971500Y-100002000D03*
X150621500Y-100002000D03*
%TD*%
D11*
%TO.C,C15*%
X121940000Y-69205000D03*
X121940000Y-67655000D03*
%TD*%
D24*
%TO.C,R29*%
X168201263Y-98827060D03*
X166376263Y-98827060D03*
%TD*%
D21*
%TO.C,C24*%
X117917331Y-81360833D03*
X116367331Y-81360833D03*
%TD*%
D16*
%TO.C,R24*%
X154936800Y-77687693D03*
X153286800Y-77687693D03*
%TD*%
D10*
%TO.C,R56*%
X118287000Y-106524000D03*
X118287000Y-104874000D03*
%TD*%
D16*
%TO.C,R31*%
X163899340Y-85906000D03*
X162249340Y-85906000D03*
%TD*%
D15*
%TO.C,C19*%
X121904000Y-88204000D03*
X123454000Y-88204000D03*
%TD*%
D14*
%TO.C,R43*%
X166368763Y-104956000D03*
X166368763Y-106606000D03*
%TD*%
D10*
%TO.C,R51*%
X126451285Y-106524000D03*
X126451285Y-104874000D03*
%TD*%
D23*
%TO.C,R46*%
X148976378Y-103478775D03*
X150626378Y-103478775D03*
%TD*%
D14*
%TO.C,R13*%
X181028385Y-101368000D03*
X181028385Y-103018000D03*
%TD*%
D16*
%TO.C,R17*%
X136725000Y-79600000D03*
X135075000Y-79600000D03*
%TD*%
D18*
%TO.C,D8*%
X142378000Y-83664000D03*
X145678000Y-83664000D03*
%TD*%
D17*
%TO.C,C28*%
X160515500Y-72742000D03*
X163640500Y-72742000D03*
%TD*%
D10*
%TO.C,R10*%
X123635000Y-69255000D03*
X123635000Y-67605000D03*
%TD*%
D17*
%TO.C,C30*%
X151549300Y-72778693D03*
X154674300Y-72778693D03*
%TD*%
D10*
%TO.C,R48*%
X143418400Y-99011000D03*
X143418400Y-97361000D03*
%TD*%
D11*
%TO.C,C34*%
X144993200Y-98961000D03*
X144993200Y-97411000D03*
%TD*%
%TO.C,C1*%
X179420770Y-102968000D03*
X179420770Y-101418000D03*
%TD*%
D16*
%TO.C,R40*%
X167943763Y-103478775D03*
X166293763Y-103478775D03*
%TD*%
D25*
%TO.C,D4*%
X123200000Y-74040000D03*
X123200000Y-75790000D03*
%TD*%
D16*
%TO.C,R19*%
X145723000Y-85906000D03*
X144073000Y-85906000D03*
%TD*%
D11*
%TO.C,C2*%
X182636000Y-102968000D03*
X182636000Y-101418000D03*
%TD*%
D10*
%TO.C,R52*%
X124818428Y-106524000D03*
X124818428Y-104874000D03*
%TD*%
M02*
