%TF.GenerationSoftware,KiCad,Pcbnew,8.0.3-rc1*%
%TF.CreationDate,2024-06-29T16:34:31+08:00*%
%TF.ProjectId,MC_G431C8,4d435f47-3433-4314-9338-2e6b69636164,rev?*%
%TF.SameCoordinates,Original*%
%TF.FileFunction,Legend,Top*%
%TF.FilePolarity,Positive*%
%FSLAX46Y46*%
G04 Gerber Fmt 4.6, Leading zero omitted, Abs format (unit mm)*
G04 Created by KiCad (PCBNEW 8.0.3-rc1) date 2024-06-29 16:34:31*
%MOMM*%
%LPD*%
G01*
G04 APERTURE LIST*
%ADD10C,0.250000*%
%ADD11C,0.200000*%
%ADD12C,0.150000*%
%ADD13C,0.120000*%
G04 APERTURE END LIST*
D10*
X185000000Y-85000000D02*
X190500000Y-85000139D01*
D11*
X205500000Y-85000000D02*
G75*
G02*
X170000000Y-85000000I-17750000J0D01*
G01*
X170000000Y-85000000D02*
G75*
G02*
X205500000Y-85000000I17750000J0D01*
G01*
D10*
X187750000Y-82500139D02*
X187750000Y-87500139D01*
D12*
X144909142Y-78869487D02*
X144575809Y-78393296D01*
X144337714Y-78869487D02*
X144337714Y-77869487D01*
X144337714Y-77869487D02*
X144718666Y-77869487D01*
X144718666Y-77869487D02*
X144813904Y-77917106D01*
X144813904Y-77917106D02*
X144861523Y-77964725D01*
X144861523Y-77964725D02*
X144909142Y-78059963D01*
X144909142Y-78059963D02*
X144909142Y-78202820D01*
X144909142Y-78202820D02*
X144861523Y-78298058D01*
X144861523Y-78298058D02*
X144813904Y-78345677D01*
X144813904Y-78345677D02*
X144718666Y-78393296D01*
X144718666Y-78393296D02*
X144337714Y-78393296D01*
X145290095Y-77964725D02*
X145337714Y-77917106D01*
X145337714Y-77917106D02*
X145432952Y-77869487D01*
X145432952Y-77869487D02*
X145671047Y-77869487D01*
X145671047Y-77869487D02*
X145766285Y-77917106D01*
X145766285Y-77917106D02*
X145813904Y-77964725D01*
X145813904Y-77964725D02*
X145861523Y-78059963D01*
X145861523Y-78059963D02*
X145861523Y-78155201D01*
X145861523Y-78155201D02*
X145813904Y-78298058D01*
X145813904Y-78298058D02*
X145242476Y-78869487D01*
X145242476Y-78869487D02*
X145861523Y-78869487D01*
X146242476Y-77964725D02*
X146290095Y-77917106D01*
X146290095Y-77917106D02*
X146385333Y-77869487D01*
X146385333Y-77869487D02*
X146623428Y-77869487D01*
X146623428Y-77869487D02*
X146718666Y-77917106D01*
X146718666Y-77917106D02*
X146766285Y-77964725D01*
X146766285Y-77964725D02*
X146813904Y-78059963D01*
X146813904Y-78059963D02*
X146813904Y-78155201D01*
X146813904Y-78155201D02*
X146766285Y-78298058D01*
X146766285Y-78298058D02*
X146194857Y-78869487D01*
X146194857Y-78869487D02*
X146813904Y-78869487D01*
X111262095Y-68894819D02*
X111262095Y-69704342D01*
X111262095Y-69704342D02*
X111309714Y-69799580D01*
X111309714Y-69799580D02*
X111357333Y-69847200D01*
X111357333Y-69847200D02*
X111452571Y-69894819D01*
X111452571Y-69894819D02*
X111643047Y-69894819D01*
X111643047Y-69894819D02*
X111738285Y-69847200D01*
X111738285Y-69847200D02*
X111785904Y-69799580D01*
X111785904Y-69799580D02*
X111833523Y-69704342D01*
X111833523Y-69704342D02*
X111833523Y-68894819D01*
X112738285Y-69228152D02*
X112738285Y-69894819D01*
X112500190Y-68847200D02*
X112262095Y-69561485D01*
X112262095Y-69561485D02*
X112881142Y-69561485D01*
X160657142Y-67259580D02*
X160609523Y-67307200D01*
X160609523Y-67307200D02*
X160466666Y-67354819D01*
X160466666Y-67354819D02*
X160371428Y-67354819D01*
X160371428Y-67354819D02*
X160228571Y-67307200D01*
X160228571Y-67307200D02*
X160133333Y-67211961D01*
X160133333Y-67211961D02*
X160085714Y-67116723D01*
X160085714Y-67116723D02*
X160038095Y-66926247D01*
X160038095Y-66926247D02*
X160038095Y-66783390D01*
X160038095Y-66783390D02*
X160085714Y-66592914D01*
X160085714Y-66592914D02*
X160133333Y-66497676D01*
X160133333Y-66497676D02*
X160228571Y-66402438D01*
X160228571Y-66402438D02*
X160371428Y-66354819D01*
X160371428Y-66354819D02*
X160466666Y-66354819D01*
X160466666Y-66354819D02*
X160609523Y-66402438D01*
X160609523Y-66402438D02*
X160657142Y-66450057D01*
X161514285Y-66688152D02*
X161514285Y-67354819D01*
X161276190Y-66307200D02*
X161038095Y-67021485D01*
X161038095Y-67021485D02*
X161657142Y-67021485D01*
X161990476Y-66450057D02*
X162038095Y-66402438D01*
X162038095Y-66402438D02*
X162133333Y-66354819D01*
X162133333Y-66354819D02*
X162371428Y-66354819D01*
X162371428Y-66354819D02*
X162466666Y-66402438D01*
X162466666Y-66402438D02*
X162514285Y-66450057D01*
X162514285Y-66450057D02*
X162561904Y-66545295D01*
X162561904Y-66545295D02*
X162561904Y-66640533D01*
X162561904Y-66640533D02*
X162514285Y-66783390D01*
X162514285Y-66783390D02*
X161942857Y-67354819D01*
X161942857Y-67354819D02*
X162561904Y-67354819D01*
X158156761Y-80658057D02*
X158061523Y-80610438D01*
X158061523Y-80610438D02*
X157966285Y-80515200D01*
X157966285Y-80515200D02*
X157823428Y-80372342D01*
X157823428Y-80372342D02*
X157728190Y-80324723D01*
X157728190Y-80324723D02*
X157632952Y-80324723D01*
X157680571Y-80562819D02*
X157585333Y-80515200D01*
X157585333Y-80515200D02*
X157490095Y-80419961D01*
X157490095Y-80419961D02*
X157442476Y-80229485D01*
X157442476Y-80229485D02*
X157442476Y-79896152D01*
X157442476Y-79896152D02*
X157490095Y-79705676D01*
X157490095Y-79705676D02*
X157585333Y-79610438D01*
X157585333Y-79610438D02*
X157680571Y-79562819D01*
X157680571Y-79562819D02*
X157871047Y-79562819D01*
X157871047Y-79562819D02*
X157966285Y-79610438D01*
X157966285Y-79610438D02*
X158061523Y-79705676D01*
X158061523Y-79705676D02*
X158109142Y-79896152D01*
X158109142Y-79896152D02*
X158109142Y-80229485D01*
X158109142Y-80229485D02*
X158061523Y-80419961D01*
X158061523Y-80419961D02*
X157966285Y-80515200D01*
X157966285Y-80515200D02*
X157871047Y-80562819D01*
X157871047Y-80562819D02*
X157680571Y-80562819D01*
X158966285Y-79896152D02*
X158966285Y-80562819D01*
X158728190Y-79515200D02*
X158490095Y-80229485D01*
X158490095Y-80229485D02*
X159109142Y-80229485D01*
X134735580Y-103610857D02*
X134783200Y-103658476D01*
X134783200Y-103658476D02*
X134830819Y-103801333D01*
X134830819Y-103801333D02*
X134830819Y-103896571D01*
X134830819Y-103896571D02*
X134783200Y-104039428D01*
X134783200Y-104039428D02*
X134687961Y-104134666D01*
X134687961Y-104134666D02*
X134592723Y-104182285D01*
X134592723Y-104182285D02*
X134402247Y-104229904D01*
X134402247Y-104229904D02*
X134259390Y-104229904D01*
X134259390Y-104229904D02*
X134068914Y-104182285D01*
X134068914Y-104182285D02*
X133973676Y-104134666D01*
X133973676Y-104134666D02*
X133878438Y-104039428D01*
X133878438Y-104039428D02*
X133830819Y-103896571D01*
X133830819Y-103896571D02*
X133830819Y-103801333D01*
X133830819Y-103801333D02*
X133878438Y-103658476D01*
X133878438Y-103658476D02*
X133926057Y-103610857D01*
X134164152Y-102753714D02*
X134830819Y-102753714D01*
X133783200Y-102991809D02*
X134497485Y-103229904D01*
X134497485Y-103229904D02*
X134497485Y-102610857D01*
X134164152Y-101801333D02*
X134830819Y-101801333D01*
X133783200Y-102039428D02*
X134497485Y-102277523D01*
X134497485Y-102277523D02*
X134497485Y-101658476D01*
X132717142Y-90373580D02*
X132669523Y-90421200D01*
X132669523Y-90421200D02*
X132526666Y-90468819D01*
X132526666Y-90468819D02*
X132431428Y-90468819D01*
X132431428Y-90468819D02*
X132288571Y-90421200D01*
X132288571Y-90421200D02*
X132193333Y-90325961D01*
X132193333Y-90325961D02*
X132145714Y-90230723D01*
X132145714Y-90230723D02*
X132098095Y-90040247D01*
X132098095Y-90040247D02*
X132098095Y-89897390D01*
X132098095Y-89897390D02*
X132145714Y-89706914D01*
X132145714Y-89706914D02*
X132193333Y-89611676D01*
X132193333Y-89611676D02*
X132288571Y-89516438D01*
X132288571Y-89516438D02*
X132431428Y-89468819D01*
X132431428Y-89468819D02*
X132526666Y-89468819D01*
X132526666Y-89468819D02*
X132669523Y-89516438D01*
X132669523Y-89516438D02*
X132717142Y-89564057D01*
X133098095Y-89564057D02*
X133145714Y-89516438D01*
X133145714Y-89516438D02*
X133240952Y-89468819D01*
X133240952Y-89468819D02*
X133479047Y-89468819D01*
X133479047Y-89468819D02*
X133574285Y-89516438D01*
X133574285Y-89516438D02*
X133621904Y-89564057D01*
X133621904Y-89564057D02*
X133669523Y-89659295D01*
X133669523Y-89659295D02*
X133669523Y-89754533D01*
X133669523Y-89754533D02*
X133621904Y-89897390D01*
X133621904Y-89897390D02*
X133050476Y-90468819D01*
X133050476Y-90468819D02*
X133669523Y-90468819D01*
X134621904Y-90468819D02*
X134050476Y-90468819D01*
X134336190Y-90468819D02*
X134336190Y-89468819D01*
X134336190Y-89468819D02*
X134240952Y-89611676D01*
X134240952Y-89611676D02*
X134145714Y-89706914D01*
X134145714Y-89706914D02*
X134050476Y-89754533D01*
X110889095Y-75752819D02*
X111460523Y-75752819D01*
X111174809Y-76752819D02*
X111174809Y-75752819D01*
X111793857Y-76752819D02*
X111793857Y-75752819D01*
X111793857Y-75752819D02*
X112174809Y-75752819D01*
X112174809Y-75752819D02*
X112270047Y-75800438D01*
X112270047Y-75800438D02*
X112317666Y-75848057D01*
X112317666Y-75848057D02*
X112365285Y-75943295D01*
X112365285Y-75943295D02*
X112365285Y-76086152D01*
X112365285Y-76086152D02*
X112317666Y-76181390D01*
X112317666Y-76181390D02*
X112270047Y-76229009D01*
X112270047Y-76229009D02*
X112174809Y-76276628D01*
X112174809Y-76276628D02*
X111793857Y-76276628D01*
X112698619Y-75752819D02*
X113317666Y-75752819D01*
X113317666Y-75752819D02*
X112984333Y-76133771D01*
X112984333Y-76133771D02*
X113127190Y-76133771D01*
X113127190Y-76133771D02*
X113222428Y-76181390D01*
X113222428Y-76181390D02*
X113270047Y-76229009D01*
X113270047Y-76229009D02*
X113317666Y-76324247D01*
X113317666Y-76324247D02*
X113317666Y-76562342D01*
X113317666Y-76562342D02*
X113270047Y-76657580D01*
X113270047Y-76657580D02*
X113222428Y-76705200D01*
X113222428Y-76705200D02*
X113127190Y-76752819D01*
X113127190Y-76752819D02*
X112841476Y-76752819D01*
X112841476Y-76752819D02*
X112746238Y-76705200D01*
X112746238Y-76705200D02*
X112698619Y-76657580D01*
X147461866Y-67259580D02*
X147414247Y-67307200D01*
X147414247Y-67307200D02*
X147271390Y-67354819D01*
X147271390Y-67354819D02*
X147176152Y-67354819D01*
X147176152Y-67354819D02*
X147033295Y-67307200D01*
X147033295Y-67307200D02*
X146938057Y-67211961D01*
X146938057Y-67211961D02*
X146890438Y-67116723D01*
X146890438Y-67116723D02*
X146842819Y-66926247D01*
X146842819Y-66926247D02*
X146842819Y-66783390D01*
X146842819Y-66783390D02*
X146890438Y-66592914D01*
X146890438Y-66592914D02*
X146938057Y-66497676D01*
X146938057Y-66497676D02*
X147033295Y-66402438D01*
X147033295Y-66402438D02*
X147176152Y-66354819D01*
X147176152Y-66354819D02*
X147271390Y-66354819D01*
X147271390Y-66354819D02*
X147414247Y-66402438D01*
X147414247Y-66402438D02*
X147461866Y-66450057D01*
X147795200Y-66354819D02*
X148414247Y-66354819D01*
X148414247Y-66354819D02*
X148080914Y-66735771D01*
X148080914Y-66735771D02*
X148223771Y-66735771D01*
X148223771Y-66735771D02*
X148319009Y-66783390D01*
X148319009Y-66783390D02*
X148366628Y-66831009D01*
X148366628Y-66831009D02*
X148414247Y-66926247D01*
X148414247Y-66926247D02*
X148414247Y-67164342D01*
X148414247Y-67164342D02*
X148366628Y-67259580D01*
X148366628Y-67259580D02*
X148319009Y-67307200D01*
X148319009Y-67307200D02*
X148223771Y-67354819D01*
X148223771Y-67354819D02*
X147938057Y-67354819D01*
X147938057Y-67354819D02*
X147842819Y-67307200D01*
X147842819Y-67307200D02*
X147795200Y-67259580D01*
X148890438Y-67354819D02*
X149080914Y-67354819D01*
X149080914Y-67354819D02*
X149176152Y-67307200D01*
X149176152Y-67307200D02*
X149223771Y-67259580D01*
X149223771Y-67259580D02*
X149319009Y-67116723D01*
X149319009Y-67116723D02*
X149366628Y-66926247D01*
X149366628Y-66926247D02*
X149366628Y-66545295D01*
X149366628Y-66545295D02*
X149319009Y-66450057D01*
X149319009Y-66450057D02*
X149271390Y-66402438D01*
X149271390Y-66402438D02*
X149176152Y-66354819D01*
X149176152Y-66354819D02*
X148985676Y-66354819D01*
X148985676Y-66354819D02*
X148890438Y-66402438D01*
X148890438Y-66402438D02*
X148842819Y-66450057D01*
X148842819Y-66450057D02*
X148795200Y-66545295D01*
X148795200Y-66545295D02*
X148795200Y-66783390D01*
X148795200Y-66783390D02*
X148842819Y-66878628D01*
X148842819Y-66878628D02*
X148890438Y-66926247D01*
X148890438Y-66926247D02*
X148985676Y-66973866D01*
X148985676Y-66973866D02*
X149176152Y-66973866D01*
X149176152Y-66973866D02*
X149271390Y-66926247D01*
X149271390Y-66926247D02*
X149319009Y-66878628D01*
X149319009Y-66878628D02*
X149366628Y-66783390D01*
X189684761Y-104438819D02*
X189684761Y-103772152D01*
X189684761Y-103962628D02*
X189732380Y-103867390D01*
X189732380Y-103867390D02*
X189779999Y-103819771D01*
X189779999Y-103819771D02*
X189875237Y-103772152D01*
X189875237Y-103772152D02*
X189970475Y-103772152D01*
X190684761Y-104391200D02*
X190589523Y-104438819D01*
X190589523Y-104438819D02*
X190399047Y-104438819D01*
X190399047Y-104438819D02*
X190303809Y-104391200D01*
X190303809Y-104391200D02*
X190256190Y-104295961D01*
X190256190Y-104295961D02*
X190256190Y-103915009D01*
X190256190Y-103915009D02*
X190303809Y-103819771D01*
X190303809Y-103819771D02*
X190399047Y-103772152D01*
X190399047Y-103772152D02*
X190589523Y-103772152D01*
X190589523Y-103772152D02*
X190684761Y-103819771D01*
X190684761Y-103819771D02*
X190732380Y-103915009D01*
X190732380Y-103915009D02*
X190732380Y-104010247D01*
X190732380Y-104010247D02*
X190256190Y-104105485D01*
X191113333Y-104391200D02*
X191208571Y-104438819D01*
X191208571Y-104438819D02*
X191399047Y-104438819D01*
X191399047Y-104438819D02*
X191494285Y-104391200D01*
X191494285Y-104391200D02*
X191541904Y-104295961D01*
X191541904Y-104295961D02*
X191541904Y-104248342D01*
X191541904Y-104248342D02*
X191494285Y-104153104D01*
X191494285Y-104153104D02*
X191399047Y-104105485D01*
X191399047Y-104105485D02*
X191256190Y-104105485D01*
X191256190Y-104105485D02*
X191160952Y-104057866D01*
X191160952Y-104057866D02*
X191113333Y-103962628D01*
X191113333Y-103962628D02*
X191113333Y-103915009D01*
X191113333Y-103915009D02*
X191160952Y-103819771D01*
X191160952Y-103819771D02*
X191256190Y-103772152D01*
X191256190Y-103772152D02*
X191399047Y-103772152D01*
X191399047Y-103772152D02*
X191494285Y-103819771D01*
X192351428Y-104391200D02*
X192256190Y-104438819D01*
X192256190Y-104438819D02*
X192065714Y-104438819D01*
X192065714Y-104438819D02*
X191970476Y-104391200D01*
X191970476Y-104391200D02*
X191922857Y-104295961D01*
X191922857Y-104295961D02*
X191922857Y-103915009D01*
X191922857Y-103915009D02*
X191970476Y-103819771D01*
X191970476Y-103819771D02*
X192065714Y-103772152D01*
X192065714Y-103772152D02*
X192256190Y-103772152D01*
X192256190Y-103772152D02*
X192351428Y-103819771D01*
X192351428Y-103819771D02*
X192399047Y-103915009D01*
X192399047Y-103915009D02*
X192399047Y-104010247D01*
X192399047Y-104010247D02*
X191922857Y-104105485D01*
X192684762Y-103772152D02*
X193065714Y-103772152D01*
X192827619Y-103438819D02*
X192827619Y-104295961D01*
X192827619Y-104295961D02*
X192875238Y-104391200D01*
X192875238Y-104391200D02*
X192970476Y-104438819D01*
X192970476Y-104438819D02*
X193065714Y-104438819D01*
X193922857Y-104438819D02*
X193351429Y-104438819D01*
X193637143Y-104438819D02*
X193637143Y-103438819D01*
X193637143Y-103438819D02*
X193541905Y-103581676D01*
X193541905Y-103581676D02*
X193446667Y-103676914D01*
X193446667Y-103676914D02*
X193351429Y-103724533D01*
X126081333Y-70910819D02*
X125748000Y-70434628D01*
X125509905Y-70910819D02*
X125509905Y-69910819D01*
X125509905Y-69910819D02*
X125890857Y-69910819D01*
X125890857Y-69910819D02*
X125986095Y-69958438D01*
X125986095Y-69958438D02*
X126033714Y-70006057D01*
X126033714Y-70006057D02*
X126081333Y-70101295D01*
X126081333Y-70101295D02*
X126081333Y-70244152D01*
X126081333Y-70244152D02*
X126033714Y-70339390D01*
X126033714Y-70339390D02*
X125986095Y-70387009D01*
X125986095Y-70387009D02*
X125890857Y-70434628D01*
X125890857Y-70434628D02*
X125509905Y-70434628D01*
X126652762Y-70339390D02*
X126557524Y-70291771D01*
X126557524Y-70291771D02*
X126509905Y-70244152D01*
X126509905Y-70244152D02*
X126462286Y-70148914D01*
X126462286Y-70148914D02*
X126462286Y-70101295D01*
X126462286Y-70101295D02*
X126509905Y-70006057D01*
X126509905Y-70006057D02*
X126557524Y-69958438D01*
X126557524Y-69958438D02*
X126652762Y-69910819D01*
X126652762Y-69910819D02*
X126843238Y-69910819D01*
X126843238Y-69910819D02*
X126938476Y-69958438D01*
X126938476Y-69958438D02*
X126986095Y-70006057D01*
X126986095Y-70006057D02*
X127033714Y-70101295D01*
X127033714Y-70101295D02*
X127033714Y-70148914D01*
X127033714Y-70148914D02*
X126986095Y-70244152D01*
X126986095Y-70244152D02*
X126938476Y-70291771D01*
X126938476Y-70291771D02*
X126843238Y-70339390D01*
X126843238Y-70339390D02*
X126652762Y-70339390D01*
X126652762Y-70339390D02*
X126557524Y-70387009D01*
X126557524Y-70387009D02*
X126509905Y-70434628D01*
X126509905Y-70434628D02*
X126462286Y-70529866D01*
X126462286Y-70529866D02*
X126462286Y-70720342D01*
X126462286Y-70720342D02*
X126509905Y-70815580D01*
X126509905Y-70815580D02*
X126557524Y-70863200D01*
X126557524Y-70863200D02*
X126652762Y-70910819D01*
X126652762Y-70910819D02*
X126843238Y-70910819D01*
X126843238Y-70910819D02*
X126938476Y-70863200D01*
X126938476Y-70863200D02*
X126986095Y-70815580D01*
X126986095Y-70815580D02*
X127033714Y-70720342D01*
X127033714Y-70720342D02*
X127033714Y-70529866D01*
X127033714Y-70529866D02*
X126986095Y-70434628D01*
X126986095Y-70434628D02*
X126938476Y-70387009D01*
X126938476Y-70387009D02*
X126843238Y-70339390D01*
X154535694Y-67259580D02*
X154488075Y-67307200D01*
X154488075Y-67307200D02*
X154345218Y-67354819D01*
X154345218Y-67354819D02*
X154249980Y-67354819D01*
X154249980Y-67354819D02*
X154107123Y-67307200D01*
X154107123Y-67307200D02*
X154011885Y-67211961D01*
X154011885Y-67211961D02*
X153964266Y-67116723D01*
X153964266Y-67116723D02*
X153916647Y-66926247D01*
X153916647Y-66926247D02*
X153916647Y-66783390D01*
X153916647Y-66783390D02*
X153964266Y-66592914D01*
X153964266Y-66592914D02*
X154011885Y-66497676D01*
X154011885Y-66497676D02*
X154107123Y-66402438D01*
X154107123Y-66402438D02*
X154249980Y-66354819D01*
X154249980Y-66354819D02*
X154345218Y-66354819D01*
X154345218Y-66354819D02*
X154488075Y-66402438D01*
X154488075Y-66402438D02*
X154535694Y-66450057D01*
X155392837Y-66688152D02*
X155392837Y-67354819D01*
X155154742Y-66307200D02*
X154916647Y-67021485D01*
X154916647Y-67021485D02*
X155535694Y-67021485D01*
X156440456Y-67354819D02*
X155869028Y-67354819D01*
X156154742Y-67354819D02*
X156154742Y-66354819D01*
X156154742Y-66354819D02*
X156059504Y-66497676D01*
X156059504Y-66497676D02*
X155964266Y-66592914D01*
X155964266Y-66592914D02*
X155869028Y-66640533D01*
X112452666Y-88198819D02*
X112452666Y-88913104D01*
X112452666Y-88913104D02*
X112405047Y-89055961D01*
X112405047Y-89055961D02*
X112309809Y-89151200D01*
X112309809Y-89151200D02*
X112166952Y-89198819D01*
X112166952Y-89198819D02*
X112071714Y-89198819D01*
X112881238Y-88294057D02*
X112928857Y-88246438D01*
X112928857Y-88246438D02*
X113024095Y-88198819D01*
X113024095Y-88198819D02*
X113262190Y-88198819D01*
X113262190Y-88198819D02*
X113357428Y-88246438D01*
X113357428Y-88246438D02*
X113405047Y-88294057D01*
X113405047Y-88294057D02*
X113452666Y-88389295D01*
X113452666Y-88389295D02*
X113452666Y-88484533D01*
X113452666Y-88484533D02*
X113405047Y-88627390D01*
X113405047Y-88627390D02*
X112833619Y-89198819D01*
X112833619Y-89198819D02*
X113452666Y-89198819D01*
X140813333Y-81832819D02*
X140480000Y-81356628D01*
X140241905Y-81832819D02*
X140241905Y-80832819D01*
X140241905Y-80832819D02*
X140622857Y-80832819D01*
X140622857Y-80832819D02*
X140718095Y-80880438D01*
X140718095Y-80880438D02*
X140765714Y-80928057D01*
X140765714Y-80928057D02*
X140813333Y-81023295D01*
X140813333Y-81023295D02*
X140813333Y-81166152D01*
X140813333Y-81166152D02*
X140765714Y-81261390D01*
X140765714Y-81261390D02*
X140718095Y-81309009D01*
X140718095Y-81309009D02*
X140622857Y-81356628D01*
X140622857Y-81356628D02*
X140241905Y-81356628D01*
X141670476Y-80832819D02*
X141480000Y-80832819D01*
X141480000Y-80832819D02*
X141384762Y-80880438D01*
X141384762Y-80880438D02*
X141337143Y-80928057D01*
X141337143Y-80928057D02*
X141241905Y-81070914D01*
X141241905Y-81070914D02*
X141194286Y-81261390D01*
X141194286Y-81261390D02*
X141194286Y-81642342D01*
X141194286Y-81642342D02*
X141241905Y-81737580D01*
X141241905Y-81737580D02*
X141289524Y-81785200D01*
X141289524Y-81785200D02*
X141384762Y-81832819D01*
X141384762Y-81832819D02*
X141575238Y-81832819D01*
X141575238Y-81832819D02*
X141670476Y-81785200D01*
X141670476Y-81785200D02*
X141718095Y-81737580D01*
X141718095Y-81737580D02*
X141765714Y-81642342D01*
X141765714Y-81642342D02*
X141765714Y-81404247D01*
X141765714Y-81404247D02*
X141718095Y-81309009D01*
X141718095Y-81309009D02*
X141670476Y-81261390D01*
X141670476Y-81261390D02*
X141575238Y-81213771D01*
X141575238Y-81213771D02*
X141384762Y-81213771D01*
X141384762Y-81213771D02*
X141289524Y-81261390D01*
X141289524Y-81261390D02*
X141241905Y-81309009D01*
X141241905Y-81309009D02*
X141194286Y-81404247D01*
X149012761Y-80658057D02*
X148917523Y-80610438D01*
X148917523Y-80610438D02*
X148822285Y-80515200D01*
X148822285Y-80515200D02*
X148679428Y-80372342D01*
X148679428Y-80372342D02*
X148584190Y-80324723D01*
X148584190Y-80324723D02*
X148488952Y-80324723D01*
X148536571Y-80562819D02*
X148441333Y-80515200D01*
X148441333Y-80515200D02*
X148346095Y-80419961D01*
X148346095Y-80419961D02*
X148298476Y-80229485D01*
X148298476Y-80229485D02*
X148298476Y-79896152D01*
X148298476Y-79896152D02*
X148346095Y-79705676D01*
X148346095Y-79705676D02*
X148441333Y-79610438D01*
X148441333Y-79610438D02*
X148536571Y-79562819D01*
X148536571Y-79562819D02*
X148727047Y-79562819D01*
X148727047Y-79562819D02*
X148822285Y-79610438D01*
X148822285Y-79610438D02*
X148917523Y-79705676D01*
X148917523Y-79705676D02*
X148965142Y-79896152D01*
X148965142Y-79896152D02*
X148965142Y-80229485D01*
X148965142Y-80229485D02*
X148917523Y-80419961D01*
X148917523Y-80419961D02*
X148822285Y-80515200D01*
X148822285Y-80515200D02*
X148727047Y-80562819D01*
X148727047Y-80562819D02*
X148536571Y-80562819D01*
X149298476Y-79562819D02*
X149917523Y-79562819D01*
X149917523Y-79562819D02*
X149584190Y-79943771D01*
X149584190Y-79943771D02*
X149727047Y-79943771D01*
X149727047Y-79943771D02*
X149822285Y-79991390D01*
X149822285Y-79991390D02*
X149869904Y-80039009D01*
X149869904Y-80039009D02*
X149917523Y-80134247D01*
X149917523Y-80134247D02*
X149917523Y-80372342D01*
X149917523Y-80372342D02*
X149869904Y-80467580D01*
X149869904Y-80467580D02*
X149822285Y-80515200D01*
X149822285Y-80515200D02*
X149727047Y-80562819D01*
X149727047Y-80562819D02*
X149441333Y-80562819D01*
X149441333Y-80562819D02*
X149346095Y-80515200D01*
X149346095Y-80515200D02*
X149298476Y-80467580D01*
X127010095Y-83626819D02*
X127010095Y-84436342D01*
X127010095Y-84436342D02*
X127057714Y-84531580D01*
X127057714Y-84531580D02*
X127105333Y-84579200D01*
X127105333Y-84579200D02*
X127200571Y-84626819D01*
X127200571Y-84626819D02*
X127391047Y-84626819D01*
X127391047Y-84626819D02*
X127486285Y-84579200D01*
X127486285Y-84579200D02*
X127533904Y-84531580D01*
X127533904Y-84531580D02*
X127581523Y-84436342D01*
X127581523Y-84436342D02*
X127581523Y-83626819D01*
X128010095Y-83722057D02*
X128057714Y-83674438D01*
X128057714Y-83674438D02*
X128152952Y-83626819D01*
X128152952Y-83626819D02*
X128391047Y-83626819D01*
X128391047Y-83626819D02*
X128486285Y-83674438D01*
X128486285Y-83674438D02*
X128533904Y-83722057D01*
X128533904Y-83722057D02*
X128581523Y-83817295D01*
X128581523Y-83817295D02*
X128581523Y-83912533D01*
X128581523Y-83912533D02*
X128533904Y-84055390D01*
X128533904Y-84055390D02*
X127962476Y-84626819D01*
X127962476Y-84626819D02*
X128581523Y-84626819D01*
X167007142Y-96056819D02*
X166673809Y-95580628D01*
X166435714Y-96056819D02*
X166435714Y-95056819D01*
X166435714Y-95056819D02*
X166816666Y-95056819D01*
X166816666Y-95056819D02*
X166911904Y-95104438D01*
X166911904Y-95104438D02*
X166959523Y-95152057D01*
X166959523Y-95152057D02*
X167007142Y-95247295D01*
X167007142Y-95247295D02*
X167007142Y-95390152D01*
X167007142Y-95390152D02*
X166959523Y-95485390D01*
X166959523Y-95485390D02*
X166911904Y-95533009D01*
X166911904Y-95533009D02*
X166816666Y-95580628D01*
X166816666Y-95580628D02*
X166435714Y-95580628D01*
X167340476Y-95056819D02*
X167959523Y-95056819D01*
X167959523Y-95056819D02*
X167626190Y-95437771D01*
X167626190Y-95437771D02*
X167769047Y-95437771D01*
X167769047Y-95437771D02*
X167864285Y-95485390D01*
X167864285Y-95485390D02*
X167911904Y-95533009D01*
X167911904Y-95533009D02*
X167959523Y-95628247D01*
X167959523Y-95628247D02*
X167959523Y-95866342D01*
X167959523Y-95866342D02*
X167911904Y-95961580D01*
X167911904Y-95961580D02*
X167864285Y-96009200D01*
X167864285Y-96009200D02*
X167769047Y-96056819D01*
X167769047Y-96056819D02*
X167483333Y-96056819D01*
X167483333Y-96056819D02*
X167388095Y-96009200D01*
X167388095Y-96009200D02*
X167340476Y-95961580D01*
X168816666Y-95390152D02*
X168816666Y-96056819D01*
X168578571Y-95009200D02*
X168340476Y-95723485D01*
X168340476Y-95723485D02*
X168959523Y-95723485D01*
X150998780Y-67259580D02*
X150951161Y-67307200D01*
X150951161Y-67307200D02*
X150808304Y-67354819D01*
X150808304Y-67354819D02*
X150713066Y-67354819D01*
X150713066Y-67354819D02*
X150570209Y-67307200D01*
X150570209Y-67307200D02*
X150474971Y-67211961D01*
X150474971Y-67211961D02*
X150427352Y-67116723D01*
X150427352Y-67116723D02*
X150379733Y-66926247D01*
X150379733Y-66926247D02*
X150379733Y-66783390D01*
X150379733Y-66783390D02*
X150427352Y-66592914D01*
X150427352Y-66592914D02*
X150474971Y-66497676D01*
X150474971Y-66497676D02*
X150570209Y-66402438D01*
X150570209Y-66402438D02*
X150713066Y-66354819D01*
X150713066Y-66354819D02*
X150808304Y-66354819D01*
X150808304Y-66354819D02*
X150951161Y-66402438D01*
X150951161Y-66402438D02*
X150998780Y-66450057D01*
X151855923Y-66688152D02*
X151855923Y-67354819D01*
X151617828Y-66307200D02*
X151379733Y-67021485D01*
X151379733Y-67021485D02*
X151998780Y-67021485D01*
X152570209Y-66354819D02*
X152665447Y-66354819D01*
X152665447Y-66354819D02*
X152760685Y-66402438D01*
X152760685Y-66402438D02*
X152808304Y-66450057D01*
X152808304Y-66450057D02*
X152855923Y-66545295D01*
X152855923Y-66545295D02*
X152903542Y-66735771D01*
X152903542Y-66735771D02*
X152903542Y-66973866D01*
X152903542Y-66973866D02*
X152855923Y-67164342D01*
X152855923Y-67164342D02*
X152808304Y-67259580D01*
X152808304Y-67259580D02*
X152760685Y-67307200D01*
X152760685Y-67307200D02*
X152665447Y-67354819D01*
X152665447Y-67354819D02*
X152570209Y-67354819D01*
X152570209Y-67354819D02*
X152474971Y-67307200D01*
X152474971Y-67307200D02*
X152427352Y-67259580D01*
X152427352Y-67259580D02*
X152379733Y-67164342D01*
X152379733Y-67164342D02*
X152332114Y-66973866D01*
X152332114Y-66973866D02*
X152332114Y-66735771D01*
X152332114Y-66735771D02*
X152379733Y-66545295D01*
X152379733Y-66545295D02*
X152427352Y-66450057D01*
X152427352Y-66450057D02*
X152474971Y-66402438D01*
X152474971Y-66402438D02*
X152570209Y-66354819D01*
X141257905Y-70402819D02*
X141257905Y-69402819D01*
X141257905Y-69402819D02*
X141496000Y-69402819D01*
X141496000Y-69402819D02*
X141638857Y-69450438D01*
X141638857Y-69450438D02*
X141734095Y-69545676D01*
X141734095Y-69545676D02*
X141781714Y-69640914D01*
X141781714Y-69640914D02*
X141829333Y-69831390D01*
X141829333Y-69831390D02*
X141829333Y-69974247D01*
X141829333Y-69974247D02*
X141781714Y-70164723D01*
X141781714Y-70164723D02*
X141734095Y-70259961D01*
X141734095Y-70259961D02*
X141638857Y-70355200D01*
X141638857Y-70355200D02*
X141496000Y-70402819D01*
X141496000Y-70402819D02*
X141257905Y-70402819D01*
X142734095Y-69402819D02*
X142257905Y-69402819D01*
X142257905Y-69402819D02*
X142210286Y-69879009D01*
X142210286Y-69879009D02*
X142257905Y-69831390D01*
X142257905Y-69831390D02*
X142353143Y-69783771D01*
X142353143Y-69783771D02*
X142591238Y-69783771D01*
X142591238Y-69783771D02*
X142686476Y-69831390D01*
X142686476Y-69831390D02*
X142734095Y-69879009D01*
X142734095Y-69879009D02*
X142781714Y-69974247D01*
X142781714Y-69974247D02*
X142781714Y-70212342D01*
X142781714Y-70212342D02*
X142734095Y-70307580D01*
X142734095Y-70307580D02*
X142686476Y-70355200D01*
X142686476Y-70355200D02*
X142591238Y-70402819D01*
X142591238Y-70402819D02*
X142353143Y-70402819D01*
X142353143Y-70402819D02*
X142257905Y-70355200D01*
X142257905Y-70355200D02*
X142210286Y-70307580D01*
X193677142Y-80594580D02*
X193629523Y-80642200D01*
X193629523Y-80642200D02*
X193486666Y-80689819D01*
X193486666Y-80689819D02*
X193391428Y-80689819D01*
X193391428Y-80689819D02*
X193248571Y-80642200D01*
X193248571Y-80642200D02*
X193153333Y-80546961D01*
X193153333Y-80546961D02*
X193105714Y-80451723D01*
X193105714Y-80451723D02*
X193058095Y-80261247D01*
X193058095Y-80261247D02*
X193058095Y-80118390D01*
X193058095Y-80118390D02*
X193105714Y-79927914D01*
X193105714Y-79927914D02*
X193153333Y-79832676D01*
X193153333Y-79832676D02*
X193248571Y-79737438D01*
X193248571Y-79737438D02*
X193391428Y-79689819D01*
X193391428Y-79689819D02*
X193486666Y-79689819D01*
X193486666Y-79689819D02*
X193629523Y-79737438D01*
X193629523Y-79737438D02*
X193677142Y-79785057D01*
X194534285Y-80023152D02*
X194534285Y-80689819D01*
X194296190Y-79642200D02*
X194058095Y-80356485D01*
X194058095Y-80356485D02*
X194677142Y-80356485D01*
X194962857Y-79689819D02*
X195581904Y-79689819D01*
X195581904Y-79689819D02*
X195248571Y-80070771D01*
X195248571Y-80070771D02*
X195391428Y-80070771D01*
X195391428Y-80070771D02*
X195486666Y-80118390D01*
X195486666Y-80118390D02*
X195534285Y-80166009D01*
X195534285Y-80166009D02*
X195581904Y-80261247D01*
X195581904Y-80261247D02*
X195581904Y-80499342D01*
X195581904Y-80499342D02*
X195534285Y-80594580D01*
X195534285Y-80594580D02*
X195486666Y-80642200D01*
X195486666Y-80642200D02*
X195391428Y-80689819D01*
X195391428Y-80689819D02*
X195105714Y-80689819D01*
X195105714Y-80689819D02*
X195010476Y-80642200D01*
X195010476Y-80642200D02*
X194962857Y-80594580D01*
X142955484Y-93760239D02*
X143765007Y-93760239D01*
X143765007Y-93760239D02*
X143860245Y-93712620D01*
X143860245Y-93712620D02*
X143907865Y-93665001D01*
X143907865Y-93665001D02*
X143955484Y-93569763D01*
X143955484Y-93569763D02*
X143955484Y-93379287D01*
X143955484Y-93379287D02*
X143907865Y-93284049D01*
X143907865Y-93284049D02*
X143860245Y-93236430D01*
X143860245Y-93236430D02*
X143765007Y-93188811D01*
X143765007Y-93188811D02*
X142955484Y-93188811D01*
X143955484Y-92665001D02*
X143955484Y-92474525D01*
X143955484Y-92474525D02*
X143907865Y-92379287D01*
X143907865Y-92379287D02*
X143860245Y-92331668D01*
X143860245Y-92331668D02*
X143717388Y-92236430D01*
X143717388Y-92236430D02*
X143526912Y-92188811D01*
X143526912Y-92188811D02*
X143145960Y-92188811D01*
X143145960Y-92188811D02*
X143050722Y-92236430D01*
X143050722Y-92236430D02*
X143003103Y-92284049D01*
X143003103Y-92284049D02*
X142955484Y-92379287D01*
X142955484Y-92379287D02*
X142955484Y-92569763D01*
X142955484Y-92569763D02*
X143003103Y-92665001D01*
X143003103Y-92665001D02*
X143050722Y-92712620D01*
X143050722Y-92712620D02*
X143145960Y-92760239D01*
X143145960Y-92760239D02*
X143384055Y-92760239D01*
X143384055Y-92760239D02*
X143479293Y-92712620D01*
X143479293Y-92712620D02*
X143526912Y-92665001D01*
X143526912Y-92665001D02*
X143574531Y-92569763D01*
X143574531Y-92569763D02*
X143574531Y-92379287D01*
X143574531Y-92379287D02*
X143526912Y-92284049D01*
X143526912Y-92284049D02*
X143479293Y-92236430D01*
X143479293Y-92236430D02*
X143384055Y-92188811D01*
X126113142Y-74117580D02*
X126065523Y-74165200D01*
X126065523Y-74165200D02*
X125922666Y-74212819D01*
X125922666Y-74212819D02*
X125827428Y-74212819D01*
X125827428Y-74212819D02*
X125684571Y-74165200D01*
X125684571Y-74165200D02*
X125589333Y-74069961D01*
X125589333Y-74069961D02*
X125541714Y-73974723D01*
X125541714Y-73974723D02*
X125494095Y-73784247D01*
X125494095Y-73784247D02*
X125494095Y-73641390D01*
X125494095Y-73641390D02*
X125541714Y-73450914D01*
X125541714Y-73450914D02*
X125589333Y-73355676D01*
X125589333Y-73355676D02*
X125684571Y-73260438D01*
X125684571Y-73260438D02*
X125827428Y-73212819D01*
X125827428Y-73212819D02*
X125922666Y-73212819D01*
X125922666Y-73212819D02*
X126065523Y-73260438D01*
X126065523Y-73260438D02*
X126113142Y-73308057D01*
X127065523Y-74212819D02*
X126494095Y-74212819D01*
X126779809Y-74212819D02*
X126779809Y-73212819D01*
X126779809Y-73212819D02*
X126684571Y-73355676D01*
X126684571Y-73355676D02*
X126589333Y-73450914D01*
X126589333Y-73450914D02*
X126494095Y-73498533D01*
X127684571Y-73212819D02*
X127779809Y-73212819D01*
X127779809Y-73212819D02*
X127875047Y-73260438D01*
X127875047Y-73260438D02*
X127922666Y-73308057D01*
X127922666Y-73308057D02*
X127970285Y-73403295D01*
X127970285Y-73403295D02*
X128017904Y-73593771D01*
X128017904Y-73593771D02*
X128017904Y-73831866D01*
X128017904Y-73831866D02*
X127970285Y-74022342D01*
X127970285Y-74022342D02*
X127922666Y-74117580D01*
X127922666Y-74117580D02*
X127875047Y-74165200D01*
X127875047Y-74165200D02*
X127779809Y-74212819D01*
X127779809Y-74212819D02*
X127684571Y-74212819D01*
X127684571Y-74212819D02*
X127589333Y-74165200D01*
X127589333Y-74165200D02*
X127541714Y-74117580D01*
X127541714Y-74117580D02*
X127494095Y-74022342D01*
X127494095Y-74022342D02*
X127446476Y-73831866D01*
X127446476Y-73831866D02*
X127446476Y-73593771D01*
X127446476Y-73593771D02*
X127494095Y-73403295D01*
X127494095Y-73403295D02*
X127541714Y-73308057D01*
X127541714Y-73308057D02*
X127589333Y-73260438D01*
X127589333Y-73260438D02*
X127684571Y-73212819D01*
X178262666Y-104438819D02*
X178262666Y-103438819D01*
X178357904Y-104057866D02*
X178643618Y-104438819D01*
X178643618Y-103772152D02*
X178262666Y-104153104D01*
X179453142Y-104391200D02*
X179357904Y-104438819D01*
X179357904Y-104438819D02*
X179167428Y-104438819D01*
X179167428Y-104438819D02*
X179072190Y-104391200D01*
X179072190Y-104391200D02*
X179024571Y-104295961D01*
X179024571Y-104295961D02*
X179024571Y-103915009D01*
X179024571Y-103915009D02*
X179072190Y-103819771D01*
X179072190Y-103819771D02*
X179167428Y-103772152D01*
X179167428Y-103772152D02*
X179357904Y-103772152D01*
X179357904Y-103772152D02*
X179453142Y-103819771D01*
X179453142Y-103819771D02*
X179500761Y-103915009D01*
X179500761Y-103915009D02*
X179500761Y-104010247D01*
X179500761Y-104010247D02*
X179024571Y-104105485D01*
X179834095Y-103772152D02*
X180072190Y-104438819D01*
X180310285Y-103772152D02*
X180072190Y-104438819D01*
X180072190Y-104438819D02*
X179976952Y-104676914D01*
X179976952Y-104676914D02*
X179929333Y-104724533D01*
X179929333Y-104724533D02*
X179834095Y-104772152D01*
X180453143Y-104534057D02*
X181215047Y-104534057D01*
X181976952Y-104438819D02*
X181405524Y-104438819D01*
X181691238Y-104438819D02*
X181691238Y-103438819D01*
X181691238Y-103438819D02*
X181596000Y-103581676D01*
X181596000Y-103581676D02*
X181500762Y-103676914D01*
X181500762Y-103676914D02*
X181405524Y-103724533D01*
X163915142Y-78835819D02*
X163581809Y-78359628D01*
X163343714Y-78835819D02*
X163343714Y-77835819D01*
X163343714Y-77835819D02*
X163724666Y-77835819D01*
X163724666Y-77835819D02*
X163819904Y-77883438D01*
X163819904Y-77883438D02*
X163867523Y-77931057D01*
X163867523Y-77931057D02*
X163915142Y-78026295D01*
X163915142Y-78026295D02*
X163915142Y-78169152D01*
X163915142Y-78169152D02*
X163867523Y-78264390D01*
X163867523Y-78264390D02*
X163819904Y-78312009D01*
X163819904Y-78312009D02*
X163724666Y-78359628D01*
X163724666Y-78359628D02*
X163343714Y-78359628D01*
X164248476Y-77835819D02*
X164867523Y-77835819D01*
X164867523Y-77835819D02*
X164534190Y-78216771D01*
X164534190Y-78216771D02*
X164677047Y-78216771D01*
X164677047Y-78216771D02*
X164772285Y-78264390D01*
X164772285Y-78264390D02*
X164819904Y-78312009D01*
X164819904Y-78312009D02*
X164867523Y-78407247D01*
X164867523Y-78407247D02*
X164867523Y-78645342D01*
X164867523Y-78645342D02*
X164819904Y-78740580D01*
X164819904Y-78740580D02*
X164772285Y-78788200D01*
X164772285Y-78788200D02*
X164677047Y-78835819D01*
X164677047Y-78835819D02*
X164391333Y-78835819D01*
X164391333Y-78835819D02*
X164296095Y-78788200D01*
X164296095Y-78788200D02*
X164248476Y-78740580D01*
X165248476Y-77931057D02*
X165296095Y-77883438D01*
X165296095Y-77883438D02*
X165391333Y-77835819D01*
X165391333Y-77835819D02*
X165629428Y-77835819D01*
X165629428Y-77835819D02*
X165724666Y-77883438D01*
X165724666Y-77883438D02*
X165772285Y-77931057D01*
X165772285Y-77931057D02*
X165819904Y-78026295D01*
X165819904Y-78026295D02*
X165819904Y-78121533D01*
X165819904Y-78121533D02*
X165772285Y-78264390D01*
X165772285Y-78264390D02*
X165200857Y-78835819D01*
X165200857Y-78835819D02*
X165819904Y-78835819D01*
X142877142Y-81737580D02*
X142829523Y-81785200D01*
X142829523Y-81785200D02*
X142686666Y-81832819D01*
X142686666Y-81832819D02*
X142591428Y-81832819D01*
X142591428Y-81832819D02*
X142448571Y-81785200D01*
X142448571Y-81785200D02*
X142353333Y-81689961D01*
X142353333Y-81689961D02*
X142305714Y-81594723D01*
X142305714Y-81594723D02*
X142258095Y-81404247D01*
X142258095Y-81404247D02*
X142258095Y-81261390D01*
X142258095Y-81261390D02*
X142305714Y-81070914D01*
X142305714Y-81070914D02*
X142353333Y-80975676D01*
X142353333Y-80975676D02*
X142448571Y-80880438D01*
X142448571Y-80880438D02*
X142591428Y-80832819D01*
X142591428Y-80832819D02*
X142686666Y-80832819D01*
X142686666Y-80832819D02*
X142829523Y-80880438D01*
X142829523Y-80880438D02*
X142877142Y-80928057D01*
X143829523Y-81832819D02*
X143258095Y-81832819D01*
X143543809Y-81832819D02*
X143543809Y-80832819D01*
X143543809Y-80832819D02*
X143448571Y-80975676D01*
X143448571Y-80975676D02*
X143353333Y-81070914D01*
X143353333Y-81070914D02*
X143258095Y-81118533D01*
X144781904Y-81832819D02*
X144210476Y-81832819D01*
X144496190Y-81832819D02*
X144496190Y-80832819D01*
X144496190Y-80832819D02*
X144400952Y-80975676D01*
X144400952Y-80975676D02*
X144305714Y-81070914D01*
X144305714Y-81070914D02*
X144210476Y-81118533D01*
X112667095Y-73593819D02*
X113238523Y-73593819D01*
X112952809Y-74593819D02*
X112952809Y-73593819D01*
X113571857Y-74593819D02*
X113571857Y-73593819D01*
X113571857Y-73593819D02*
X113952809Y-73593819D01*
X113952809Y-73593819D02*
X114048047Y-73641438D01*
X114048047Y-73641438D02*
X114095666Y-73689057D01*
X114095666Y-73689057D02*
X114143285Y-73784295D01*
X114143285Y-73784295D02*
X114143285Y-73927152D01*
X114143285Y-73927152D02*
X114095666Y-74022390D01*
X114095666Y-74022390D02*
X114048047Y-74070009D01*
X114048047Y-74070009D02*
X113952809Y-74117628D01*
X113952809Y-74117628D02*
X113571857Y-74117628D01*
X114524238Y-73689057D02*
X114571857Y-73641438D01*
X114571857Y-73641438D02*
X114667095Y-73593819D01*
X114667095Y-73593819D02*
X114905190Y-73593819D01*
X114905190Y-73593819D02*
X115000428Y-73641438D01*
X115000428Y-73641438D02*
X115048047Y-73689057D01*
X115048047Y-73689057D02*
X115095666Y-73784295D01*
X115095666Y-73784295D02*
X115095666Y-73879533D01*
X115095666Y-73879533D02*
X115048047Y-74022390D01*
X115048047Y-74022390D02*
X114476619Y-74593819D01*
X114476619Y-74593819D02*
X115095666Y-74593819D01*
X125486095Y-68386819D02*
X125486095Y-69196342D01*
X125486095Y-69196342D02*
X125533714Y-69291580D01*
X125533714Y-69291580D02*
X125581333Y-69339200D01*
X125581333Y-69339200D02*
X125676571Y-69386819D01*
X125676571Y-69386819D02*
X125867047Y-69386819D01*
X125867047Y-69386819D02*
X125962285Y-69339200D01*
X125962285Y-69339200D02*
X126009904Y-69291580D01*
X126009904Y-69291580D02*
X126057523Y-69196342D01*
X126057523Y-69196342D02*
X126057523Y-68386819D01*
X126962285Y-68386819D02*
X126771809Y-68386819D01*
X126771809Y-68386819D02*
X126676571Y-68434438D01*
X126676571Y-68434438D02*
X126628952Y-68482057D01*
X126628952Y-68482057D02*
X126533714Y-68624914D01*
X126533714Y-68624914D02*
X126486095Y-68815390D01*
X126486095Y-68815390D02*
X126486095Y-69196342D01*
X126486095Y-69196342D02*
X126533714Y-69291580D01*
X126533714Y-69291580D02*
X126581333Y-69339200D01*
X126581333Y-69339200D02*
X126676571Y-69386819D01*
X126676571Y-69386819D02*
X126867047Y-69386819D01*
X126867047Y-69386819D02*
X126962285Y-69339200D01*
X126962285Y-69339200D02*
X127009904Y-69291580D01*
X127009904Y-69291580D02*
X127057523Y-69196342D01*
X127057523Y-69196342D02*
X127057523Y-68958247D01*
X127057523Y-68958247D02*
X127009904Y-68863009D01*
X127009904Y-68863009D02*
X126962285Y-68815390D01*
X126962285Y-68815390D02*
X126867047Y-68767771D01*
X126867047Y-68767771D02*
X126676571Y-68767771D01*
X126676571Y-68767771D02*
X126581333Y-68815390D01*
X126581333Y-68815390D02*
X126533714Y-68863009D01*
X126533714Y-68863009D02*
X126486095Y-68958247D01*
X167808761Y-80404057D02*
X167713523Y-80356438D01*
X167713523Y-80356438D02*
X167618285Y-80261200D01*
X167618285Y-80261200D02*
X167475428Y-80118342D01*
X167475428Y-80118342D02*
X167380190Y-80070723D01*
X167380190Y-80070723D02*
X167284952Y-80070723D01*
X167332571Y-80308819D02*
X167237333Y-80261200D01*
X167237333Y-80261200D02*
X167142095Y-80165961D01*
X167142095Y-80165961D02*
X167094476Y-79975485D01*
X167094476Y-79975485D02*
X167094476Y-79642152D01*
X167094476Y-79642152D02*
X167142095Y-79451676D01*
X167142095Y-79451676D02*
X167237333Y-79356438D01*
X167237333Y-79356438D02*
X167332571Y-79308819D01*
X167332571Y-79308819D02*
X167523047Y-79308819D01*
X167523047Y-79308819D02*
X167618285Y-79356438D01*
X167618285Y-79356438D02*
X167713523Y-79451676D01*
X167713523Y-79451676D02*
X167761142Y-79642152D01*
X167761142Y-79642152D02*
X167761142Y-79975485D01*
X167761142Y-79975485D02*
X167713523Y-80165961D01*
X167713523Y-80165961D02*
X167618285Y-80261200D01*
X167618285Y-80261200D02*
X167523047Y-80308819D01*
X167523047Y-80308819D02*
X167332571Y-80308819D01*
X168618285Y-79308819D02*
X168427809Y-79308819D01*
X168427809Y-79308819D02*
X168332571Y-79356438D01*
X168332571Y-79356438D02*
X168284952Y-79404057D01*
X168284952Y-79404057D02*
X168189714Y-79546914D01*
X168189714Y-79546914D02*
X168142095Y-79737390D01*
X168142095Y-79737390D02*
X168142095Y-80118342D01*
X168142095Y-80118342D02*
X168189714Y-80213580D01*
X168189714Y-80213580D02*
X168237333Y-80261200D01*
X168237333Y-80261200D02*
X168332571Y-80308819D01*
X168332571Y-80308819D02*
X168523047Y-80308819D01*
X168523047Y-80308819D02*
X168618285Y-80261200D01*
X168618285Y-80261200D02*
X168665904Y-80213580D01*
X168665904Y-80213580D02*
X168713523Y-80118342D01*
X168713523Y-80118342D02*
X168713523Y-79880247D01*
X168713523Y-79880247D02*
X168665904Y-79785009D01*
X168665904Y-79785009D02*
X168618285Y-79737390D01*
X168618285Y-79737390D02*
X168523047Y-79689771D01*
X168523047Y-79689771D02*
X168332571Y-79689771D01*
X168332571Y-79689771D02*
X168237333Y-79737390D01*
X168237333Y-79737390D02*
X168189714Y-79785009D01*
X168189714Y-79785009D02*
X168142095Y-79880247D01*
X129021376Y-62511636D02*
X128973757Y-62559256D01*
X128973757Y-62559256D02*
X128830900Y-62606875D01*
X128830900Y-62606875D02*
X128735662Y-62606875D01*
X128735662Y-62606875D02*
X128592805Y-62559256D01*
X128592805Y-62559256D02*
X128497567Y-62464017D01*
X128497567Y-62464017D02*
X128449948Y-62368779D01*
X128449948Y-62368779D02*
X128402329Y-62178303D01*
X128402329Y-62178303D02*
X128402329Y-62035446D01*
X128402329Y-62035446D02*
X128449948Y-61844970D01*
X128449948Y-61844970D02*
X128497567Y-61749732D01*
X128497567Y-61749732D02*
X128592805Y-61654494D01*
X128592805Y-61654494D02*
X128735662Y-61606875D01*
X128735662Y-61606875D02*
X128830900Y-61606875D01*
X128830900Y-61606875D02*
X128973757Y-61654494D01*
X128973757Y-61654494D02*
X129021376Y-61702113D01*
X129973757Y-62606875D02*
X129402329Y-62606875D01*
X129688043Y-62606875D02*
X129688043Y-61606875D01*
X129688043Y-61606875D02*
X129592805Y-61749732D01*
X129592805Y-61749732D02*
X129497567Y-61844970D01*
X129497567Y-61844970D02*
X129402329Y-61892589D01*
X130830900Y-61940208D02*
X130830900Y-62606875D01*
X130592805Y-61559256D02*
X130354710Y-62273541D01*
X130354710Y-62273541D02*
X130973757Y-62273541D01*
X144877333Y-67259580D02*
X144829714Y-67307200D01*
X144829714Y-67307200D02*
X144686857Y-67354819D01*
X144686857Y-67354819D02*
X144591619Y-67354819D01*
X144591619Y-67354819D02*
X144448762Y-67307200D01*
X144448762Y-67307200D02*
X144353524Y-67211961D01*
X144353524Y-67211961D02*
X144305905Y-67116723D01*
X144305905Y-67116723D02*
X144258286Y-66926247D01*
X144258286Y-66926247D02*
X144258286Y-66783390D01*
X144258286Y-66783390D02*
X144305905Y-66592914D01*
X144305905Y-66592914D02*
X144353524Y-66497676D01*
X144353524Y-66497676D02*
X144448762Y-66402438D01*
X144448762Y-66402438D02*
X144591619Y-66354819D01*
X144591619Y-66354819D02*
X144686857Y-66354819D01*
X144686857Y-66354819D02*
X144829714Y-66402438D01*
X144829714Y-66402438D02*
X144877333Y-66450057D01*
X145734476Y-66688152D02*
X145734476Y-67354819D01*
X145496381Y-66307200D02*
X145258286Y-67021485D01*
X145258286Y-67021485D02*
X145877333Y-67021485D01*
X163959142Y-80562819D02*
X163625809Y-80086628D01*
X163387714Y-80562819D02*
X163387714Y-79562819D01*
X163387714Y-79562819D02*
X163768666Y-79562819D01*
X163768666Y-79562819D02*
X163863904Y-79610438D01*
X163863904Y-79610438D02*
X163911523Y-79658057D01*
X163911523Y-79658057D02*
X163959142Y-79753295D01*
X163959142Y-79753295D02*
X163959142Y-79896152D01*
X163959142Y-79896152D02*
X163911523Y-79991390D01*
X163911523Y-79991390D02*
X163863904Y-80039009D01*
X163863904Y-80039009D02*
X163768666Y-80086628D01*
X163768666Y-80086628D02*
X163387714Y-80086628D01*
X164292476Y-79562819D02*
X164911523Y-79562819D01*
X164911523Y-79562819D02*
X164578190Y-79943771D01*
X164578190Y-79943771D02*
X164721047Y-79943771D01*
X164721047Y-79943771D02*
X164816285Y-79991390D01*
X164816285Y-79991390D02*
X164863904Y-80039009D01*
X164863904Y-80039009D02*
X164911523Y-80134247D01*
X164911523Y-80134247D02*
X164911523Y-80372342D01*
X164911523Y-80372342D02*
X164863904Y-80467580D01*
X164863904Y-80467580D02*
X164816285Y-80515200D01*
X164816285Y-80515200D02*
X164721047Y-80562819D01*
X164721047Y-80562819D02*
X164435333Y-80562819D01*
X164435333Y-80562819D02*
X164340095Y-80515200D01*
X164340095Y-80515200D02*
X164292476Y-80467580D01*
X165244857Y-79562819D02*
X165863904Y-79562819D01*
X165863904Y-79562819D02*
X165530571Y-79943771D01*
X165530571Y-79943771D02*
X165673428Y-79943771D01*
X165673428Y-79943771D02*
X165768666Y-79991390D01*
X165768666Y-79991390D02*
X165816285Y-80039009D01*
X165816285Y-80039009D02*
X165863904Y-80134247D01*
X165863904Y-80134247D02*
X165863904Y-80372342D01*
X165863904Y-80372342D02*
X165816285Y-80467580D01*
X165816285Y-80467580D02*
X165768666Y-80515200D01*
X165768666Y-80515200D02*
X165673428Y-80562819D01*
X165673428Y-80562819D02*
X165387714Y-80562819D01*
X165387714Y-80562819D02*
X165292476Y-80515200D01*
X165292476Y-80515200D02*
X165244857Y-80467580D01*
X108372761Y-69990057D02*
X108277523Y-69942438D01*
X108277523Y-69942438D02*
X108182285Y-69847200D01*
X108182285Y-69847200D02*
X108039428Y-69704342D01*
X108039428Y-69704342D02*
X107944190Y-69656723D01*
X107944190Y-69656723D02*
X107848952Y-69656723D01*
X107896571Y-69894819D02*
X107801333Y-69847200D01*
X107801333Y-69847200D02*
X107706095Y-69751961D01*
X107706095Y-69751961D02*
X107658476Y-69561485D01*
X107658476Y-69561485D02*
X107658476Y-69228152D01*
X107658476Y-69228152D02*
X107706095Y-69037676D01*
X107706095Y-69037676D02*
X107801333Y-68942438D01*
X107801333Y-68942438D02*
X107896571Y-68894819D01*
X107896571Y-68894819D02*
X108087047Y-68894819D01*
X108087047Y-68894819D02*
X108182285Y-68942438D01*
X108182285Y-68942438D02*
X108277523Y-69037676D01*
X108277523Y-69037676D02*
X108325142Y-69228152D01*
X108325142Y-69228152D02*
X108325142Y-69561485D01*
X108325142Y-69561485D02*
X108277523Y-69751961D01*
X108277523Y-69751961D02*
X108182285Y-69847200D01*
X108182285Y-69847200D02*
X108087047Y-69894819D01*
X108087047Y-69894819D02*
X107896571Y-69894819D01*
X109277523Y-69894819D02*
X108706095Y-69894819D01*
X108991809Y-69894819D02*
X108991809Y-68894819D01*
X108991809Y-68894819D02*
X108896571Y-69037676D01*
X108896571Y-69037676D02*
X108801333Y-69132914D01*
X108801333Y-69132914D02*
X108706095Y-69180533D01*
X157781776Y-95802819D02*
X157448443Y-95326628D01*
X157210348Y-95802819D02*
X157210348Y-94802819D01*
X157210348Y-94802819D02*
X157591300Y-94802819D01*
X157591300Y-94802819D02*
X157686538Y-94850438D01*
X157686538Y-94850438D02*
X157734157Y-94898057D01*
X157734157Y-94898057D02*
X157781776Y-94993295D01*
X157781776Y-94993295D02*
X157781776Y-95136152D01*
X157781776Y-95136152D02*
X157734157Y-95231390D01*
X157734157Y-95231390D02*
X157686538Y-95279009D01*
X157686538Y-95279009D02*
X157591300Y-95326628D01*
X157591300Y-95326628D02*
X157210348Y-95326628D01*
X158162729Y-94898057D02*
X158210348Y-94850438D01*
X158210348Y-94850438D02*
X158305586Y-94802819D01*
X158305586Y-94802819D02*
X158543681Y-94802819D01*
X158543681Y-94802819D02*
X158638919Y-94850438D01*
X158638919Y-94850438D02*
X158686538Y-94898057D01*
X158686538Y-94898057D02*
X158734157Y-94993295D01*
X158734157Y-94993295D02*
X158734157Y-95088533D01*
X158734157Y-95088533D02*
X158686538Y-95231390D01*
X158686538Y-95231390D02*
X158115110Y-95802819D01*
X158115110Y-95802819D02*
X158734157Y-95802819D01*
X159305586Y-95231390D02*
X159210348Y-95183771D01*
X159210348Y-95183771D02*
X159162729Y-95136152D01*
X159162729Y-95136152D02*
X159115110Y-95040914D01*
X159115110Y-95040914D02*
X159115110Y-94993295D01*
X159115110Y-94993295D02*
X159162729Y-94898057D01*
X159162729Y-94898057D02*
X159210348Y-94850438D01*
X159210348Y-94850438D02*
X159305586Y-94802819D01*
X159305586Y-94802819D02*
X159496062Y-94802819D01*
X159496062Y-94802819D02*
X159591300Y-94850438D01*
X159591300Y-94850438D02*
X159638919Y-94898057D01*
X159638919Y-94898057D02*
X159686538Y-94993295D01*
X159686538Y-94993295D02*
X159686538Y-95040914D01*
X159686538Y-95040914D02*
X159638919Y-95136152D01*
X159638919Y-95136152D02*
X159591300Y-95183771D01*
X159591300Y-95183771D02*
X159496062Y-95231390D01*
X159496062Y-95231390D02*
X159305586Y-95231390D01*
X159305586Y-95231390D02*
X159210348Y-95279009D01*
X159210348Y-95279009D02*
X159162729Y-95326628D01*
X159162729Y-95326628D02*
X159115110Y-95421866D01*
X159115110Y-95421866D02*
X159115110Y-95612342D01*
X159115110Y-95612342D02*
X159162729Y-95707580D01*
X159162729Y-95707580D02*
X159210348Y-95755200D01*
X159210348Y-95755200D02*
X159305586Y-95802819D01*
X159305586Y-95802819D02*
X159496062Y-95802819D01*
X159496062Y-95802819D02*
X159591300Y-95755200D01*
X159591300Y-95755200D02*
X159638919Y-95707580D01*
X159638919Y-95707580D02*
X159686538Y-95612342D01*
X159686538Y-95612342D02*
X159686538Y-95421866D01*
X159686538Y-95421866D02*
X159638919Y-95326628D01*
X159638919Y-95326628D02*
X159591300Y-95279009D01*
X159591300Y-95279009D02*
X159496062Y-95231390D01*
X139964095Y-72450819D02*
X139964095Y-73260342D01*
X139964095Y-73260342D02*
X140011714Y-73355580D01*
X140011714Y-73355580D02*
X140059333Y-73403200D01*
X140059333Y-73403200D02*
X140154571Y-73450819D01*
X140154571Y-73450819D02*
X140345047Y-73450819D01*
X140345047Y-73450819D02*
X140440285Y-73403200D01*
X140440285Y-73403200D02*
X140487904Y-73355580D01*
X140487904Y-73355580D02*
X140535523Y-73260342D01*
X140535523Y-73260342D02*
X140535523Y-72450819D01*
X141487904Y-72450819D02*
X141011714Y-72450819D01*
X141011714Y-72450819D02*
X140964095Y-72927009D01*
X140964095Y-72927009D02*
X141011714Y-72879390D01*
X141011714Y-72879390D02*
X141106952Y-72831771D01*
X141106952Y-72831771D02*
X141345047Y-72831771D01*
X141345047Y-72831771D02*
X141440285Y-72879390D01*
X141440285Y-72879390D02*
X141487904Y-72927009D01*
X141487904Y-72927009D02*
X141535523Y-73022247D01*
X141535523Y-73022247D02*
X141535523Y-73260342D01*
X141535523Y-73260342D02*
X141487904Y-73355580D01*
X141487904Y-73355580D02*
X141440285Y-73403200D01*
X141440285Y-73403200D02*
X141345047Y-73450819D01*
X141345047Y-73450819D02*
X141106952Y-73450819D01*
X141106952Y-73450819D02*
X141011714Y-73403200D01*
X141011714Y-73403200D02*
X140964095Y-73355580D01*
X149012761Y-78964725D02*
X148917523Y-78917106D01*
X148917523Y-78917106D02*
X148822285Y-78821868D01*
X148822285Y-78821868D02*
X148679428Y-78679010D01*
X148679428Y-78679010D02*
X148584190Y-78631391D01*
X148584190Y-78631391D02*
X148488952Y-78631391D01*
X148536571Y-78869487D02*
X148441333Y-78821868D01*
X148441333Y-78821868D02*
X148346095Y-78726629D01*
X148346095Y-78726629D02*
X148298476Y-78536153D01*
X148298476Y-78536153D02*
X148298476Y-78202820D01*
X148298476Y-78202820D02*
X148346095Y-78012344D01*
X148346095Y-78012344D02*
X148441333Y-77917106D01*
X148441333Y-77917106D02*
X148536571Y-77869487D01*
X148536571Y-77869487D02*
X148727047Y-77869487D01*
X148727047Y-77869487D02*
X148822285Y-77917106D01*
X148822285Y-77917106D02*
X148917523Y-78012344D01*
X148917523Y-78012344D02*
X148965142Y-78202820D01*
X148965142Y-78202820D02*
X148965142Y-78536153D01*
X148965142Y-78536153D02*
X148917523Y-78726629D01*
X148917523Y-78726629D02*
X148822285Y-78821868D01*
X148822285Y-78821868D02*
X148727047Y-78869487D01*
X148727047Y-78869487D02*
X148536571Y-78869487D01*
X149536571Y-78298058D02*
X149441333Y-78250439D01*
X149441333Y-78250439D02*
X149393714Y-78202820D01*
X149393714Y-78202820D02*
X149346095Y-78107582D01*
X149346095Y-78107582D02*
X149346095Y-78059963D01*
X149346095Y-78059963D02*
X149393714Y-77964725D01*
X149393714Y-77964725D02*
X149441333Y-77917106D01*
X149441333Y-77917106D02*
X149536571Y-77869487D01*
X149536571Y-77869487D02*
X149727047Y-77869487D01*
X149727047Y-77869487D02*
X149822285Y-77917106D01*
X149822285Y-77917106D02*
X149869904Y-77964725D01*
X149869904Y-77964725D02*
X149917523Y-78059963D01*
X149917523Y-78059963D02*
X149917523Y-78107582D01*
X149917523Y-78107582D02*
X149869904Y-78202820D01*
X149869904Y-78202820D02*
X149822285Y-78250439D01*
X149822285Y-78250439D02*
X149727047Y-78298058D01*
X149727047Y-78298058D02*
X149536571Y-78298058D01*
X149536571Y-78298058D02*
X149441333Y-78345677D01*
X149441333Y-78345677D02*
X149393714Y-78393296D01*
X149393714Y-78393296D02*
X149346095Y-78488534D01*
X149346095Y-78488534D02*
X149346095Y-78679010D01*
X149346095Y-78679010D02*
X149393714Y-78774248D01*
X149393714Y-78774248D02*
X149441333Y-78821868D01*
X149441333Y-78821868D02*
X149536571Y-78869487D01*
X149536571Y-78869487D02*
X149727047Y-78869487D01*
X149727047Y-78869487D02*
X149822285Y-78821868D01*
X149822285Y-78821868D02*
X149869904Y-78774248D01*
X149869904Y-78774248D02*
X149917523Y-78679010D01*
X149917523Y-78679010D02*
X149917523Y-78488534D01*
X149917523Y-78488534D02*
X149869904Y-78393296D01*
X149869904Y-78393296D02*
X149822285Y-78345677D01*
X149822285Y-78345677D02*
X149727047Y-78298058D01*
X132264666Y-105682819D02*
X132264666Y-106397104D01*
X132264666Y-106397104D02*
X132217047Y-106539961D01*
X132217047Y-106539961D02*
X132121809Y-106635200D01*
X132121809Y-106635200D02*
X131978952Y-106682819D01*
X131978952Y-106682819D02*
X131883714Y-106682819D01*
X133169428Y-106016152D02*
X133169428Y-106682819D01*
X132931333Y-105635200D02*
X132693238Y-106349485D01*
X132693238Y-106349485D02*
X133312285Y-106349485D01*
X154053142Y-80562819D02*
X153719809Y-80086628D01*
X153481714Y-80562819D02*
X153481714Y-79562819D01*
X153481714Y-79562819D02*
X153862666Y-79562819D01*
X153862666Y-79562819D02*
X153957904Y-79610438D01*
X153957904Y-79610438D02*
X154005523Y-79658057D01*
X154005523Y-79658057D02*
X154053142Y-79753295D01*
X154053142Y-79753295D02*
X154053142Y-79896152D01*
X154053142Y-79896152D02*
X154005523Y-79991390D01*
X154005523Y-79991390D02*
X153957904Y-80039009D01*
X153957904Y-80039009D02*
X153862666Y-80086628D01*
X153862666Y-80086628D02*
X153481714Y-80086628D01*
X154434095Y-79658057D02*
X154481714Y-79610438D01*
X154481714Y-79610438D02*
X154576952Y-79562819D01*
X154576952Y-79562819D02*
X154815047Y-79562819D01*
X154815047Y-79562819D02*
X154910285Y-79610438D01*
X154910285Y-79610438D02*
X154957904Y-79658057D01*
X154957904Y-79658057D02*
X155005523Y-79753295D01*
X155005523Y-79753295D02*
X155005523Y-79848533D01*
X155005523Y-79848533D02*
X154957904Y-79991390D01*
X154957904Y-79991390D02*
X154386476Y-80562819D01*
X154386476Y-80562819D02*
X155005523Y-80562819D01*
X155338857Y-79562819D02*
X156005523Y-79562819D01*
X156005523Y-79562819D02*
X155576952Y-80562819D01*
X125240095Y-64322819D02*
X125811523Y-64322819D01*
X125525809Y-65322819D02*
X125525809Y-64322819D01*
X126144857Y-65322819D02*
X126144857Y-64322819D01*
X126144857Y-64322819D02*
X126525809Y-64322819D01*
X126525809Y-64322819D02*
X126621047Y-64370438D01*
X126621047Y-64370438D02*
X126668666Y-64418057D01*
X126668666Y-64418057D02*
X126716285Y-64513295D01*
X126716285Y-64513295D02*
X126716285Y-64656152D01*
X126716285Y-64656152D02*
X126668666Y-64751390D01*
X126668666Y-64751390D02*
X126621047Y-64799009D01*
X126621047Y-64799009D02*
X126525809Y-64846628D01*
X126525809Y-64846628D02*
X126144857Y-64846628D01*
X127668666Y-65322819D02*
X127097238Y-65322819D01*
X127382952Y-65322819D02*
X127382952Y-64322819D01*
X127382952Y-64322819D02*
X127287714Y-64465676D01*
X127287714Y-64465676D02*
X127192476Y-64560914D01*
X127192476Y-64560914D02*
X127097238Y-64608533D01*
X157998095Y-96580819D02*
X157998095Y-97390342D01*
X157998095Y-97390342D02*
X158045714Y-97485580D01*
X158045714Y-97485580D02*
X158093333Y-97533200D01*
X158093333Y-97533200D02*
X158188571Y-97580819D01*
X158188571Y-97580819D02*
X158379047Y-97580819D01*
X158379047Y-97580819D02*
X158474285Y-97533200D01*
X158474285Y-97533200D02*
X158521904Y-97485580D01*
X158521904Y-97485580D02*
X158569523Y-97390342D01*
X158569523Y-97390342D02*
X158569523Y-96580819D01*
X158950476Y-96580819D02*
X159569523Y-96580819D01*
X159569523Y-96580819D02*
X159236190Y-96961771D01*
X159236190Y-96961771D02*
X159379047Y-96961771D01*
X159379047Y-96961771D02*
X159474285Y-97009390D01*
X159474285Y-97009390D02*
X159521904Y-97057009D01*
X159521904Y-97057009D02*
X159569523Y-97152247D01*
X159569523Y-97152247D02*
X159569523Y-97390342D01*
X159569523Y-97390342D02*
X159521904Y-97485580D01*
X159521904Y-97485580D02*
X159474285Y-97533200D01*
X159474285Y-97533200D02*
X159379047Y-97580819D01*
X159379047Y-97580819D02*
X159093333Y-97580819D01*
X159093333Y-97580819D02*
X158998095Y-97533200D01*
X158998095Y-97533200D02*
X158950476Y-97485580D01*
X154053142Y-78869487D02*
X153719809Y-78393296D01*
X153481714Y-78869487D02*
X153481714Y-77869487D01*
X153481714Y-77869487D02*
X153862666Y-77869487D01*
X153862666Y-77869487D02*
X153957904Y-77917106D01*
X153957904Y-77917106D02*
X154005523Y-77964725D01*
X154005523Y-77964725D02*
X154053142Y-78059963D01*
X154053142Y-78059963D02*
X154053142Y-78202820D01*
X154053142Y-78202820D02*
X154005523Y-78298058D01*
X154005523Y-78298058D02*
X153957904Y-78345677D01*
X153957904Y-78345677D02*
X153862666Y-78393296D01*
X153862666Y-78393296D02*
X153481714Y-78393296D01*
X154434095Y-77964725D02*
X154481714Y-77917106D01*
X154481714Y-77917106D02*
X154576952Y-77869487D01*
X154576952Y-77869487D02*
X154815047Y-77869487D01*
X154815047Y-77869487D02*
X154910285Y-77917106D01*
X154910285Y-77917106D02*
X154957904Y-77964725D01*
X154957904Y-77964725D02*
X155005523Y-78059963D01*
X155005523Y-78059963D02*
X155005523Y-78155201D01*
X155005523Y-78155201D02*
X154957904Y-78298058D01*
X154957904Y-78298058D02*
X154386476Y-78869487D01*
X154386476Y-78869487D02*
X155005523Y-78869487D01*
X155862666Y-77869487D02*
X155672190Y-77869487D01*
X155672190Y-77869487D02*
X155576952Y-77917106D01*
X155576952Y-77917106D02*
X155529333Y-77964725D01*
X155529333Y-77964725D02*
X155434095Y-78107582D01*
X155434095Y-78107582D02*
X155386476Y-78298058D01*
X155386476Y-78298058D02*
X155386476Y-78679010D01*
X155386476Y-78679010D02*
X155434095Y-78774248D01*
X155434095Y-78774248D02*
X155481714Y-78821868D01*
X155481714Y-78821868D02*
X155576952Y-78869487D01*
X155576952Y-78869487D02*
X155767428Y-78869487D01*
X155767428Y-78869487D02*
X155862666Y-78821868D01*
X155862666Y-78821868D02*
X155910285Y-78774248D01*
X155910285Y-78774248D02*
X155957904Y-78679010D01*
X155957904Y-78679010D02*
X155957904Y-78440915D01*
X155957904Y-78440915D02*
X155910285Y-78345677D01*
X155910285Y-78345677D02*
X155862666Y-78298058D01*
X155862666Y-78298058D02*
X155767428Y-78250439D01*
X155767428Y-78250439D02*
X155576952Y-78250439D01*
X155576952Y-78250439D02*
X155481714Y-78298058D01*
X155481714Y-78298058D02*
X155434095Y-78345677D01*
X155434095Y-78345677D02*
X155386476Y-78440915D01*
X132971142Y-92913580D02*
X132923523Y-92961200D01*
X132923523Y-92961200D02*
X132780666Y-93008819D01*
X132780666Y-93008819D02*
X132685428Y-93008819D01*
X132685428Y-93008819D02*
X132542571Y-92961200D01*
X132542571Y-92961200D02*
X132447333Y-92865961D01*
X132447333Y-92865961D02*
X132399714Y-92770723D01*
X132399714Y-92770723D02*
X132352095Y-92580247D01*
X132352095Y-92580247D02*
X132352095Y-92437390D01*
X132352095Y-92437390D02*
X132399714Y-92246914D01*
X132399714Y-92246914D02*
X132447333Y-92151676D01*
X132447333Y-92151676D02*
X132542571Y-92056438D01*
X132542571Y-92056438D02*
X132685428Y-92008819D01*
X132685428Y-92008819D02*
X132780666Y-92008819D01*
X132780666Y-92008819D02*
X132923523Y-92056438D01*
X132923523Y-92056438D02*
X132971142Y-92104057D01*
X133352095Y-92104057D02*
X133399714Y-92056438D01*
X133399714Y-92056438D02*
X133494952Y-92008819D01*
X133494952Y-92008819D02*
X133733047Y-92008819D01*
X133733047Y-92008819D02*
X133828285Y-92056438D01*
X133828285Y-92056438D02*
X133875904Y-92104057D01*
X133875904Y-92104057D02*
X133923523Y-92199295D01*
X133923523Y-92199295D02*
X133923523Y-92294533D01*
X133923523Y-92294533D02*
X133875904Y-92437390D01*
X133875904Y-92437390D02*
X133304476Y-93008819D01*
X133304476Y-93008819D02*
X133923523Y-93008819D01*
X134542571Y-92008819D02*
X134637809Y-92008819D01*
X134637809Y-92008819D02*
X134733047Y-92056438D01*
X134733047Y-92056438D02*
X134780666Y-92104057D01*
X134780666Y-92104057D02*
X134828285Y-92199295D01*
X134828285Y-92199295D02*
X134875904Y-92389771D01*
X134875904Y-92389771D02*
X134875904Y-92627866D01*
X134875904Y-92627866D02*
X134828285Y-92818342D01*
X134828285Y-92818342D02*
X134780666Y-92913580D01*
X134780666Y-92913580D02*
X134733047Y-92961200D01*
X134733047Y-92961200D02*
X134637809Y-93008819D01*
X134637809Y-93008819D02*
X134542571Y-93008819D01*
X134542571Y-93008819D02*
X134447333Y-92961200D01*
X134447333Y-92961200D02*
X134399714Y-92913580D01*
X134399714Y-92913580D02*
X134352095Y-92818342D01*
X134352095Y-92818342D02*
X134304476Y-92627866D01*
X134304476Y-92627866D02*
X134304476Y-92389771D01*
X134304476Y-92389771D02*
X134352095Y-92199295D01*
X134352095Y-92199295D02*
X134399714Y-92104057D01*
X134399714Y-92104057D02*
X134447333Y-92056438D01*
X134447333Y-92056438D02*
X134542571Y-92008819D01*
X174966666Y-67448819D02*
X174966666Y-68163104D01*
X174966666Y-68163104D02*
X174919047Y-68305961D01*
X174919047Y-68305961D02*
X174823809Y-68401200D01*
X174823809Y-68401200D02*
X174680952Y-68448819D01*
X174680952Y-68448819D02*
X174585714Y-68448819D01*
X175919047Y-67448819D02*
X175442857Y-67448819D01*
X175442857Y-67448819D02*
X175395238Y-67925009D01*
X175395238Y-67925009D02*
X175442857Y-67877390D01*
X175442857Y-67877390D02*
X175538095Y-67829771D01*
X175538095Y-67829771D02*
X175776190Y-67829771D01*
X175776190Y-67829771D02*
X175871428Y-67877390D01*
X175871428Y-67877390D02*
X175919047Y-67925009D01*
X175919047Y-67925009D02*
X175966666Y-68020247D01*
X175966666Y-68020247D02*
X175966666Y-68258342D01*
X175966666Y-68258342D02*
X175919047Y-68353580D01*
X175919047Y-68353580D02*
X175871428Y-68401200D01*
X175871428Y-68401200D02*
X175776190Y-68448819D01*
X175776190Y-68448819D02*
X175538095Y-68448819D01*
X175538095Y-68448819D02*
X175442857Y-68401200D01*
X175442857Y-68401200D02*
X175395238Y-68353580D01*
X146657476Y-104178819D02*
X146657476Y-104893104D01*
X146657476Y-104893104D02*
X146609857Y-105035961D01*
X146609857Y-105035961D02*
X146514619Y-105131200D01*
X146514619Y-105131200D02*
X146371762Y-105178819D01*
X146371762Y-105178819D02*
X146276524Y-105178819D01*
X147562238Y-104178819D02*
X147371762Y-104178819D01*
X147371762Y-104178819D02*
X147276524Y-104226438D01*
X147276524Y-104226438D02*
X147228905Y-104274057D01*
X147228905Y-104274057D02*
X147133667Y-104416914D01*
X147133667Y-104416914D02*
X147086048Y-104607390D01*
X147086048Y-104607390D02*
X147086048Y-104988342D01*
X147086048Y-104988342D02*
X147133667Y-105083580D01*
X147133667Y-105083580D02*
X147181286Y-105131200D01*
X147181286Y-105131200D02*
X147276524Y-105178819D01*
X147276524Y-105178819D02*
X147467000Y-105178819D01*
X147467000Y-105178819D02*
X147562238Y-105131200D01*
X147562238Y-105131200D02*
X147609857Y-105083580D01*
X147609857Y-105083580D02*
X147657476Y-104988342D01*
X147657476Y-104988342D02*
X147657476Y-104750247D01*
X147657476Y-104750247D02*
X147609857Y-104655009D01*
X147609857Y-104655009D02*
X147562238Y-104607390D01*
X147562238Y-104607390D02*
X147467000Y-104559771D01*
X147467000Y-104559771D02*
X147276524Y-104559771D01*
X147276524Y-104559771D02*
X147181286Y-104607390D01*
X147181286Y-104607390D02*
X147133667Y-104655009D01*
X147133667Y-104655009D02*
X147086048Y-104750247D01*
X128226819Y-82370094D02*
X127226819Y-82370094D01*
X127226819Y-82370094D02*
X127226819Y-82131999D01*
X127226819Y-82131999D02*
X127274438Y-81989142D01*
X127274438Y-81989142D02*
X127369676Y-81893904D01*
X127369676Y-81893904D02*
X127464914Y-81846285D01*
X127464914Y-81846285D02*
X127655390Y-81798666D01*
X127655390Y-81798666D02*
X127798247Y-81798666D01*
X127798247Y-81798666D02*
X127988723Y-81846285D01*
X127988723Y-81846285D02*
X128083961Y-81893904D01*
X128083961Y-81893904D02*
X128179200Y-81989142D01*
X128179200Y-81989142D02*
X128226819Y-82131999D01*
X128226819Y-82131999D02*
X128226819Y-82370094D01*
X127226819Y-81465332D02*
X127226819Y-80798666D01*
X127226819Y-80798666D02*
X128226819Y-81227237D01*
X165624819Y-63423333D02*
X166339104Y-63423333D01*
X166339104Y-63423333D02*
X166481961Y-63470952D01*
X166481961Y-63470952D02*
X166577200Y-63566190D01*
X166577200Y-63566190D02*
X166624819Y-63709047D01*
X166624819Y-63709047D02*
X166624819Y-63804285D01*
X166624819Y-62423333D02*
X166624819Y-62994761D01*
X166624819Y-62709047D02*
X165624819Y-62709047D01*
X165624819Y-62709047D02*
X165767676Y-62804285D01*
X165767676Y-62804285D02*
X165862914Y-62899523D01*
X165862914Y-62899523D02*
X165910533Y-62994761D01*
X187208095Y-79689819D02*
X187208095Y-80499342D01*
X187208095Y-80499342D02*
X187255714Y-80594580D01*
X187255714Y-80594580D02*
X187303333Y-80642200D01*
X187303333Y-80642200D02*
X187398571Y-80689819D01*
X187398571Y-80689819D02*
X187589047Y-80689819D01*
X187589047Y-80689819D02*
X187684285Y-80642200D01*
X187684285Y-80642200D02*
X187731904Y-80594580D01*
X187731904Y-80594580D02*
X187779523Y-80499342D01*
X187779523Y-80499342D02*
X187779523Y-79689819D01*
X188398571Y-80118390D02*
X188303333Y-80070771D01*
X188303333Y-80070771D02*
X188255714Y-80023152D01*
X188255714Y-80023152D02*
X188208095Y-79927914D01*
X188208095Y-79927914D02*
X188208095Y-79880295D01*
X188208095Y-79880295D02*
X188255714Y-79785057D01*
X188255714Y-79785057D02*
X188303333Y-79737438D01*
X188303333Y-79737438D02*
X188398571Y-79689819D01*
X188398571Y-79689819D02*
X188589047Y-79689819D01*
X188589047Y-79689819D02*
X188684285Y-79737438D01*
X188684285Y-79737438D02*
X188731904Y-79785057D01*
X188731904Y-79785057D02*
X188779523Y-79880295D01*
X188779523Y-79880295D02*
X188779523Y-79927914D01*
X188779523Y-79927914D02*
X188731904Y-80023152D01*
X188731904Y-80023152D02*
X188684285Y-80070771D01*
X188684285Y-80070771D02*
X188589047Y-80118390D01*
X188589047Y-80118390D02*
X188398571Y-80118390D01*
X188398571Y-80118390D02*
X188303333Y-80166009D01*
X188303333Y-80166009D02*
X188255714Y-80213628D01*
X188255714Y-80213628D02*
X188208095Y-80308866D01*
X188208095Y-80308866D02*
X188208095Y-80499342D01*
X188208095Y-80499342D02*
X188255714Y-80594580D01*
X188255714Y-80594580D02*
X188303333Y-80642200D01*
X188303333Y-80642200D02*
X188398571Y-80689819D01*
X188398571Y-80689819D02*
X188589047Y-80689819D01*
X188589047Y-80689819D02*
X188684285Y-80642200D01*
X188684285Y-80642200D02*
X188731904Y-80594580D01*
X188731904Y-80594580D02*
X188779523Y-80499342D01*
X188779523Y-80499342D02*
X188779523Y-80308866D01*
X188779523Y-80308866D02*
X188731904Y-80213628D01*
X188731904Y-80213628D02*
X188684285Y-80166009D01*
X188684285Y-80166009D02*
X188589047Y-80118390D01*
X132629809Y-91262628D02*
X132629809Y-91738819D01*
X132296476Y-90738819D02*
X132629809Y-91262628D01*
X132629809Y-91262628D02*
X132963142Y-90738819D01*
X133820285Y-91738819D02*
X133248857Y-91738819D01*
X133534571Y-91738819D02*
X133534571Y-90738819D01*
X133534571Y-90738819D02*
X133439333Y-90881676D01*
X133439333Y-90881676D02*
X133344095Y-90976914D01*
X133344095Y-90976914D02*
X133248857Y-91024533D01*
X145163142Y-80562819D02*
X144829809Y-80086628D01*
X144591714Y-80562819D02*
X144591714Y-79562819D01*
X144591714Y-79562819D02*
X144972666Y-79562819D01*
X144972666Y-79562819D02*
X145067904Y-79610438D01*
X145067904Y-79610438D02*
X145115523Y-79658057D01*
X145115523Y-79658057D02*
X145163142Y-79753295D01*
X145163142Y-79753295D02*
X145163142Y-79896152D01*
X145163142Y-79896152D02*
X145115523Y-79991390D01*
X145115523Y-79991390D02*
X145067904Y-80039009D01*
X145067904Y-80039009D02*
X144972666Y-80086628D01*
X144972666Y-80086628D02*
X144591714Y-80086628D01*
X145544095Y-79658057D02*
X145591714Y-79610438D01*
X145591714Y-79610438D02*
X145686952Y-79562819D01*
X145686952Y-79562819D02*
X145925047Y-79562819D01*
X145925047Y-79562819D02*
X146020285Y-79610438D01*
X146020285Y-79610438D02*
X146067904Y-79658057D01*
X146067904Y-79658057D02*
X146115523Y-79753295D01*
X146115523Y-79753295D02*
X146115523Y-79848533D01*
X146115523Y-79848533D02*
X146067904Y-79991390D01*
X146067904Y-79991390D02*
X145496476Y-80562819D01*
X145496476Y-80562819D02*
X146115523Y-80562819D01*
X147067904Y-80562819D02*
X146496476Y-80562819D01*
X146782190Y-80562819D02*
X146782190Y-79562819D01*
X146782190Y-79562819D02*
X146686952Y-79705676D01*
X146686952Y-79705676D02*
X146591714Y-79800914D01*
X146591714Y-79800914D02*
X146496476Y-79848533D01*
X126113142Y-77419580D02*
X126065523Y-77467200D01*
X126065523Y-77467200D02*
X125922666Y-77514819D01*
X125922666Y-77514819D02*
X125827428Y-77514819D01*
X125827428Y-77514819D02*
X125684571Y-77467200D01*
X125684571Y-77467200D02*
X125589333Y-77371961D01*
X125589333Y-77371961D02*
X125541714Y-77276723D01*
X125541714Y-77276723D02*
X125494095Y-77086247D01*
X125494095Y-77086247D02*
X125494095Y-76943390D01*
X125494095Y-76943390D02*
X125541714Y-76752914D01*
X125541714Y-76752914D02*
X125589333Y-76657676D01*
X125589333Y-76657676D02*
X125684571Y-76562438D01*
X125684571Y-76562438D02*
X125827428Y-76514819D01*
X125827428Y-76514819D02*
X125922666Y-76514819D01*
X125922666Y-76514819D02*
X126065523Y-76562438D01*
X126065523Y-76562438D02*
X126113142Y-76610057D01*
X126446476Y-76514819D02*
X127113142Y-76514819D01*
X127113142Y-76514819D02*
X126684571Y-77514819D01*
X141829333Y-62274819D02*
X141353143Y-62274819D01*
X141353143Y-62274819D02*
X141353143Y-61274819D01*
X142686476Y-62274819D02*
X142115048Y-62274819D01*
X142400762Y-62274819D02*
X142400762Y-61274819D01*
X142400762Y-61274819D02*
X142305524Y-61417676D01*
X142305524Y-61417676D02*
X142210286Y-61512914D01*
X142210286Y-61512914D02*
X142115048Y-61560533D01*
X148465142Y-95802819D02*
X148131809Y-95326628D01*
X147893714Y-95802819D02*
X147893714Y-94802819D01*
X147893714Y-94802819D02*
X148274666Y-94802819D01*
X148274666Y-94802819D02*
X148369904Y-94850438D01*
X148369904Y-94850438D02*
X148417523Y-94898057D01*
X148417523Y-94898057D02*
X148465142Y-94993295D01*
X148465142Y-94993295D02*
X148465142Y-95136152D01*
X148465142Y-95136152D02*
X148417523Y-95231390D01*
X148417523Y-95231390D02*
X148369904Y-95279009D01*
X148369904Y-95279009D02*
X148274666Y-95326628D01*
X148274666Y-95326628D02*
X147893714Y-95326628D01*
X148846095Y-94898057D02*
X148893714Y-94850438D01*
X148893714Y-94850438D02*
X148988952Y-94802819D01*
X148988952Y-94802819D02*
X149227047Y-94802819D01*
X149227047Y-94802819D02*
X149322285Y-94850438D01*
X149322285Y-94850438D02*
X149369904Y-94898057D01*
X149369904Y-94898057D02*
X149417523Y-94993295D01*
X149417523Y-94993295D02*
X149417523Y-95088533D01*
X149417523Y-95088533D02*
X149369904Y-95231390D01*
X149369904Y-95231390D02*
X148798476Y-95802819D01*
X148798476Y-95802819D02*
X149417523Y-95802819D01*
X149750857Y-94802819D02*
X150369904Y-94802819D01*
X150369904Y-94802819D02*
X150036571Y-95183771D01*
X150036571Y-95183771D02*
X150179428Y-95183771D01*
X150179428Y-95183771D02*
X150274666Y-95231390D01*
X150274666Y-95231390D02*
X150322285Y-95279009D01*
X150322285Y-95279009D02*
X150369904Y-95374247D01*
X150369904Y-95374247D02*
X150369904Y-95612342D01*
X150369904Y-95612342D02*
X150322285Y-95707580D01*
X150322285Y-95707580D02*
X150274666Y-95755200D01*
X150274666Y-95755200D02*
X150179428Y-95802819D01*
X150179428Y-95802819D02*
X149893714Y-95802819D01*
X149893714Y-95802819D02*
X149798476Y-95755200D01*
X149798476Y-95755200D02*
X149750857Y-95707580D01*
X126113142Y-72561819D02*
X125779809Y-72085628D01*
X125541714Y-72561819D02*
X125541714Y-71561819D01*
X125541714Y-71561819D02*
X125922666Y-71561819D01*
X125922666Y-71561819D02*
X126017904Y-71609438D01*
X126017904Y-71609438D02*
X126065523Y-71657057D01*
X126065523Y-71657057D02*
X126113142Y-71752295D01*
X126113142Y-71752295D02*
X126113142Y-71895152D01*
X126113142Y-71895152D02*
X126065523Y-71990390D01*
X126065523Y-71990390D02*
X126017904Y-72038009D01*
X126017904Y-72038009D02*
X125922666Y-72085628D01*
X125922666Y-72085628D02*
X125541714Y-72085628D01*
X126589333Y-72561819D02*
X126779809Y-72561819D01*
X126779809Y-72561819D02*
X126875047Y-72514200D01*
X126875047Y-72514200D02*
X126922666Y-72466580D01*
X126922666Y-72466580D02*
X127017904Y-72323723D01*
X127017904Y-72323723D02*
X127065523Y-72133247D01*
X127065523Y-72133247D02*
X127065523Y-71752295D01*
X127065523Y-71752295D02*
X127017904Y-71657057D01*
X127017904Y-71657057D02*
X126970285Y-71609438D01*
X126970285Y-71609438D02*
X126875047Y-71561819D01*
X126875047Y-71561819D02*
X126684571Y-71561819D01*
X126684571Y-71561819D02*
X126589333Y-71609438D01*
X126589333Y-71609438D02*
X126541714Y-71657057D01*
X126541714Y-71657057D02*
X126494095Y-71752295D01*
X126494095Y-71752295D02*
X126494095Y-71990390D01*
X126494095Y-71990390D02*
X126541714Y-72085628D01*
X126541714Y-72085628D02*
X126589333Y-72133247D01*
X126589333Y-72133247D02*
X126684571Y-72180866D01*
X126684571Y-72180866D02*
X126875047Y-72180866D01*
X126875047Y-72180866D02*
X126970285Y-72133247D01*
X126970285Y-72133247D02*
X127017904Y-72085628D01*
X127017904Y-72085628D02*
X127065523Y-71990390D01*
X158072608Y-67259580D02*
X158024989Y-67307200D01*
X158024989Y-67307200D02*
X157882132Y-67354819D01*
X157882132Y-67354819D02*
X157786894Y-67354819D01*
X157786894Y-67354819D02*
X157644037Y-67307200D01*
X157644037Y-67307200D02*
X157548799Y-67211961D01*
X157548799Y-67211961D02*
X157501180Y-67116723D01*
X157501180Y-67116723D02*
X157453561Y-66926247D01*
X157453561Y-66926247D02*
X157453561Y-66783390D01*
X157453561Y-66783390D02*
X157501180Y-66592914D01*
X157501180Y-66592914D02*
X157548799Y-66497676D01*
X157548799Y-66497676D02*
X157644037Y-66402438D01*
X157644037Y-66402438D02*
X157786894Y-66354819D01*
X157786894Y-66354819D02*
X157882132Y-66354819D01*
X157882132Y-66354819D02*
X158024989Y-66402438D01*
X158024989Y-66402438D02*
X158072608Y-66450057D01*
X158405942Y-66354819D02*
X159024989Y-66354819D01*
X159024989Y-66354819D02*
X158691656Y-66735771D01*
X158691656Y-66735771D02*
X158834513Y-66735771D01*
X158834513Y-66735771D02*
X158929751Y-66783390D01*
X158929751Y-66783390D02*
X158977370Y-66831009D01*
X158977370Y-66831009D02*
X159024989Y-66926247D01*
X159024989Y-66926247D02*
X159024989Y-67164342D01*
X159024989Y-67164342D02*
X158977370Y-67259580D01*
X158977370Y-67259580D02*
X158929751Y-67307200D01*
X158929751Y-67307200D02*
X158834513Y-67354819D01*
X158834513Y-67354819D02*
X158548799Y-67354819D01*
X158548799Y-67354819D02*
X158453561Y-67307200D01*
X158453561Y-67307200D02*
X158405942Y-67259580D01*
X158156761Y-78964725D02*
X158061523Y-78917106D01*
X158061523Y-78917106D02*
X157966285Y-78821868D01*
X157966285Y-78821868D02*
X157823428Y-78679010D01*
X157823428Y-78679010D02*
X157728190Y-78631391D01*
X157728190Y-78631391D02*
X157632952Y-78631391D01*
X157680571Y-78869487D02*
X157585333Y-78821868D01*
X157585333Y-78821868D02*
X157490095Y-78726629D01*
X157490095Y-78726629D02*
X157442476Y-78536153D01*
X157442476Y-78536153D02*
X157442476Y-78202820D01*
X157442476Y-78202820D02*
X157490095Y-78012344D01*
X157490095Y-78012344D02*
X157585333Y-77917106D01*
X157585333Y-77917106D02*
X157680571Y-77869487D01*
X157680571Y-77869487D02*
X157871047Y-77869487D01*
X157871047Y-77869487D02*
X157966285Y-77917106D01*
X157966285Y-77917106D02*
X158061523Y-78012344D01*
X158061523Y-78012344D02*
X158109142Y-78202820D01*
X158109142Y-78202820D02*
X158109142Y-78536153D01*
X158109142Y-78536153D02*
X158061523Y-78726629D01*
X158061523Y-78726629D02*
X157966285Y-78821868D01*
X157966285Y-78821868D02*
X157871047Y-78869487D01*
X157871047Y-78869487D02*
X157680571Y-78869487D01*
X158490095Y-77964725D02*
X158537714Y-77917106D01*
X158537714Y-77917106D02*
X158632952Y-77869487D01*
X158632952Y-77869487D02*
X158871047Y-77869487D01*
X158871047Y-77869487D02*
X158966285Y-77917106D01*
X158966285Y-77917106D02*
X159013904Y-77964725D01*
X159013904Y-77964725D02*
X159061523Y-78059963D01*
X159061523Y-78059963D02*
X159061523Y-78155201D01*
X159061523Y-78155201D02*
X159013904Y-78298058D01*
X159013904Y-78298058D02*
X158442476Y-78869487D01*
X158442476Y-78869487D02*
X159061523Y-78869487D01*
X131274819Y-82370094D02*
X130274819Y-82370094D01*
X130274819Y-82370094D02*
X130274819Y-82131999D01*
X130274819Y-82131999D02*
X130322438Y-81989142D01*
X130322438Y-81989142D02*
X130417676Y-81893904D01*
X130417676Y-81893904D02*
X130512914Y-81846285D01*
X130512914Y-81846285D02*
X130703390Y-81798666D01*
X130703390Y-81798666D02*
X130846247Y-81798666D01*
X130846247Y-81798666D02*
X131036723Y-81846285D01*
X131036723Y-81846285D02*
X131131961Y-81893904D01*
X131131961Y-81893904D02*
X131227200Y-81989142D01*
X131227200Y-81989142D02*
X131274819Y-82131999D01*
X131274819Y-82131999D02*
X131274819Y-82370094D01*
X130370057Y-81417713D02*
X130322438Y-81370094D01*
X130322438Y-81370094D02*
X130274819Y-81274856D01*
X130274819Y-81274856D02*
X130274819Y-81036761D01*
X130274819Y-81036761D02*
X130322438Y-80941523D01*
X130322438Y-80941523D02*
X130370057Y-80893904D01*
X130370057Y-80893904D02*
X130465295Y-80846285D01*
X130465295Y-80846285D02*
X130560533Y-80846285D01*
X130560533Y-80846285D02*
X130703390Y-80893904D01*
X130703390Y-80893904D02*
X131274819Y-81465332D01*
X131274819Y-81465332D02*
X131274819Y-80846285D01*
X167808761Y-78880057D02*
X167713523Y-78832438D01*
X167713523Y-78832438D02*
X167618285Y-78737200D01*
X167618285Y-78737200D02*
X167475428Y-78594342D01*
X167475428Y-78594342D02*
X167380190Y-78546723D01*
X167380190Y-78546723D02*
X167284952Y-78546723D01*
X167332571Y-78784819D02*
X167237333Y-78737200D01*
X167237333Y-78737200D02*
X167142095Y-78641961D01*
X167142095Y-78641961D02*
X167094476Y-78451485D01*
X167094476Y-78451485D02*
X167094476Y-78118152D01*
X167094476Y-78118152D02*
X167142095Y-77927676D01*
X167142095Y-77927676D02*
X167237333Y-77832438D01*
X167237333Y-77832438D02*
X167332571Y-77784819D01*
X167332571Y-77784819D02*
X167523047Y-77784819D01*
X167523047Y-77784819D02*
X167618285Y-77832438D01*
X167618285Y-77832438D02*
X167713523Y-77927676D01*
X167713523Y-77927676D02*
X167761142Y-78118152D01*
X167761142Y-78118152D02*
X167761142Y-78451485D01*
X167761142Y-78451485D02*
X167713523Y-78641961D01*
X167713523Y-78641961D02*
X167618285Y-78737200D01*
X167618285Y-78737200D02*
X167523047Y-78784819D01*
X167523047Y-78784819D02*
X167332571Y-78784819D01*
X168665904Y-77784819D02*
X168189714Y-77784819D01*
X168189714Y-77784819D02*
X168142095Y-78261009D01*
X168142095Y-78261009D02*
X168189714Y-78213390D01*
X168189714Y-78213390D02*
X168284952Y-78165771D01*
X168284952Y-78165771D02*
X168523047Y-78165771D01*
X168523047Y-78165771D02*
X168618285Y-78213390D01*
X168618285Y-78213390D02*
X168665904Y-78261009D01*
X168665904Y-78261009D02*
X168713523Y-78356247D01*
X168713523Y-78356247D02*
X168713523Y-78594342D01*
X168713523Y-78594342D02*
X168665904Y-78689580D01*
X168665904Y-78689580D02*
X168618285Y-78737200D01*
X168618285Y-78737200D02*
X168523047Y-78784819D01*
X168523047Y-78784819D02*
X168284952Y-78784819D01*
X168284952Y-78784819D02*
X168189714Y-78737200D01*
X168189714Y-78737200D02*
X168142095Y-78689580D01*
X115834095Y-61020819D02*
X115834095Y-61830342D01*
X115834095Y-61830342D02*
X115881714Y-61925580D01*
X115881714Y-61925580D02*
X115929333Y-61973200D01*
X115929333Y-61973200D02*
X116024571Y-62020819D01*
X116024571Y-62020819D02*
X116215047Y-62020819D01*
X116215047Y-62020819D02*
X116310285Y-61973200D01*
X116310285Y-61973200D02*
X116357904Y-61925580D01*
X116357904Y-61925580D02*
X116405523Y-61830342D01*
X116405523Y-61830342D02*
X116405523Y-61020819D01*
X116786476Y-61020819D02*
X117453142Y-61020819D01*
X117453142Y-61020819D02*
X117024571Y-62020819D01*
X112452666Y-92008819D02*
X112452666Y-92723104D01*
X112452666Y-92723104D02*
X112405047Y-92865961D01*
X112405047Y-92865961D02*
X112309809Y-92961200D01*
X112309809Y-92961200D02*
X112166952Y-93008819D01*
X112166952Y-93008819D02*
X112071714Y-93008819D01*
X112833619Y-92008819D02*
X113452666Y-92008819D01*
X113452666Y-92008819D02*
X113119333Y-92389771D01*
X113119333Y-92389771D02*
X113262190Y-92389771D01*
X113262190Y-92389771D02*
X113357428Y-92437390D01*
X113357428Y-92437390D02*
X113405047Y-92485009D01*
X113405047Y-92485009D02*
X113452666Y-92580247D01*
X113452666Y-92580247D02*
X113452666Y-92818342D01*
X113452666Y-92818342D02*
X113405047Y-92913580D01*
X113405047Y-92913580D02*
X113357428Y-92961200D01*
X113357428Y-92961200D02*
X113262190Y-93008819D01*
X113262190Y-93008819D02*
X112976476Y-93008819D01*
X112976476Y-93008819D02*
X112881238Y-92961200D01*
X112881238Y-92961200D02*
X112833619Y-92913580D01*
X123200095Y-101922819D02*
X123200095Y-102732342D01*
X123200095Y-102732342D02*
X123247714Y-102827580D01*
X123247714Y-102827580D02*
X123295333Y-102875200D01*
X123295333Y-102875200D02*
X123390571Y-102922819D01*
X123390571Y-102922819D02*
X123581047Y-102922819D01*
X123581047Y-102922819D02*
X123676285Y-102875200D01*
X123676285Y-102875200D02*
X123723904Y-102827580D01*
X123723904Y-102827580D02*
X123771523Y-102732342D01*
X123771523Y-102732342D02*
X123771523Y-101922819D01*
X124771523Y-102922819D02*
X124200095Y-102922819D01*
X124485809Y-102922819D02*
X124485809Y-101922819D01*
X124485809Y-101922819D02*
X124390571Y-102065676D01*
X124390571Y-102065676D02*
X124295333Y-102160914D01*
X124295333Y-102160914D02*
X124200095Y-102208533D01*
X126113142Y-75863819D02*
X125779809Y-75387628D01*
X125541714Y-75863819D02*
X125541714Y-74863819D01*
X125541714Y-74863819D02*
X125922666Y-74863819D01*
X125922666Y-74863819D02*
X126017904Y-74911438D01*
X126017904Y-74911438D02*
X126065523Y-74959057D01*
X126065523Y-74959057D02*
X126113142Y-75054295D01*
X126113142Y-75054295D02*
X126113142Y-75197152D01*
X126113142Y-75197152D02*
X126065523Y-75292390D01*
X126065523Y-75292390D02*
X126017904Y-75340009D01*
X126017904Y-75340009D02*
X125922666Y-75387628D01*
X125922666Y-75387628D02*
X125541714Y-75387628D01*
X127017904Y-74863819D02*
X126541714Y-74863819D01*
X126541714Y-74863819D02*
X126494095Y-75340009D01*
X126494095Y-75340009D02*
X126541714Y-75292390D01*
X126541714Y-75292390D02*
X126636952Y-75244771D01*
X126636952Y-75244771D02*
X126875047Y-75244771D01*
X126875047Y-75244771D02*
X126970285Y-75292390D01*
X126970285Y-75292390D02*
X127017904Y-75340009D01*
X127017904Y-75340009D02*
X127065523Y-75435247D01*
X127065523Y-75435247D02*
X127065523Y-75673342D01*
X127065523Y-75673342D02*
X127017904Y-75768580D01*
X127017904Y-75768580D02*
X126970285Y-75816200D01*
X126970285Y-75816200D02*
X126875047Y-75863819D01*
X126875047Y-75863819D02*
X126636952Y-75863819D01*
X126636952Y-75863819D02*
X126541714Y-75816200D01*
X126541714Y-75816200D02*
X126494095Y-75768580D01*
X136019142Y-104184819D02*
X135685809Y-103708628D01*
X135447714Y-104184819D02*
X135447714Y-103184819D01*
X135447714Y-103184819D02*
X135828666Y-103184819D01*
X135828666Y-103184819D02*
X135923904Y-103232438D01*
X135923904Y-103232438D02*
X135971523Y-103280057D01*
X135971523Y-103280057D02*
X136019142Y-103375295D01*
X136019142Y-103375295D02*
X136019142Y-103518152D01*
X136019142Y-103518152D02*
X135971523Y-103613390D01*
X135971523Y-103613390D02*
X135923904Y-103661009D01*
X135923904Y-103661009D02*
X135828666Y-103708628D01*
X135828666Y-103708628D02*
X135447714Y-103708628D01*
X136923904Y-103184819D02*
X136447714Y-103184819D01*
X136447714Y-103184819D02*
X136400095Y-103661009D01*
X136400095Y-103661009D02*
X136447714Y-103613390D01*
X136447714Y-103613390D02*
X136542952Y-103565771D01*
X136542952Y-103565771D02*
X136781047Y-103565771D01*
X136781047Y-103565771D02*
X136876285Y-103613390D01*
X136876285Y-103613390D02*
X136923904Y-103661009D01*
X136923904Y-103661009D02*
X136971523Y-103756247D01*
X136971523Y-103756247D02*
X136971523Y-103994342D01*
X136971523Y-103994342D02*
X136923904Y-104089580D01*
X136923904Y-104089580D02*
X136876285Y-104137200D01*
X136876285Y-104137200D02*
X136781047Y-104184819D01*
X136781047Y-104184819D02*
X136542952Y-104184819D01*
X136542952Y-104184819D02*
X136447714Y-104137200D01*
X136447714Y-104137200D02*
X136400095Y-104089580D01*
X137304857Y-103184819D02*
X137971523Y-103184819D01*
X137971523Y-103184819D02*
X137542952Y-104184819D01*
X129750819Y-82370094D02*
X128750819Y-82370094D01*
X128750819Y-82370094D02*
X128750819Y-82131999D01*
X128750819Y-82131999D02*
X128798438Y-81989142D01*
X128798438Y-81989142D02*
X128893676Y-81893904D01*
X128893676Y-81893904D02*
X128988914Y-81846285D01*
X128988914Y-81846285D02*
X129179390Y-81798666D01*
X129179390Y-81798666D02*
X129322247Y-81798666D01*
X129322247Y-81798666D02*
X129512723Y-81846285D01*
X129512723Y-81846285D02*
X129607961Y-81893904D01*
X129607961Y-81893904D02*
X129703200Y-81989142D01*
X129703200Y-81989142D02*
X129750819Y-82131999D01*
X129750819Y-82131999D02*
X129750819Y-82370094D01*
X128750819Y-80941523D02*
X128750819Y-81131999D01*
X128750819Y-81131999D02*
X128798438Y-81227237D01*
X128798438Y-81227237D02*
X128846057Y-81274856D01*
X128846057Y-81274856D02*
X128988914Y-81370094D01*
X128988914Y-81370094D02*
X129179390Y-81417713D01*
X129179390Y-81417713D02*
X129560342Y-81417713D01*
X129560342Y-81417713D02*
X129655580Y-81370094D01*
X129655580Y-81370094D02*
X129703200Y-81322475D01*
X129703200Y-81322475D02*
X129750819Y-81227237D01*
X129750819Y-81227237D02*
X129750819Y-81036761D01*
X129750819Y-81036761D02*
X129703200Y-80941523D01*
X129703200Y-80941523D02*
X129655580Y-80893904D01*
X129655580Y-80893904D02*
X129560342Y-80846285D01*
X129560342Y-80846285D02*
X129322247Y-80846285D01*
X129322247Y-80846285D02*
X129227009Y-80893904D01*
X129227009Y-80893904D02*
X129179390Y-80941523D01*
X129179390Y-80941523D02*
X129131771Y-81036761D01*
X129131771Y-81036761D02*
X129131771Y-81227237D01*
X129131771Y-81227237D02*
X129179390Y-81322475D01*
X129179390Y-81322475D02*
X129227009Y-81370094D01*
X129227009Y-81370094D02*
X129322247Y-81417713D01*
D13*
%TO.C,R22*%
X145029500Y-75298742D02*
X145029500Y-75773258D01*
X146074500Y-75298742D02*
X146074500Y-75773258D01*
%TO.C,U4*%
X110210000Y-72312500D02*
X110210000Y-71662500D01*
X110210000Y-72312500D02*
X110210000Y-72962500D01*
X113330000Y-72312500D02*
X113330000Y-71662500D01*
X113330000Y-72312500D02*
X113330000Y-72962500D01*
X113610000Y-71390000D02*
X113280000Y-71150000D01*
X113610000Y-70910000D01*
X113610000Y-71390000D01*
G36*
X113610000Y-71390000D02*
G01*
X113280000Y-71150000D01*
X113610000Y-70910000D01*
X113610000Y-71390000D01*
G37*
%TO.C,C42*%
X156810000Y-64093752D02*
X156810000Y-62671248D01*
X158630000Y-64093752D02*
X158630000Y-62671248D01*
%TO.C,Q4*%
X155777100Y-82481000D02*
X155777100Y-88481000D01*
X160997100Y-82481000D02*
X160997100Y-88481000D01*
X161207100Y-81841000D02*
X160727100Y-81841000D01*
X160727100Y-81361000D01*
X161207100Y-81841000D01*
G36*
X161207100Y-81841000D02*
G01*
X160727100Y-81841000D01*
X160727100Y-81361000D01*
X161207100Y-81841000D01*
G37*
%TO.C,C44*%
X136914000Y-100060580D02*
X136914000Y-99779420D01*
X137934000Y-100060580D02*
X137934000Y-99779420D01*
%TO.C,C21*%
X133513580Y-94155500D02*
X133232420Y-94155500D01*
X133513580Y-95175500D02*
X133232420Y-95175500D01*
%TO.C,TP3*%
X109676000Y-76298000D02*
G75*
G02*
X108276000Y-76298000I-700000J0D01*
G01*
X108276000Y-76298000D02*
G75*
G02*
X109676000Y-76298000I700000J0D01*
G01*
%TO.C,C39*%
X146420000Y-64093752D02*
X146420000Y-62671248D01*
X148240000Y-64093752D02*
X148240000Y-62671248D01*
%TO.C,reset1*%
X188720000Y-105690000D02*
X194840000Y-105690000D01*
X188720000Y-109390000D02*
X188720000Y-105690000D01*
X194840000Y-105690000D02*
X194840000Y-109390000D01*
X194840000Y-109390000D02*
X188720000Y-109390000D01*
%TO.C,R8*%
X129406976Y-70047056D02*
X129881492Y-70047056D01*
X129406976Y-71092056D02*
X129881492Y-71092056D01*
%TO.C,C41*%
X151500000Y-64093752D02*
X151500000Y-62671248D01*
X153320000Y-64093752D02*
X153320000Y-62671248D01*
%TO.C,J2*%
X106562000Y-93366000D02*
X106562000Y-98346000D01*
X109532000Y-92996000D02*
X110482000Y-92996000D01*
X109532000Y-98716000D02*
X110482000Y-98716000D01*
X110482000Y-92996000D02*
X110482000Y-93946000D01*
X110482000Y-93946000D02*
X111172000Y-93946000D01*
X110482000Y-98716000D02*
X110482000Y-97766000D01*
%TO.C,R6*%
X140542166Y-77584742D02*
X140542166Y-78059258D01*
X141587166Y-77584742D02*
X141587166Y-78059258D01*
%TO.C,Q3*%
X146562000Y-82481000D02*
X146562000Y-88481000D01*
X151782000Y-82481000D02*
X151782000Y-88481000D01*
X151992000Y-81841000D02*
X151512000Y-81841000D01*
X151512000Y-81361000D01*
X151992000Y-81841000D01*
G36*
X151992000Y-81841000D02*
G01*
X151512000Y-81841000D01*
X151512000Y-81361000D01*
X151992000Y-81841000D01*
G37*
%TO.C,U2*%
X120613834Y-83546686D02*
X120613834Y-83971686D01*
X120613834Y-88766686D02*
X120613834Y-88341686D01*
X122923834Y-83546686D02*
X120613834Y-83546686D01*
X122923834Y-83546686D02*
X125233834Y-83546686D01*
X122923834Y-88766686D02*
X120613834Y-88766686D01*
X122923834Y-88766686D02*
X125233834Y-88766686D01*
X125233834Y-83546686D02*
X125233834Y-83971686D01*
X125233834Y-88766686D02*
X125233834Y-88341686D01*
X120023834Y-83971686D02*
X119783834Y-83641686D01*
X120263834Y-83641686D01*
X120023834Y-83971686D01*
G36*
X120023834Y-83971686D02*
G01*
X119783834Y-83641686D01*
X120263834Y-83641686D01*
X120023834Y-83971686D01*
G37*
%TO.C,R34*%
X165500204Y-90653000D02*
X169854332Y-90653000D01*
X165500204Y-94073000D02*
X169854332Y-94073000D01*
%TO.C,C40*%
X148960000Y-64093752D02*
X148960000Y-62671248D01*
X150780000Y-64093752D02*
X150780000Y-62671248D01*
%TO.C,D5*%
X139518845Y-68513453D02*
X134008845Y-68513453D01*
X139518845Y-71813453D02*
X134008845Y-71813453D01*
X139518845Y-71813453D02*
X139518845Y-68513453D01*
%TO.C,C43*%
X193810000Y-84325580D02*
X193810000Y-84044420D01*
X194830000Y-84325580D02*
X194830000Y-84044420D01*
%TO.C,U9*%
X138864665Y-97888000D02*
X138864665Y-95938000D01*
X138864665Y-97888000D02*
X138864665Y-99838000D01*
X143984665Y-97888000D02*
X143984665Y-95938000D01*
X143984665Y-97888000D02*
X143984665Y-99838000D01*
X144219665Y-95428000D02*
X143889665Y-95188000D01*
X144219665Y-94948000D01*
X144219665Y-95428000D01*
G36*
X144219665Y-95428000D02*
G01*
X143889665Y-95188000D01*
X144219665Y-94948000D01*
X144219665Y-95428000D01*
G37*
%TO.C,C10*%
X129784814Y-73234556D02*
X129503654Y-73234556D01*
X129784814Y-74254556D02*
X129503654Y-74254556D01*
%TO.C,key_1*%
X177036000Y-105690000D02*
X183156000Y-105690000D01*
X177036000Y-109390000D02*
X177036000Y-105690000D01*
X183156000Y-105690000D02*
X183156000Y-109390000D01*
X183156000Y-109390000D02*
X177036000Y-109390000D01*
%TO.C,R32*%
X163317500Y-75298742D02*
X163317500Y-75773258D01*
X164362500Y-75298742D02*
X164362500Y-75773258D01*
%TO.C,C11*%
X142248000Y-77962580D02*
X142248000Y-77681420D01*
X143268000Y-77962580D02*
X143268000Y-77681420D01*
%TO.C,TP2*%
X115264000Y-72234000D02*
G75*
G02*
X113864000Y-72234000I-700000J0D01*
G01*
X113864000Y-72234000D02*
G75*
G02*
X115264000Y-72234000I700000J0D01*
G01*
%TO.C,U6*%
X118253283Y-68783133D02*
X122013283Y-68783133D01*
X118253283Y-75603133D02*
X122013283Y-75603133D01*
X122013283Y-68783133D02*
X122013283Y-70043133D01*
X122013283Y-75603133D02*
X122013283Y-74343133D01*
X116973283Y-68883133D02*
X116733283Y-68553133D01*
X117213283Y-68553133D01*
X116973283Y-68883133D01*
G36*
X116973283Y-68883133D02*
G01*
X116733283Y-68553133D01*
X117213283Y-68553133D01*
X116973283Y-68883133D01*
G37*
%TO.C,Q6*%
X165067268Y-82470686D02*
X165067268Y-88470686D01*
X170287268Y-82470686D02*
X170287268Y-88470686D01*
X170497268Y-81830686D02*
X170017268Y-81830686D01*
X170017268Y-81350686D01*
X170497268Y-81830686D01*
G36*
X170497268Y-81830686D02*
G01*
X170017268Y-81830686D01*
X170017268Y-81350686D01*
X170497268Y-81830686D01*
G37*
%TO.C,C14*%
X128754234Y-66965808D02*
X128754234Y-65543304D01*
X130574234Y-66965808D02*
X130574234Y-65543304D01*
%TO.C,C4*%
X144280000Y-64298080D02*
X144280000Y-64016920D01*
X145300000Y-64298080D02*
X145300000Y-64016920D01*
%TO.C,R33*%
X163317500Y-87299742D02*
X163317500Y-87774258D01*
X164362500Y-87299742D02*
X164362500Y-87774258D01*
%TO.C,Q1*%
X106559864Y-72288745D02*
X106559864Y-71638745D01*
X106559864Y-72288745D02*
X106559864Y-72938745D01*
X109679864Y-72288745D02*
X109679864Y-71638745D01*
X109679864Y-72288745D02*
X109679864Y-72938745D01*
X109959864Y-71366245D02*
X109629864Y-71126245D01*
X109959864Y-70886245D01*
X109959864Y-71366245D01*
G36*
X109959864Y-71366245D02*
G01*
X109629864Y-71126245D01*
X109959864Y-70886245D01*
X109959864Y-71366245D01*
G37*
%TO.C,R28*%
X156247570Y-90653000D02*
X160601698Y-90653000D01*
X156247570Y-94073000D02*
X160601698Y-94073000D01*
%TO.C,U5*%
X135965000Y-72338782D02*
X134015000Y-72338782D01*
X135965000Y-72338782D02*
X137915000Y-72338782D01*
X135965000Y-77458782D02*
X134015000Y-77458782D01*
X135965000Y-77458782D02*
X137915000Y-77458782D01*
X138905000Y-77693782D02*
X138425000Y-77693782D01*
X138665000Y-77363782D01*
X138905000Y-77693782D01*
G36*
X138905000Y-77693782D02*
G01*
X138425000Y-77693782D01*
X138665000Y-77363782D01*
X138905000Y-77693782D01*
G37*
%TO.C,Q8*%
X146562000Y-70194423D02*
X146562000Y-76194423D01*
X151782000Y-70194423D02*
X151782000Y-76194423D01*
X151992000Y-69554423D02*
X151512000Y-69554423D01*
X151512000Y-69074423D01*
X151992000Y-69554423D01*
G36*
X151992000Y-69554423D02*
G01*
X151512000Y-69554423D01*
X151512000Y-69074423D01*
X151992000Y-69554423D01*
G37*
%TO.C,J4*%
X119648000Y-105272000D02*
X120598000Y-105272000D01*
X119648000Y-106222000D02*
X119648000Y-105272000D01*
X120018000Y-109192000D02*
X128748000Y-109192000D01*
X120598000Y-105272000D02*
X120598000Y-104582000D01*
X129118000Y-105272000D02*
X128168000Y-105272000D01*
X129118000Y-106222000D02*
X129118000Y-105272000D01*
%TO.C,R27*%
X154173500Y-87299742D02*
X154173500Y-87774258D01*
X155218500Y-87299742D02*
X155218500Y-87774258D01*
%TO.C,TP1*%
X126605409Y-61952695D02*
G75*
G02*
X125205409Y-61952695I-700000J0D01*
G01*
X125205409Y-61952695D02*
G75*
G02*
X126605409Y-61952695I700000J0D01*
G01*
D12*
%TO.C,U3*%
X156091000Y-98505000D02*
X156091000Y-99305000D01*
X156091000Y-98505000D02*
X161641000Y-98505000D01*
X156091000Y-105055000D02*
X156091000Y-104155000D01*
X156091000Y-105055000D02*
X161641000Y-105055000D01*
X161641000Y-98505000D02*
X161641000Y-99405000D01*
X161641000Y-105055000D02*
X161641000Y-104155000D01*
D13*
X155453500Y-99305000D02*
X155213500Y-98975000D01*
X155693500Y-98975000D01*
X155453500Y-99305000D01*
G36*
X155453500Y-99305000D02*
G01*
X155213500Y-98975000D01*
X155693500Y-98975000D01*
X155453500Y-99305000D01*
G37*
%TO.C,R26*%
X154173500Y-75298742D02*
X154173500Y-75773258D01*
X155218500Y-75298742D02*
X155218500Y-75773258D01*
%TO.C,C20*%
X133232420Y-99235500D02*
X133513580Y-99235500D01*
X133232420Y-100255500D02*
X133513580Y-100255500D01*
%TO.C,J5*%
X167650000Y-59534000D02*
X167650000Y-67154000D01*
X182890000Y-59534000D02*
X167650000Y-59534000D01*
X182890000Y-59534000D02*
X182890000Y-67154000D01*
X182890000Y-60804000D02*
X167650000Y-60804000D01*
X182890000Y-67154000D02*
X167650000Y-67154000D01*
%TO.C,J6*%
X139104145Y-105272000D02*
X140054145Y-105272000D01*
X139104145Y-106222000D02*
X139104145Y-105272000D01*
X139474145Y-109192000D02*
X143204145Y-109192000D01*
X140054145Y-105272000D02*
X140054145Y-104582000D01*
X143574145Y-105272000D02*
X142624145Y-105272000D01*
X143574145Y-106222000D02*
X143574145Y-105272000D01*
%TO.C,D7*%
X118898000Y-82976000D02*
X118898000Y-78966000D01*
X118898000Y-82976000D02*
X120898000Y-82976000D01*
X120898000Y-82976000D02*
X120898000Y-78966000D01*
%TO.C,J1*%
X159970000Y-61760000D02*
X159970000Y-64420000D01*
X162570000Y-61760000D02*
X159970000Y-61760000D01*
X162570000Y-61760000D02*
X162570000Y-64420000D01*
X162570000Y-64420000D02*
X159970000Y-64420000D01*
X163840000Y-61760000D02*
X165170000Y-61760000D01*
X165170000Y-61760000D02*
X165170000Y-63090000D01*
%TO.C,U8*%
X187753869Y-82397220D02*
X185553869Y-82397220D01*
X187753869Y-82397220D02*
X189953869Y-82397220D01*
X187753869Y-87617220D02*
X185553869Y-87617220D01*
X187753869Y-87617220D02*
X189953869Y-87617220D01*
X184853869Y-82597220D02*
X184613869Y-82267220D01*
X185093869Y-82267220D01*
X184853869Y-82597220D01*
G36*
X184853869Y-82597220D02*
G01*
X184613869Y-82267220D01*
X185093869Y-82267220D01*
X184853869Y-82597220D01*
G37*
%TO.C,Y1*%
X135373000Y-95555500D02*
X131373000Y-95555500D01*
X135373000Y-98855500D02*
X135373000Y-95555500D01*
%TO.C,R21*%
X145029500Y-87299742D02*
X145029500Y-87774258D01*
X146074500Y-87299742D02*
X146074500Y-87774258D01*
%TO.C,C7*%
X129784814Y-76409556D02*
X129503654Y-76409556D01*
X129784814Y-77429556D02*
X129503654Y-77429556D01*
%TO.C,L1*%
X132333816Y-61135000D02*
X132333816Y-62635000D01*
X132333816Y-67935000D02*
X132333816Y-66435000D01*
X132333816Y-67935000D02*
X139733816Y-67935000D01*
X139733816Y-61135000D02*
X132333816Y-61135000D01*
X139733816Y-61135000D02*
X139733816Y-62635000D01*
X139733816Y-67935000D02*
X139733816Y-66435000D01*
%TO.C,R23*%
X146994936Y-90653000D02*
X151349064Y-90653000D01*
X146994936Y-94073000D02*
X151349064Y-94073000D01*
%TO.C,R9*%
X129881492Y-71634556D02*
X129406976Y-71634556D01*
X129881492Y-72679556D02*
X129406976Y-72679556D01*
%TO.C,C3*%
X154040000Y-64093752D02*
X154040000Y-62671248D01*
X155860000Y-64093752D02*
X155860000Y-62671248D01*
%TO.C,Q2*%
X155777100Y-70194423D02*
X155777100Y-76194423D01*
X160997100Y-70194423D02*
X160997100Y-76194423D01*
X161207100Y-69554423D02*
X160727100Y-69554423D01*
X160727100Y-69074423D01*
X161207100Y-69554423D01*
G36*
X161207100Y-69554423D02*
G01*
X160727100Y-69554423D01*
X160727100Y-69074423D01*
X161207100Y-69554423D01*
G37*
%TO.C,D2*%
X124486000Y-82976000D02*
X124486000Y-78966000D01*
X124486000Y-82976000D02*
X126486000Y-82976000D01*
X126486000Y-82976000D02*
X126486000Y-78966000D01*
%TO.C,Q5*%
X165092201Y-70218869D02*
X165092201Y-76218869D01*
X170312201Y-70218869D02*
X170312201Y-76218869D01*
X170522201Y-69578869D02*
X170042201Y-69578869D01*
X170042201Y-69098869D01*
X170522201Y-69578869D01*
G36*
X170522201Y-69578869D02*
G01*
X170042201Y-69578869D01*
X170042201Y-69098869D01*
X170522201Y-69578869D01*
G37*
%TO.C,U7*%
X118193283Y-60826226D02*
X118193283Y-62086226D01*
X118193283Y-67646226D02*
X118193283Y-66386226D01*
X121953283Y-60826226D02*
X118193283Y-60826226D01*
X121953283Y-67646226D02*
X118193283Y-67646226D01*
X123473283Y-67876226D02*
X122993283Y-67876226D01*
X123233283Y-67546226D01*
X123473283Y-67876226D01*
G36*
X123473283Y-67876226D02*
G01*
X122993283Y-67876226D01*
X123233283Y-67546226D01*
X123473283Y-67876226D01*
G37*
%TO.C,J3*%
X106562000Y-80803000D02*
X106562000Y-87033000D01*
X109532000Y-80433000D02*
X110482000Y-80433000D01*
X109532000Y-87403000D02*
X110482000Y-87403000D01*
X110482000Y-80433000D02*
X110482000Y-81383000D01*
X110482000Y-81383000D02*
X111172000Y-81383000D01*
X110482000Y-87403000D02*
X110482000Y-86453000D01*
%TO.C,U1*%
X120352000Y-93008000D02*
X120352000Y-93458000D01*
X120352000Y-100228000D02*
X120352000Y-99778000D01*
X120802000Y-93008000D02*
X120352000Y-93008000D01*
X120802000Y-100228000D02*
X120352000Y-100228000D01*
X127122000Y-93008000D02*
X127572000Y-93008000D01*
X127122000Y-100228000D02*
X127572000Y-100228000D01*
X127572000Y-93008000D02*
X127572000Y-93458000D01*
X127572000Y-100228000D02*
X127572000Y-99778000D01*
X128502000Y-100248000D02*
X127822000Y-100248000D01*
X128162000Y-99778000D01*
X128502000Y-100248000D01*
G36*
X128502000Y-100248000D02*
G01*
X127822000Y-100248000D01*
X128162000Y-99778000D01*
X128502000Y-100248000D01*
G37*
%TO.C,R5*%
X129881492Y-74809556D02*
X129406976Y-74809556D01*
X129881492Y-75854556D02*
X129406976Y-75854556D01*
%TO.C,R57*%
X141670525Y-102235500D02*
X141196009Y-102235500D01*
X141670525Y-103280500D02*
X141196009Y-103280500D01*
%TO.C,D6*%
X121692000Y-82976000D02*
X121692000Y-78966000D01*
X121692000Y-82976000D02*
X123692000Y-82976000D01*
X123692000Y-82976000D02*
X123692000Y-78966000D01*
%TD*%
M02*
