%TF.GenerationSoftware,KiCad,Pcbnew,8.0.3-rc1*%
%TF.CreationDate,2024-06-29T16:34:31+08:00*%
%TF.ProjectId,MC_G431C8,4d435f47-3433-4314-9338-2e6b69636164,rev?*%
%TF.SameCoordinates,Original*%
%TF.FileFunction,Copper,L4,Bot*%
%TF.FilePolarity,Positive*%
%FSLAX46Y46*%
G04 Gerber Fmt 4.6, Leading zero omitted, Abs format (unit mm)*
G04 Created by KiCad (PCBNEW 8.0.3-rc1) date 2024-06-29 16:34:31*
%MOMM*%
%LPD*%
G01*
G04 APERTURE LIST*
G04 Aperture macros list*
%AMRoundRect*
0 Rectangle with rounded corners*
0 $1 Rounding radius*
0 $2 $3 $4 $5 $6 $7 $8 $9 X,Y pos of 4 corners*
0 Add a 4 corners polygon primitive as box body*
4,1,4,$2,$3,$4,$5,$6,$7,$8,$9,$2,$3,0*
0 Add four circle primitives for the rounded corners*
1,1,$1+$1,$2,$3*
1,1,$1+$1,$4,$5*
1,1,$1+$1,$6,$7*
1,1,$1+$1,$8,$9*
0 Add four rect primitives between the rounded corners*
20,1,$1+$1,$2,$3,$4,$5,0*
20,1,$1+$1,$4,$5,$6,$7,0*
20,1,$1+$1,$6,$7,$8,$9,0*
20,1,$1+$1,$8,$9,$2,$3,0*%
G04 Aperture macros list end*
%ADD10C,0.300000*%
%TA.AperFunction,NonConductor*%
%ADD11C,0.300000*%
%TD*%
%TA.AperFunction,NonConductor*%
%ADD12C,0.200000*%
%TD*%
%TA.AperFunction,ComponentPad*%
%ADD13R,3.000000X3.000000*%
%TD*%
%TA.AperFunction,ComponentPad*%
%ADD14C,3.000000*%
%TD*%
%TA.AperFunction,ComponentPad*%
%ADD15R,1.700000X1.700000*%
%TD*%
%TA.AperFunction,ComponentPad*%
%ADD16O,1.700000X1.700000*%
%TD*%
%TA.AperFunction,SMDPad,CuDef*%
%ADD17C,1.000000*%
%TD*%
%TA.AperFunction,SMDPad,CuDef*%
%ADD18RoundRect,0.200000X0.275000X-0.200000X0.275000X0.200000X-0.275000X0.200000X-0.275000X-0.200000X0*%
%TD*%
%TA.AperFunction,SMDPad,CuDef*%
%ADD19RoundRect,0.225000X0.250000X-0.225000X0.250000X0.225000X-0.250000X0.225000X-0.250000X-0.225000X0*%
%TD*%
%TA.AperFunction,SMDPad,CuDef*%
%ADD20RoundRect,0.250000X-0.475000X0.250000X-0.475000X-0.250000X0.475000X-0.250000X0.475000X0.250000X0*%
%TD*%
%TA.AperFunction,SMDPad,CuDef*%
%ADD21RoundRect,0.250000X0.250000X0.475000X-0.250000X0.475000X-0.250000X-0.475000X0.250000X-0.475000X0*%
%TD*%
%TA.AperFunction,SMDPad,CuDef*%
%ADD22RoundRect,0.200000X-0.275000X0.200000X-0.275000X-0.200000X0.275000X-0.200000X0.275000X0.200000X0*%
%TD*%
%TA.AperFunction,SMDPad,CuDef*%
%ADD23RoundRect,0.225000X-0.225000X-0.250000X0.225000X-0.250000X0.225000X0.250000X-0.225000X0.250000X0*%
%TD*%
%TA.AperFunction,SMDPad,CuDef*%
%ADD24RoundRect,0.200000X0.200000X0.275000X-0.200000X0.275000X-0.200000X-0.275000X0.200000X-0.275000X0*%
%TD*%
%TA.AperFunction,SMDPad,CuDef*%
%ADD25RoundRect,0.250000X-0.412500X-0.650000X0.412500X-0.650000X0.412500X0.650000X-0.412500X0.650000X0*%
%TD*%
%TA.AperFunction,SMDPad,CuDef*%
%ADD26RoundRect,0.225000X-0.225000X-0.375000X0.225000X-0.375000X0.225000X0.375000X-0.225000X0.375000X0*%
%TD*%
%TA.AperFunction,SMDPad,CuDef*%
%ADD27RoundRect,0.237500X-0.250000X-0.237500X0.250000X-0.237500X0.250000X0.237500X-0.250000X0.237500X0*%
%TD*%
%TA.AperFunction,SMDPad,CuDef*%
%ADD28RoundRect,0.225000X-0.250000X0.225000X-0.250000X-0.225000X0.250000X-0.225000X0.250000X0.225000X0*%
%TD*%
%TA.AperFunction,SMDPad,CuDef*%
%ADD29RoundRect,0.225000X0.225000X0.250000X-0.225000X0.250000X-0.225000X-0.250000X0.225000X-0.250000X0*%
%TD*%
%TA.AperFunction,SMDPad,CuDef*%
%ADD30RoundRect,0.237500X0.237500X-0.287500X0.237500X0.287500X-0.237500X0.287500X-0.237500X-0.287500X0*%
%TD*%
%TA.AperFunction,SMDPad,CuDef*%
%ADD31RoundRect,0.200000X-0.200000X-0.275000X0.200000X-0.275000X0.200000X0.275000X-0.200000X0.275000X0*%
%TD*%
%TA.AperFunction,SMDPad,CuDef*%
%ADD32RoundRect,0.237500X0.250000X0.237500X-0.250000X0.237500X-0.250000X-0.237500X0.250000X-0.237500X0*%
%TD*%
%TA.AperFunction,SMDPad,CuDef*%
%ADD33RoundRect,0.237500X-0.237500X0.287500X-0.237500X-0.287500X0.237500X-0.287500X0.237500X0.287500X0*%
%TD*%
%TA.AperFunction,ViaPad*%
%ADD34C,0.600000*%
%TD*%
%TA.AperFunction,Conductor*%
%ADD35C,0.200000*%
%TD*%
%TA.AperFunction,Conductor*%
%ADD36C,0.635000*%
%TD*%
%TA.AperFunction,Conductor*%
%ADD37C,0.254000*%
%TD*%
%TA.AperFunction,Conductor*%
%ADD38C,0.127000*%
%TD*%
G04 APERTURE END LIST*
D10*
D11*
X213796328Y-89060999D02*
X213796328Y-89775285D01*
X213796328Y-89775285D02*
X214510614Y-89846713D01*
X214510614Y-89846713D02*
X214439185Y-89775285D01*
X214439185Y-89775285D02*
X214367757Y-89632428D01*
X214367757Y-89632428D02*
X214367757Y-89275285D01*
X214367757Y-89275285D02*
X214439185Y-89132428D01*
X214439185Y-89132428D02*
X214510614Y-89060999D01*
X214510614Y-89060999D02*
X214653471Y-88989570D01*
X214653471Y-88989570D02*
X215010614Y-88989570D01*
X215010614Y-88989570D02*
X215153471Y-89060999D01*
X215153471Y-89060999D02*
X215224900Y-89132428D01*
X215224900Y-89132428D02*
X215296328Y-89275285D01*
X215296328Y-89275285D02*
X215296328Y-89632428D01*
X215296328Y-89632428D02*
X215224900Y-89775285D01*
X215224900Y-89775285D02*
X215153471Y-89846713D01*
X213796328Y-88060999D02*
X213796328Y-87918142D01*
X213796328Y-87918142D02*
X213867757Y-87775285D01*
X213867757Y-87775285D02*
X213939185Y-87703857D01*
X213939185Y-87703857D02*
X214082042Y-87632428D01*
X214082042Y-87632428D02*
X214367757Y-87560999D01*
X214367757Y-87560999D02*
X214724900Y-87560999D01*
X214724900Y-87560999D02*
X215010614Y-87632428D01*
X215010614Y-87632428D02*
X215153471Y-87703857D01*
X215153471Y-87703857D02*
X215224900Y-87775285D01*
X215224900Y-87775285D02*
X215296328Y-87918142D01*
X215296328Y-87918142D02*
X215296328Y-88060999D01*
X215296328Y-88060999D02*
X215224900Y-88203857D01*
X215224900Y-88203857D02*
X215153471Y-88275285D01*
X215153471Y-88275285D02*
X215010614Y-88346714D01*
X215010614Y-88346714D02*
X214724900Y-88418142D01*
X214724900Y-88418142D02*
X214367757Y-88418142D01*
X214367757Y-88418142D02*
X214082042Y-88346714D01*
X214082042Y-88346714D02*
X213939185Y-88275285D01*
X213939185Y-88275285D02*
X213867757Y-88203857D01*
X213867757Y-88203857D02*
X213796328Y-88060999D01*
X215153471Y-86918143D02*
X215224900Y-86846714D01*
X215224900Y-86846714D02*
X215296328Y-86918143D01*
X215296328Y-86918143D02*
X215224900Y-86989571D01*
X215224900Y-86989571D02*
X215153471Y-86918143D01*
X215153471Y-86918143D02*
X215296328Y-86918143D01*
X213796328Y-85918142D02*
X213796328Y-85775285D01*
X213796328Y-85775285D02*
X213867757Y-85632428D01*
X213867757Y-85632428D02*
X213939185Y-85561000D01*
X213939185Y-85561000D02*
X214082042Y-85489571D01*
X214082042Y-85489571D02*
X214367757Y-85418142D01*
X214367757Y-85418142D02*
X214724900Y-85418142D01*
X214724900Y-85418142D02*
X215010614Y-85489571D01*
X215010614Y-85489571D02*
X215153471Y-85561000D01*
X215153471Y-85561000D02*
X215224900Y-85632428D01*
X215224900Y-85632428D02*
X215296328Y-85775285D01*
X215296328Y-85775285D02*
X215296328Y-85918142D01*
X215296328Y-85918142D02*
X215224900Y-86061000D01*
X215224900Y-86061000D02*
X215153471Y-86132428D01*
X215153471Y-86132428D02*
X215010614Y-86203857D01*
X215010614Y-86203857D02*
X214724900Y-86275285D01*
X214724900Y-86275285D02*
X214367757Y-86275285D01*
X214367757Y-86275285D02*
X214082042Y-86203857D01*
X214082042Y-86203857D02*
X213939185Y-86132428D01*
X213939185Y-86132428D02*
X213867757Y-86061000D01*
X213867757Y-86061000D02*
X213796328Y-85918142D01*
X215296328Y-83632429D02*
X214296328Y-83632429D01*
X214439185Y-83632429D02*
X214367757Y-83561000D01*
X214367757Y-83561000D02*
X214296328Y-83418143D01*
X214296328Y-83418143D02*
X214296328Y-83203857D01*
X214296328Y-83203857D02*
X214367757Y-83061000D01*
X214367757Y-83061000D02*
X214510614Y-82989572D01*
X214510614Y-82989572D02*
X215296328Y-82989572D01*
X214510614Y-82989572D02*
X214367757Y-82918143D01*
X214367757Y-82918143D02*
X214296328Y-82775286D01*
X214296328Y-82775286D02*
X214296328Y-82561000D01*
X214296328Y-82561000D02*
X214367757Y-82418143D01*
X214367757Y-82418143D02*
X214510614Y-82346714D01*
X214510614Y-82346714D02*
X215296328Y-82346714D01*
X215296328Y-81632429D02*
X214296328Y-81632429D01*
X214439185Y-81632429D02*
X214367757Y-81561000D01*
X214367757Y-81561000D02*
X214296328Y-81418143D01*
X214296328Y-81418143D02*
X214296328Y-81203857D01*
X214296328Y-81203857D02*
X214367757Y-81061000D01*
X214367757Y-81061000D02*
X214510614Y-80989572D01*
X214510614Y-80989572D02*
X215296328Y-80989572D01*
X214510614Y-80989572D02*
X214367757Y-80918143D01*
X214367757Y-80918143D02*
X214296328Y-80775286D01*
X214296328Y-80775286D02*
X214296328Y-80561000D01*
X214296328Y-80561000D02*
X214367757Y-80418143D01*
X214367757Y-80418143D02*
X214510614Y-80346714D01*
X214510614Y-80346714D02*
X215296328Y-80346714D01*
D12*
X203964000Y-110080000D02*
X217004420Y-110080000D01*
X203964000Y-60042000D02*
X217004420Y-60042000D01*
X216418000Y-110080000D02*
X216418000Y-60042000D01*
X216418000Y-110080000D02*
X216418000Y-60042000D01*
X216418000Y-110080000D02*
X215831579Y-108953496D01*
X216418000Y-110080000D02*
X217004421Y-108953496D01*
X216418000Y-60042000D02*
X217004421Y-61168504D01*
X216418000Y-60042000D02*
X215831579Y-61168504D01*
D10*
D11*
X150849037Y-115529727D02*
X149991897Y-115527823D01*
X150420467Y-115528775D02*
X150423799Y-114028778D01*
X150423799Y-114028778D02*
X150280466Y-114242746D01*
X150280466Y-114242746D02*
X150137292Y-114385286D01*
X150137292Y-114385286D02*
X149994277Y-114456397D01*
X151780938Y-114031793D02*
X151923795Y-114032110D01*
X151923795Y-114032110D02*
X152066493Y-114103856D01*
X152066493Y-114103856D02*
X152137763Y-114175443D01*
X152137763Y-114175443D02*
X152208874Y-114318458D01*
X152208874Y-114318458D02*
X152279667Y-114604331D01*
X152279667Y-114604331D02*
X152278874Y-114961473D01*
X152278874Y-114961473D02*
X152206811Y-115247028D01*
X152206811Y-115247028D02*
X152135065Y-115389726D01*
X152135065Y-115389726D02*
X152063478Y-115460995D01*
X152063478Y-115460995D02*
X151920463Y-115532107D01*
X151920463Y-115532107D02*
X151777606Y-115531789D01*
X151777606Y-115531789D02*
X151634908Y-115460044D01*
X151634908Y-115460044D02*
X151563638Y-115388456D01*
X151563638Y-115388456D02*
X151492527Y-115245441D01*
X151492527Y-115245441D02*
X151421733Y-114959569D01*
X151421733Y-114959569D02*
X151422527Y-114602427D01*
X151422527Y-114602427D02*
X151494590Y-114316872D01*
X151494590Y-114316872D02*
X151566335Y-114174174D01*
X151566335Y-114174174D02*
X151637922Y-114102904D01*
X151637922Y-114102904D02*
X151780938Y-114031793D01*
X153209505Y-114034966D02*
X153352362Y-114035283D01*
X153352362Y-114035283D02*
X153495060Y-114107029D01*
X153495060Y-114107029D02*
X153566330Y-114178616D01*
X153566330Y-114178616D02*
X153637441Y-114321632D01*
X153637441Y-114321632D02*
X153708235Y-114607504D01*
X153708235Y-114607504D02*
X153707442Y-114964646D01*
X153707442Y-114964646D02*
X153635379Y-115250201D01*
X153635379Y-115250201D02*
X153563633Y-115392899D01*
X153563633Y-115392899D02*
X153492046Y-115464169D01*
X153492046Y-115464169D02*
X153349030Y-115535280D01*
X153349030Y-115535280D02*
X153206174Y-115534962D01*
X153206174Y-115534962D02*
X153063475Y-115463217D01*
X153063475Y-115463217D02*
X152992206Y-115391630D01*
X152992206Y-115391630D02*
X152921095Y-115248614D01*
X152921095Y-115248614D02*
X152850301Y-114962742D01*
X152850301Y-114962742D02*
X152851094Y-114605600D01*
X152851094Y-114605600D02*
X152923157Y-114320045D01*
X152923157Y-114320045D02*
X152994903Y-114177347D01*
X152994903Y-114177347D02*
X153066490Y-114106077D01*
X153066490Y-114106077D02*
X153209505Y-114034966D01*
X154349345Y-115394644D02*
X154420615Y-115466231D01*
X154420615Y-115466231D02*
X154349027Y-115537501D01*
X154349027Y-115537501D02*
X154277758Y-115465914D01*
X154277758Y-115465914D02*
X154349345Y-115394644D01*
X154349345Y-115394644D02*
X154349027Y-115537501D01*
X155352357Y-114039726D02*
X155495214Y-114040043D01*
X155495214Y-114040043D02*
X155637912Y-114111789D01*
X155637912Y-114111789D02*
X155709182Y-114183376D01*
X155709182Y-114183376D02*
X155780293Y-114326391D01*
X155780293Y-114326391D02*
X155851087Y-114612264D01*
X155851087Y-114612264D02*
X155850293Y-114969406D01*
X155850293Y-114969406D02*
X155778230Y-115254960D01*
X155778230Y-115254960D02*
X155706485Y-115397659D01*
X155706485Y-115397659D02*
X155634898Y-115468928D01*
X155634898Y-115468928D02*
X155491882Y-115540039D01*
X155491882Y-115540039D02*
X155349025Y-115539722D01*
X155349025Y-115539722D02*
X155206327Y-115467976D01*
X155206327Y-115467976D02*
X155135057Y-115396389D01*
X155135057Y-115396389D02*
X155063946Y-115253374D01*
X155063946Y-115253374D02*
X154993153Y-114967502D01*
X154993153Y-114967502D02*
X154993946Y-114610360D01*
X154993946Y-114610360D02*
X155066009Y-114324805D01*
X155066009Y-114324805D02*
X155137755Y-114182107D01*
X155137755Y-114182107D02*
X155209342Y-114110837D01*
X155209342Y-114110837D02*
X155352357Y-114039726D01*
X157634733Y-115544799D02*
X157636955Y-114544802D01*
X157636637Y-114687658D02*
X157708224Y-114616389D01*
X157708224Y-114616389D02*
X157851240Y-114545278D01*
X157851240Y-114545278D02*
X158065525Y-114545754D01*
X158065525Y-114545754D02*
X158208223Y-114617499D01*
X158208223Y-114617499D02*
X158279334Y-114760515D01*
X158279334Y-114760515D02*
X158277589Y-115546227D01*
X158279334Y-114760515D02*
X158351080Y-114617817D01*
X158351080Y-114617817D02*
X158494095Y-114546705D01*
X158494095Y-114546705D02*
X158708380Y-114547181D01*
X158708380Y-114547181D02*
X158851079Y-114618927D01*
X158851079Y-114618927D02*
X158922190Y-114761943D01*
X158922190Y-114761943D02*
X158920444Y-115547655D01*
X159634728Y-115549241D02*
X159636950Y-114549244D01*
X159636632Y-114692101D02*
X159708219Y-114620831D01*
X159708219Y-114620831D02*
X159851235Y-114549720D01*
X159851235Y-114549720D02*
X160065520Y-114550196D01*
X160065520Y-114550196D02*
X160208218Y-114621942D01*
X160208218Y-114621942D02*
X160279329Y-114764957D01*
X160279329Y-114764957D02*
X160277584Y-115550669D01*
X160279329Y-114764957D02*
X160351075Y-114622259D01*
X160351075Y-114622259D02*
X160494090Y-114551148D01*
X160494090Y-114551148D02*
X160708376Y-114551624D01*
X160708376Y-114551624D02*
X160851074Y-114623370D01*
X160851074Y-114623370D02*
X160922185Y-114766385D01*
X160922185Y-114766385D02*
X160920440Y-115552097D01*
D12*
X205494889Y-108801999D02*
X205475882Y-117359161D01*
X105519302Y-108579933D02*
X105500295Y-117137095D01*
X205477185Y-116772742D02*
X105501598Y-116550676D01*
X205477185Y-116772742D02*
X105501598Y-116550676D01*
X205477185Y-116772742D02*
X204349381Y-117356659D01*
X205477185Y-116772742D02*
X204351987Y-116183821D01*
X105501598Y-116550676D02*
X106629402Y-115966759D01*
X105501598Y-116550676D02*
X106626796Y-117139597D01*
D13*
%TO.P,J5,1,Pin_1*%
%TO.N,/Driver/W*%
X180350000Y-63344000D03*
D14*
%TO.P,J5,2,Pin_2*%
%TO.N,/Driver/V*%
X175270000Y-63344000D03*
%TO.P,J5,3,Pin_3*%
%TO.N,/Driver/U*%
X170190000Y-63344000D03*
%TD*%
D15*
%TO.P,J1,1,Pin_1*%
%TO.N,GND*%
X163840000Y-63090000D03*
D16*
%TO.P,J1,2,Pin_2*%
%TO.N,+24V*%
X161300000Y-63090000D03*
%TD*%
D17*
%TO.P,TP18,1,1*%
%TO.N,/Driver/V_CHN*%
X153045000Y-88490000D03*
%TD*%
D18*
%TO.P,R41,1*%
%TO.N,Net-(U3A--)*%
X152095500Y-98296063D03*
%TO.P,R41,2*%
%TO.N,Net-(C33-Pad2)*%
X152095500Y-96646063D03*
%TD*%
D19*
%TO.P,C38,1*%
%TO.N,GND*%
X141843600Y-98961000D03*
%TO.P,C38,2*%
%TO.N,/OP_I_V*%
X141843600Y-97411000D03*
%TD*%
D20*
%TO.P,C6,1*%
%TO.N,+3V3*%
X117654706Y-73915000D03*
%TO.P,C6,2*%
%TO.N,GND*%
X117654706Y-75815000D03*
%TD*%
D21*
%TO.P,C13,1*%
%TO.N,+12V*%
X123649535Y-65766043D03*
%TO.P,C13,2*%
%TO.N,GND*%
X121749535Y-65766043D03*
%TD*%
D22*
%TO.P,R14,1*%
%TO.N,+3V3*%
X184243615Y-101368000D03*
%TO.P,R14,2*%
%TO.N,/RST*%
X184243615Y-103018000D03*
%TD*%
D23*
%TO.P,C26,1*%
%TO.N,+24V*%
X153336800Y-70746693D03*
%TO.P,C26,2*%
%TO.N,GND*%
X154886800Y-70746693D03*
%TD*%
D24*
%TO.P,R4,1*%
%TO.N,Net-(U5-EN)*%
X134947000Y-77822000D03*
%TO.P,R4,2*%
%TO.N,GND*%
X133297000Y-77822000D03*
%TD*%
D18*
%TO.P,R45,1*%
%TO.N,GND*%
X149047500Y-106606000D03*
%TO.P,R45,2*%
%TO.N,Net-(U3B-+)*%
X149047500Y-104956000D03*
%TD*%
%TO.P,R55,1*%
%TO.N,/SWCLK*%
X119919857Y-106524000D03*
%TO.P,R55,2*%
%TO.N,Net-(U1-PA14)*%
X119919857Y-104874000D03*
%TD*%
D17*
%TO.P,TP16,1,1*%
%TO.N,/Driver/W_CH*%
X160491922Y-77706614D03*
%TD*%
%TO.P,TP6,1,1*%
%TO.N,/OP_I_V*%
X140270886Y-94493844D03*
%TD*%
%TO.P,TP14,1,1*%
%TO.N,/Driver/U_CH*%
X142504000Y-77739000D03*
%TD*%
D24*
%TO.P,R30,1*%
%TO.N,Net-(D12-A)*%
X163903000Y-77651000D03*
%TO.P,R30,2*%
%TO.N,/Driver/W_CH*%
X162253000Y-77651000D03*
%TD*%
D19*
%TO.P,C33,1*%
%TO.N,Net-(U3A--)*%
X150518888Y-98243612D03*
%TO.P,C33,2*%
%TO.N,Net-(C33-Pad2)*%
X150518888Y-96693612D03*
%TD*%
D25*
%TO.P,C27,1*%
%TO.N,+24V*%
X142481500Y-72742000D03*
%TO.P,C27,2*%
%TO.N,GND*%
X145606500Y-72742000D03*
%TD*%
D26*
%TO.P,D13,1,K*%
%TO.N,/Driver/W_CHN*%
X160554340Y-83664000D03*
%TO.P,D13,2,A*%
%TO.N,Net-(D13-A)*%
X163854340Y-83664000D03*
%TD*%
D19*
%TO.P,C16,1*%
%TO.N,+3V3*%
X116342000Y-99933000D03*
%TO.P,C16,2*%
%TO.N,GND*%
X116342000Y-98383000D03*
%TD*%
D17*
%TO.P,TP15,1,1*%
%TO.N,/Driver/V_CH*%
X151523959Y-77686121D03*
%TD*%
D27*
%TO.P,R1,1*%
%TO.N,+3.3VADC*%
X108317500Y-74520000D03*
%TO.P,R1,2*%
%TO.N,Net-(U4-REF)*%
X110142500Y-74520000D03*
%TD*%
D18*
%TO.P,R37,1*%
%TO.N,GND*%
X169875500Y-106606000D03*
%TO.P,R37,2*%
%TO.N,Net-(U3C-+)*%
X169875500Y-104956000D03*
%TD*%
D28*
%TO.P,C37,1*%
%TO.N,Net-(U3B-+)*%
X150571500Y-105006000D03*
%TO.P,C37,2*%
%TO.N,Net-(C37-Pad2)*%
X150571500Y-106556000D03*
%TD*%
D18*
%TO.P,R49,1*%
%TO.N,/DEBUG_RX*%
X129717000Y-106524000D03*
%TO.P,R49,2*%
%TO.N,Net-(U1-PB7)*%
X129717000Y-104874000D03*
%TD*%
D22*
%TO.P,R39,1*%
%TO.N,GND*%
X148970349Y-96633476D03*
%TO.P,R39,2*%
%TO.N,Net-(U3A--)*%
X148970349Y-98283476D03*
%TD*%
D24*
%TO.P,R35,1*%
%TO.N,+3V3*%
X167943763Y-100351060D03*
%TO.P,R35,2*%
%TO.N,Net-(U3D-+)*%
X166293763Y-100351060D03*
%TD*%
D26*
%TO.P,D12,1,K*%
%TO.N,/Driver/W_CH*%
X160558000Y-75453000D03*
%TO.P,D12,2,A*%
%TO.N,Net-(D12-A)*%
X163858000Y-75453000D03*
%TD*%
%TO.P,D10,1,K*%
%TO.N,/Driver/V_CH*%
X151591800Y-75489693D03*
%TO.P,D10,2,A*%
%TO.N,Net-(D10-A)*%
X154891800Y-75489693D03*
%TD*%
D29*
%TO.P,C18,1*%
%TO.N,+3.3VADC*%
X119657000Y-90268000D03*
%TO.P,C18,2*%
%TO.N,GND*%
X118107000Y-90268000D03*
%TD*%
%TO.P,C32,1*%
%TO.N,+3V3*%
X150571500Y-101780000D03*
%TO.P,C32,2*%
%TO.N,GND*%
X149021500Y-101780000D03*
%TD*%
D26*
%TO.P,D11,1,K*%
%TO.N,/Driver/V_CHN*%
X151522000Y-83664000D03*
%TO.P,D11,2,A*%
%TO.N,Net-(D11-A)*%
X154822000Y-83664000D03*
%TD*%
D19*
%TO.P,C36,1*%
%TO.N,GND*%
X138694000Y-98961000D03*
%TO.P,C36,2*%
%TO.N,/OP_I_W*%
X138694000Y-97411000D03*
%TD*%
D30*
%TO.P,D1,1,K*%
%TO.N,/LED_01*%
X176165540Y-102853000D03*
%TO.P,D1,2,A*%
%TO.N,Net-(D1-A)*%
X176165540Y-101103000D03*
%TD*%
D22*
%TO.P,R47,1*%
%TO.N,Net-(U3B-+)*%
X152095500Y-104956000D03*
%TO.P,R47,2*%
%TO.N,Net-(C37-Pad2)*%
X152095500Y-106606000D03*
%TD*%
D24*
%TO.P,R20,1*%
%TO.N,Net-(D9-A)*%
X145869000Y-77651000D03*
%TO.P,R20,2*%
%TO.N,/Driver/U_CH*%
X144219000Y-77651000D03*
%TD*%
D21*
%TO.P,C22,1*%
%TO.N,/Driver/U*%
X132720000Y-79600000D03*
%TO.P,C22,2*%
%TO.N,Net-(D2-K)*%
X130820000Y-79600000D03*
%TD*%
D23*
%TO.P,C31,1*%
%TO.N,+24V*%
X162303000Y-70710000D03*
%TO.P,C31,2*%
%TO.N,GND*%
X163853000Y-70710000D03*
%TD*%
D17*
%TO.P,TP5,1,1*%
%TO.N,/OP_I_W*%
X138440000Y-95602000D03*
%TD*%
D18*
%TO.P,R2,1*%
%TO.N,Net-(D4-A)*%
X121408234Y-75910000D03*
%TO.P,R2,2*%
%TO.N,+3V3*%
X121408234Y-74260000D03*
%TD*%
%TO.P,R15,1*%
%TO.N,Net-(D1-A)*%
X177813155Y-103018000D03*
%TO.P,R15,2*%
%TO.N,+3V3*%
X177813155Y-101368000D03*
%TD*%
D17*
%TO.P,TP19,1,1*%
%TO.N,/Driver/W_CHN*%
X161935000Y-88490000D03*
%TD*%
D26*
%TO.P,D9,1,K*%
%TO.N,/Driver/U_CH*%
X142524000Y-75453000D03*
%TO.P,D9,2,A*%
%TO.N,Net-(D9-A)*%
X145824000Y-75453000D03*
%TD*%
D31*
%TO.P,R36,1*%
%TO.N,Net-(U3D-+)*%
X166293763Y-101875060D03*
%TO.P,R36,2*%
%TO.N,GND*%
X167943763Y-101875060D03*
%TD*%
D24*
%TO.P,R16,1*%
%TO.N,+24V*%
X139964000Y-79600000D03*
%TO.P,R16,2*%
%TO.N,/ADC_VBUS*%
X138314000Y-79600000D03*
%TD*%
D27*
%TO.P,R12,1*%
%TO.N,+5V*%
X110318260Y-68722330D03*
%TO.P,R12,2*%
%TO.N,Net-(Q1-B)*%
X112143260Y-68722330D03*
%TD*%
D23*
%TO.P,C29,1*%
%TO.N,+24V*%
X144269000Y-70710000D03*
%TO.P,C29,2*%
%TO.N,GND*%
X145819000Y-70710000D03*
%TD*%
D27*
%TO.P,R11,1*%
%TO.N,Net-(U4-REF)*%
X112485000Y-74520000D03*
%TO.P,R11,2*%
%TO.N,GND*%
X114310000Y-74520000D03*
%TD*%
D29*
%TO.P,C17,1*%
%TO.N,+3V3*%
X126515000Y-99158000D03*
%TO.P,C17,2*%
%TO.N,GND*%
X124965000Y-99158000D03*
%TD*%
D21*
%TO.P,C25,1*%
%TO.N,/Driver/W*%
X132720000Y-87220000D03*
%TO.P,C25,2*%
%TO.N,Net-(D7-K)*%
X130820000Y-87220000D03*
%TD*%
D17*
%TO.P,TP4,1,1*%
%TO.N,/ADC_VBUS*%
X136662000Y-81378000D03*
%TD*%
D24*
%TO.P,R3,1*%
%TO.N,+24V*%
X138503000Y-77822000D03*
%TO.P,R3,2*%
%TO.N,Net-(U5-EN)*%
X136853000Y-77822000D03*
%TD*%
D18*
%TO.P,R53,1*%
%TO.N,/SPI1_CLK*%
X123185571Y-106524000D03*
%TO.P,R53,2*%
%TO.N,Net-(U1-PB3)*%
X123185571Y-104874000D03*
%TD*%
%TO.P,R44,1*%
%TO.N,Net-(U3C-11)*%
X140268800Y-99011000D03*
%TO.P,R44,2*%
%TO.N,/OP_I_W*%
X140268800Y-97361000D03*
%TD*%
D28*
%TO.P,C35,1*%
%TO.N,Net-(U3C-+)*%
X168122131Y-105006000D03*
%TO.P,C35,2*%
%TO.N,Net-(U3C-11)*%
X168122131Y-106556000D03*
%TD*%
D18*
%TO.P,R42,1*%
%TO.N,Net-(C33-Pad2)*%
X146568000Y-99011000D03*
%TO.P,R42,2*%
%TO.N,/OP_I_U*%
X146568000Y-97361000D03*
%TD*%
D24*
%TO.P,R7,1*%
%TO.N,+5V*%
X118217781Y-67425705D03*
%TO.P,R7,2*%
%TO.N,GND*%
X116567781Y-67425705D03*
%TD*%
D18*
%TO.P,R50,1*%
%TO.N,/DEBUG_TX*%
X128084142Y-106524000D03*
%TO.P,R50,2*%
%TO.N,Net-(U1-PB6)*%
X128084142Y-104874000D03*
%TD*%
D28*
%TO.P,C5,1*%
%TO.N,+3V3*%
X119656470Y-74310000D03*
%TO.P,C5,2*%
%TO.N,GND*%
X119656470Y-75860000D03*
%TD*%
D29*
%TO.P,C8,1*%
%TO.N,+5V*%
X118226134Y-65537293D03*
%TO.P,C8,2*%
%TO.N,GND*%
X116676134Y-65537293D03*
%TD*%
D21*
%TO.P,C23,1*%
%TO.N,/Driver/V*%
X132720000Y-83410000D03*
%TO.P,C23,2*%
%TO.N,Net-(D6-K)*%
X130820000Y-83410000D03*
%TD*%
D29*
%TO.P,C12,1*%
%TO.N,+12V*%
X123639913Y-63886586D03*
%TO.P,C12,2*%
%TO.N,GND*%
X122089913Y-63886586D03*
%TD*%
D18*
%TO.P,R54,1*%
%TO.N,/SPI1_CS*%
X121552714Y-106524000D03*
%TO.P,R54,2*%
%TO.N,Net-(U1-PA15)*%
X121552714Y-104874000D03*
%TD*%
D21*
%TO.P,C9,1*%
%TO.N,+5V*%
X118120000Y-69440000D03*
%TO.P,C9,2*%
%TO.N,GND*%
X116220000Y-69440000D03*
%TD*%
D24*
%TO.P,R25,1*%
%TO.N,Net-(D11-A)*%
X154867000Y-85906000D03*
%TO.P,R25,2*%
%TO.N,/Driver/V_CHN*%
X153217000Y-85906000D03*
%TD*%
%TO.P,R18,1*%
%TO.N,+12V*%
X117967331Y-79626494D03*
%TO.P,R18,2*%
%TO.N,Net-(U2-VCC)*%
X116317331Y-79626494D03*
%TD*%
D31*
%TO.P,R38,1*%
%TO.N,Vref*%
X148971500Y-100002000D03*
%TO.P,R38,2*%
%TO.N,/Driver/i_u*%
X150621500Y-100002000D03*
%TD*%
D19*
%TO.P,C15,1*%
%TO.N,Net-(C14-Pad1)*%
X121940000Y-69205000D03*
%TO.P,C15,2*%
%TO.N,GND*%
X121940000Y-67655000D03*
%TD*%
D32*
%TO.P,R29,1*%
%TO.N,Vref*%
X168201263Y-98827060D03*
%TO.P,R29,2*%
%TO.N,Net-(U3D--)*%
X166376263Y-98827060D03*
%TD*%
D29*
%TO.P,C24,1*%
%TO.N,GND*%
X117917331Y-81360833D03*
%TO.P,C24,2*%
%TO.N,Net-(U2-VCC)*%
X116367331Y-81360833D03*
%TD*%
D24*
%TO.P,R24,1*%
%TO.N,Net-(D10-A)*%
X154936800Y-77687693D03*
%TO.P,R24,2*%
%TO.N,/Driver/V_CH*%
X153286800Y-77687693D03*
%TD*%
D18*
%TO.P,R56,1*%
%TO.N,/SWDIO*%
X118287000Y-106524000D03*
%TO.P,R56,2*%
%TO.N,Net-(U1-PA13)*%
X118287000Y-104874000D03*
%TD*%
D24*
%TO.P,R31,1*%
%TO.N,Net-(D13-A)*%
X163899340Y-85906000D03*
%TO.P,R31,2*%
%TO.N,/Driver/W_CHN*%
X162249340Y-85906000D03*
%TD*%
D23*
%TO.P,C19,1*%
%TO.N,+3V3*%
X121904000Y-88204000D03*
%TO.P,C19,2*%
%TO.N,GND*%
X123454000Y-88204000D03*
%TD*%
D22*
%TO.P,R43,1*%
%TO.N,Net-(U3C-+)*%
X166368763Y-104956000D03*
%TO.P,R43,2*%
%TO.N,Net-(U3C-11)*%
X166368763Y-106606000D03*
%TD*%
D18*
%TO.P,R51,1*%
%TO.N,/SPI1_MOSI*%
X126451285Y-106524000D03*
%TO.P,R51,2*%
%TO.N,Net-(U1-PB5)*%
X126451285Y-104874000D03*
%TD*%
D31*
%TO.P,R46,1*%
%TO.N,Vref*%
X148976378Y-103478775D03*
%TO.P,R46,2*%
%TO.N,/Driver/i_v*%
X150626378Y-103478775D03*
%TD*%
D22*
%TO.P,R13,1*%
%TO.N,+3V3*%
X181028385Y-101368000D03*
%TO.P,R13,2*%
%TO.N,/KEY_01*%
X181028385Y-103018000D03*
%TD*%
D17*
%TO.P,TP17,1,1*%
%TO.N,/Driver/U_CHN*%
X143520000Y-88490000D03*
%TD*%
D24*
%TO.P,R17,1*%
%TO.N,/ADC_VBUS*%
X136725000Y-79600000D03*
%TO.P,R17,2*%
%TO.N,GND*%
X135075000Y-79600000D03*
%TD*%
D26*
%TO.P,D8,1,K*%
%TO.N,/Driver/U_CHN*%
X142378000Y-83664000D03*
%TO.P,D8,2,A*%
%TO.N,Net-(D8-A)*%
X145678000Y-83664000D03*
%TD*%
D25*
%TO.P,C28,1*%
%TO.N,+24V*%
X160515500Y-72742000D03*
%TO.P,C28,2*%
%TO.N,GND*%
X163640500Y-72742000D03*
%TD*%
D18*
%TO.P,R10,1*%
%TO.N,Net-(C14-Pad1)*%
X123635000Y-69255000D03*
%TO.P,R10,2*%
%TO.N,+12V*%
X123635000Y-67605000D03*
%TD*%
D25*
%TO.P,C30,1*%
%TO.N,+24V*%
X151549300Y-72778693D03*
%TO.P,C30,2*%
%TO.N,GND*%
X154674300Y-72778693D03*
%TD*%
D18*
%TO.P,R48,1*%
%TO.N,Net-(C37-Pad2)*%
X143418400Y-99011000D03*
%TO.P,R48,2*%
%TO.N,/OP_I_V*%
X143418400Y-97361000D03*
%TD*%
D19*
%TO.P,C34,1*%
%TO.N,GND*%
X144993200Y-98961000D03*
%TO.P,C34,2*%
%TO.N,/OP_I_U*%
X144993200Y-97411000D03*
%TD*%
%TO.P,C1,1*%
%TO.N,/KEY_01*%
X179420770Y-102968000D03*
%TO.P,C1,2*%
%TO.N,GND*%
X179420770Y-101418000D03*
%TD*%
D24*
%TO.P,R40,1*%
%TO.N,Vref*%
X167943763Y-103478775D03*
%TO.P,R40,2*%
%TO.N,/Driver/i_w*%
X166293763Y-103478775D03*
%TD*%
D33*
%TO.P,D4,1,K*%
%TO.N,GND*%
X123200000Y-74040000D03*
%TO.P,D4,2,A*%
%TO.N,Net-(D4-A)*%
X123200000Y-75790000D03*
%TD*%
D24*
%TO.P,R19,1*%
%TO.N,Net-(D8-A)*%
X145723000Y-85906000D03*
%TO.P,R19,2*%
%TO.N,/Driver/U_CHN*%
X144073000Y-85906000D03*
%TD*%
D17*
%TO.P,TP7,1,1*%
%TO.N,/OP_I_U*%
X138694000Y-92808000D03*
%TD*%
D19*
%TO.P,C2,1*%
%TO.N,/RST*%
X182636000Y-102968000D03*
%TO.P,C2,2*%
%TO.N,GND*%
X182636000Y-101418000D03*
%TD*%
D18*
%TO.P,R52,1*%
%TO.N,/SPI1_MISO*%
X124818428Y-106524000D03*
%TO.P,R52,2*%
%TO.N,Net-(U1-PB4)*%
X124818428Y-104874000D03*
%TD*%
D34*
%TO.N,/ADC_VBUS*%
X118183000Y-93868000D03*
X137678000Y-78838000D03*
X113059000Y-93824000D03*
%TO.N,/Driver/W_CH*%
X147584000Y-80509000D03*
%TO.N,/Driver/V_CH*%
X146785500Y-80071500D03*
%TO.N,/Driver/U_CH*%
X142504000Y-79854000D03*
%TO.N,/OP_I_W*%
X136916000Y-94840000D03*
%TO.N,/OP_I_V*%
X136916000Y-93824000D03*
%TO.N,/OP_I_U*%
X136916000Y-92808000D03*
%TO.N,+12V*%
X117967331Y-78685331D03*
X125994000Y-63598000D03*
%TO.N,+3V3*%
X126712000Y-97888000D03*
X119644000Y-70964000D03*
X110500000Y-90776000D03*
X173314940Y-100351060D03*
X151984000Y-101780000D03*
X181112000Y-99666000D03*
X113040000Y-90776000D03*
X117358000Y-99920000D03*
X137424000Y-102206000D03*
X169174000Y-100351060D03*
X121930000Y-89252000D03*
%TO.N,+3.3VADC*%
X110754000Y-77568000D03*
X119644000Y-89252000D03*
X108125790Y-75530080D03*
%TO.N,/Driver/U_CHN*%
X141742000Y-88828186D03*
%TO.N,/Driver/V_CHN*%
X140218000Y-89779000D03*
%TO.N,/Driver/W_CHN*%
X141742000Y-90014000D03*
%TO.N,/Driver/U*%
X148346000Y-74012000D03*
X147584000Y-74774000D03*
X149870000Y-74012000D03*
X147584000Y-72488000D03*
X149108000Y-72488000D03*
X149870000Y-71726000D03*
X149108000Y-73250000D03*
X132720000Y-80992000D03*
X148346000Y-71726000D03*
X149108000Y-74012000D03*
X148346000Y-74774000D03*
X149108000Y-71726000D03*
X147584000Y-74012000D03*
X149870000Y-74774000D03*
X149870000Y-72488000D03*
X149870000Y-73250000D03*
X147584000Y-73250000D03*
X148346000Y-73250000D03*
X148346000Y-72488000D03*
X147584000Y-71726000D03*
X149108000Y-74774000D03*
%TO.N,/Driver/V*%
X156982000Y-74012000D03*
X133868000Y-83410000D03*
X157871000Y-73250000D03*
X157913333Y-72488000D03*
X158760000Y-74012000D03*
X158760000Y-73250000D03*
X157871000Y-74774000D03*
X153934000Y-80362000D03*
X158844666Y-72488000D03*
X156982000Y-71726000D03*
X157871000Y-74012000D03*
X156982000Y-72488000D03*
X158844666Y-71726000D03*
X145806000Y-80616000D03*
X156982000Y-73250000D03*
X158760000Y-74774000D03*
X157913333Y-71726000D03*
X156982000Y-74774000D03*
%TO.N,/Driver/W*%
X168412000Y-74012000D03*
X167650000Y-72488000D03*
X169174000Y-74012000D03*
X167650000Y-73250000D03*
X167650000Y-74012000D03*
X166126000Y-72488000D03*
X166888000Y-71726000D03*
X166888000Y-74774000D03*
X169174000Y-73250000D03*
X168412000Y-73250000D03*
X163332000Y-81124000D03*
X167650000Y-74774000D03*
X134376000Y-87474000D03*
X169174000Y-72488000D03*
X168412000Y-72488000D03*
X166126000Y-73250000D03*
X166126000Y-71726000D03*
X166888000Y-73250000D03*
X168412000Y-74774000D03*
X166888000Y-72488000D03*
X166126000Y-74012000D03*
X169174000Y-74774000D03*
X166888000Y-74012000D03*
X146060000Y-82394000D03*
X166126000Y-74774000D03*
X167650000Y-71726000D03*
X168412000Y-71726000D03*
X169174000Y-71726000D03*
%TO.N,GND*%
X136535000Y-75536000D03*
X132852000Y-101190000D03*
X163758000Y-101780000D03*
X118374000Y-89252000D03*
X182420780Y-85657220D03*
X120660000Y-66536226D03*
X136408000Y-73885000D03*
X144028000Y-60949805D03*
X135519000Y-75663000D03*
X121753581Y-66846794D03*
X146060000Y-63344000D03*
X133868000Y-101190000D03*
X136408000Y-73123000D03*
X168920000Y-90776000D03*
X135812000Y-98055500D03*
X146578738Y-99909262D03*
X168920000Y-94078000D03*
X126212000Y-102078000D03*
X162824000Y-72742000D03*
X156474000Y-63344000D03*
X135519000Y-74774000D03*
X150378000Y-90776000D03*
X160284000Y-93252500D03*
X150378000Y-94078000D03*
X169682000Y-91601500D03*
X136662000Y-98142000D03*
X143012000Y-61747870D03*
X168920000Y-92427000D03*
X133868000Y-68805000D03*
X144028000Y-62545935D03*
X123962000Y-74774000D03*
X160284000Y-92427000D03*
X135900000Y-99158000D03*
X111770000Y-71980000D03*
X135773000Y-70583000D03*
X160284000Y-90776000D03*
X135392000Y-94078000D03*
X136916000Y-95602000D03*
X172476000Y-107540000D03*
X168920000Y-93252500D03*
X160284000Y-91601500D03*
X132979000Y-68805000D03*
X134122000Y-79600000D03*
X135519000Y-76425000D03*
X144028000Y-61747870D03*
X146060000Y-60949805D03*
X159522000Y-94078000D03*
X136408000Y-74774000D03*
X143012000Y-63344000D03*
X131074000Y-96355500D03*
X169682000Y-93252500D03*
X168920000Y-91601500D03*
X134884000Y-101190000D03*
X156474000Y-62582000D03*
X111008000Y-81124000D03*
X151140000Y-91601500D03*
X148600000Y-62582000D03*
X118882000Y-81378000D03*
X150378000Y-92427000D03*
X135900000Y-101190000D03*
X159522000Y-91601500D03*
X143012000Y-60949805D03*
X151140000Y-92427000D03*
X135058500Y-99745500D03*
X148970349Y-95718349D03*
X135773000Y-71472000D03*
X142102984Y-62545935D03*
X148600000Y-63344000D03*
X151140000Y-62582000D03*
X131836000Y-101190000D03*
X135519000Y-73123000D03*
X136535000Y-76298000D03*
X148346000Y-100936000D03*
X135392000Y-94840000D03*
X193050000Y-83410000D03*
X131170354Y-105235000D03*
X150378000Y-91601500D03*
X138948000Y-72361000D03*
X153680000Y-72742000D03*
X147920000Y-106606000D03*
X135900000Y-100174000D03*
X150378000Y-93252500D03*
X144028000Y-63344000D03*
X142102984Y-60949805D03*
X194320000Y-107540000D03*
X110500000Y-93570000D03*
X131836000Y-93570000D03*
X151140000Y-93252500D03*
X183996000Y-106434000D03*
X115126867Y-69893133D03*
X159522000Y-93252500D03*
X181874000Y-102206000D03*
X131836000Y-94665500D03*
X127594944Y-72157056D03*
X134884000Y-68805000D03*
X135773000Y-69694000D03*
X116575251Y-68267372D03*
X143012000Y-62545935D03*
X160284000Y-94078000D03*
X145044000Y-60949805D03*
X133614000Y-93570000D03*
X169097060Y-101875060D03*
X169682000Y-92427000D03*
X132344000Y-77822000D03*
X142102984Y-61747870D03*
X151140000Y-60949805D03*
X135773000Y-68932000D03*
X131328000Y-100428000D03*
X121930000Y-91284000D03*
X153680000Y-63344000D03*
X136916000Y-96364000D03*
X142102984Y-63344000D03*
X169682000Y-90776000D03*
X124978000Y-98142000D03*
X136916000Y-72361000D03*
X151140000Y-90776000D03*
X132598000Y-93570000D03*
X146060000Y-62582000D03*
X135519000Y-73885000D03*
X180350000Y-102206000D03*
X134630000Y-93570000D03*
X151140000Y-63344000D03*
X135900000Y-96364000D03*
X123441000Y-89265000D03*
X135900000Y-72361000D03*
X169682000Y-94078000D03*
X135900000Y-95602000D03*
X137932000Y-72361000D03*
X131074000Y-98650000D03*
X142059665Y-95111500D03*
X121422000Y-86966000D03*
X136916000Y-97126000D03*
X131074000Y-94332000D03*
X119656470Y-76806000D03*
X129677000Y-63598000D03*
X148600000Y-60949805D03*
X124216000Y-93824000D03*
X159522000Y-92427000D03*
X156474000Y-60949805D03*
X131074000Y-95348000D03*
X144282000Y-72742000D03*
X118374000Y-98650000D03*
X159522000Y-90776000D03*
X131328000Y-99666000D03*
X135900000Y-97126000D03*
X151140000Y-94078000D03*
X153680000Y-60949805D03*
X153680000Y-62582000D03*
X158252000Y-63344000D03*
X128869234Y-77994766D03*
%TO.N,/Driver/i_w*%
X164856000Y-103476000D03*
%TO.N,Net-(U3D--)*%
X164856000Y-98904000D03*
%TO.N,Vref*%
X147584000Y-101952000D03*
X170698000Y-101952000D03*
%TO.N,/Driver/i_v*%
X151648000Y-103478775D03*
%TO.N,/Driver/i_u*%
X152156000Y-100682000D03*
%TO.N,Net-(U4-REF)*%
X110820000Y-72930000D03*
%TO.N,+5V*%
X141488000Y-93824000D03*
X144163354Y-98260646D03*
X144282000Y-102968000D03*
X120418470Y-72996000D03*
X115326000Y-74493133D03*
X108722000Y-68932000D03*
X115202226Y-64236226D03*
%TO.N,Net-(Q1-B)*%
X112720000Y-72676000D03*
%TO.N,/DEBUG_RX*%
X125924285Y-108243257D03*
X116596000Y-108556000D03*
X127010000Y-108264000D03*
%TO.N,Net-(U1-PB7)*%
X129717000Y-103911428D03*
%TO.N,/DEBUG_TX*%
X116596000Y-107540000D03*
X125740000Y-107540000D03*
X127518000Y-107540000D03*
%TO.N,Net-(U1-PB6)*%
X128084142Y-103911428D03*
%TO.N,/SPI1_CS*%
X146314000Y-106524000D03*
X122283571Y-106521068D03*
%TO.N,Net-(U1-PB5)*%
X126451285Y-103911428D03*
%TO.N,Net-(U1-PB3)*%
X123113000Y-103911428D03*
%TO.N,/SPI1_MISO*%
X127518000Y-108791000D03*
X146314000Y-108013003D03*
X125549285Y-106503693D03*
%TO.N,Net-(U1-PA15)*%
X121552714Y-103911428D03*
%TO.N,/SPI1_CLK*%
X123875000Y-106524000D03*
X146314000Y-107286000D03*
X128581001Y-108464000D03*
%TO.N,/SWCLK*%
X119136000Y-105762000D03*
%TO.N,Net-(U1-PA14)*%
X119919857Y-103911428D03*
%TO.N,/SWDIO*%
X116596000Y-106524000D03*
%TO.N,Net-(U1-PA13)*%
X118287000Y-103984000D03*
%TO.N,Net-(U3A--)*%
X152918000Y-100174000D03*
%TO.N,Net-(U3C-+)*%
X165383000Y-104981000D03*
%TO.N,Net-(U3D-+)*%
X164856000Y-101130000D03*
%TO.N,Net-(D13-A)*%
X164348000Y-82648000D03*
%TO.N,Net-(D12-A)*%
X163098000Y-75453000D03*
%TO.N,/SPI1_MOSI*%
X127177000Y-106524000D03*
X146314000Y-108810000D03*
%TO.N,Net-(U1-PB4)*%
X124818428Y-103911428D03*
%TO.N,Net-(C37-Pad2)*%
X155416000Y-104450000D03*
%TO.N,Net-(D11-A)*%
X155204000Y-82648000D03*
%TO.N,Net-(D10-A)*%
X153726307Y-75489693D03*
%TO.N,Net-(U3B-+)*%
X152664000Y-102714000D03*
%TO.N,Net-(D9-A)*%
X144536000Y-75282000D03*
%TO.N,Net-(D8-A)*%
X145552000Y-84680000D03*
%TO.N,Net-(U2-VCC)*%
X118628000Y-86966000D03*
%TO.N,Net-(U5-EN)*%
X132090000Y-75536000D03*
%TO.N,+24V*%
X140929146Y-75648268D03*
X142758000Y-70964000D03*
X152156000Y-70202000D03*
X161300000Y-70710000D03*
%TO.N,Net-(C14-Pad1)*%
X127010000Y-70456000D03*
%TO.N,Net-(U3C-11)*%
X164348000Y-105000000D03*
%TO.N,Net-(C33-Pad2)*%
X154278000Y-99830000D03*
%TO.N,/KEY_01*%
X171968000Y-104492000D03*
X138948000Y-103984000D03*
X143520000Y-103984000D03*
X179420770Y-103984000D03*
%TO.N,/RST*%
X138948000Y-105508000D03*
X143774000Y-105508000D03*
X129550000Y-96341000D03*
X182636000Y-103984000D03*
X129550000Y-99666000D03*
X171206000Y-105000000D03*
%TO.N,Net-(D6-K)*%
X129550000Y-83410000D03*
X122692000Y-83410000D03*
X124978000Y-83410000D03*
%TO.N,Net-(D7-K)*%
X123962000Y-86712000D03*
%TO.N,/ENCODER_Z*%
X179588000Y-87982000D03*
X176664000Y-87982000D03*
%TO.N,/ENCODER_B*%
X176540000Y-86966000D03*
X180102068Y-86430220D03*
%TO.N,/ENCODER_A*%
X179588000Y-86966000D03*
X177318000Y-86966000D03*
%TO.N,/LED_01*%
X144536000Y-103984000D03*
X172596460Y-103863540D03*
X138948000Y-104746000D03*
%TO.N,Net-(D5-K)*%
X139964000Y-77822000D03*
X138008845Y-68754845D03*
%TO.N,/CAN_+*%
X122814864Y-94625864D03*
X122946000Y-90776000D03*
%TO.N,/CAN_-*%
X123664864Y-94625864D03*
X123708000Y-90220000D03*
%TO.N,Net-(D2-K)*%
X129550000Y-79600000D03*
%TD*%
D35*
%TO.N,/ADC_VBUS*%
X137424000Y-79600000D02*
X138314000Y-79600000D01*
X136725000Y-81315000D02*
X136662000Y-81378000D01*
X136725000Y-79600000D02*
X136725000Y-81315000D01*
X137678000Y-79346000D02*
X137678000Y-78838000D01*
X113059000Y-93824000D02*
X118183000Y-93868000D01*
X136725000Y-79600000D02*
X137424000Y-79600000D01*
X137424000Y-79600000D02*
X137678000Y-79346000D01*
%TO.N,/Driver/W_CH*%
X160491922Y-79392078D02*
X160491922Y-77706614D01*
D36*
X160558000Y-75453000D02*
X160558000Y-77640536D01*
X162197386Y-77706614D02*
X162253000Y-77651000D01*
D35*
X147584000Y-80509000D02*
X152771000Y-80509000D01*
D36*
X160491922Y-77706614D02*
X162197386Y-77706614D01*
X160558000Y-77640536D02*
X160491922Y-77706614D01*
D35*
X152771000Y-80509000D02*
X153462500Y-79817500D01*
X160066500Y-79817500D02*
X160491922Y-79392078D01*
X153462500Y-79817500D02*
X160066500Y-79817500D01*
%TO.N,/Driver/V_CH*%
X151523959Y-79216041D02*
X151523959Y-77686121D01*
D36*
X151591800Y-75489693D02*
X151591800Y-77618280D01*
X151523959Y-77686121D02*
X153285228Y-77686121D01*
X153285228Y-77686121D02*
X153286800Y-77687693D01*
D35*
X147003000Y-79854000D02*
X150886000Y-79854000D01*
D36*
X151591800Y-77618280D02*
X151523959Y-77686121D01*
D35*
X150886000Y-79854000D02*
X151523959Y-79216041D01*
X146785500Y-80071500D02*
X147003000Y-79854000D01*
D36*
%TO.N,/Driver/U_CH*%
X142504000Y-77739000D02*
X142504000Y-79854000D01*
X142592000Y-77651000D02*
X142504000Y-77739000D01*
X142524000Y-75453000D02*
X142524000Y-77719000D01*
X142524000Y-77719000D02*
X142504000Y-77739000D01*
X144219000Y-77651000D02*
X142592000Y-77651000D01*
%TO.N,/OP_I_W*%
X140218800Y-97411000D02*
X140268800Y-97361000D01*
X138440000Y-97157000D02*
X138440000Y-95602000D01*
X138694000Y-97411000D02*
X140218800Y-97411000D01*
X137678000Y-94840000D02*
X138440000Y-95602000D01*
X140268800Y-97361000D02*
X138644000Y-97361000D01*
X136916000Y-94840000D02*
X137678000Y-94840000D01*
X138644000Y-97361000D02*
X138440000Y-97157000D01*
%TO.N,/OP_I_V*%
X139601042Y-93824000D02*
X140270886Y-94493844D01*
X136916000Y-93824000D02*
X139601042Y-93824000D01*
X141843600Y-97411000D02*
X141843600Y-96066558D01*
X141843600Y-97411000D02*
X143368400Y-97411000D01*
X143368400Y-97411000D02*
X143418400Y-97361000D01*
X141843600Y-96066558D02*
X140270886Y-94493844D01*
%TO.N,/OP_I_U*%
X143774000Y-92808000D02*
X144993200Y-94027200D01*
X144993200Y-94027200D02*
X144993200Y-97411000D01*
X146518000Y-97411000D02*
X146568000Y-97361000D01*
X136916000Y-92808000D02*
X143774000Y-92808000D01*
X144993200Y-97411000D02*
X146518000Y-97411000D01*
%TO.N,+12V*%
X123639913Y-63886586D02*
X125705414Y-63886586D01*
X125705414Y-63886586D02*
X125994000Y-63598000D01*
X117967331Y-78685331D02*
X117967331Y-79626494D01*
X123639913Y-65756421D02*
X123649535Y-65766043D01*
X123649535Y-65766043D02*
X123649535Y-67590465D01*
X123649535Y-67590465D02*
X123635000Y-67605000D01*
X123639913Y-63886586D02*
X123639913Y-65756421D01*
D35*
%TO.N,+3V3*%
X177810000Y-100682000D02*
X178064000Y-100428000D01*
D36*
X126712000Y-97888000D02*
X126712000Y-98961000D01*
D35*
X181028385Y-100682000D02*
X181112000Y-100682000D01*
D36*
X155712000Y-95348000D02*
X155712000Y-101190000D01*
X121904000Y-90076882D02*
X121904000Y-88204000D01*
X150571500Y-101780000D02*
X151984000Y-101780000D01*
D35*
X181112000Y-100598385D02*
X181028385Y-100682000D01*
D36*
X156220000Y-94840000D02*
X155712000Y-95348000D01*
X121408234Y-74260000D02*
X117999706Y-74260000D01*
D35*
X181028385Y-100682000D02*
X181028385Y-100511615D01*
D36*
X173314940Y-99666000D02*
X173314940Y-98904000D01*
X119656470Y-70976470D02*
X119644000Y-70964000D01*
D35*
X116355000Y-99920000D02*
X116342000Y-99933000D01*
D36*
X173314940Y-98980940D02*
X174000000Y-99666000D01*
X126712000Y-97993000D02*
X126712000Y-97888000D01*
X127518000Y-91792000D02*
X144536000Y-91792000D01*
D35*
X177813155Y-100685155D02*
X177810000Y-100682000D01*
D36*
X174000000Y-99666000D02*
X173314940Y-99666000D01*
D37*
X169174000Y-100351060D02*
X167943763Y-100351060D01*
D35*
X181028385Y-100511615D02*
X181112000Y-100428000D01*
D36*
X174000000Y-99666000D02*
X173314940Y-100351060D01*
D35*
X180604000Y-100428000D02*
X180774385Y-100428000D01*
D36*
X119952382Y-92028500D02*
X121904000Y-90076882D01*
X117999706Y-74260000D02*
X117654706Y-73915000D01*
X155122000Y-101780000D02*
X151984000Y-101780000D01*
X126712000Y-97888000D02*
X126712000Y-92598000D01*
X156220000Y-94840000D02*
X172476000Y-94840000D01*
D35*
X181112000Y-99666000D02*
X181112000Y-100598385D01*
D36*
X119656470Y-74310000D02*
X119656470Y-70976470D01*
X137424000Y-102206000D02*
X127518000Y-102206000D01*
X147584000Y-94840000D02*
X154950000Y-94840000D01*
D35*
X178064000Y-100428000D02*
X180604000Y-100428000D01*
D36*
X144536000Y-91792000D02*
X147584000Y-94840000D01*
D35*
X181112000Y-100682000D02*
X181366000Y-100428000D01*
X181366000Y-100428000D02*
X183906000Y-100428000D01*
X183906000Y-100428000D02*
X184243615Y-100765615D01*
X180774385Y-100428000D02*
X181028385Y-100682000D01*
D36*
X155712000Y-101190000D02*
X155122000Y-101780000D01*
D35*
X177813155Y-101368000D02*
X177813155Y-100685155D01*
X181028385Y-101368000D02*
X181028385Y-100682000D01*
D36*
X126712000Y-98961000D02*
X126515000Y-99158000D01*
D35*
X181112000Y-100428000D02*
X181366000Y-100428000D01*
D36*
X155712000Y-95348000D02*
X155204000Y-94840000D01*
X121904000Y-88204000D02*
X121904000Y-89226000D01*
X173314940Y-98904000D02*
X173314940Y-98980940D01*
X127518000Y-102206000D02*
X126515000Y-101203000D01*
X126712000Y-92598000D02*
X127518000Y-91792000D01*
X126515000Y-101203000D02*
X126515000Y-99158000D01*
X114292500Y-92028500D02*
X119952382Y-92028500D01*
X155204000Y-94840000D02*
X154950000Y-94840000D01*
X172476000Y-94840000D02*
X173314940Y-95678940D01*
D35*
X180604000Y-100428000D02*
X181112000Y-100428000D01*
X184243615Y-100765615D02*
X184243615Y-101368000D01*
X117358000Y-99920000D02*
X116355000Y-99920000D01*
D36*
X173314940Y-100351060D02*
X173314940Y-99666000D01*
X110500000Y-90776000D02*
X113040000Y-90776000D01*
X121904000Y-89226000D02*
X121930000Y-89252000D01*
X173314940Y-95678940D02*
X173314940Y-98904000D01*
X181112000Y-99666000D02*
X174000000Y-99666000D01*
X113040000Y-90776000D02*
X114292500Y-92028500D01*
X154950000Y-94840000D02*
X156220000Y-94840000D01*
%TO.N,+3.3VADC*%
X108317500Y-74520000D02*
X108317500Y-75338370D01*
X110754000Y-77568000D02*
X114310000Y-77568000D01*
X117612000Y-87220000D02*
X118628000Y-88236000D01*
X117612000Y-85696000D02*
X117612000Y-87220000D01*
D37*
X119644000Y-90281000D02*
X119657000Y-90268000D01*
D36*
X119136000Y-88236000D02*
X119657000Y-88757000D01*
X115072000Y-78330000D02*
X115072000Y-83156000D01*
X114310000Y-77568000D02*
X115072000Y-78330000D01*
X108317500Y-75338370D02*
X108125790Y-75530080D01*
X115072000Y-83156000D02*
X117612000Y-85696000D01*
X118628000Y-88236000D02*
X119136000Y-88236000D01*
X119657000Y-88757000D02*
X119657000Y-90268000D01*
%TO.N,/Driver/U_CHN*%
X144073000Y-84217000D02*
X144073000Y-85906000D01*
X144073000Y-87937000D02*
X143520000Y-88490000D01*
X143774000Y-83918000D02*
X144073000Y-84217000D01*
X142378000Y-83664000D02*
X143774000Y-83664000D01*
D35*
X141742000Y-88828186D02*
X143181814Y-88828186D01*
D36*
X144073000Y-85906000D02*
X144073000Y-87937000D01*
D35*
X143181814Y-88828186D02*
X143520000Y-88490000D01*
D36*
X143774000Y-83664000D02*
X143774000Y-83918000D01*
%TO.N,/Driver/V_CHN*%
X152664000Y-83664000D02*
X153172000Y-84172000D01*
X153217000Y-84471000D02*
X153217000Y-85906000D01*
D35*
X140564000Y-89433000D02*
X152102000Y-89433000D01*
D36*
X151522000Y-83664000D02*
X152664000Y-83664000D01*
X153217000Y-88318000D02*
X153045000Y-88490000D01*
X153172000Y-84172000D02*
X153172000Y-84426000D01*
D35*
X140218000Y-89779000D02*
X140564000Y-89433000D01*
D36*
X153172000Y-84426000D02*
X153217000Y-84471000D01*
D35*
X152102000Y-89433000D02*
X153045000Y-88490000D01*
D36*
X153217000Y-85906000D02*
X153217000Y-88318000D01*
%TO.N,/Driver/W_CHN*%
X161554000Y-83664000D02*
X162249340Y-84359340D01*
X162249340Y-88175660D02*
X161935000Y-88490000D01*
D35*
X160411000Y-90014000D02*
X161935000Y-88490000D01*
D36*
X160554340Y-83664000D02*
X161554000Y-83664000D01*
X162249340Y-85906000D02*
X162249340Y-88175660D01*
X162249340Y-84359340D02*
X162249340Y-85906000D01*
D35*
X141742000Y-90014000D02*
X160411000Y-90014000D01*
D36*
%TO.N,/Driver/U*%
X132720000Y-79600000D02*
X132720000Y-80992000D01*
%TO.N,/Driver/V*%
X132720000Y-83410000D02*
X133868000Y-83410000D01*
X145806000Y-80616000D02*
X146443500Y-81253500D01*
X153042500Y-81253500D02*
X153934000Y-80362000D01*
X146443500Y-81253500D02*
X153042500Y-81253500D01*
%TO.N,/Driver/W*%
X163078000Y-81378000D02*
X154188000Y-81378000D01*
X154188000Y-81378000D02*
X153550500Y-82015500D01*
X134122000Y-87220000D02*
X132720000Y-87220000D01*
X146438500Y-82015500D02*
X146060000Y-82394000D01*
X134376000Y-87474000D02*
X134122000Y-87220000D01*
X163332000Y-81124000D02*
X163078000Y-81378000D01*
X153550500Y-82015500D02*
X146438500Y-82015500D01*
%TO.N,GND*%
X145606500Y-72742000D02*
X144282000Y-72742000D01*
D38*
X179420770Y-101418000D02*
X179562000Y-101418000D01*
D36*
X111770000Y-71980000D02*
X111770000Y-72996000D01*
D35*
X141843600Y-98961000D02*
X141843600Y-98243600D01*
D36*
X116220000Y-69440000D02*
X116596000Y-69440000D01*
X121749535Y-65766043D02*
X121749535Y-66842748D01*
D38*
X182636000Y-101444000D02*
X181874000Y-102206000D01*
D35*
X148346000Y-101104500D02*
X149021500Y-101780000D01*
X146578738Y-99930738D02*
X146578738Y-99909262D01*
D36*
X116676134Y-65537293D02*
X116676134Y-67317352D01*
D35*
X141742000Y-98142000D02*
X138694000Y-98142000D01*
D36*
X135075000Y-79600000D02*
X134122000Y-79600000D01*
D35*
X146392588Y-99920000D02*
X146568000Y-99920000D01*
D36*
X145819000Y-70710000D02*
X145819000Y-72529500D01*
D35*
X146568000Y-99920000D02*
X146578738Y-99930738D01*
X179420770Y-101418000D02*
X179428385Y-101418000D01*
D36*
X169097060Y-101875060D02*
X167943763Y-101875060D01*
D35*
X118107000Y-90268000D02*
X118107000Y-89519000D01*
D37*
X149047500Y-106606000D02*
X147920000Y-106606000D01*
D36*
X123200000Y-74040000D02*
X123228000Y-74040000D01*
X163853000Y-70710000D02*
X163853000Y-72529500D01*
X169875500Y-106606000D02*
X171542000Y-106606000D01*
X122089913Y-63886586D02*
X122089913Y-65425665D01*
X145819000Y-72529500D02*
X145606500Y-72742000D01*
D38*
X182636000Y-101418000D02*
X182636000Y-101444000D01*
D36*
X116567781Y-68274842D02*
X116575251Y-68267372D01*
X123228000Y-74040000D02*
X123962000Y-74774000D01*
D35*
X153680000Y-72742000D02*
X154637607Y-72742000D01*
D36*
X116575251Y-68267372D02*
X116567781Y-68259902D01*
X163853000Y-72529500D02*
X163640500Y-72742000D01*
X121749535Y-66842748D02*
X121753581Y-66846794D01*
X121749535Y-66850840D02*
X121749535Y-67464535D01*
X154637607Y-72742000D02*
X154674300Y-72778693D01*
D35*
X148970349Y-95718349D02*
X148970349Y-96633476D01*
D36*
X112212000Y-73438000D02*
X113990000Y-73438000D01*
X113990000Y-73438000D02*
X114310000Y-73758000D01*
X117654706Y-75815000D02*
X119611470Y-75815000D01*
X116676134Y-67317352D02*
X116567781Y-67425705D01*
X119611470Y-75815000D02*
X119656470Y-75860000D01*
D38*
X179562000Y-101418000D02*
X180350000Y-102206000D01*
D37*
X117917331Y-81360833D02*
X118864833Y-81360833D01*
D36*
X118107000Y-98383000D02*
X118374000Y-98650000D01*
D35*
X182636000Y-101418000D02*
X182643615Y-101418000D01*
X123454000Y-89252000D02*
X123454000Y-88204000D01*
D36*
X116596000Y-69440000D02*
X116567781Y-69411781D01*
D35*
X148346000Y-100936000D02*
X148346000Y-101104500D01*
D36*
X133297000Y-77822000D02*
X132344000Y-77822000D01*
D35*
X118107000Y-89519000D02*
X118374000Y-89252000D01*
X138694000Y-98142000D02*
X136662000Y-98142000D01*
D36*
X121749535Y-67464535D02*
X121940000Y-67655000D01*
D35*
X138694000Y-98961000D02*
X138694000Y-98142000D01*
X124965000Y-98155000D02*
X124978000Y-98142000D01*
D36*
X154886800Y-70746693D02*
X154886800Y-72566193D01*
X116342000Y-98383000D02*
X118107000Y-98383000D01*
D37*
X147920000Y-106606000D02*
X147838000Y-106524000D01*
D36*
X111770000Y-72996000D02*
X112212000Y-73438000D01*
X114310000Y-73758000D02*
X114310000Y-74520000D01*
X171542000Y-106606000D02*
X172476000Y-107540000D01*
X121753581Y-66846794D02*
X121749535Y-66850840D01*
D35*
X123441000Y-89265000D02*
X123454000Y-89252000D01*
X145433588Y-98961000D02*
X146392588Y-99920000D01*
D36*
X154886800Y-72566193D02*
X154674300Y-72778693D01*
D35*
X141843600Y-98243600D02*
X141742000Y-98142000D01*
D36*
X116567781Y-68259902D02*
X116567781Y-67425705D01*
X162824000Y-72742000D02*
X163640500Y-72742000D01*
D37*
X118864833Y-81360833D02*
X118882000Y-81378000D01*
D35*
X124965000Y-99158000D02*
X124965000Y-98155000D01*
D36*
X119656470Y-76806000D02*
X119656470Y-75860000D01*
X116567781Y-69411781D02*
X116567781Y-68274842D01*
X122089913Y-65425665D02*
X121749535Y-65766043D01*
D35*
X144993200Y-98961000D02*
X145433588Y-98961000D01*
%TO.N,/Driver/i_w*%
X166290988Y-103476000D02*
X166293763Y-103478775D01*
X164856000Y-103476000D02*
X166290988Y-103476000D01*
%TO.N,Net-(U3D--)*%
X166299323Y-98904000D02*
X166376263Y-98827060D01*
X164856000Y-98904000D02*
X166299323Y-98904000D01*
D36*
%TO.N,Vref*%
X168201263Y-98827060D02*
X170113060Y-98827060D01*
X147584000Y-100428000D02*
X147584000Y-101952000D01*
X148010000Y-100002000D02*
X147584000Y-100428000D01*
X170698000Y-102968000D02*
X170187225Y-103478775D01*
X147584000Y-102968000D02*
X148094775Y-103478775D01*
X170698000Y-99412000D02*
X170698000Y-101952000D01*
X147584000Y-101952000D02*
X147584000Y-102968000D01*
X170113060Y-98827060D02*
X170698000Y-99412000D01*
X170187225Y-103478775D02*
X167943763Y-103478775D01*
X148971500Y-100002000D02*
X148010000Y-100002000D01*
X148094775Y-103478775D02*
X148976378Y-103478775D01*
X170698000Y-101952000D02*
X170698000Y-102968000D01*
%TO.N,/Driver/i_v*%
X151648000Y-103478775D02*
X150626378Y-103478775D01*
%TO.N,/Driver/i_u*%
X152156000Y-100682000D02*
X151476000Y-100002000D01*
X151476000Y-100002000D02*
X150621500Y-100002000D01*
%TO.N,Net-(U4-REF)*%
X110142500Y-74520000D02*
X112485000Y-74520000D01*
X110142500Y-73607500D02*
X110820000Y-72930000D01*
X110142500Y-74520000D02*
X110142500Y-73607500D01*
%TO.N,+5V*%
X143520000Y-93824000D02*
X144028000Y-94332000D01*
X108931670Y-68722330D02*
X108722000Y-68932000D01*
X110318260Y-68722330D02*
X108931670Y-68722330D01*
X117488226Y-64236226D02*
X118226134Y-64974134D01*
D37*
X144028000Y-94332000D02*
X144147400Y-94451400D01*
D36*
X109230000Y-77568000D02*
X109230000Y-99595609D01*
X115326000Y-74493133D02*
X115326000Y-75536000D01*
X115326000Y-75536000D02*
X114818000Y-76044000D01*
X118226134Y-69333866D02*
X118120000Y-69440000D01*
X120418470Y-70214470D02*
X120418470Y-72996000D01*
X112602391Y-102968000D02*
X144282000Y-102968000D01*
X118226134Y-69333866D02*
X119537866Y-69333866D01*
X118226134Y-65537293D02*
X118226134Y-69333866D01*
X115202226Y-64236226D02*
X117488226Y-64236226D01*
X118226134Y-64974134D02*
X118226134Y-65537293D01*
X114818000Y-76044000D02*
X110754000Y-76044000D01*
X119537866Y-69333866D02*
X120418470Y-70214470D01*
X110754000Y-76044000D02*
X109230000Y-77568000D01*
D37*
X144147400Y-98244692D02*
X144163354Y-98260646D01*
D36*
X141488000Y-93824000D02*
X143520000Y-93824000D01*
D37*
X144147400Y-94451400D02*
X144147400Y-98244692D01*
D36*
X109230000Y-99595609D02*
X112602391Y-102968000D01*
%TO.N,Net-(Q1-B)*%
X112143260Y-68722330D02*
X112143260Y-69813260D01*
X112143260Y-69813260D02*
X112720000Y-70390000D01*
X112720000Y-70390000D02*
X112720000Y-72676000D01*
D35*
%TO.N,/DEBUG_RX*%
X125486000Y-108556000D02*
X125740000Y-108302000D01*
X125798743Y-108243257D02*
X125924285Y-108243257D01*
X116596000Y-108556000D02*
X125486000Y-108556000D01*
X129717000Y-107119000D02*
X129717000Y-106524000D01*
X125740000Y-108302000D02*
X125798743Y-108243257D01*
X129296000Y-107540000D02*
X129717000Y-107119000D01*
X127010000Y-108264000D02*
X127988709Y-108264000D01*
X127988709Y-108264000D02*
X128712709Y-107540000D01*
X128712709Y-107540000D02*
X129296000Y-107540000D01*
%TO.N,Net-(U1-PB7)*%
X129717000Y-104874000D02*
X129717000Y-103984000D01*
%TO.N,/DEBUG_TX*%
X128084142Y-106524000D02*
X128084142Y-107227858D01*
X128084142Y-107227858D02*
X127772000Y-107540000D01*
X116596000Y-107540000D02*
X125740000Y-107540000D01*
X127772000Y-107540000D02*
X127518000Y-107540000D01*
%TO.N,Net-(U1-PB6)*%
X128084142Y-103820286D02*
X128193000Y-103711428D01*
X128084142Y-104874000D02*
X128084142Y-104092858D01*
%TO.N,/SPI1_CS*%
X132344000Y-106524000D02*
X131582000Y-105762000D01*
X146314000Y-106524000D02*
X132344000Y-106524000D01*
X121552714Y-106524000D02*
X122280639Y-106524000D01*
X131582000Y-105762000D02*
X122692000Y-105762000D01*
X122283571Y-106170429D02*
X122283571Y-106521068D01*
X122692000Y-105762000D02*
X122283571Y-106170429D01*
X122280639Y-106524000D02*
X122283571Y-106521068D01*
%TO.N,Net-(U1-PB5)*%
X126451285Y-104874000D02*
X126451285Y-104020285D01*
X126451285Y-103747713D02*
X126415000Y-103711428D01*
%TO.N,Net-(U1-PB3)*%
X123185571Y-104874000D02*
X123185571Y-104056571D01*
X123185571Y-103783999D02*
X123113000Y-103711428D01*
%TO.N,/SPI1_MISO*%
X131401000Y-108991000D02*
X127718000Y-108991000D01*
X125528978Y-106524000D02*
X125549285Y-106503693D01*
X124818428Y-106524000D02*
X125528978Y-106524000D01*
X146314000Y-108013003D02*
X132378997Y-108013003D01*
X127718000Y-108991000D02*
X127518000Y-108791000D01*
X132378997Y-108013003D02*
X131401000Y-108991000D01*
%TO.N,Net-(U1-PA15)*%
X121552714Y-103947714D02*
X121552714Y-104874000D01*
%TO.N,/SPI1_CLK*%
X146314000Y-107286000D02*
X132344000Y-107286000D01*
X132344000Y-107286000D02*
X131074000Y-108556000D01*
X128673001Y-108556000D02*
X128581001Y-108464000D01*
X131074000Y-108556000D02*
X128673001Y-108556000D01*
X123185571Y-106524000D02*
X123875000Y-106524000D01*
%TO.N,/SWCLK*%
X119157857Y-105762000D02*
X119919857Y-106524000D01*
X119136000Y-105762000D02*
X119157857Y-105762000D01*
%TO.N,Net-(U1-PA14)*%
X119919857Y-103838857D02*
X119919857Y-104874000D01*
%TO.N,/SWDIO*%
X116596000Y-106524000D02*
X116577000Y-106524000D01*
X116577000Y-106524000D02*
X118287000Y-106524000D01*
%TO.N,Net-(U1-PA13)*%
X118287000Y-104874000D02*
X118287000Y-103984000D01*
D36*
%TO.N,Net-(U3A--)*%
X148970349Y-98283476D02*
X152082913Y-98283476D01*
X152095500Y-99351500D02*
X152918000Y-100174000D01*
X152095500Y-98296063D02*
X152095500Y-99351500D01*
X152082913Y-98283476D02*
X152095500Y-98296063D01*
%TO.N,Net-(U3C-+)*%
X166368763Y-104956000D02*
X169875500Y-104956000D01*
D35*
X166343763Y-104981000D02*
X166368763Y-104956000D01*
D36*
X165408000Y-104956000D02*
X165383000Y-104981000D01*
X166368763Y-104956000D02*
X165408000Y-104956000D01*
%TO.N,Net-(U3D-+)*%
X166293763Y-101875060D02*
X166293763Y-101190000D01*
D35*
X164856000Y-101130000D02*
X164916000Y-101190000D01*
X164916000Y-101190000D02*
X166293763Y-101190000D01*
D36*
X166293763Y-101190000D02*
X166293763Y-100351060D01*
%TO.N,Net-(D13-A)*%
X163899340Y-83096660D02*
X164348000Y-82648000D01*
X163899340Y-85906000D02*
X163899340Y-83096660D01*
%TO.N,Net-(D12-A)*%
X163858000Y-77606000D02*
X163903000Y-77651000D01*
X163098000Y-75453000D02*
X163858000Y-75453000D01*
X163858000Y-75453000D02*
X163858000Y-77606000D01*
D35*
%TO.N,/SPI1_MOSI*%
X132090000Y-109318000D02*
X127010000Y-109318000D01*
X126451285Y-108759285D02*
X126451285Y-106524000D01*
X132598000Y-108810000D02*
X132090000Y-109318000D01*
X126451285Y-106524000D02*
X127177000Y-106524000D01*
X127010000Y-109318000D02*
X126451285Y-108759285D01*
X146314000Y-108810000D02*
X132598000Y-108810000D01*
%TO.N,Net-(U1-PB4)*%
X124818428Y-104874000D02*
X124818428Y-103911428D01*
D37*
%TO.N,Net-(C37-Pad2)*%
X146822000Y-100936000D02*
X146822000Y-104492000D01*
X143418400Y-99564400D02*
X143774000Y-99920000D01*
X148092000Y-105762000D02*
X149616000Y-105762000D01*
X143774000Y-99920000D02*
X145806000Y-99920000D01*
X146822000Y-104492000D02*
X148092000Y-105762000D01*
D36*
X155416000Y-105804000D02*
X154614000Y-106606000D01*
D37*
X145806000Y-99920000D02*
X146822000Y-100936000D01*
D36*
X155416000Y-104450000D02*
X155416000Y-105804000D01*
D37*
X150410000Y-106556000D02*
X150571500Y-106556000D01*
X149616000Y-105762000D02*
X150410000Y-106556000D01*
X143418400Y-99011000D02*
X143418400Y-99564400D01*
D36*
X152045500Y-106556000D02*
X152095500Y-106606000D01*
X150571500Y-106556000D02*
X152045500Y-106556000D01*
X154614000Y-106606000D02*
X152095500Y-106606000D01*
%TO.N,Net-(D11-A)*%
X154867000Y-85906000D02*
X154867000Y-83709000D01*
X154822000Y-83030000D02*
X155204000Y-82648000D01*
D35*
X154822000Y-83664000D02*
X154822000Y-83790000D01*
D36*
X154822000Y-83664000D02*
X154822000Y-83030000D01*
D35*
X154822000Y-83790000D02*
X154867000Y-83835000D01*
D36*
X154867000Y-83709000D02*
X154822000Y-83664000D01*
%TO.N,Net-(D10-A)*%
X154936800Y-77687693D02*
X154936800Y-75534693D01*
X154936800Y-75534693D02*
X154891800Y-75489693D01*
X153726307Y-75489693D02*
X154891800Y-75489693D01*
%TO.N,Net-(U3B-+)*%
X152664000Y-104387500D02*
X152095500Y-104956000D01*
X149047500Y-104956000D02*
X152095500Y-104956000D01*
X152664000Y-102714000D02*
X152664000Y-104387500D01*
%TO.N,Net-(D9-A)*%
X144707000Y-75453000D02*
X144536000Y-75282000D01*
X145824000Y-75453000D02*
X144707000Y-75453000D01*
X145869000Y-77651000D02*
X145869000Y-75498000D01*
X145869000Y-75498000D02*
X145824000Y-75453000D01*
%TO.N,Net-(D8-A)*%
X145678000Y-83664000D02*
X145678000Y-85861000D01*
X145678000Y-85861000D02*
X145723000Y-85906000D01*
%TO.N,Net-(U2-VCC)*%
X116367331Y-82673331D02*
X118628000Y-84934000D01*
X116317331Y-81310833D02*
X116367331Y-81360833D01*
X116317331Y-79626494D02*
X116317331Y-81310833D01*
X116367331Y-81360833D02*
X116367331Y-82673331D01*
X118628000Y-84934000D02*
X118628000Y-86966000D01*
%TO.N,Net-(D4-A)*%
X123080000Y-75910000D02*
X123200000Y-75790000D01*
X121408234Y-75910000D02*
X123080000Y-75910000D01*
D37*
%TO.N,Net-(U5-EN)*%
X134947000Y-76107000D02*
X134947000Y-77822000D01*
X132090000Y-75536000D02*
X134376000Y-75536000D01*
X134376000Y-75536000D02*
X134947000Y-76107000D01*
D36*
X136853000Y-77822000D02*
X134947000Y-77822000D01*
%TO.N,+24V*%
X151549300Y-72778693D02*
X151549300Y-71316700D01*
X140472000Y-78584000D02*
X140929146Y-78126854D01*
X140929146Y-73300854D02*
X141488000Y-72742000D01*
X151648000Y-71218000D02*
X152119307Y-70746693D01*
X142758000Y-70964000D02*
X143012000Y-70710000D01*
X140929146Y-78126854D02*
X140929146Y-75648268D01*
X140929146Y-75648268D02*
X140929146Y-73300854D01*
X138503000Y-78139000D02*
X138948000Y-78584000D01*
X138948000Y-78584000D02*
X139964000Y-78584000D01*
X142481500Y-71240500D02*
X142758000Y-70964000D01*
X138503000Y-77822000D02*
X138503000Y-78139000D01*
X151549300Y-71316700D02*
X151648000Y-71218000D01*
X152119307Y-70238693D02*
X152156000Y-70202000D01*
X143012000Y-70710000D02*
X144269000Y-70710000D01*
X139964000Y-78584000D02*
X140472000Y-78584000D01*
X142481500Y-72742000D02*
X142481500Y-71240500D01*
X161300000Y-70710000D02*
X162303000Y-70710000D01*
X160515500Y-71494500D02*
X160515500Y-72742000D01*
X152119307Y-70746693D02*
X153336800Y-70746693D01*
X161300000Y-70710000D02*
X160515500Y-71494500D01*
X139964000Y-79600000D02*
X139964000Y-78584000D01*
X141488000Y-72742000D02*
X142481500Y-72742000D01*
X152119307Y-70746693D02*
X152119307Y-70238693D01*
%TO.N,Net-(C14-Pad1)*%
X123635000Y-69255000D02*
X125809000Y-69255000D01*
X123585000Y-69205000D02*
X123635000Y-69255000D01*
X121940000Y-69205000D02*
X123585000Y-69205000D01*
X125809000Y-69255000D02*
X127010000Y-70456000D01*
D35*
%TO.N,Net-(U3C-11)*%
X166286763Y-106524000D02*
X164348000Y-106524000D01*
X145806000Y-100428000D02*
X140726000Y-100428000D01*
X166368763Y-106606000D02*
X166286763Y-106524000D01*
X146314000Y-105778709D02*
X146314000Y-100936000D01*
D36*
X168072131Y-106606000D02*
X168122131Y-106556000D01*
D35*
X163332000Y-107540000D02*
X148075291Y-107540000D01*
X164348000Y-106524000D02*
X163332000Y-107540000D01*
X140268800Y-99970800D02*
X140268800Y-99011000D01*
X148075291Y-107540000D02*
X146314000Y-105778709D01*
X140726000Y-100428000D02*
X140268800Y-99970800D01*
X164348000Y-106524000D02*
X164348000Y-105000000D01*
D36*
X166368763Y-106606000D02*
X168072131Y-106606000D01*
D35*
X146314000Y-100936000D02*
X145806000Y-100428000D01*
%TO.N,Net-(C33-Pad2)*%
X147584000Y-97888000D02*
X148092000Y-97380000D01*
X147223000Y-99011000D02*
X147584000Y-98650000D01*
D36*
X153680000Y-97380000D02*
X152993612Y-96693612D01*
D35*
X147584000Y-98650000D02*
X147584000Y-97888000D01*
X146568000Y-99011000D02*
X147223000Y-99011000D01*
D36*
X154278000Y-99830000D02*
X153680000Y-99412000D01*
X153680000Y-99412000D02*
X153680000Y-97380000D01*
D35*
X149832500Y-97380000D02*
X150518888Y-96693612D01*
D36*
X152993612Y-96693612D02*
X150518888Y-96693612D01*
D35*
X148092000Y-97380000D02*
X149832500Y-97380000D01*
%TO.N,/KEY_01*%
X179420770Y-103984000D02*
X178912770Y-104492000D01*
X179420770Y-102968000D02*
X179420770Y-103984000D01*
X138948000Y-103984000D02*
X143520000Y-103984000D01*
X180978385Y-102968000D02*
X181028385Y-103018000D01*
X179420770Y-102968000D02*
X180978385Y-102968000D01*
X178912770Y-104492000D02*
X171968000Y-104492000D01*
%TO.N,/RST*%
X143774000Y-105508000D02*
X138948000Y-105508000D01*
X181601000Y-105019000D02*
X171225000Y-105019000D01*
X182636000Y-102968000D02*
X182636000Y-103984000D01*
X129550000Y-96341000D02*
X129550000Y-99666000D01*
X171225000Y-105019000D02*
X171206000Y-105000000D01*
X184193615Y-102968000D02*
X184243615Y-103018000D01*
X182636000Y-102968000D02*
X184193615Y-102968000D01*
X182636000Y-103984000D02*
X181601000Y-105019000D01*
%TO.N,Net-(D1-A)*%
X176165540Y-101103000D02*
X176165540Y-101370385D01*
X176165540Y-101370385D02*
X177813155Y-103018000D01*
D36*
%TO.N,Net-(D6-K)*%
X130820000Y-83410000D02*
X129550000Y-83410000D01*
X122692000Y-83410000D02*
X124978000Y-83410000D01*
%TO.N,Net-(D7-K)*%
X128280000Y-86712000D02*
X128788000Y-87220000D01*
X128788000Y-87220000D02*
X130820000Y-87220000D01*
X123962000Y-86712000D02*
X128280000Y-86712000D01*
D35*
%TO.N,/ENCODER_Z*%
X176664000Y-87982000D02*
X179588000Y-87982000D01*
%TO.N,/ENCODER_B*%
X180102068Y-86430220D02*
X177075780Y-86430220D01*
X177075780Y-86430220D02*
X176540000Y-86966000D01*
%TO.N,/ENCODER_A*%
X179588000Y-86966000D02*
X177318000Y-86966000D01*
%TO.N,/LED_01*%
X172596460Y-103863540D02*
X172476000Y-103984000D01*
X172596460Y-103863540D02*
X175898460Y-103863540D01*
X175898460Y-103863540D02*
X176165540Y-103596460D01*
X138948000Y-104746000D02*
X143774000Y-104746000D01*
X176165540Y-103596460D02*
X176165540Y-102853000D01*
X143774000Y-104746000D02*
X144536000Y-103984000D01*
D36*
%TO.N,Net-(D5-K)*%
X139278845Y-68754845D02*
X139964000Y-69440000D01*
X139964000Y-69440000D02*
X139964000Y-77822000D01*
X138008845Y-68754845D02*
X139278845Y-68754845D01*
D35*
%TO.N,/CAN_+*%
X122814864Y-90907136D02*
X122946000Y-90776000D01*
X122814864Y-94625864D02*
X122814864Y-90907136D01*
%TO.N,/CAN_-*%
X123664864Y-94625864D02*
X123664864Y-90263136D01*
X123664864Y-90263136D02*
X123708000Y-90220000D01*
D36*
%TO.N,Net-(D2-K)*%
X130820000Y-79600000D02*
X129550000Y-79600000D01*
%TD*%
%TA.AperFunction,Conductor*%
%TO.N,/Driver/V*%
G36*
X176555677Y-61077685D02*
G01*
X176576319Y-61094319D01*
X176757681Y-61275681D01*
X176791166Y-61337004D01*
X176794000Y-61363362D01*
X176794000Y-68880638D01*
X176774315Y-68947677D01*
X176757681Y-68968319D01*
X176068319Y-69657681D01*
X176006996Y-69691166D01*
X175980638Y-69694000D01*
X159775999Y-69694000D01*
X159268000Y-70201999D01*
X159268000Y-75230638D01*
X159248315Y-75297677D01*
X159231681Y-75318319D01*
X159050319Y-75499681D01*
X158988996Y-75533166D01*
X158962638Y-75536000D01*
X156271362Y-75536000D01*
X156204323Y-75516315D01*
X156183681Y-75499681D01*
X156002319Y-75318319D01*
X155968834Y-75256996D01*
X155966000Y-75230638D01*
X155966000Y-68475362D01*
X155985685Y-68408323D01*
X156002319Y-68387681D01*
X156183681Y-68206319D01*
X156245004Y-68172834D01*
X156271362Y-68170000D01*
X172222000Y-68170000D01*
X173238000Y-67154000D01*
X173238000Y-61363362D01*
X173257685Y-61296323D01*
X173274319Y-61275681D01*
X173455681Y-61094319D01*
X173517004Y-61060834D01*
X173543362Y-61058000D01*
X176488638Y-61058000D01*
X176555677Y-61077685D01*
G37*
%TD.AperFunction*%
%TD*%
%TA.AperFunction,Conductor*%
%TO.N,/Driver/U*%
G36*
X170967677Y-61077685D02*
G01*
X170988319Y-61094319D01*
X171169681Y-61275681D01*
X171203166Y-61337004D01*
X171206000Y-61363362D01*
X171206000Y-67356638D01*
X171186315Y-67423677D01*
X171169681Y-67444319D01*
X170988319Y-67625681D01*
X170926996Y-67659166D01*
X170900638Y-67662000D01*
X150631999Y-67662000D01*
X150378000Y-67915999D01*
X150378000Y-75412000D01*
X150358315Y-75479039D01*
X150305511Y-75524794D01*
X150254000Y-75536000D01*
X147200000Y-75536000D01*
X147132961Y-75516315D01*
X147087206Y-75463511D01*
X147076000Y-75412000D01*
X147076000Y-66189362D01*
X147095685Y-66122323D01*
X147112319Y-66101681D01*
X147547681Y-65666319D01*
X147609004Y-65632834D01*
X147635362Y-65630000D01*
X167142000Y-65630000D01*
X167650000Y-65122000D01*
X167650000Y-61388636D01*
X167669685Y-61321597D01*
X167718546Y-61277727D01*
X168131818Y-61071091D01*
X168187272Y-61058000D01*
X170900638Y-61058000D01*
X170967677Y-61077685D01*
G37*
%TD.AperFunction*%
%TD*%
%TA.AperFunction,Conductor*%
%TO.N,/Driver/W*%
G36*
X181635677Y-61077685D02*
G01*
X181656319Y-61094319D01*
X181837681Y-61275681D01*
X181871166Y-61337004D01*
X181874000Y-61363362D01*
X181874000Y-71180456D01*
X181854315Y-71247495D01*
X181853174Y-71249239D01*
X181402811Y-71924783D01*
X181349246Y-71969644D01*
X181299637Y-71980000D01*
X170698000Y-71980000D01*
X170190000Y-72741999D01*
X170190000Y-75230638D01*
X170170315Y-75297677D01*
X170153681Y-75318319D01*
X169972319Y-75499681D01*
X169910996Y-75533166D01*
X169884638Y-75536000D01*
X165415362Y-75536000D01*
X165348323Y-75516315D01*
X165327681Y-75499681D01*
X165146319Y-75318319D01*
X165112834Y-75256996D01*
X165110000Y-75230638D01*
X165110000Y-71501272D01*
X165123091Y-71445818D01*
X165583727Y-70524546D01*
X165631314Y-70473387D01*
X165694636Y-70456000D01*
X177810000Y-70456000D01*
X178318000Y-69948000D01*
X178318000Y-61363362D01*
X178337685Y-61296323D01*
X178354319Y-61275681D01*
X178535681Y-61094319D01*
X178597004Y-61060834D01*
X178623362Y-61058000D01*
X181568638Y-61058000D01*
X181635677Y-61077685D01*
G37*
%TD.AperFunction*%
%TD*%
M02*
