%TF.GenerationSoftware,KiCad,Pcbnew,8.0.3-rc1*%
%TF.CreationDate,2024-06-29T16:34:31+08:00*%
%TF.ProjectId,MC_G431C8,4d435f47-3433-4314-9338-2e6b69636164,rev?*%
%TF.SameCoordinates,Original*%
%TF.FileFunction,Copper,L3,Inr*%
%TF.FilePolarity,Positive*%
%FSLAX46Y46*%
G04 Gerber Fmt 4.6, Leading zero omitted, Abs format (unit mm)*
G04 Created by KiCad (PCBNEW 8.0.3-rc1) date 2024-06-29 16:34:31*
%MOMM*%
%LPD*%
G01*
G04 APERTURE LIST*
%TA.AperFunction,ComponentPad*%
%ADD10R,3.000000X3.000000*%
%TD*%
%TA.AperFunction,ComponentPad*%
%ADD11C,3.000000*%
%TD*%
%TA.AperFunction,ComponentPad*%
%ADD12R,1.700000X1.700000*%
%TD*%
%TA.AperFunction,ComponentPad*%
%ADD13O,1.700000X1.700000*%
%TD*%
%TA.AperFunction,ViaPad*%
%ADD14C,0.600000*%
%TD*%
G04 APERTURE END LIST*
D10*
%TO.N,/Driver/W*%
%TO.C,J5*%
X180350000Y-63344000D03*
D11*
%TO.N,/Driver/V*%
X175270000Y-63344000D03*
%TO.N,/Driver/U*%
X170190000Y-63344000D03*
%TD*%
D12*
%TO.N,GND*%
%TO.C,J1*%
X163840000Y-63090000D03*
D13*
%TO.N,+24V*%
X161300000Y-63090000D03*
%TD*%
D14*
%TO.N,/ADC_VBUS*%
X118183000Y-93868000D03*
X137678000Y-78838000D03*
X113059000Y-93824000D03*
%TO.N,/Driver/W_CH*%
X147584000Y-80509000D03*
%TO.N,/Driver/V_CH*%
X146785500Y-80071500D03*
%TO.N,/Driver/U_CH*%
X142504000Y-79854000D03*
%TO.N,/OP_I_W*%
X136916000Y-94840000D03*
%TO.N,/OP_I_V*%
X136916000Y-93824000D03*
%TO.N,/OP_I_U*%
X136916000Y-92808000D03*
%TO.N,+12V*%
X117967331Y-78685331D03*
X125994000Y-63598000D03*
%TO.N,+3V3*%
X126712000Y-97888000D03*
X119644000Y-70964000D03*
X110500000Y-90776000D03*
X173314940Y-100351060D03*
X151984000Y-101780000D03*
X181112000Y-99666000D03*
X113040000Y-90776000D03*
X117358000Y-99920000D03*
X137424000Y-102206000D03*
X169174000Y-100351060D03*
X121930000Y-89252000D03*
%TO.N,+3.3VADC*%
X110754000Y-77568000D03*
X119644000Y-89252000D03*
X108125790Y-75530080D03*
%TO.N,/Driver/U_CHN*%
X141742000Y-88828186D03*
%TO.N,/Driver/V_CHN*%
X140218000Y-89779000D03*
%TO.N,/Driver/W_CHN*%
X141742000Y-90014000D03*
%TO.N,/Driver/U*%
X148346000Y-74012000D03*
X147584000Y-74774000D03*
X149870000Y-74012000D03*
X147584000Y-72488000D03*
X149108000Y-72488000D03*
X149870000Y-71726000D03*
X149108000Y-73250000D03*
X132720000Y-80992000D03*
X148346000Y-71726000D03*
X149108000Y-74012000D03*
X148346000Y-74774000D03*
X149108000Y-71726000D03*
X147584000Y-74012000D03*
X149870000Y-74774000D03*
X149870000Y-72488000D03*
X149870000Y-73250000D03*
X147584000Y-73250000D03*
X148346000Y-73250000D03*
X148346000Y-72488000D03*
X147584000Y-71726000D03*
X149108000Y-74774000D03*
%TO.N,/Driver/V*%
X156982000Y-74012000D03*
X133868000Y-83410000D03*
X157871000Y-73250000D03*
X157913333Y-72488000D03*
X158760000Y-74012000D03*
X158760000Y-73250000D03*
X157871000Y-74774000D03*
X153934000Y-80362000D03*
X158844666Y-72488000D03*
X156982000Y-71726000D03*
X157871000Y-74012000D03*
X156982000Y-72488000D03*
X158844666Y-71726000D03*
X145806000Y-80616000D03*
X156982000Y-73250000D03*
X158760000Y-74774000D03*
X157913333Y-71726000D03*
X156982000Y-74774000D03*
%TO.N,/Driver/W*%
X168412000Y-74012000D03*
X167650000Y-72488000D03*
X169174000Y-74012000D03*
X167650000Y-73250000D03*
X167650000Y-74012000D03*
X166126000Y-72488000D03*
X166888000Y-71726000D03*
X166888000Y-74774000D03*
X169174000Y-73250000D03*
X168412000Y-73250000D03*
X163332000Y-81124000D03*
X167650000Y-74774000D03*
X134376000Y-87474000D03*
X169174000Y-72488000D03*
X168412000Y-72488000D03*
X166126000Y-73250000D03*
X166126000Y-71726000D03*
X166888000Y-73250000D03*
X168412000Y-74774000D03*
X166888000Y-72488000D03*
X166126000Y-74012000D03*
X169174000Y-74774000D03*
X166888000Y-74012000D03*
X146060000Y-82394000D03*
X166126000Y-74774000D03*
X167650000Y-71726000D03*
X168412000Y-71726000D03*
X169174000Y-71726000D03*
%TO.N,GND*%
X136535000Y-75536000D03*
X132852000Y-101190000D03*
X163758000Y-101780000D03*
X118374000Y-89252000D03*
X182420780Y-85657220D03*
X120660000Y-66536226D03*
X136408000Y-73885000D03*
X144028000Y-60949805D03*
X135519000Y-75663000D03*
X121753581Y-66846794D03*
X146060000Y-63344000D03*
X133868000Y-101190000D03*
X136408000Y-73123000D03*
X168920000Y-90776000D03*
X135812000Y-98055500D03*
X146578738Y-99909262D03*
X168920000Y-94078000D03*
X126212000Y-102078000D03*
X162824000Y-72742000D03*
X156474000Y-63344000D03*
X135519000Y-74774000D03*
X150378000Y-90776000D03*
X160284000Y-93252500D03*
X150378000Y-94078000D03*
X169682000Y-91601500D03*
X136662000Y-98142000D03*
X143012000Y-61747870D03*
X168920000Y-92427000D03*
X133868000Y-68805000D03*
X144028000Y-62545935D03*
X123962000Y-74774000D03*
X160284000Y-92427000D03*
X135900000Y-99158000D03*
X111770000Y-71980000D03*
X135773000Y-70583000D03*
X160284000Y-90776000D03*
X135392000Y-94078000D03*
X136916000Y-95602000D03*
X172476000Y-107540000D03*
X168920000Y-93252500D03*
X160284000Y-91601500D03*
X132979000Y-68805000D03*
X134122000Y-79600000D03*
X135519000Y-76425000D03*
X144028000Y-61747870D03*
X146060000Y-60949805D03*
X159522000Y-94078000D03*
X136408000Y-74774000D03*
X143012000Y-63344000D03*
X131074000Y-96355500D03*
X169682000Y-93252500D03*
X168920000Y-91601500D03*
X134884000Y-101190000D03*
X156474000Y-62582000D03*
X111008000Y-81124000D03*
X151140000Y-91601500D03*
X148600000Y-62582000D03*
X118882000Y-81378000D03*
X150378000Y-92427000D03*
X135900000Y-101190000D03*
X159522000Y-91601500D03*
X143012000Y-60949805D03*
X151140000Y-92427000D03*
X135058500Y-99745500D03*
X148970349Y-95718349D03*
X135773000Y-71472000D03*
X142102984Y-62545935D03*
X148600000Y-63344000D03*
X151140000Y-62582000D03*
X131836000Y-101190000D03*
X135519000Y-73123000D03*
X136535000Y-76298000D03*
X148346000Y-100936000D03*
X135392000Y-94840000D03*
X193050000Y-83410000D03*
X131170354Y-105235000D03*
X150378000Y-91601500D03*
X138948000Y-72361000D03*
X153680000Y-72742000D03*
X147920000Y-106606000D03*
X135900000Y-100174000D03*
X150378000Y-93252500D03*
X144028000Y-63344000D03*
X142102984Y-60949805D03*
X194320000Y-107540000D03*
X110500000Y-93570000D03*
X131836000Y-93570000D03*
X151140000Y-93252500D03*
X183996000Y-106434000D03*
X115126867Y-69893133D03*
X159522000Y-93252500D03*
X181874000Y-102206000D03*
X131836000Y-94665500D03*
X127594944Y-72157056D03*
X134884000Y-68805000D03*
X135773000Y-69694000D03*
X116575251Y-68267372D03*
X143012000Y-62545935D03*
X160284000Y-94078000D03*
X145044000Y-60949805D03*
X133614000Y-93570000D03*
X169097060Y-101875060D03*
X169682000Y-92427000D03*
X132344000Y-77822000D03*
X142102984Y-61747870D03*
X151140000Y-60949805D03*
X135773000Y-68932000D03*
X131328000Y-100428000D03*
X121930000Y-91284000D03*
X153680000Y-63344000D03*
X136916000Y-96364000D03*
X142102984Y-63344000D03*
X169682000Y-90776000D03*
X124978000Y-98142000D03*
X136916000Y-72361000D03*
X151140000Y-90776000D03*
X132598000Y-93570000D03*
X146060000Y-62582000D03*
X135519000Y-73885000D03*
X180350000Y-102206000D03*
X134630000Y-93570000D03*
X151140000Y-63344000D03*
X135900000Y-96364000D03*
X123441000Y-89265000D03*
X135900000Y-72361000D03*
X169682000Y-94078000D03*
X135900000Y-95602000D03*
X137932000Y-72361000D03*
X131074000Y-98650000D03*
X142059665Y-95111500D03*
X121422000Y-86966000D03*
X136916000Y-97126000D03*
X131074000Y-94332000D03*
X119656470Y-76806000D03*
X129677000Y-63598000D03*
X148600000Y-60949805D03*
X124216000Y-93824000D03*
X159522000Y-92427000D03*
X156474000Y-60949805D03*
X131074000Y-95348000D03*
X144282000Y-72742000D03*
X118374000Y-98650000D03*
X159522000Y-90776000D03*
X131328000Y-99666000D03*
X135900000Y-97126000D03*
X151140000Y-94078000D03*
X153680000Y-60949805D03*
X153680000Y-62582000D03*
X158252000Y-63344000D03*
X128869234Y-77994766D03*
%TO.N,/Driver/i_w*%
X164856000Y-103476000D03*
%TO.N,Net-(U3D--)*%
X164856000Y-98904000D03*
%TO.N,Vref*%
X147584000Y-101952000D03*
X170698000Y-101952000D03*
%TO.N,/Driver/i_v*%
X151648000Y-103478775D03*
%TO.N,/Driver/i_u*%
X152156000Y-100682000D03*
%TO.N,Net-(U4-REF)*%
X110820000Y-72930000D03*
%TO.N,+5V*%
X141488000Y-93824000D03*
X144163354Y-98260646D03*
X144282000Y-102968000D03*
X120418470Y-72996000D03*
X115326000Y-74493133D03*
X108722000Y-68932000D03*
X115202226Y-64236226D03*
%TO.N,Net-(Q1-B)*%
X112720000Y-72676000D03*
%TO.N,/DEBUG_RX*%
X125924285Y-108243257D03*
X116596000Y-108556000D03*
X127010000Y-108264000D03*
%TO.N,Net-(U1-PB7)*%
X129717000Y-103911428D03*
%TO.N,/DEBUG_TX*%
X116596000Y-107540000D03*
X125740000Y-107540000D03*
X127518000Y-107540000D03*
%TO.N,Net-(U1-PB6)*%
X128084142Y-103911428D03*
%TO.N,/SPI1_CS*%
X146314000Y-106524000D03*
X122283571Y-106521068D03*
%TO.N,Net-(U1-PB5)*%
X126451285Y-103911428D03*
%TO.N,Net-(U1-PB3)*%
X123113000Y-103911428D03*
%TO.N,/SPI1_MISO*%
X127518000Y-108791000D03*
X146314000Y-108013003D03*
X125549285Y-106503693D03*
%TO.N,Net-(U1-PA15)*%
X121552714Y-103911428D03*
%TO.N,/SPI1_CLK*%
X123875000Y-106524000D03*
X146314000Y-107286000D03*
X128581001Y-108464000D03*
%TO.N,/SWCLK*%
X119136000Y-105762000D03*
%TO.N,Net-(U1-PA14)*%
X119919857Y-103911428D03*
%TO.N,/SWDIO*%
X116596000Y-106524000D03*
%TO.N,Net-(U1-PA13)*%
X118287000Y-103984000D03*
%TO.N,Net-(U3A--)*%
X152918000Y-100174000D03*
%TO.N,Net-(U3C-+)*%
X165383000Y-104981000D03*
%TO.N,Net-(U3D-+)*%
X164856000Y-101130000D03*
%TO.N,Net-(D13-A)*%
X164348000Y-82648000D03*
%TO.N,Net-(D12-A)*%
X163098000Y-75453000D03*
%TO.N,/SPI1_MOSI*%
X127177000Y-106524000D03*
X146314000Y-108810000D03*
%TO.N,Net-(U1-PB4)*%
X124818428Y-103911428D03*
%TO.N,Net-(C37-Pad2)*%
X155416000Y-104450000D03*
%TO.N,Net-(D11-A)*%
X155204000Y-82648000D03*
%TO.N,Net-(D10-A)*%
X153726307Y-75489693D03*
%TO.N,Net-(U3B-+)*%
X152664000Y-102714000D03*
%TO.N,Net-(D9-A)*%
X144536000Y-75282000D03*
%TO.N,Net-(D8-A)*%
X145552000Y-84680000D03*
%TO.N,Net-(U2-VCC)*%
X118628000Y-86966000D03*
%TO.N,Net-(U5-EN)*%
X132090000Y-75536000D03*
%TO.N,+24V*%
X140929146Y-75648268D03*
X142758000Y-70964000D03*
X152156000Y-70202000D03*
X161300000Y-70710000D03*
%TO.N,Net-(C14-Pad1)*%
X127010000Y-70456000D03*
%TO.N,Net-(U3C-11)*%
X164348000Y-105000000D03*
%TO.N,Net-(C33-Pad2)*%
X154278000Y-99830000D03*
%TO.N,/KEY_01*%
X171968000Y-104492000D03*
X138948000Y-103984000D03*
X143520000Y-103984000D03*
X179420770Y-103984000D03*
%TO.N,/RST*%
X138948000Y-105508000D03*
X143774000Y-105508000D03*
X129550000Y-96341000D03*
X182636000Y-103984000D03*
X129550000Y-99666000D03*
X171206000Y-105000000D03*
%TO.N,Net-(D6-K)*%
X129550000Y-83410000D03*
X122692000Y-83410000D03*
X124978000Y-83410000D03*
%TO.N,Net-(D7-K)*%
X123962000Y-86712000D03*
%TO.N,/ENCODER_Z*%
X179588000Y-87982000D03*
X176664000Y-87982000D03*
%TO.N,/ENCODER_B*%
X176540000Y-86966000D03*
X180102068Y-86430220D03*
%TO.N,/ENCODER_A*%
X179588000Y-86966000D03*
X177318000Y-86966000D03*
%TO.N,/LED_01*%
X144536000Y-103984000D03*
X172596460Y-103863540D03*
X138948000Y-104746000D03*
%TO.N,Net-(D5-K)*%
X139964000Y-77822000D03*
X138008845Y-68754845D03*
%TO.N,/CAN_+*%
X122814864Y-94625864D03*
X122946000Y-90776000D03*
%TO.N,/CAN_-*%
X123664864Y-94625864D03*
X123708000Y-90220000D03*
%TO.N,Net-(D2-K)*%
X129550000Y-79600000D03*
%TD*%
%TA.AperFunction,Conductor*%
%TO.N,GND*%
G36*
X203434084Y-60500501D02*
G01*
X203495556Y-60500500D01*
X203504387Y-60500815D01*
X203532014Y-60502787D01*
X203704225Y-60515082D01*
X203721700Y-60517591D01*
X203913152Y-60559169D01*
X203930096Y-60564135D01*
X204113697Y-60632497D01*
X204129765Y-60639822D01*
X204301787Y-60733578D01*
X204316657Y-60743116D01*
X204473606Y-60860362D01*
X204486969Y-60871915D01*
X204625667Y-61010274D01*
X204637253Y-61023608D01*
X204754887Y-61180276D01*
X204764454Y-61195112D01*
X204858628Y-61366900D01*
X204865994Y-61382954D01*
X204934805Y-61566385D01*
X204939816Y-61583326D01*
X204981862Y-61774674D01*
X204984414Y-61792153D01*
X204999163Y-61991851D01*
X204999500Y-62000984D01*
X204999500Y-107995596D01*
X204999184Y-108004445D01*
X204984865Y-108204581D01*
X204982347Y-108222091D01*
X204940638Y-108413814D01*
X204935653Y-108430791D01*
X204867083Y-108614623D01*
X204859734Y-108630715D01*
X204765699Y-108802924D01*
X204756133Y-108817808D01*
X204638548Y-108974878D01*
X204626963Y-108988248D01*
X204488226Y-109126983D01*
X204474854Y-109138569D01*
X204317783Y-109256148D01*
X204302900Y-109265713D01*
X204130689Y-109359746D01*
X204114596Y-109367095D01*
X203930760Y-109435662D01*
X203913785Y-109440646D01*
X203722065Y-109482352D01*
X203704553Y-109484870D01*
X203504418Y-109499184D01*
X203495572Y-109499500D01*
X147059976Y-109499500D01*
X146992937Y-109479815D01*
X146947182Y-109427011D01*
X146937238Y-109357853D01*
X146954983Y-109309527D01*
X146962050Y-109298281D01*
X147047043Y-109163015D01*
X147107217Y-108991047D01*
X147107218Y-108991041D01*
X147127616Y-108810003D01*
X147127616Y-108809996D01*
X147107218Y-108628958D01*
X147107215Y-108628945D01*
X147045458Y-108452455D01*
X147041896Y-108382676D01*
X147045458Y-108370544D01*
X147047040Y-108366022D01*
X147047043Y-108366018D01*
X147107217Y-108194050D01*
X147112034Y-108151299D01*
X147127616Y-108013006D01*
X147127616Y-108012999D01*
X147107218Y-107831961D01*
X147107215Y-107831948D01*
X147057704Y-107690456D01*
X147054141Y-107620678D01*
X147057699Y-107608560D01*
X147107217Y-107467047D01*
X147110720Y-107435956D01*
X147127616Y-107286003D01*
X147127616Y-107285996D01*
X147107218Y-107104958D01*
X147107215Y-107104945D01*
X147058605Y-106966027D01*
X147051580Y-106945953D01*
X147048018Y-106876177D01*
X147051581Y-106864045D01*
X147054149Y-106856708D01*
X147107217Y-106705047D01*
X147107218Y-106705041D01*
X147127616Y-106524003D01*
X147127616Y-106523996D01*
X147107218Y-106342958D01*
X147107217Y-106342953D01*
X147092613Y-106301217D01*
X147047043Y-106170985D01*
X146950111Y-106016719D01*
X146821281Y-105887889D01*
X146778511Y-105861015D01*
X146667017Y-105790958D01*
X146667016Y-105790957D01*
X146667015Y-105790957D01*
X146584269Y-105762003D01*
X146495046Y-105730782D01*
X146495041Y-105730781D01*
X146314004Y-105710384D01*
X146313996Y-105710384D01*
X146132958Y-105730781D01*
X146132953Y-105730782D01*
X145960982Y-105790958D01*
X145806718Y-105887889D01*
X145677889Y-106016718D01*
X145580958Y-106170982D01*
X145520782Y-106342953D01*
X145520781Y-106342958D01*
X145500384Y-106523996D01*
X145500384Y-106524003D01*
X145520781Y-106705041D01*
X145520783Y-106705049D01*
X145576418Y-106864046D01*
X145579979Y-106933825D01*
X145576418Y-106945954D01*
X145520783Y-107104950D01*
X145520781Y-107104958D01*
X145500384Y-107285996D01*
X145500384Y-107286003D01*
X145520781Y-107467041D01*
X145520784Y-107467054D01*
X145570295Y-107608545D01*
X145573857Y-107678324D01*
X145570296Y-107690454D01*
X145520783Y-107831953D01*
X145520781Y-107831961D01*
X145500384Y-108012999D01*
X145500384Y-108013006D01*
X145520781Y-108194044D01*
X145520783Y-108194052D01*
X145582541Y-108370547D01*
X145586102Y-108440326D01*
X145582541Y-108452455D01*
X145520783Y-108628950D01*
X145520781Y-108628958D01*
X145500384Y-108809996D01*
X145500384Y-108810003D01*
X145520781Y-108991041D01*
X145520782Y-108991046D01*
X145580958Y-109163018D01*
X145648499Y-109270507D01*
X145665950Y-109298281D01*
X145673017Y-109309527D01*
X145692018Y-109376764D01*
X145671651Y-109443599D01*
X145618383Y-109488814D01*
X145568024Y-109499500D01*
X128799456Y-109499500D01*
X128732417Y-109479815D01*
X128686662Y-109427011D01*
X128676718Y-109357853D01*
X128705743Y-109294297D01*
X128758501Y-109258458D01*
X128762048Y-109257217D01*
X128934016Y-109197043D01*
X129088282Y-109100111D01*
X129217112Y-108971281D01*
X129314044Y-108817015D01*
X129374218Y-108645047D01*
X129376031Y-108628958D01*
X129394617Y-108464003D01*
X129394617Y-108463996D01*
X129374219Y-108282958D01*
X129374218Y-108282953D01*
X129360326Y-108243253D01*
X129314044Y-108110985D01*
X129217112Y-107956719D01*
X129088282Y-107827889D01*
X128934016Y-107730957D01*
X128879694Y-107711949D01*
X128762047Y-107670782D01*
X128762042Y-107670781D01*
X128581005Y-107650384D01*
X128580997Y-107650384D01*
X128469499Y-107662946D01*
X128400677Y-107650891D01*
X128349298Y-107603542D01*
X128333572Y-107546786D01*
X128332396Y-107546919D01*
X128311218Y-107358958D01*
X128311217Y-107358953D01*
X128292981Y-107306837D01*
X128251043Y-107186985D01*
X128154111Y-107032719D01*
X128025281Y-106903889D01*
X128006833Y-106892297D01*
X127960542Y-106839964D01*
X127949893Y-106770911D01*
X127955761Y-106746357D01*
X127970217Y-106705047D01*
X127970218Y-106705041D01*
X127990616Y-106524003D01*
X127990616Y-106523996D01*
X127970218Y-106342958D01*
X127970217Y-106342953D01*
X127955613Y-106301217D01*
X127910043Y-106170985D01*
X127813111Y-106016719D01*
X127684281Y-105887889D01*
X127641511Y-105861015D01*
X127530017Y-105790958D01*
X127530016Y-105790957D01*
X127530015Y-105790957D01*
X127447269Y-105762003D01*
X127358046Y-105730782D01*
X127358041Y-105730781D01*
X127177004Y-105710384D01*
X127176996Y-105710384D01*
X126995958Y-105730781D01*
X126995953Y-105730782D01*
X126823982Y-105790958D01*
X126669718Y-105887889D01*
X126540889Y-106016718D01*
X126540887Y-106016721D01*
X126474515Y-106122350D01*
X126422180Y-106168641D01*
X126353127Y-106179288D01*
X126289278Y-106150913D01*
X126264528Y-106122349D01*
X126185395Y-105996411D01*
X126056566Y-105867582D01*
X125902302Y-105770651D01*
X125902301Y-105770650D01*
X125902300Y-105770650D01*
X125847978Y-105751642D01*
X125730331Y-105710475D01*
X125730326Y-105710474D01*
X125549289Y-105690077D01*
X125549281Y-105690077D01*
X125368243Y-105710474D01*
X125368238Y-105710475D01*
X125196267Y-105770651D01*
X125042003Y-105867582D01*
X124913174Y-105996411D01*
X124812537Y-106156574D01*
X124810680Y-106155407D01*
X124770893Y-106199473D01*
X124703465Y-106217784D01*
X124636842Y-106196734D01*
X124601004Y-106159782D01*
X124511110Y-106016718D01*
X124382281Y-105887889D01*
X124228017Y-105790958D01*
X124228016Y-105790957D01*
X124228015Y-105790957D01*
X124145269Y-105762003D01*
X124056046Y-105730782D01*
X124056041Y-105730781D01*
X123875004Y-105710384D01*
X123874996Y-105710384D01*
X123693958Y-105730781D01*
X123693953Y-105730782D01*
X123521982Y-105790958D01*
X123367718Y-105887889D01*
X123238889Y-106016718D01*
X123238887Y-106016721D01*
X123185199Y-106102164D01*
X123132864Y-106148455D01*
X123063811Y-106159102D01*
X122999962Y-106130727D01*
X122975212Y-106102163D01*
X122921525Y-106016721D01*
X122919682Y-106013787D01*
X122790852Y-105884957D01*
X122677314Y-105813616D01*
X122636588Y-105788026D01*
X122636587Y-105788025D01*
X122636586Y-105788025D01*
X122562199Y-105761996D01*
X122464617Y-105727850D01*
X122464612Y-105727849D01*
X122283575Y-105707452D01*
X122283567Y-105707452D01*
X122102529Y-105727849D01*
X122102524Y-105727850D01*
X121930553Y-105788026D01*
X121776289Y-105884957D01*
X121647460Y-106013786D01*
X121550529Y-106168050D01*
X121490353Y-106340021D01*
X121490352Y-106340026D01*
X121469955Y-106521064D01*
X121469955Y-106521071D01*
X121490352Y-106702109D01*
X121490353Y-106702114D01*
X121528072Y-106809907D01*
X121549900Y-106872289D01*
X121550529Y-106874085D01*
X121587539Y-106932985D01*
X121647460Y-107028349D01*
X121776290Y-107157179D01*
X121930556Y-107254111D01*
X122081239Y-107306837D01*
X122102524Y-107314285D01*
X122102529Y-107314286D01*
X122283567Y-107334684D01*
X122283571Y-107334684D01*
X122283575Y-107334684D01*
X122464612Y-107314286D01*
X122464615Y-107314285D01*
X122464618Y-107314285D01*
X122636586Y-107254111D01*
X122790852Y-107157179D01*
X122919682Y-107028349D01*
X122973371Y-106942902D01*
X123025704Y-106896613D01*
X123094758Y-106885964D01*
X123158606Y-106914339D01*
X123183357Y-106942903D01*
X123238889Y-107031281D01*
X123367719Y-107160111D01*
X123521985Y-107257043D01*
X123685574Y-107314285D01*
X123693953Y-107317217D01*
X123693958Y-107317218D01*
X123874996Y-107337616D01*
X123875000Y-107337616D01*
X123875004Y-107337616D01*
X124056041Y-107317218D01*
X124056044Y-107317217D01*
X124056047Y-107317217D01*
X124228015Y-107257043D01*
X124382281Y-107160111D01*
X124511111Y-107031281D01*
X124608043Y-106877015D01*
X124608042Y-106877015D01*
X124611748Y-106871119D01*
X124613611Y-106872289D01*
X124653352Y-106828243D01*
X124720772Y-106809907D01*
X124787404Y-106830932D01*
X124823279Y-106867909D01*
X124913172Y-107010972D01*
X124973177Y-107070977D01*
X125006662Y-107132300D01*
X125002538Y-107199612D01*
X124946783Y-107358950D01*
X124946781Y-107358958D01*
X124926384Y-107539996D01*
X124926384Y-107540003D01*
X124946781Y-107721041D01*
X124946782Y-107721046D01*
X125006958Y-107893018D01*
X125105276Y-108049488D01*
X125124277Y-108116725D01*
X125123503Y-108129344D01*
X125110669Y-108243253D01*
X125110669Y-108243260D01*
X125131066Y-108424298D01*
X125131067Y-108424303D01*
X125191243Y-108596274D01*
X125221889Y-108645046D01*
X125288174Y-108750538D01*
X125417004Y-108879368D01*
X125571270Y-108976300D01*
X125717772Y-109027563D01*
X125743238Y-109036474D01*
X125743243Y-109036475D01*
X125924281Y-109056873D01*
X125924285Y-109056873D01*
X125924289Y-109056873D01*
X126105326Y-109036475D01*
X126105329Y-109036474D01*
X126105332Y-109036474D01*
X126277300Y-108976300D01*
X126384663Y-108908838D01*
X126451900Y-108889838D01*
X126516607Y-108908837D01*
X126656985Y-108997043D01*
X126686044Y-109007210D01*
X126687842Y-109007840D01*
X126744618Y-109048561D01*
X126763930Y-109083926D01*
X126784956Y-109144013D01*
X126784956Y-109144015D01*
X126855409Y-109256139D01*
X126876084Y-109289043D01*
X126885594Y-109304177D01*
X126884533Y-109304843D01*
X126908223Y-109362878D01*
X126895465Y-109431573D01*
X126847592Y-109482465D01*
X126784867Y-109499500D01*
X117044489Y-109499500D01*
X116977450Y-109479815D01*
X116931695Y-109427011D01*
X116921751Y-109357853D01*
X116950776Y-109294297D01*
X116978517Y-109270507D01*
X117103275Y-109192115D01*
X117103276Y-109192114D01*
X117103281Y-109192111D01*
X117232111Y-109063281D01*
X117329043Y-108909015D01*
X117389217Y-108737047D01*
X117401396Y-108628958D01*
X117409616Y-108556003D01*
X117409616Y-108555996D01*
X117389218Y-108374958D01*
X117389217Y-108374953D01*
X117387674Y-108370544D01*
X117329043Y-108202985D01*
X117329041Y-108202982D01*
X117329041Y-108202981D01*
X117273113Y-108113973D01*
X117254112Y-108046736D01*
X117273113Y-107982027D01*
X117329041Y-107893018D01*
X117329040Y-107893018D01*
X117329043Y-107893015D01*
X117389217Y-107721047D01*
X117394031Y-107678324D01*
X117409616Y-107540003D01*
X117409616Y-107539996D01*
X117389218Y-107358958D01*
X117389217Y-107358953D01*
X117363691Y-107286003D01*
X117329043Y-107186985D01*
X117329041Y-107186982D01*
X117329041Y-107186981D01*
X117273113Y-107097973D01*
X117254112Y-107030736D01*
X117273113Y-106966027D01*
X117329041Y-106877018D01*
X117329040Y-106877018D01*
X117329043Y-106877015D01*
X117389217Y-106705047D01*
X117389218Y-106705041D01*
X117409616Y-106524003D01*
X117409616Y-106523996D01*
X117389218Y-106342958D01*
X117389217Y-106342953D01*
X117374613Y-106301217D01*
X117329043Y-106170985D01*
X117232111Y-106016719D01*
X117103281Y-105887889D01*
X117060511Y-105861015D01*
X116949017Y-105790958D01*
X116949016Y-105790957D01*
X116949015Y-105790957D01*
X116866269Y-105762003D01*
X116866249Y-105761996D01*
X118322384Y-105761996D01*
X118322384Y-105762003D01*
X118342781Y-105943041D01*
X118342782Y-105943046D01*
X118402958Y-106115017D01*
X118463090Y-106210716D01*
X118499889Y-106269281D01*
X118628719Y-106398111D01*
X118782985Y-106495043D01*
X118954953Y-106555217D01*
X118954958Y-106555218D01*
X119135996Y-106575616D01*
X119136000Y-106575616D01*
X119136004Y-106575616D01*
X119317041Y-106555218D01*
X119317044Y-106555217D01*
X119317047Y-106555217D01*
X119489015Y-106495043D01*
X119643281Y-106398111D01*
X119772111Y-106269281D01*
X119869043Y-106115015D01*
X119929217Y-105943047D01*
X119938460Y-105861015D01*
X119949616Y-105762003D01*
X119949616Y-105761996D01*
X119929218Y-105580958D01*
X119929217Y-105580953D01*
X119869043Y-105408985D01*
X119772111Y-105254719D01*
X119643281Y-105125889D01*
X119579973Y-105086110D01*
X119489017Y-105028958D01*
X119489016Y-105028957D01*
X119489015Y-105028957D01*
X119408318Y-105000720D01*
X119317046Y-104968782D01*
X119317041Y-104968781D01*
X119136004Y-104948384D01*
X119135996Y-104948384D01*
X118954958Y-104968781D01*
X118954953Y-104968782D01*
X118782982Y-105028958D01*
X118628718Y-105125889D01*
X118499889Y-105254718D01*
X118402958Y-105408982D01*
X118342782Y-105580953D01*
X118342781Y-105580958D01*
X118322384Y-105761996D01*
X116866249Y-105761996D01*
X116777046Y-105730782D01*
X116777041Y-105730781D01*
X116596004Y-105710384D01*
X116595996Y-105710384D01*
X116414958Y-105730781D01*
X116414953Y-105730782D01*
X116242982Y-105790958D01*
X116088718Y-105887889D01*
X115959889Y-106016718D01*
X115862958Y-106170982D01*
X115802782Y-106342953D01*
X115802781Y-106342958D01*
X115782384Y-106523996D01*
X115782384Y-106524003D01*
X115802781Y-106705041D01*
X115802782Y-106705046D01*
X115839475Y-106809907D01*
X115861303Y-106872289D01*
X115862958Y-106877017D01*
X115918887Y-106966028D01*
X115937887Y-107033265D01*
X115918887Y-107097972D01*
X115862958Y-107186982D01*
X115802782Y-107358953D01*
X115802781Y-107358958D01*
X115782384Y-107539996D01*
X115782384Y-107540003D01*
X115802781Y-107721041D01*
X115802782Y-107721046D01*
X115862958Y-107893017D01*
X115918887Y-107982028D01*
X115937887Y-108049265D01*
X115918887Y-108113972D01*
X115862958Y-108202982D01*
X115802782Y-108374953D01*
X115802781Y-108374958D01*
X115782384Y-108555996D01*
X115782384Y-108556003D01*
X115802781Y-108737041D01*
X115802782Y-108737046D01*
X115831042Y-108817808D01*
X115862895Y-108908839D01*
X115862958Y-108909017D01*
X115959889Y-109063281D01*
X116088718Y-109192110D01*
X116088724Y-109192115D01*
X116213483Y-109270507D01*
X116259774Y-109322841D01*
X116270422Y-109391895D01*
X116242047Y-109455743D01*
X116183657Y-109494115D01*
X116147511Y-109499500D01*
X107504407Y-109499500D01*
X107495559Y-109499184D01*
X107482539Y-109498252D01*
X107295422Y-109484866D01*
X107277911Y-109482348D01*
X107086185Y-109440638D01*
X107069210Y-109435653D01*
X106885376Y-109367084D01*
X106869283Y-109359734D01*
X106697084Y-109265703D01*
X106682201Y-109256139D01*
X106525122Y-109138550D01*
X106511751Y-109126963D01*
X106373020Y-108988229D01*
X106361434Y-108974859D01*
X106243846Y-108817777D01*
X106234282Y-108802894D01*
X106202836Y-108745304D01*
X106140253Y-108630691D01*
X106132906Y-108614603D01*
X106126069Y-108596272D01*
X106064335Y-108430757D01*
X106059353Y-108413786D01*
X106052585Y-108382676D01*
X106017646Y-108222060D01*
X106015129Y-108204553D01*
X106014377Y-108194044D01*
X106003881Y-108047281D01*
X106000816Y-108004417D01*
X106000500Y-107995572D01*
X106000500Y-105000000D01*
X107894747Y-105000000D01*
X107913741Y-105314023D01*
X107913741Y-105314028D01*
X107913742Y-105314029D01*
X107970451Y-105623478D01*
X107970452Y-105623482D01*
X107970453Y-105623486D01*
X108064039Y-105923816D01*
X108064043Y-105923827D01*
X108064044Y-105923830D01*
X108064046Y-105923835D01*
X108193163Y-106210721D01*
X108322799Y-106425165D01*
X108355924Y-106479960D01*
X108549942Y-106727605D01*
X108772394Y-106950057D01*
X109020039Y-107144075D01*
X109020044Y-107144078D01*
X109020048Y-107144081D01*
X109289279Y-107306837D01*
X109576165Y-107435954D01*
X109576175Y-107435957D01*
X109576183Y-107435960D01*
X109675968Y-107467054D01*
X109876522Y-107529549D01*
X110185971Y-107586258D01*
X110500000Y-107605253D01*
X110814029Y-107586258D01*
X111123478Y-107529549D01*
X111423835Y-107435954D01*
X111710721Y-107306837D01*
X111979952Y-107144081D01*
X111994990Y-107132300D01*
X112052205Y-107087474D01*
X112227602Y-106950060D01*
X112450060Y-106727602D01*
X112644081Y-106479952D01*
X112806837Y-106210721D01*
X112935954Y-105923835D01*
X113029549Y-105623478D01*
X113086258Y-105314029D01*
X113105253Y-105000000D01*
X113086258Y-104685971D01*
X113029549Y-104376522D01*
X112996029Y-104268953D01*
X112935960Y-104076183D01*
X112935956Y-104076172D01*
X112935954Y-104076165D01*
X112894472Y-103983996D01*
X117473384Y-103983996D01*
X117473384Y-103984003D01*
X117493781Y-104165041D01*
X117493782Y-104165046D01*
X117531205Y-104271993D01*
X117553293Y-104335118D01*
X117553958Y-104337017D01*
X117570843Y-104363889D01*
X117650889Y-104491281D01*
X117779719Y-104620111D01*
X117933985Y-104717043D01*
X118099494Y-104774957D01*
X118105953Y-104777217D01*
X118105958Y-104777218D01*
X118286996Y-104797616D01*
X118287000Y-104797616D01*
X118287004Y-104797616D01*
X118468041Y-104777218D01*
X118468044Y-104777217D01*
X118468047Y-104777217D01*
X118640015Y-104717043D01*
X118794281Y-104620111D01*
X118923111Y-104491281D01*
X119020043Y-104337015D01*
X119020044Y-104337011D01*
X119021234Y-104335118D01*
X119073569Y-104288827D01*
X119142622Y-104278178D01*
X119206470Y-104306554D01*
X119231221Y-104335118D01*
X119283741Y-104418703D01*
X119283746Y-104418709D01*
X119412576Y-104547539D01*
X119566842Y-104644471D01*
X119738810Y-104704645D01*
X119738815Y-104704646D01*
X119919853Y-104725044D01*
X119919857Y-104725044D01*
X119919861Y-104725044D01*
X120100898Y-104704646D01*
X120100901Y-104704645D01*
X120100904Y-104704645D01*
X120272872Y-104644471D01*
X120427138Y-104547539D01*
X120555968Y-104418709D01*
X120631293Y-104298830D01*
X120683625Y-104252541D01*
X120752679Y-104241892D01*
X120816527Y-104270267D01*
X120841279Y-104298832D01*
X120857122Y-104324046D01*
X120916603Y-104418709D01*
X121045433Y-104547539D01*
X121199699Y-104644471D01*
X121371667Y-104704645D01*
X121371672Y-104704646D01*
X121552710Y-104725044D01*
X121552714Y-104725044D01*
X121552718Y-104725044D01*
X121733755Y-104704646D01*
X121733758Y-104704645D01*
X121733761Y-104704645D01*
X121905729Y-104644471D01*
X122059995Y-104547539D01*
X122188825Y-104418709D01*
X122227863Y-104356579D01*
X122280198Y-104310289D01*
X122349251Y-104299641D01*
X122413100Y-104328016D01*
X122437849Y-104356578D01*
X122476889Y-104418709D01*
X122605719Y-104547539D01*
X122759985Y-104644471D01*
X122931953Y-104704645D01*
X122931958Y-104704646D01*
X123112996Y-104725044D01*
X123113000Y-104725044D01*
X123113004Y-104725044D01*
X123294041Y-104704646D01*
X123294044Y-104704645D01*
X123294047Y-104704645D01*
X123466015Y-104644471D01*
X123620281Y-104547539D01*
X123749111Y-104418709D01*
X123846043Y-104264443D01*
X123848672Y-104256930D01*
X123889393Y-104200154D01*
X123954345Y-104174405D01*
X124022907Y-104187860D01*
X124073310Y-104236247D01*
X124082756Y-104256930D01*
X124085384Y-104264442D01*
X124085384Y-104264443D01*
X124147871Y-104363889D01*
X124182317Y-104418709D01*
X124311147Y-104547539D01*
X124465413Y-104644471D01*
X124637381Y-104704645D01*
X124637386Y-104704646D01*
X124818424Y-104725044D01*
X124818428Y-104725044D01*
X124818432Y-104725044D01*
X124999469Y-104704646D01*
X124999472Y-104704645D01*
X124999475Y-104704645D01*
X125171443Y-104644471D01*
X125325709Y-104547539D01*
X125454539Y-104418709D01*
X125529864Y-104298830D01*
X125582196Y-104252541D01*
X125651250Y-104241892D01*
X125715098Y-104270267D01*
X125739850Y-104298832D01*
X125755693Y-104324046D01*
X125815174Y-104418709D01*
X125944004Y-104547539D01*
X126098270Y-104644471D01*
X126270238Y-104704645D01*
X126270243Y-104704646D01*
X126451281Y-104725044D01*
X126451285Y-104725044D01*
X126451289Y-104725044D01*
X126632326Y-104704646D01*
X126632329Y-104704645D01*
X126632332Y-104704645D01*
X126804300Y-104644471D01*
X126958566Y-104547539D01*
X127087396Y-104418709D01*
X127162721Y-104298830D01*
X127215053Y-104252541D01*
X127284107Y-104241892D01*
X127347955Y-104270267D01*
X127372707Y-104298832D01*
X127388550Y-104324046D01*
X127448031Y-104418709D01*
X127576861Y-104547539D01*
X127731127Y-104644471D01*
X127903095Y-104704645D01*
X127903100Y-104704646D01*
X128084138Y-104725044D01*
X128084142Y-104725044D01*
X128084146Y-104725044D01*
X128265183Y-104704646D01*
X128265186Y-104704645D01*
X128265189Y-104704645D01*
X128437157Y-104644471D01*
X128591423Y-104547539D01*
X128720253Y-104418709D01*
X128795577Y-104298832D01*
X128847912Y-104252541D01*
X128916966Y-104241893D01*
X128980814Y-104270268D01*
X129005565Y-104298832D01*
X129021408Y-104324046D01*
X129080889Y-104418709D01*
X129209719Y-104547539D01*
X129363985Y-104644471D01*
X129535953Y-104704645D01*
X129535958Y-104704646D01*
X129716996Y-104725044D01*
X129717000Y-104725044D01*
X129717004Y-104725044D01*
X129898041Y-104704646D01*
X129898044Y-104704645D01*
X129898047Y-104704645D01*
X130070015Y-104644471D01*
X130224281Y-104547539D01*
X130353111Y-104418709D01*
X130450043Y-104264443D01*
X130510217Y-104092475D01*
X130512055Y-104076165D01*
X130522440Y-103983996D01*
X138134384Y-103983996D01*
X138134384Y-103984003D01*
X138154781Y-104165041D01*
X138154783Y-104165049D01*
X138210418Y-104324046D01*
X138213979Y-104393825D01*
X138210418Y-104405954D01*
X138154783Y-104564950D01*
X138154781Y-104564958D01*
X138134384Y-104745996D01*
X138134384Y-104746003D01*
X138154781Y-104927041D01*
X138154783Y-104927049D01*
X138210418Y-105086046D01*
X138213979Y-105155825D01*
X138210418Y-105167954D01*
X138154783Y-105326950D01*
X138154781Y-105326958D01*
X138134384Y-105507996D01*
X138134384Y-105508003D01*
X138154781Y-105689041D01*
X138154782Y-105689046D01*
X138214958Y-105861017D01*
X138264689Y-105940163D01*
X138311889Y-106015281D01*
X138440719Y-106144111D01*
X138594985Y-106241043D01*
X138746394Y-106294023D01*
X138766953Y-106301217D01*
X138766958Y-106301218D01*
X138947996Y-106321616D01*
X138948000Y-106321616D01*
X138948004Y-106321616D01*
X139129041Y-106301218D01*
X139129044Y-106301217D01*
X139129047Y-106301217D01*
X139301015Y-106241043D01*
X139455281Y-106144111D01*
X139584111Y-106015281D01*
X139681043Y-105861015D01*
X139741217Y-105689047D01*
X139746446Y-105642642D01*
X139761616Y-105508003D01*
X139761616Y-105507996D01*
X139741218Y-105326958D01*
X139741215Y-105326945D01*
X139685581Y-105167955D01*
X139682018Y-105098177D01*
X139685581Y-105086045D01*
X139741215Y-104927054D01*
X139741218Y-104927041D01*
X139761616Y-104746003D01*
X139761616Y-104745996D01*
X139741218Y-104564958D01*
X139741215Y-104564945D01*
X139685581Y-104405955D01*
X139682018Y-104336177D01*
X139685581Y-104324045D01*
X139690395Y-104310289D01*
X139726613Y-104206783D01*
X139741215Y-104165054D01*
X139741218Y-104165041D01*
X139761616Y-103984003D01*
X139761616Y-103983996D01*
X142706384Y-103983996D01*
X142706384Y-103984003D01*
X142726781Y-104165041D01*
X142726782Y-104165046D01*
X142764205Y-104271993D01*
X142786293Y-104335118D01*
X142786958Y-104337017D01*
X142803843Y-104363889D01*
X142883889Y-104491281D01*
X143012719Y-104620111D01*
X143117542Y-104685976D01*
X143166985Y-104717043D01*
X143169302Y-104717854D01*
X143170596Y-104718782D01*
X143173258Y-104720064D01*
X143173033Y-104720530D01*
X143226079Y-104758575D01*
X143251827Y-104823528D01*
X143238371Y-104892089D01*
X143216031Y-104922577D01*
X143137888Y-105000720D01*
X143040958Y-105154982D01*
X142980782Y-105326953D01*
X142980781Y-105326958D01*
X142960384Y-105507996D01*
X142960384Y-105508003D01*
X142980781Y-105689041D01*
X142980782Y-105689046D01*
X143040958Y-105861017D01*
X143090689Y-105940163D01*
X143137889Y-106015281D01*
X143266719Y-106144111D01*
X143420985Y-106241043D01*
X143572394Y-106294023D01*
X143592953Y-106301217D01*
X143592958Y-106301218D01*
X143773996Y-106321616D01*
X143774000Y-106321616D01*
X143774004Y-106321616D01*
X143955041Y-106301218D01*
X143955044Y-106301217D01*
X143955047Y-106301217D01*
X144127015Y-106241043D01*
X144281281Y-106144111D01*
X144410111Y-106015281D01*
X144507043Y-105861015D01*
X144567217Y-105689047D01*
X144572446Y-105642642D01*
X144587616Y-105508003D01*
X144587616Y-105507996D01*
X144567218Y-105326958D01*
X144567217Y-105326953D01*
X144552613Y-105285217D01*
X144507043Y-105154985D01*
X144410111Y-105000719D01*
X144410110Y-105000718D01*
X144406373Y-104996032D01*
X144379964Y-104931346D01*
X144392719Y-104862650D01*
X144440589Y-104811756D01*
X144508375Y-104794821D01*
X144517198Y-104795497D01*
X144529427Y-104796875D01*
X144535999Y-104797616D01*
X144536000Y-104797616D01*
X144536004Y-104797616D01*
X144717041Y-104777218D01*
X144717044Y-104777217D01*
X144717047Y-104777217D01*
X144889015Y-104717043D01*
X145043281Y-104620111D01*
X145172111Y-104491281D01*
X145198052Y-104449996D01*
X154602384Y-104449996D01*
X154602384Y-104450003D01*
X154622781Y-104631041D01*
X154622782Y-104631046D01*
X154653158Y-104717854D01*
X154681887Y-104799958D01*
X154682958Y-104803017D01*
X154738926Y-104892089D01*
X154779889Y-104957281D01*
X154908719Y-105086111D01*
X155062985Y-105183043D01*
X155183015Y-105225043D01*
X155234953Y-105243217D01*
X155234958Y-105243218D01*
X155415996Y-105263616D01*
X155416000Y-105263616D01*
X155416004Y-105263616D01*
X155597041Y-105243218D01*
X155597044Y-105243217D01*
X155597047Y-105243217D01*
X155769015Y-105183043D01*
X155923281Y-105086111D01*
X156009396Y-104999996D01*
X163534384Y-104999996D01*
X163534384Y-105000003D01*
X163554781Y-105181041D01*
X163554782Y-105181046D01*
X163591234Y-105285218D01*
X163608309Y-105334017D01*
X163614958Y-105353017D01*
X163711889Y-105507281D01*
X163840719Y-105636111D01*
X163994985Y-105733043D01*
X164152115Y-105788025D01*
X164166953Y-105793217D01*
X164166958Y-105793218D01*
X164347996Y-105813616D01*
X164348000Y-105813616D01*
X164348004Y-105813616D01*
X164529041Y-105793218D01*
X164529044Y-105793217D01*
X164529047Y-105793217D01*
X164701015Y-105733043D01*
X164814648Y-105661642D01*
X164881883Y-105642642D01*
X164946590Y-105661642D01*
X164990195Y-105689041D01*
X165029981Y-105714041D01*
X165029982Y-105714041D01*
X165029985Y-105714043D01*
X165191759Y-105770650D01*
X165201953Y-105774217D01*
X165201958Y-105774218D01*
X165382996Y-105794616D01*
X165383000Y-105794616D01*
X165383004Y-105794616D01*
X165564041Y-105774218D01*
X165564044Y-105774217D01*
X165564047Y-105774217D01*
X165736015Y-105714043D01*
X165890281Y-105617111D01*
X166019111Y-105488281D01*
X166116043Y-105334015D01*
X166176217Y-105162047D01*
X166183319Y-105099015D01*
X166194476Y-104999996D01*
X170392384Y-104999996D01*
X170392384Y-105000003D01*
X170412781Y-105181041D01*
X170412782Y-105181046D01*
X170449234Y-105285218D01*
X170466309Y-105334017D01*
X170472958Y-105353017D01*
X170569889Y-105507281D01*
X170698719Y-105636111D01*
X170852985Y-105733043D01*
X171010115Y-105788025D01*
X171024953Y-105793217D01*
X171024958Y-105793218D01*
X171205996Y-105813616D01*
X171206000Y-105813616D01*
X171206004Y-105813616D01*
X171387041Y-105793218D01*
X171387044Y-105793217D01*
X171387047Y-105793217D01*
X171559015Y-105733043D01*
X171713281Y-105636111D01*
X171842111Y-105507281D01*
X171937120Y-105356075D01*
X171989451Y-105309787D01*
X172028228Y-105298830D01*
X172149041Y-105285218D01*
X172149044Y-105285217D01*
X172149047Y-105285217D01*
X172321015Y-105225043D01*
X172475281Y-105128111D01*
X172603392Y-105000000D01*
X197894747Y-105000000D01*
X197913741Y-105314023D01*
X197913741Y-105314028D01*
X197913742Y-105314029D01*
X197970451Y-105623478D01*
X197970452Y-105623482D01*
X197970453Y-105623486D01*
X198064039Y-105923816D01*
X198064043Y-105923827D01*
X198064044Y-105923830D01*
X198064046Y-105923835D01*
X198193163Y-106210721D01*
X198322799Y-106425165D01*
X198355924Y-106479960D01*
X198549942Y-106727605D01*
X198772394Y-106950057D01*
X199020039Y-107144075D01*
X199020044Y-107144078D01*
X199020048Y-107144081D01*
X199289279Y-107306837D01*
X199576165Y-107435954D01*
X199576175Y-107435957D01*
X199576183Y-107435960D01*
X199675968Y-107467054D01*
X199876522Y-107529549D01*
X200185971Y-107586258D01*
X200500000Y-107605253D01*
X200814029Y-107586258D01*
X201123478Y-107529549D01*
X201423835Y-107435954D01*
X201710721Y-107306837D01*
X201979952Y-107144081D01*
X201994990Y-107132300D01*
X202052205Y-107087474D01*
X202227602Y-106950060D01*
X202450060Y-106727602D01*
X202644081Y-106479952D01*
X202806837Y-106210721D01*
X202935954Y-105923835D01*
X203029549Y-105623478D01*
X203086258Y-105314029D01*
X203105253Y-105000000D01*
X203086258Y-104685971D01*
X203029549Y-104376522D01*
X202996029Y-104268953D01*
X202935960Y-104076183D01*
X202935956Y-104076172D01*
X202935954Y-104076165D01*
X202806837Y-103789279D01*
X202644081Y-103520048D01*
X202644078Y-103520044D01*
X202644075Y-103520039D01*
X202450057Y-103272394D01*
X202227605Y-103049942D01*
X201979960Y-102855924D01*
X201979952Y-102855919D01*
X201710721Y-102693163D01*
X201423835Y-102564046D01*
X201423830Y-102564044D01*
X201423827Y-102564043D01*
X201423816Y-102564039D01*
X201123486Y-102470453D01*
X201123482Y-102470452D01*
X201123478Y-102470451D01*
X200814029Y-102413742D01*
X200814028Y-102413741D01*
X200814023Y-102413741D01*
X200500000Y-102394747D01*
X200185976Y-102413741D01*
X200185971Y-102413742D01*
X199876522Y-102470451D01*
X199876519Y-102470451D01*
X199876513Y-102470453D01*
X199576183Y-102564039D01*
X199576172Y-102564043D01*
X199576166Y-102564045D01*
X199576165Y-102564046D01*
X199540141Y-102580259D01*
X199306177Y-102685558D01*
X199289279Y-102693163D01*
X199206910Y-102742957D01*
X199020039Y-102855924D01*
X198772394Y-103049942D01*
X198549942Y-103272394D01*
X198355924Y-103520039D01*
X198193162Y-103789281D01*
X198193161Y-103789283D01*
X198064043Y-104076172D01*
X198064039Y-104076183D01*
X197970453Y-104376513D01*
X197970451Y-104376519D01*
X197970451Y-104376522D01*
X197949157Y-104492718D01*
X197913741Y-104685976D01*
X197894747Y-105000000D01*
X172603392Y-105000000D01*
X172604111Y-104999281D01*
X172701043Y-104845015D01*
X172745717Y-104717341D01*
X172786437Y-104660568D01*
X172821799Y-104641258D01*
X172949475Y-104596583D01*
X173103741Y-104499651D01*
X173232571Y-104370821D01*
X173329503Y-104216555D01*
X173389677Y-104044587D01*
X173392345Y-104020907D01*
X173396504Y-103983996D01*
X178607154Y-103983996D01*
X178607154Y-103984003D01*
X178627551Y-104165041D01*
X178627552Y-104165046D01*
X178664975Y-104271993D01*
X178687063Y-104335118D01*
X178687728Y-104337017D01*
X178704613Y-104363889D01*
X178784659Y-104491281D01*
X178913489Y-104620111D01*
X179067755Y-104717043D01*
X179233264Y-104774957D01*
X179239723Y-104777217D01*
X179239728Y-104777218D01*
X179420766Y-104797616D01*
X179420770Y-104797616D01*
X179420774Y-104797616D01*
X179601811Y-104777218D01*
X179601814Y-104777217D01*
X179601817Y-104777217D01*
X179773785Y-104717043D01*
X179928051Y-104620111D01*
X180056881Y-104491281D01*
X180153813Y-104337015D01*
X180213987Y-104165047D01*
X180215434Y-104152206D01*
X180234386Y-103984003D01*
X180234386Y-103983996D01*
X181822384Y-103983996D01*
X181822384Y-103984003D01*
X181842781Y-104165041D01*
X181842782Y-104165046D01*
X181880205Y-104271993D01*
X181902293Y-104335118D01*
X181902958Y-104337017D01*
X181919843Y-104363889D01*
X181999889Y-104491281D01*
X182128719Y-104620111D01*
X182282985Y-104717043D01*
X182448494Y-104774957D01*
X182454953Y-104777217D01*
X182454958Y-104777218D01*
X182635996Y-104797616D01*
X182636000Y-104797616D01*
X182636004Y-104797616D01*
X182817041Y-104777218D01*
X182817044Y-104777217D01*
X182817047Y-104777217D01*
X182989015Y-104717043D01*
X183143281Y-104620111D01*
X183272111Y-104491281D01*
X183369043Y-104337015D01*
X183429217Y-104165047D01*
X183430664Y-104152206D01*
X183449616Y-103984003D01*
X183449616Y-103983996D01*
X183429218Y-103802958D01*
X183429217Y-103802953D01*
X183413821Y-103758955D01*
X183369043Y-103630985D01*
X183272111Y-103476719D01*
X183143281Y-103347889D01*
X183088989Y-103313775D01*
X182989017Y-103250958D01*
X182989016Y-103250957D01*
X182989015Y-103250957D01*
X182904206Y-103221281D01*
X182817046Y-103190782D01*
X182817041Y-103190781D01*
X182636004Y-103170384D01*
X182635996Y-103170384D01*
X182454958Y-103190781D01*
X182454953Y-103190782D01*
X182282982Y-103250958D01*
X182128718Y-103347889D01*
X181999889Y-103476718D01*
X181902958Y-103630982D01*
X181842782Y-103802953D01*
X181842781Y-103802958D01*
X181822384Y-103983996D01*
X180234386Y-103983996D01*
X180213988Y-103802958D01*
X180213987Y-103802953D01*
X180198591Y-103758955D01*
X180153813Y-103630985D01*
X180056881Y-103476719D01*
X179928051Y-103347889D01*
X179873759Y-103313775D01*
X179773787Y-103250958D01*
X179773786Y-103250957D01*
X179773785Y-103250957D01*
X179688976Y-103221281D01*
X179601816Y-103190782D01*
X179601811Y-103190781D01*
X179420774Y-103170384D01*
X179420766Y-103170384D01*
X179239728Y-103190781D01*
X179239723Y-103190782D01*
X179067752Y-103250958D01*
X178913488Y-103347889D01*
X178784659Y-103476718D01*
X178687728Y-103630982D01*
X178627552Y-103802953D01*
X178627551Y-103802958D01*
X178607154Y-103983996D01*
X173396504Y-103983996D01*
X173410076Y-103863543D01*
X173410076Y-103863536D01*
X173389678Y-103682498D01*
X173389677Y-103682493D01*
X173373056Y-103634993D01*
X173329503Y-103510525D01*
X173232571Y-103356259D01*
X173103741Y-103227429D01*
X173093957Y-103221281D01*
X172949477Y-103130498D01*
X172949476Y-103130497D01*
X172949475Y-103130497D01*
X172895153Y-103111489D01*
X172777506Y-103070322D01*
X172777501Y-103070321D01*
X172596464Y-103049924D01*
X172596456Y-103049924D01*
X172415418Y-103070321D01*
X172415413Y-103070322D01*
X172243442Y-103130498D01*
X172089178Y-103227429D01*
X171960349Y-103356258D01*
X171863416Y-103510524D01*
X171863415Y-103510528D01*
X171818742Y-103638196D01*
X171778021Y-103694972D01*
X171742656Y-103714282D01*
X171614988Y-103758955D01*
X171614984Y-103758956D01*
X171460718Y-103855889D01*
X171331887Y-103984720D01*
X171236880Y-104135922D01*
X171184545Y-104182213D01*
X171145771Y-104193169D01*
X171024957Y-104206781D01*
X171024953Y-104206782D01*
X170852982Y-104266958D01*
X170698718Y-104363889D01*
X170569889Y-104492718D01*
X170472958Y-104646982D01*
X170412782Y-104818953D01*
X170412781Y-104818958D01*
X170392384Y-104999996D01*
X166194476Y-104999996D01*
X166196616Y-104981003D01*
X166196616Y-104980996D01*
X166176218Y-104799958D01*
X166176217Y-104799953D01*
X166168261Y-104777217D01*
X166116043Y-104627985D01*
X166019111Y-104473719D01*
X165890281Y-104344889D01*
X165835216Y-104310289D01*
X165736017Y-104247958D01*
X165736016Y-104247957D01*
X165736015Y-104247957D01*
X165646273Y-104216555D01*
X165564040Y-104187780D01*
X165557614Y-104186314D01*
X165496635Y-104152206D01*
X165463777Y-104090544D01*
X165469472Y-104020907D01*
X165488262Y-103988106D01*
X165492100Y-103983291D01*
X165492111Y-103983281D01*
X165589043Y-103829015D01*
X165649217Y-103657047D01*
X165651702Y-103634993D01*
X165669616Y-103476003D01*
X165669616Y-103475996D01*
X165649218Y-103294958D01*
X165649217Y-103294953D01*
X165641323Y-103272394D01*
X165589043Y-103122985D01*
X165492111Y-102968719D01*
X165363281Y-102839889D01*
X165279034Y-102786953D01*
X165209017Y-102742958D01*
X165209016Y-102742957D01*
X165209015Y-102742957D01*
X165126269Y-102714003D01*
X165037046Y-102682782D01*
X165037041Y-102682781D01*
X164856004Y-102662384D01*
X164855996Y-102662384D01*
X164674958Y-102682781D01*
X164674953Y-102682782D01*
X164502982Y-102742958D01*
X164348718Y-102839889D01*
X164219889Y-102968718D01*
X164122958Y-103122982D01*
X164062782Y-103294953D01*
X164062781Y-103294958D01*
X164042384Y-103475996D01*
X164042384Y-103476003D01*
X164062781Y-103657041D01*
X164062782Y-103657046D01*
X164122958Y-103829017D01*
X164219889Y-103983281D01*
X164233373Y-103996765D01*
X164266858Y-104058088D01*
X164261874Y-104127780D01*
X164220002Y-104183713D01*
X164173286Y-104205337D01*
X164166956Y-104206781D01*
X163994982Y-104266958D01*
X163840718Y-104363889D01*
X163711889Y-104492718D01*
X163614958Y-104646982D01*
X163554782Y-104818953D01*
X163554781Y-104818958D01*
X163534384Y-104999996D01*
X156009396Y-104999996D01*
X156052111Y-104957281D01*
X156149043Y-104803015D01*
X156209217Y-104631047D01*
X156209562Y-104627985D01*
X156229616Y-104450003D01*
X156229616Y-104449996D01*
X156209218Y-104268958D01*
X156209217Y-104268953D01*
X156203474Y-104252541D01*
X156149043Y-104096985D01*
X156052111Y-103942719D01*
X155923281Y-103813889D01*
X155769017Y-103716958D01*
X155769016Y-103716957D01*
X155769015Y-103716957D01*
X155700598Y-103693017D01*
X155597046Y-103656782D01*
X155597041Y-103656781D01*
X155416004Y-103636384D01*
X155415996Y-103636384D01*
X155234958Y-103656781D01*
X155234953Y-103656782D01*
X155062982Y-103716958D01*
X154908718Y-103813889D01*
X154779889Y-103942718D01*
X154682958Y-104096982D01*
X154622782Y-104268953D01*
X154622781Y-104268958D01*
X154602384Y-104449996D01*
X145198052Y-104449996D01*
X145269043Y-104337015D01*
X145329217Y-104165047D01*
X145330664Y-104152206D01*
X145349616Y-103984003D01*
X145349616Y-103983996D01*
X145329218Y-103802958D01*
X145329217Y-103802953D01*
X145313821Y-103758955D01*
X145269043Y-103630985D01*
X145173400Y-103478771D01*
X150834384Y-103478771D01*
X150834384Y-103478778D01*
X150854781Y-103659816D01*
X150854782Y-103659821D01*
X150879474Y-103730386D01*
X150914957Y-103831790D01*
X151011889Y-103986056D01*
X151140719Y-104114886D01*
X151294985Y-104211818D01*
X151445379Y-104264443D01*
X151466953Y-104271992D01*
X151466958Y-104271993D01*
X151647996Y-104292391D01*
X151648000Y-104292391D01*
X151648004Y-104292391D01*
X151829041Y-104271993D01*
X151829044Y-104271992D01*
X151829047Y-104271992D01*
X152001015Y-104211818D01*
X152155281Y-104114886D01*
X152284111Y-103986056D01*
X152381043Y-103831790D01*
X152441217Y-103659822D01*
X152444835Y-103627706D01*
X152471899Y-103563295D01*
X152529493Y-103523739D01*
X152581939Y-103518370D01*
X152663997Y-103527616D01*
X152664000Y-103527616D01*
X152664004Y-103527616D01*
X152845041Y-103507218D01*
X152845044Y-103507217D01*
X152845047Y-103507217D01*
X153017015Y-103447043D01*
X153171281Y-103350111D01*
X153300111Y-103221281D01*
X153397043Y-103067015D01*
X153457217Y-102895047D01*
X153463119Y-102842664D01*
X153477616Y-102714003D01*
X153477616Y-102713996D01*
X153457218Y-102532958D01*
X153457217Y-102532953D01*
X153435347Y-102470453D01*
X153397043Y-102360985D01*
X153300111Y-102206719D01*
X153171281Y-102077889D01*
X153017016Y-101980957D01*
X152934249Y-101951996D01*
X169884384Y-101951996D01*
X169884384Y-101952003D01*
X169904781Y-102133041D01*
X169904782Y-102133046D01*
X169930562Y-102206719D01*
X169964957Y-102305015D01*
X170061889Y-102459281D01*
X170190719Y-102588111D01*
X170344985Y-102685043D01*
X170510494Y-102742957D01*
X170516953Y-102745217D01*
X170516958Y-102745218D01*
X170697996Y-102765616D01*
X170698000Y-102765616D01*
X170698004Y-102765616D01*
X170879041Y-102745218D01*
X170879044Y-102745217D01*
X170879047Y-102745217D01*
X171051015Y-102685043D01*
X171205281Y-102588111D01*
X171334111Y-102459281D01*
X171431043Y-102305015D01*
X171491217Y-102133047D01*
X171491218Y-102133041D01*
X171511616Y-101952003D01*
X171511616Y-101951996D01*
X171491218Y-101770958D01*
X171491217Y-101770953D01*
X171444443Y-101637281D01*
X171431043Y-101598985D01*
X171334111Y-101444719D01*
X171205281Y-101315889D01*
X171197565Y-101311041D01*
X171051017Y-101218958D01*
X171051016Y-101218957D01*
X171051015Y-101218957D01*
X170966206Y-101189281D01*
X170879046Y-101158782D01*
X170879041Y-101158781D01*
X170698004Y-101138384D01*
X170697996Y-101138384D01*
X170516958Y-101158781D01*
X170516953Y-101158782D01*
X170344982Y-101218958D01*
X170190718Y-101315889D01*
X170061889Y-101444718D01*
X169964958Y-101598982D01*
X169904782Y-101770953D01*
X169904781Y-101770958D01*
X169884384Y-101951996D01*
X152934249Y-101951996D01*
X152877492Y-101932136D01*
X152820715Y-101891414D01*
X152794968Y-101826461D01*
X152795226Y-101801208D01*
X152797616Y-101779999D01*
X152797616Y-101779996D01*
X152777218Y-101598958D01*
X152777217Y-101598953D01*
X152736649Y-101483017D01*
X152717043Y-101426985D01*
X152706894Y-101410834D01*
X152687896Y-101343598D01*
X152708265Y-101276763D01*
X152724209Y-101257183D01*
X152792111Y-101189281D01*
X152829362Y-101129996D01*
X164042384Y-101129996D01*
X164042384Y-101130003D01*
X164062781Y-101311041D01*
X164062782Y-101311046D01*
X164074173Y-101343598D01*
X164122957Y-101483015D01*
X164219889Y-101637281D01*
X164348719Y-101766111D01*
X164502985Y-101863043D01*
X164667997Y-101920783D01*
X164674953Y-101923217D01*
X164674958Y-101923218D01*
X164855996Y-101943616D01*
X164856000Y-101943616D01*
X164856004Y-101943616D01*
X165037041Y-101923218D01*
X165037044Y-101923217D01*
X165037047Y-101923217D01*
X165209015Y-101863043D01*
X165363281Y-101766111D01*
X165492111Y-101637281D01*
X165589043Y-101483015D01*
X165649217Y-101311047D01*
X165653080Y-101276763D01*
X165669616Y-101130003D01*
X165669616Y-101129996D01*
X165649218Y-100948958D01*
X165649217Y-100948953D01*
X165619157Y-100863047D01*
X165589043Y-100776985D01*
X165492111Y-100622719D01*
X165363281Y-100493889D01*
X165308101Y-100459217D01*
X165209017Y-100396958D01*
X165209016Y-100396957D01*
X165209015Y-100396957D01*
X165154693Y-100377949D01*
X165077838Y-100351056D01*
X168360384Y-100351056D01*
X168360384Y-100351063D01*
X168380781Y-100532101D01*
X168380782Y-100532106D01*
X168412489Y-100622718D01*
X168423099Y-100653041D01*
X168440958Y-100704077D01*
X168507583Y-100810110D01*
X168537889Y-100858341D01*
X168666719Y-100987171D01*
X168820985Y-101084103D01*
X168976112Y-101138384D01*
X168992953Y-101144277D01*
X168992958Y-101144278D01*
X169173996Y-101164676D01*
X169174000Y-101164676D01*
X169174004Y-101164676D01*
X169355041Y-101144278D01*
X169355044Y-101144277D01*
X169355047Y-101144277D01*
X169527015Y-101084103D01*
X169681281Y-100987171D01*
X169810111Y-100858341D01*
X169907043Y-100704075D01*
X169967217Y-100532107D01*
X169970727Y-100500958D01*
X169987616Y-100351063D01*
X169987616Y-100351056D01*
X172501324Y-100351056D01*
X172501324Y-100351063D01*
X172521721Y-100532101D01*
X172521722Y-100532106D01*
X172553429Y-100622718D01*
X172564039Y-100653041D01*
X172581898Y-100704077D01*
X172648523Y-100810110D01*
X172678829Y-100858341D01*
X172807659Y-100987171D01*
X172961925Y-101084103D01*
X173117052Y-101138384D01*
X173133893Y-101144277D01*
X173133898Y-101144278D01*
X173314936Y-101164676D01*
X173314940Y-101164676D01*
X173314944Y-101164676D01*
X173495981Y-101144278D01*
X173495984Y-101144277D01*
X173495987Y-101144277D01*
X173667955Y-101084103D01*
X173822221Y-100987171D01*
X173951051Y-100858341D01*
X174047983Y-100704075D01*
X174108157Y-100532107D01*
X174111667Y-100500958D01*
X174128556Y-100351063D01*
X174128556Y-100351056D01*
X174108158Y-100170018D01*
X174108157Y-100170013D01*
X174047983Y-99998045D01*
X173951051Y-99843779D01*
X173822221Y-99714949D01*
X173744324Y-99666003D01*
X173744313Y-99665996D01*
X180298384Y-99665996D01*
X180298384Y-99666003D01*
X180318781Y-99847041D01*
X180318782Y-99847046D01*
X180333387Y-99888783D01*
X180378957Y-100019015D01*
X180475889Y-100173281D01*
X180604719Y-100302111D01*
X180758985Y-100399043D01*
X180930953Y-100459217D01*
X180930958Y-100459218D01*
X181111996Y-100479616D01*
X181112000Y-100479616D01*
X181112004Y-100479616D01*
X181293041Y-100459218D01*
X181293044Y-100459217D01*
X181293047Y-100459217D01*
X181465015Y-100399043D01*
X181619281Y-100302111D01*
X181748111Y-100173281D01*
X181845043Y-100019015D01*
X181905217Y-99847047D01*
X181905218Y-99847041D01*
X181925616Y-99666003D01*
X181925616Y-99665996D01*
X181905218Y-99484958D01*
X181905217Y-99484953D01*
X181902428Y-99476982D01*
X181845043Y-99312985D01*
X181748111Y-99158719D01*
X181619281Y-99029889D01*
X181465015Y-98932957D01*
X181382269Y-98904003D01*
X181293046Y-98872782D01*
X181293041Y-98872781D01*
X181112004Y-98852384D01*
X181111996Y-98852384D01*
X180930958Y-98872781D01*
X180930953Y-98872782D01*
X180758982Y-98932958D01*
X180604718Y-99029889D01*
X180475889Y-99158718D01*
X180378958Y-99312982D01*
X180318782Y-99484953D01*
X180318781Y-99484958D01*
X180298384Y-99665996D01*
X173744313Y-99665996D01*
X173667957Y-99618018D01*
X173667956Y-99618017D01*
X173667955Y-99618017D01*
X173613633Y-99599009D01*
X173495986Y-99557842D01*
X173495981Y-99557841D01*
X173314944Y-99537444D01*
X173314936Y-99537444D01*
X173133898Y-99557841D01*
X173133893Y-99557842D01*
X172961922Y-99618018D01*
X172807658Y-99714949D01*
X172678829Y-99843778D01*
X172581898Y-99998042D01*
X172521722Y-100170013D01*
X172521721Y-100170018D01*
X172501324Y-100351056D01*
X169987616Y-100351056D01*
X169967218Y-100170018D01*
X169967217Y-100170013D01*
X169907043Y-99998045D01*
X169810111Y-99843779D01*
X169681281Y-99714949D01*
X169603384Y-99666003D01*
X169527017Y-99618018D01*
X169527016Y-99618017D01*
X169527015Y-99618017D01*
X169472693Y-99599009D01*
X169355046Y-99557842D01*
X169355041Y-99557841D01*
X169174004Y-99537444D01*
X169173996Y-99537444D01*
X168992958Y-99557841D01*
X168992953Y-99557842D01*
X168820982Y-99618018D01*
X168666718Y-99714949D01*
X168537889Y-99843778D01*
X168440958Y-99998042D01*
X168380782Y-100170013D01*
X168380781Y-100170018D01*
X168360384Y-100351056D01*
X165077838Y-100351056D01*
X165037046Y-100336782D01*
X165037041Y-100336781D01*
X164856004Y-100316384D01*
X164855996Y-100316384D01*
X164674958Y-100336781D01*
X164674953Y-100336782D01*
X164502982Y-100396958D01*
X164348718Y-100493889D01*
X164219889Y-100622718D01*
X164122958Y-100776982D01*
X164062782Y-100948953D01*
X164062781Y-100948958D01*
X164042384Y-101129996D01*
X152829362Y-101129996D01*
X152887120Y-101038075D01*
X152939451Y-100991787D01*
X152978228Y-100980830D01*
X153099041Y-100967218D01*
X153099044Y-100967217D01*
X153099047Y-100967217D01*
X153271015Y-100907043D01*
X153425281Y-100810111D01*
X153554111Y-100681281D01*
X153646383Y-100534430D01*
X153698717Y-100488141D01*
X153767770Y-100477493D01*
X153817347Y-100495409D01*
X153924985Y-100563043D01*
X154095527Y-100622718D01*
X154096953Y-100623217D01*
X154096958Y-100623218D01*
X154277996Y-100643616D01*
X154278000Y-100643616D01*
X154278004Y-100643616D01*
X154459041Y-100623218D01*
X154459044Y-100623217D01*
X154459047Y-100623217D01*
X154631015Y-100563043D01*
X154785281Y-100466111D01*
X154914111Y-100337281D01*
X155011043Y-100183015D01*
X155071217Y-100011047D01*
X155072682Y-99998045D01*
X155091616Y-99830003D01*
X155091616Y-99829996D01*
X155071218Y-99648958D01*
X155071217Y-99648953D01*
X155011043Y-99476985D01*
X154914111Y-99322719D01*
X154785281Y-99193889D01*
X154774249Y-99186957D01*
X154631017Y-99096958D01*
X154631016Y-99096957D01*
X154631015Y-99096957D01*
X154566156Y-99074262D01*
X154459046Y-99036782D01*
X154459041Y-99036781D01*
X154278004Y-99016384D01*
X154277996Y-99016384D01*
X154096958Y-99036781D01*
X154096953Y-99036782D01*
X153924982Y-99096958D01*
X153770718Y-99193889D01*
X153641887Y-99322720D01*
X153549616Y-99469568D01*
X153497281Y-99515858D01*
X153428228Y-99526506D01*
X153378651Y-99508589D01*
X153271017Y-99440958D01*
X153271016Y-99440957D01*
X153271015Y-99440957D01*
X153216693Y-99421949D01*
X153099046Y-99380782D01*
X153099041Y-99380781D01*
X152918004Y-99360384D01*
X152917996Y-99360384D01*
X152736958Y-99380781D01*
X152736953Y-99380782D01*
X152564982Y-99440958D01*
X152410718Y-99537889D01*
X152281887Y-99666720D01*
X152186880Y-99817922D01*
X152134545Y-99864213D01*
X152095771Y-99875169D01*
X151974957Y-99888781D01*
X151974953Y-99888782D01*
X151802982Y-99948958D01*
X151648718Y-100045889D01*
X151519889Y-100174718D01*
X151422958Y-100328982D01*
X151362782Y-100500953D01*
X151362781Y-100500958D01*
X151342384Y-100681996D01*
X151342384Y-100682003D01*
X151362781Y-100863041D01*
X151362782Y-100863046D01*
X151422957Y-101035016D01*
X151433103Y-101051162D01*
X151452104Y-101118399D01*
X151431737Y-101185234D01*
X151415792Y-101204816D01*
X151347888Y-101272720D01*
X151250958Y-101426982D01*
X151190782Y-101598953D01*
X151190781Y-101598958D01*
X151170384Y-101779996D01*
X151170384Y-101780003D01*
X151190781Y-101961041D01*
X151190782Y-101961046D01*
X151250958Y-102133017D01*
X151315012Y-102234958D01*
X151347889Y-102287281D01*
X151476719Y-102416111D01*
X151538797Y-102455117D01*
X151585088Y-102507452D01*
X151595736Y-102576505D01*
X151567361Y-102640354D01*
X151508971Y-102678726D01*
X151486711Y-102683331D01*
X151466956Y-102685557D01*
X151466953Y-102685557D01*
X151294982Y-102745733D01*
X151140718Y-102842664D01*
X151011889Y-102971493D01*
X150914958Y-103125757D01*
X150854782Y-103297728D01*
X150854781Y-103297733D01*
X150834384Y-103478771D01*
X145173400Y-103478771D01*
X145172111Y-103476719D01*
X145070490Y-103375098D01*
X145037005Y-103313775D01*
X145041130Y-103246461D01*
X145075216Y-103149051D01*
X145075218Y-103149041D01*
X145095616Y-102968003D01*
X145095616Y-102967996D01*
X145075218Y-102786958D01*
X145075217Y-102786953D01*
X145067751Y-102765616D01*
X145015043Y-102614985D01*
X144918111Y-102460719D01*
X144789281Y-102331889D01*
X144635015Y-102234957D01*
X144580693Y-102215949D01*
X144463046Y-102174782D01*
X144463041Y-102174781D01*
X144282004Y-102154384D01*
X144281996Y-102154384D01*
X144100958Y-102174781D01*
X144100953Y-102174782D01*
X143928982Y-102234958D01*
X143774718Y-102331889D01*
X143645889Y-102460718D01*
X143548958Y-102614982D01*
X143488782Y-102786953D01*
X143488781Y-102786958D01*
X143468384Y-102967996D01*
X143468384Y-102968003D01*
X143477664Y-103050369D01*
X143465609Y-103119191D01*
X143418260Y-103170570D01*
X143368329Y-103187472D01*
X143338958Y-103190781D01*
X143166983Y-103250957D01*
X143012718Y-103347889D01*
X142883889Y-103476718D01*
X142786958Y-103630982D01*
X142726782Y-103802953D01*
X142726781Y-103802958D01*
X142706384Y-103983996D01*
X139761616Y-103983996D01*
X139741218Y-103802958D01*
X139741217Y-103802953D01*
X139725821Y-103758955D01*
X139681043Y-103630985D01*
X139584111Y-103476719D01*
X139455281Y-103347889D01*
X139400989Y-103313775D01*
X139301017Y-103250958D01*
X139301016Y-103250957D01*
X139301015Y-103250957D01*
X139216206Y-103221281D01*
X139129046Y-103190782D01*
X139129041Y-103190781D01*
X138948004Y-103170384D01*
X138947996Y-103170384D01*
X138766958Y-103190781D01*
X138766953Y-103190782D01*
X138594982Y-103250958D01*
X138440718Y-103347889D01*
X138311889Y-103476718D01*
X138214958Y-103630982D01*
X138154782Y-103802953D01*
X138154781Y-103802958D01*
X138134384Y-103983996D01*
X130522440Y-103983996D01*
X130530616Y-103911431D01*
X130530616Y-103911424D01*
X130510218Y-103730386D01*
X130510217Y-103730381D01*
X130484464Y-103656783D01*
X130450043Y-103558413D01*
X130353111Y-103404147D01*
X130224281Y-103275317D01*
X130148068Y-103227429D01*
X130070017Y-103178386D01*
X130070016Y-103178385D01*
X130070015Y-103178385D01*
X129986172Y-103149047D01*
X129898046Y-103118210D01*
X129898041Y-103118209D01*
X129717004Y-103097812D01*
X129716996Y-103097812D01*
X129535958Y-103118209D01*
X129535953Y-103118210D01*
X129363982Y-103178386D01*
X129209718Y-103275317D01*
X129080887Y-103404148D01*
X129005564Y-103524024D01*
X128953229Y-103570314D01*
X128884176Y-103580962D01*
X128820328Y-103552587D01*
X128795578Y-103524024D01*
X128720254Y-103404148D01*
X128591423Y-103275317D01*
X128437159Y-103178386D01*
X128437158Y-103178385D01*
X128437157Y-103178385D01*
X128353314Y-103149047D01*
X128265188Y-103118210D01*
X128265183Y-103118209D01*
X128084146Y-103097812D01*
X128084138Y-103097812D01*
X127903100Y-103118209D01*
X127903095Y-103118210D01*
X127731124Y-103178386D01*
X127576860Y-103275317D01*
X127448029Y-103404148D01*
X127372706Y-103524024D01*
X127320371Y-103570314D01*
X127251318Y-103580962D01*
X127187470Y-103552587D01*
X127162719Y-103524023D01*
X127162211Y-103523214D01*
X127087396Y-103404147D01*
X126958566Y-103275317D01*
X126882353Y-103227429D01*
X126804302Y-103178386D01*
X126804301Y-103178385D01*
X126804300Y-103178385D01*
X126720457Y-103149047D01*
X126632331Y-103118210D01*
X126632326Y-103118209D01*
X126451289Y-103097812D01*
X126451281Y-103097812D01*
X126270243Y-103118209D01*
X126270238Y-103118210D01*
X126098267Y-103178386D01*
X125944003Y-103275317D01*
X125815172Y-103404148D01*
X125739849Y-103524024D01*
X125687514Y-103570314D01*
X125618461Y-103580962D01*
X125554613Y-103552587D01*
X125529862Y-103524023D01*
X125529354Y-103523214D01*
X125454539Y-103404147D01*
X125325709Y-103275317D01*
X125249496Y-103227429D01*
X125171445Y-103178386D01*
X125171444Y-103178385D01*
X125171443Y-103178385D01*
X125087600Y-103149047D01*
X124999474Y-103118210D01*
X124999469Y-103118209D01*
X124818432Y-103097812D01*
X124818424Y-103097812D01*
X124637386Y-103118209D01*
X124637381Y-103118210D01*
X124465410Y-103178386D01*
X124311146Y-103275317D01*
X124182317Y-103404146D01*
X124085384Y-103558412D01*
X124085383Y-103558416D01*
X124082755Y-103565927D01*
X124042033Y-103622703D01*
X123977080Y-103648450D01*
X123908519Y-103634993D01*
X123858116Y-103586606D01*
X123848673Y-103565927D01*
X123846044Y-103558416D01*
X123846043Y-103558412D01*
X123776063Y-103447041D01*
X123749111Y-103404147D01*
X123620281Y-103275317D01*
X123544068Y-103227429D01*
X123466017Y-103178386D01*
X123466016Y-103178385D01*
X123466015Y-103178385D01*
X123382172Y-103149047D01*
X123294046Y-103118210D01*
X123294041Y-103118209D01*
X123113004Y-103097812D01*
X123112996Y-103097812D01*
X122931958Y-103118209D01*
X122931953Y-103118210D01*
X122759982Y-103178386D01*
X122605718Y-103275317D01*
X122476887Y-103404148D01*
X122437850Y-103466276D01*
X122385515Y-103512566D01*
X122316462Y-103523214D01*
X122252614Y-103494839D01*
X122227864Y-103466276D01*
X122188826Y-103404148D01*
X122059995Y-103275317D01*
X121905731Y-103178386D01*
X121905730Y-103178385D01*
X121905729Y-103178385D01*
X121821886Y-103149047D01*
X121733760Y-103118210D01*
X121733755Y-103118209D01*
X121552718Y-103097812D01*
X121552710Y-103097812D01*
X121371672Y-103118209D01*
X121371667Y-103118210D01*
X121199696Y-103178386D01*
X121045432Y-103275317D01*
X120916601Y-103404148D01*
X120841278Y-103524024D01*
X120788943Y-103570314D01*
X120719890Y-103580962D01*
X120656042Y-103552587D01*
X120631291Y-103524023D01*
X120630783Y-103523214D01*
X120555968Y-103404147D01*
X120427138Y-103275317D01*
X120350925Y-103227429D01*
X120272874Y-103178386D01*
X120272873Y-103178385D01*
X120272872Y-103178385D01*
X120189029Y-103149047D01*
X120100903Y-103118210D01*
X120100898Y-103118209D01*
X119919861Y-103097812D01*
X119919853Y-103097812D01*
X119738815Y-103118209D01*
X119738810Y-103118210D01*
X119566839Y-103178386D01*
X119412575Y-103275317D01*
X119283744Y-103404148D01*
X119185621Y-103560310D01*
X119133287Y-103606600D01*
X119064233Y-103617248D01*
X119000385Y-103588873D01*
X118975634Y-103560309D01*
X118955092Y-103527616D01*
X118923111Y-103476719D01*
X118794281Y-103347889D01*
X118739989Y-103313775D01*
X118640017Y-103250958D01*
X118640016Y-103250957D01*
X118640015Y-103250957D01*
X118555206Y-103221281D01*
X118468046Y-103190782D01*
X118468041Y-103190781D01*
X118287004Y-103170384D01*
X118286996Y-103170384D01*
X118105958Y-103190781D01*
X118105953Y-103190782D01*
X117933982Y-103250958D01*
X117779718Y-103347889D01*
X117650889Y-103476718D01*
X117553958Y-103630982D01*
X117493782Y-103802953D01*
X117493781Y-103802958D01*
X117473384Y-103983996D01*
X112894472Y-103983996D01*
X112806837Y-103789279D01*
X112644081Y-103520048D01*
X112644078Y-103520044D01*
X112644075Y-103520039D01*
X112450057Y-103272394D01*
X112227605Y-103049942D01*
X111979960Y-102855924D01*
X111979952Y-102855919D01*
X111710721Y-102693163D01*
X111423835Y-102564046D01*
X111423830Y-102564044D01*
X111423827Y-102564043D01*
X111423816Y-102564039D01*
X111123486Y-102470453D01*
X111123482Y-102470452D01*
X111123478Y-102470451D01*
X110814029Y-102413742D01*
X110814028Y-102413741D01*
X110814023Y-102413741D01*
X110500000Y-102394747D01*
X110185976Y-102413741D01*
X110185971Y-102413742D01*
X109876522Y-102470451D01*
X109876519Y-102470451D01*
X109876513Y-102470453D01*
X109576183Y-102564039D01*
X109576172Y-102564043D01*
X109576166Y-102564045D01*
X109576165Y-102564046D01*
X109540141Y-102580259D01*
X109306177Y-102685558D01*
X109289279Y-102693163D01*
X109206910Y-102742957D01*
X109020039Y-102855924D01*
X108772394Y-103049942D01*
X108549942Y-103272394D01*
X108355924Y-103520039D01*
X108193162Y-103789281D01*
X108193161Y-103789283D01*
X108064043Y-104076172D01*
X108064039Y-104076183D01*
X107970453Y-104376513D01*
X107970451Y-104376519D01*
X107970451Y-104376522D01*
X107949157Y-104492718D01*
X107913741Y-104685976D01*
X107894747Y-105000000D01*
X106000500Y-105000000D01*
X106000500Y-102205996D01*
X136610384Y-102205996D01*
X136610384Y-102206003D01*
X136630781Y-102387041D01*
X136630782Y-102387046D01*
X136690958Y-102559017D01*
X136768725Y-102682782D01*
X136787889Y-102713281D01*
X136916719Y-102842111D01*
X137070985Y-102939043D01*
X137242953Y-102999217D01*
X137242958Y-102999218D01*
X137423996Y-103019616D01*
X137424000Y-103019616D01*
X137424004Y-103019616D01*
X137605041Y-102999218D01*
X137605044Y-102999217D01*
X137605047Y-102999217D01*
X137777015Y-102939043D01*
X137931281Y-102842111D01*
X138060111Y-102713281D01*
X138157043Y-102559015D01*
X138217217Y-102387047D01*
X138217218Y-102387041D01*
X138237616Y-102206003D01*
X138237616Y-102205996D01*
X138217218Y-102024958D01*
X138217217Y-102024953D01*
X138194853Y-101961041D01*
X138191688Y-101951996D01*
X146770384Y-101951996D01*
X146770384Y-101952003D01*
X146790781Y-102133041D01*
X146790782Y-102133046D01*
X146816562Y-102206719D01*
X146850957Y-102305015D01*
X146947889Y-102459281D01*
X147076719Y-102588111D01*
X147230985Y-102685043D01*
X147396494Y-102742957D01*
X147402953Y-102745217D01*
X147402958Y-102745218D01*
X147583996Y-102765616D01*
X147584000Y-102765616D01*
X147584004Y-102765616D01*
X147765041Y-102745218D01*
X147765044Y-102745217D01*
X147765047Y-102745217D01*
X147937015Y-102685043D01*
X148091281Y-102588111D01*
X148220111Y-102459281D01*
X148317043Y-102305015D01*
X148377217Y-102133047D01*
X148377218Y-102133041D01*
X148397616Y-101952003D01*
X148397616Y-101951996D01*
X148377218Y-101770958D01*
X148377217Y-101770953D01*
X148330443Y-101637281D01*
X148317043Y-101598985D01*
X148220111Y-101444719D01*
X148091281Y-101315889D01*
X148083565Y-101311041D01*
X147937017Y-101218958D01*
X147937016Y-101218957D01*
X147937015Y-101218957D01*
X147852206Y-101189281D01*
X147765046Y-101158782D01*
X147765041Y-101158781D01*
X147584004Y-101138384D01*
X147583996Y-101138384D01*
X147402958Y-101158781D01*
X147402953Y-101158782D01*
X147230982Y-101218958D01*
X147076718Y-101315889D01*
X146947889Y-101444718D01*
X146850958Y-101598982D01*
X146790782Y-101770953D01*
X146790781Y-101770958D01*
X146770384Y-101951996D01*
X138191688Y-101951996D01*
X138157043Y-101852985D01*
X138060111Y-101698719D01*
X137931281Y-101569889D01*
X137777017Y-101472958D01*
X137777016Y-101472957D01*
X137777015Y-101472957D01*
X137722693Y-101453949D01*
X137605046Y-101412782D01*
X137605041Y-101412781D01*
X137424004Y-101392384D01*
X137423996Y-101392384D01*
X137242958Y-101412781D01*
X137242953Y-101412782D01*
X137070982Y-101472958D01*
X136916718Y-101569889D01*
X136787889Y-101698718D01*
X136690958Y-101852982D01*
X136630782Y-102024953D01*
X136630781Y-102024958D01*
X136610384Y-102205996D01*
X106000500Y-102205996D01*
X106000500Y-99919996D01*
X116544384Y-99919996D01*
X116544384Y-99920003D01*
X116564781Y-100101041D01*
X116564782Y-100101046D01*
X116624958Y-100273017D01*
X116673996Y-100351060D01*
X116721889Y-100427281D01*
X116850719Y-100556111D01*
X117004985Y-100653043D01*
X117176953Y-100713217D01*
X117176958Y-100713218D01*
X117357996Y-100733616D01*
X117358000Y-100733616D01*
X117358004Y-100733616D01*
X117539041Y-100713218D01*
X117539044Y-100713217D01*
X117539047Y-100713217D01*
X117711015Y-100653043D01*
X117865281Y-100556111D01*
X117994111Y-100427281D01*
X118091043Y-100273015D01*
X118151217Y-100101047D01*
X118161358Y-100011046D01*
X118171616Y-99920003D01*
X118171616Y-99919996D01*
X118151218Y-99738958D01*
X118151217Y-99738953D01*
X118136613Y-99697217D01*
X118125688Y-99665996D01*
X128736384Y-99665996D01*
X128736384Y-99666003D01*
X128756781Y-99847041D01*
X128756782Y-99847046D01*
X128771387Y-99888783D01*
X128816957Y-100019015D01*
X128913889Y-100173281D01*
X129042719Y-100302111D01*
X129196985Y-100399043D01*
X129368953Y-100459217D01*
X129368958Y-100459218D01*
X129549996Y-100479616D01*
X129550000Y-100479616D01*
X129550004Y-100479616D01*
X129731041Y-100459218D01*
X129731044Y-100459217D01*
X129731047Y-100459217D01*
X129903015Y-100399043D01*
X130057281Y-100302111D01*
X130186111Y-100173281D01*
X130283043Y-100019015D01*
X130343217Y-99847047D01*
X130343218Y-99847041D01*
X130363616Y-99666003D01*
X130363616Y-99665996D01*
X130343218Y-99484958D01*
X130343217Y-99484953D01*
X130340428Y-99476982D01*
X130283043Y-99312985D01*
X130186111Y-99158719D01*
X130057281Y-99029889D01*
X129903015Y-98932957D01*
X129820269Y-98904003D01*
X129731046Y-98872782D01*
X129731041Y-98872781D01*
X129550004Y-98852384D01*
X129549996Y-98852384D01*
X129368958Y-98872781D01*
X129368953Y-98872782D01*
X129196982Y-98932958D01*
X129042718Y-99029889D01*
X128913889Y-99158718D01*
X128816958Y-99312982D01*
X128756782Y-99484953D01*
X128756781Y-99484958D01*
X128736384Y-99665996D01*
X118125688Y-99665996D01*
X118091043Y-99566985D01*
X117994111Y-99412719D01*
X117865281Y-99283889D01*
X117822511Y-99257015D01*
X117711017Y-99186958D01*
X117711016Y-99186957D01*
X117711015Y-99186957D01*
X117656693Y-99167949D01*
X117539046Y-99126782D01*
X117539041Y-99126781D01*
X117358004Y-99106384D01*
X117357996Y-99106384D01*
X117176958Y-99126781D01*
X117176953Y-99126782D01*
X117004982Y-99186958D01*
X116850718Y-99283889D01*
X116721889Y-99412718D01*
X116624958Y-99566982D01*
X116564782Y-99738953D01*
X116564781Y-99738958D01*
X116544384Y-99919996D01*
X106000500Y-99919996D01*
X106000500Y-97887996D01*
X125898384Y-97887996D01*
X125898384Y-97888003D01*
X125918781Y-98069041D01*
X125918782Y-98069046D01*
X125933387Y-98110783D01*
X125978957Y-98241015D01*
X126075889Y-98395281D01*
X126204719Y-98524111D01*
X126358985Y-98621043D01*
X126530953Y-98681217D01*
X126530958Y-98681218D01*
X126711996Y-98701616D01*
X126712000Y-98701616D01*
X126712004Y-98701616D01*
X126893041Y-98681218D01*
X126893044Y-98681217D01*
X126893047Y-98681217D01*
X127065015Y-98621043D01*
X127219281Y-98524111D01*
X127348111Y-98395281D01*
X127432711Y-98260642D01*
X143349738Y-98260642D01*
X143349738Y-98260649D01*
X143370135Y-98441687D01*
X143370136Y-98441692D01*
X143398976Y-98524110D01*
X143430311Y-98613661D01*
X143527243Y-98767927D01*
X143656073Y-98896757D01*
X143810339Y-98993689D01*
X143982307Y-99053863D01*
X143982312Y-99053864D01*
X144163350Y-99074262D01*
X144163354Y-99074262D01*
X144163358Y-99074262D01*
X144344395Y-99053864D01*
X144344398Y-99053863D01*
X144344401Y-99053863D01*
X144516369Y-98993689D01*
X144659114Y-98903996D01*
X164042384Y-98903996D01*
X164042384Y-98904003D01*
X164062781Y-99085041D01*
X164062782Y-99085046D01*
X164122958Y-99257017D01*
X164200725Y-99380782D01*
X164219889Y-99411281D01*
X164348719Y-99540111D01*
X164502985Y-99637043D01*
X164674953Y-99697217D01*
X164674958Y-99697218D01*
X164855996Y-99717616D01*
X164856000Y-99717616D01*
X164856004Y-99717616D01*
X165037041Y-99697218D01*
X165037044Y-99697217D01*
X165037047Y-99697217D01*
X165209015Y-99637043D01*
X165363281Y-99540111D01*
X165492111Y-99411281D01*
X165589043Y-99257015D01*
X165649217Y-99085047D01*
X165650432Y-99074262D01*
X165669616Y-98904003D01*
X165669616Y-98903996D01*
X165649218Y-98722958D01*
X165649217Y-98722953D01*
X165613557Y-98621043D01*
X165589043Y-98550985D01*
X165492111Y-98396719D01*
X165363281Y-98267889D01*
X165351754Y-98260646D01*
X165209017Y-98170958D01*
X165209016Y-98170957D01*
X165209015Y-98170957D01*
X165154693Y-98151949D01*
X165037046Y-98110782D01*
X165037041Y-98110781D01*
X164856004Y-98090384D01*
X164855996Y-98090384D01*
X164674958Y-98110781D01*
X164674953Y-98110782D01*
X164502982Y-98170958D01*
X164348718Y-98267889D01*
X164219889Y-98396718D01*
X164122958Y-98550982D01*
X164062782Y-98722953D01*
X164062781Y-98722958D01*
X164042384Y-98903996D01*
X144659114Y-98903996D01*
X144670635Y-98896757D01*
X144799465Y-98767927D01*
X144896397Y-98613661D01*
X144956571Y-98441693D01*
X144956572Y-98441687D01*
X144976970Y-98260649D01*
X144976970Y-98260642D01*
X144956572Y-98079604D01*
X144956571Y-98079599D01*
X144952877Y-98069041D01*
X144896397Y-97907631D01*
X144799465Y-97753365D01*
X144670635Y-97624535D01*
X144516371Y-97527604D01*
X144516370Y-97527603D01*
X144516369Y-97527603D01*
X144462047Y-97508595D01*
X144344400Y-97467428D01*
X144344395Y-97467427D01*
X144163358Y-97447030D01*
X144163350Y-97447030D01*
X143982312Y-97467427D01*
X143982307Y-97467428D01*
X143810336Y-97527604D01*
X143656072Y-97624535D01*
X143527243Y-97753364D01*
X143430312Y-97907628D01*
X143370136Y-98079599D01*
X143370135Y-98079604D01*
X143349738Y-98260642D01*
X127432711Y-98260642D01*
X127445043Y-98241015D01*
X127505217Y-98069047D01*
X127523404Y-97907631D01*
X127525616Y-97888003D01*
X127525616Y-97887996D01*
X127505218Y-97706958D01*
X127505217Y-97706953D01*
X127445043Y-97534985D01*
X127348111Y-97380719D01*
X127219281Y-97251889D01*
X127065015Y-97154957D01*
X127005743Y-97134217D01*
X126893046Y-97094782D01*
X126893041Y-97094781D01*
X126712004Y-97074384D01*
X126711996Y-97074384D01*
X126530958Y-97094781D01*
X126530953Y-97094782D01*
X126358982Y-97154958D01*
X126204718Y-97251889D01*
X126075889Y-97380718D01*
X125978958Y-97534982D01*
X125918782Y-97706953D01*
X125918781Y-97706958D01*
X125898384Y-97887996D01*
X106000500Y-97887996D01*
X106000500Y-96340996D01*
X128736384Y-96340996D01*
X128736384Y-96341003D01*
X128756781Y-96522041D01*
X128756782Y-96522046D01*
X128790836Y-96619365D01*
X128816957Y-96694015D01*
X128913889Y-96848281D01*
X129042719Y-96977111D01*
X129196985Y-97074043D01*
X129368953Y-97134217D01*
X129368958Y-97134218D01*
X129549996Y-97154616D01*
X129550000Y-97154616D01*
X129550004Y-97154616D01*
X129731041Y-97134218D01*
X129731044Y-97134217D01*
X129731047Y-97134217D01*
X129903015Y-97074043D01*
X130057281Y-96977111D01*
X130186111Y-96848281D01*
X130283043Y-96694015D01*
X130343217Y-96522047D01*
X130363616Y-96341000D01*
X130357724Y-96288710D01*
X130343218Y-96159958D01*
X130343217Y-96159953D01*
X130314785Y-96078700D01*
X130283043Y-95987985D01*
X130186111Y-95833719D01*
X130057281Y-95704889D01*
X129903015Y-95607957D01*
X129848247Y-95588793D01*
X129731046Y-95547782D01*
X129731041Y-95547781D01*
X129550004Y-95527384D01*
X129549996Y-95527384D01*
X129368958Y-95547781D01*
X129368953Y-95547782D01*
X129196982Y-95607958D01*
X129042718Y-95704889D01*
X128913889Y-95833718D01*
X128816958Y-95987982D01*
X128756782Y-96159953D01*
X128756781Y-96159958D01*
X128736384Y-96340996D01*
X106000500Y-96340996D01*
X106000500Y-93823996D01*
X112245384Y-93823996D01*
X112245384Y-93824003D01*
X112265781Y-94005041D01*
X112265782Y-94005046D01*
X112281179Y-94049047D01*
X112325957Y-94177015D01*
X112422889Y-94331281D01*
X112551719Y-94460111D01*
X112705985Y-94557043D01*
X112877953Y-94617217D01*
X112877958Y-94617218D01*
X113058996Y-94637616D01*
X113059000Y-94637616D01*
X113059004Y-94637616D01*
X113240041Y-94617218D01*
X113240044Y-94617217D01*
X113240047Y-94617217D01*
X113412015Y-94557043D01*
X113566281Y-94460111D01*
X113695111Y-94331281D01*
X113792043Y-94177015D01*
X113852217Y-94005047D01*
X113852218Y-94005041D01*
X113867659Y-93867996D01*
X117369384Y-93867996D01*
X117369384Y-93868003D01*
X117389781Y-94049041D01*
X117389782Y-94049046D01*
X117430949Y-94166693D01*
X117434561Y-94177017D01*
X117449958Y-94221017D01*
X117532773Y-94352815D01*
X117546889Y-94375281D01*
X117675719Y-94504111D01*
X117829985Y-94601043D01*
X117995483Y-94658953D01*
X118001953Y-94661217D01*
X118001958Y-94661218D01*
X118182996Y-94681616D01*
X118183000Y-94681616D01*
X118183004Y-94681616D01*
X118364041Y-94661218D01*
X118364044Y-94661217D01*
X118364047Y-94661217D01*
X118465092Y-94625860D01*
X122001248Y-94625860D01*
X122001248Y-94625867D01*
X122021645Y-94806905D01*
X122021646Y-94806910D01*
X122081822Y-94978881D01*
X122178753Y-95133145D01*
X122307583Y-95261975D01*
X122461849Y-95358907D01*
X122633814Y-95419080D01*
X122633817Y-95419081D01*
X122633822Y-95419082D01*
X122814860Y-95439480D01*
X122814864Y-95439480D01*
X122814868Y-95439480D01*
X122995905Y-95419082D01*
X122995907Y-95419081D01*
X122995911Y-95419081D01*
X123167879Y-95358907D01*
X123173892Y-95355129D01*
X123241128Y-95336128D01*
X123305836Y-95355129D01*
X123311849Y-95358907D01*
X123483817Y-95419081D01*
X123483818Y-95419081D01*
X123483822Y-95419082D01*
X123664860Y-95439480D01*
X123664864Y-95439480D01*
X123664868Y-95439480D01*
X123845905Y-95419082D01*
X123845908Y-95419081D01*
X123845911Y-95419081D01*
X124017879Y-95358907D01*
X124172145Y-95261975D01*
X124300975Y-95133145D01*
X124397907Y-94978879D01*
X124458081Y-94806911D01*
X124458082Y-94806905D01*
X124478480Y-94625867D01*
X124478480Y-94625860D01*
X124458082Y-94444822D01*
X124458081Y-94444817D01*
X124397907Y-94272849D01*
X124300975Y-94118583D01*
X124172145Y-93989753D01*
X124054130Y-93915599D01*
X124017881Y-93892822D01*
X124017880Y-93892821D01*
X124017879Y-93892821D01*
X123946953Y-93868003D01*
X123845910Y-93832646D01*
X123845905Y-93832645D01*
X123664868Y-93812248D01*
X123664860Y-93812248D01*
X123483822Y-93832645D01*
X123483817Y-93832646D01*
X123311848Y-93892821D01*
X123305833Y-93896601D01*
X123238595Y-93915599D01*
X123173895Y-93896601D01*
X123167879Y-93892821D01*
X122995910Y-93832646D01*
X122995905Y-93832645D01*
X122814868Y-93812248D01*
X122814860Y-93812248D01*
X122633822Y-93832645D01*
X122633817Y-93832646D01*
X122461846Y-93892822D01*
X122307582Y-93989753D01*
X122178753Y-94118582D01*
X122081822Y-94272846D01*
X122021646Y-94444817D01*
X122021645Y-94444822D01*
X122001248Y-94625860D01*
X118465092Y-94625860D01*
X118536015Y-94601043D01*
X118690281Y-94504111D01*
X118819111Y-94375281D01*
X118916043Y-94221015D01*
X118976217Y-94049047D01*
X118981175Y-94005046D01*
X118996616Y-93868003D01*
X118996616Y-93867996D01*
X118976218Y-93686958D01*
X118976217Y-93686953D01*
X118916043Y-93514985D01*
X118819111Y-93360719D01*
X118690281Y-93231889D01*
X118536015Y-93134957D01*
X118481693Y-93115949D01*
X118364046Y-93074782D01*
X118364041Y-93074781D01*
X118183004Y-93054384D01*
X118182996Y-93054384D01*
X118001958Y-93074781D01*
X118001953Y-93074782D01*
X117829982Y-93134958D01*
X117675718Y-93231889D01*
X117546889Y-93360718D01*
X117449958Y-93514982D01*
X117389782Y-93686953D01*
X117389781Y-93686958D01*
X117369384Y-93867996D01*
X113867659Y-93867996D01*
X113872616Y-93824003D01*
X113872616Y-93823996D01*
X113852218Y-93642958D01*
X113852217Y-93642953D01*
X113807439Y-93514985D01*
X113792043Y-93470985D01*
X113695111Y-93316719D01*
X113566281Y-93187889D01*
X113482042Y-93134958D01*
X113412017Y-93090958D01*
X113412016Y-93090957D01*
X113412015Y-93090957D01*
X113357693Y-93071949D01*
X113240046Y-93030782D01*
X113240041Y-93030781D01*
X113059004Y-93010384D01*
X113058996Y-93010384D01*
X112877958Y-93030781D01*
X112877953Y-93030782D01*
X112705982Y-93090958D01*
X112551718Y-93187889D01*
X112422889Y-93316718D01*
X112325958Y-93470982D01*
X112265782Y-93642953D01*
X112265781Y-93642958D01*
X112245384Y-93823996D01*
X106000500Y-93823996D01*
X106000500Y-92807996D01*
X136102384Y-92807996D01*
X136102384Y-92808003D01*
X136122781Y-92989041D01*
X136122782Y-92989046D01*
X136182958Y-93161017D01*
X136238887Y-93250028D01*
X136257887Y-93317265D01*
X136238887Y-93381972D01*
X136182958Y-93470982D01*
X136122782Y-93642953D01*
X136122781Y-93642958D01*
X136102384Y-93823996D01*
X136102384Y-93824003D01*
X136122781Y-94005041D01*
X136122782Y-94005046D01*
X136182958Y-94177017D01*
X136238887Y-94266028D01*
X136257887Y-94333265D01*
X136238887Y-94397972D01*
X136182958Y-94486982D01*
X136122782Y-94658953D01*
X136122781Y-94658958D01*
X136102384Y-94839996D01*
X136102384Y-94840003D01*
X136122781Y-95021041D01*
X136122782Y-95021046D01*
X136182958Y-95193017D01*
X136258773Y-95313675D01*
X136279889Y-95347281D01*
X136408719Y-95476111D01*
X136562985Y-95573043D01*
X136718386Y-95627420D01*
X136734953Y-95633217D01*
X136734958Y-95633218D01*
X136915996Y-95653616D01*
X136916000Y-95653616D01*
X136916004Y-95653616D01*
X137097041Y-95633218D01*
X137097044Y-95633217D01*
X137097047Y-95633217D01*
X137269015Y-95573043D01*
X137423281Y-95476111D01*
X137552111Y-95347281D01*
X137649043Y-95193015D01*
X137709217Y-95021047D01*
X137729616Y-94840000D01*
X137725887Y-94806905D01*
X137719476Y-94750000D01*
X185644592Y-94750000D01*
X185664201Y-95036680D01*
X185722666Y-95318034D01*
X185722667Y-95318037D01*
X185818894Y-95588793D01*
X185818893Y-95588793D01*
X185951098Y-95843935D01*
X186116812Y-96078700D01*
X186192698Y-96159953D01*
X186312947Y-96288708D01*
X186535853Y-96470055D01*
X186781382Y-96619365D01*
X186953246Y-96694015D01*
X187044942Y-96733844D01*
X187321642Y-96811371D01*
X187571920Y-96845771D01*
X187606321Y-96850500D01*
X187606322Y-96850500D01*
X187893679Y-96850500D01*
X187924370Y-96846281D01*
X188178358Y-96811371D01*
X188455058Y-96733844D01*
X188568015Y-96684779D01*
X188718617Y-96619365D01*
X188718620Y-96619363D01*
X188718625Y-96619361D01*
X188964147Y-96470055D01*
X189187053Y-96288708D01*
X189383189Y-96078698D01*
X189548901Y-95843936D01*
X189681104Y-95588797D01*
X189777334Y-95318032D01*
X189835798Y-95036686D01*
X189855408Y-94750000D01*
X189835798Y-94463314D01*
X189777334Y-94181968D01*
X189775574Y-94177017D01*
X189681105Y-93911206D01*
X189681106Y-93911206D01*
X189548901Y-93656064D01*
X189383187Y-93421299D01*
X189285514Y-93316718D01*
X189187053Y-93211292D01*
X189039141Y-93090957D01*
X188964146Y-93029944D01*
X188718617Y-92880634D01*
X188455063Y-92766158D01*
X188455061Y-92766157D01*
X188455058Y-92766156D01*
X188325578Y-92729877D01*
X188178364Y-92688630D01*
X188178359Y-92688629D01*
X188178358Y-92688629D01*
X188036018Y-92669064D01*
X187893679Y-92649500D01*
X187893678Y-92649500D01*
X187606322Y-92649500D01*
X187606321Y-92649500D01*
X187321642Y-92688629D01*
X187321635Y-92688630D01*
X187113861Y-92746845D01*
X187044942Y-92766156D01*
X187044939Y-92766156D01*
X187044936Y-92766158D01*
X187044935Y-92766158D01*
X186781382Y-92880634D01*
X186535853Y-93029944D01*
X186312950Y-93211289D01*
X186116812Y-93421299D01*
X185951098Y-93656064D01*
X185818894Y-93911206D01*
X185722667Y-94181962D01*
X185722666Y-94181965D01*
X185664201Y-94463319D01*
X185644592Y-94750000D01*
X137719476Y-94750000D01*
X137709218Y-94658958D01*
X137709217Y-94658953D01*
X137673557Y-94557043D01*
X137649043Y-94486985D01*
X137649041Y-94486982D01*
X137649041Y-94486981D01*
X137593113Y-94397973D01*
X137574112Y-94330736D01*
X137593113Y-94266027D01*
X137645933Y-94181965D01*
X137649043Y-94177015D01*
X137709217Y-94005047D01*
X137709218Y-94005041D01*
X137729616Y-93824003D01*
X137729616Y-93823996D01*
X140674384Y-93823996D01*
X140674384Y-93824003D01*
X140694781Y-94005041D01*
X140694782Y-94005046D01*
X140710179Y-94049047D01*
X140754957Y-94177015D01*
X140851889Y-94331281D01*
X140980719Y-94460111D01*
X141134985Y-94557043D01*
X141306953Y-94617217D01*
X141306958Y-94617218D01*
X141487996Y-94637616D01*
X141488000Y-94637616D01*
X141488004Y-94637616D01*
X141669041Y-94617218D01*
X141669044Y-94617217D01*
X141669047Y-94617217D01*
X141841015Y-94557043D01*
X141995281Y-94460111D01*
X142124111Y-94331281D01*
X142221043Y-94177015D01*
X142281217Y-94005047D01*
X142281218Y-94005041D01*
X142301616Y-93824003D01*
X142301616Y-93823996D01*
X142281218Y-93642958D01*
X142281217Y-93642953D01*
X142236439Y-93514985D01*
X142221043Y-93470985D01*
X142124111Y-93316719D01*
X141995281Y-93187889D01*
X141911042Y-93134958D01*
X141841017Y-93090958D01*
X141841016Y-93090957D01*
X141841015Y-93090957D01*
X141786693Y-93071949D01*
X141669046Y-93030782D01*
X141669041Y-93030781D01*
X141488004Y-93010384D01*
X141487996Y-93010384D01*
X141306958Y-93030781D01*
X141306953Y-93030782D01*
X141134982Y-93090958D01*
X140980718Y-93187889D01*
X140851889Y-93316718D01*
X140754958Y-93470982D01*
X140694782Y-93642953D01*
X140694781Y-93642958D01*
X140674384Y-93823996D01*
X137729616Y-93823996D01*
X137709218Y-93642958D01*
X137709217Y-93642953D01*
X137664438Y-93514982D01*
X137649043Y-93470985D01*
X137649041Y-93470982D01*
X137649041Y-93470981D01*
X137593113Y-93381973D01*
X137574112Y-93314736D01*
X137593113Y-93250027D01*
X137649041Y-93161018D01*
X137649040Y-93161018D01*
X137649043Y-93161015D01*
X137709217Y-92989047D01*
X137729616Y-92808000D01*
X137724901Y-92766156D01*
X137709218Y-92626958D01*
X137709217Y-92626953D01*
X137649043Y-92454985D01*
X137552111Y-92300719D01*
X137423281Y-92171889D01*
X137269015Y-92074957D01*
X137214693Y-92055949D01*
X137097046Y-92014782D01*
X137097041Y-92014781D01*
X136916004Y-91994384D01*
X136915996Y-91994384D01*
X136734958Y-92014781D01*
X136734953Y-92014782D01*
X136562982Y-92074958D01*
X136408718Y-92171889D01*
X136279889Y-92300718D01*
X136182958Y-92454982D01*
X136122782Y-92626953D01*
X136122781Y-92626958D01*
X136102384Y-92807996D01*
X106000500Y-92807996D01*
X106000500Y-90775996D01*
X109686384Y-90775996D01*
X109686384Y-90776003D01*
X109706781Y-90957041D01*
X109706782Y-90957046D01*
X109726438Y-91013218D01*
X109766957Y-91129015D01*
X109863889Y-91283281D01*
X109992719Y-91412111D01*
X110146985Y-91509043D01*
X110318953Y-91569217D01*
X110318958Y-91569218D01*
X110499996Y-91589616D01*
X110500000Y-91589616D01*
X110500004Y-91589616D01*
X110681041Y-91569218D01*
X110681044Y-91569217D01*
X110681047Y-91569217D01*
X110853015Y-91509043D01*
X111007281Y-91412111D01*
X111136111Y-91283281D01*
X111233043Y-91129015D01*
X111293217Y-90957047D01*
X111293668Y-90953043D01*
X111313616Y-90776003D01*
X111313616Y-90775996D01*
X112226384Y-90775996D01*
X112226384Y-90776003D01*
X112246781Y-90957041D01*
X112246782Y-90957046D01*
X112266438Y-91013218D01*
X112306957Y-91129015D01*
X112403889Y-91283281D01*
X112532719Y-91412111D01*
X112686985Y-91509043D01*
X112858953Y-91569217D01*
X112858958Y-91569218D01*
X113039996Y-91589616D01*
X113040000Y-91589616D01*
X113040004Y-91589616D01*
X113221041Y-91569218D01*
X113221044Y-91569217D01*
X113221047Y-91569217D01*
X113393015Y-91509043D01*
X113547281Y-91412111D01*
X113676111Y-91283281D01*
X113773043Y-91129015D01*
X113833217Y-90957047D01*
X113833668Y-90953043D01*
X113853616Y-90776003D01*
X113853616Y-90775996D01*
X113833218Y-90594958D01*
X113833217Y-90594953D01*
X113825541Y-90573017D01*
X113773043Y-90422985D01*
X113676111Y-90268719D01*
X113547281Y-90139889D01*
X113468646Y-90090479D01*
X113393017Y-90042958D01*
X113393016Y-90042957D01*
X113393015Y-90042957D01*
X113310269Y-90014003D01*
X113221046Y-89982782D01*
X113221041Y-89982781D01*
X113040004Y-89962384D01*
X113039996Y-89962384D01*
X112858958Y-89982781D01*
X112858953Y-89982782D01*
X112686982Y-90042958D01*
X112532718Y-90139889D01*
X112403889Y-90268718D01*
X112306958Y-90422982D01*
X112246782Y-90594953D01*
X112246781Y-90594958D01*
X112226384Y-90775996D01*
X111313616Y-90775996D01*
X111293218Y-90594958D01*
X111293217Y-90594953D01*
X111285541Y-90573017D01*
X111233043Y-90422985D01*
X111136111Y-90268719D01*
X111007281Y-90139889D01*
X110928646Y-90090479D01*
X110853017Y-90042958D01*
X110853016Y-90042957D01*
X110853015Y-90042957D01*
X110770269Y-90014003D01*
X110681046Y-89982782D01*
X110681041Y-89982781D01*
X110500004Y-89962384D01*
X110499996Y-89962384D01*
X110318958Y-89982781D01*
X110318953Y-89982782D01*
X110146982Y-90042958D01*
X109992718Y-90139889D01*
X109863889Y-90268718D01*
X109766958Y-90422982D01*
X109706782Y-90594953D01*
X109706781Y-90594958D01*
X109686384Y-90775996D01*
X106000500Y-90775996D01*
X106000500Y-89251996D01*
X118830384Y-89251996D01*
X118830384Y-89252003D01*
X118850781Y-89433041D01*
X118850782Y-89433046D01*
X118876562Y-89506719D01*
X118910957Y-89605015D01*
X119007889Y-89759281D01*
X119136719Y-89888111D01*
X119290985Y-89985043D01*
X119445066Y-90038958D01*
X119462953Y-90045217D01*
X119462958Y-90045218D01*
X119643996Y-90065616D01*
X119644000Y-90065616D01*
X119644004Y-90065616D01*
X119825041Y-90045218D01*
X119825044Y-90045217D01*
X119825047Y-90045217D01*
X119997015Y-89985043D01*
X120151281Y-89888111D01*
X120280111Y-89759281D01*
X120377043Y-89605015D01*
X120437217Y-89433047D01*
X120438564Y-89421093D01*
X120457616Y-89252003D01*
X120457616Y-89251996D01*
X121116384Y-89251996D01*
X121116384Y-89252003D01*
X121136781Y-89433041D01*
X121136782Y-89433046D01*
X121162562Y-89506719D01*
X121196957Y-89605015D01*
X121293889Y-89759281D01*
X121422719Y-89888111D01*
X121576985Y-89985043D01*
X121731066Y-90038958D01*
X121748953Y-90045217D01*
X121748958Y-90045218D01*
X121929996Y-90065616D01*
X121930000Y-90065616D01*
X121930004Y-90065616D01*
X122111041Y-90045218D01*
X122111043Y-90045217D01*
X122111047Y-90045217D01*
X122111050Y-90045215D01*
X122111054Y-90045215D01*
X122247929Y-89997320D01*
X122317708Y-89993758D01*
X122378335Y-90028486D01*
X122410563Y-90090479D01*
X122404158Y-90160055D01*
X122376566Y-90202042D01*
X122309888Y-90268720D01*
X122212958Y-90422982D01*
X122152782Y-90594953D01*
X122152781Y-90594958D01*
X122132384Y-90775996D01*
X122132384Y-90776003D01*
X122152781Y-90957041D01*
X122152782Y-90957046D01*
X122172438Y-91013218D01*
X122212957Y-91129015D01*
X122309889Y-91283281D01*
X122438719Y-91412111D01*
X122592985Y-91509043D01*
X122764953Y-91569217D01*
X122764958Y-91569218D01*
X122945996Y-91589616D01*
X122946000Y-91589616D01*
X122946004Y-91589616D01*
X123127041Y-91569218D01*
X123127044Y-91569217D01*
X123127047Y-91569217D01*
X123299015Y-91509043D01*
X123453281Y-91412111D01*
X123582111Y-91283281D01*
X123679043Y-91129015D01*
X123686872Y-91106641D01*
X123727592Y-91049864D01*
X123790031Y-91024373D01*
X123832199Y-91019622D01*
X123889041Y-91013218D01*
X123889044Y-91013217D01*
X123889047Y-91013217D01*
X124061015Y-90953043D01*
X124215281Y-90856111D01*
X124344111Y-90727281D01*
X124441043Y-90573015D01*
X124501217Y-90401047D01*
X124501218Y-90401041D01*
X124521616Y-90220003D01*
X124521616Y-90219996D01*
X124501218Y-90038958D01*
X124501217Y-90038953D01*
X124492487Y-90014003D01*
X124441043Y-89866985D01*
X124385756Y-89778996D01*
X139404384Y-89778996D01*
X139404384Y-89779003D01*
X139424781Y-89960041D01*
X139424782Y-89960046D01*
X139484958Y-90132017D01*
X139492895Y-90144648D01*
X139581889Y-90286281D01*
X139710719Y-90415111D01*
X139864985Y-90512043D01*
X140036953Y-90572217D01*
X140036958Y-90572218D01*
X140217996Y-90592616D01*
X140218000Y-90592616D01*
X140218004Y-90592616D01*
X140399041Y-90572218D01*
X140399044Y-90572217D01*
X140399047Y-90572217D01*
X140571015Y-90512043D01*
X140725281Y-90415111D01*
X140808811Y-90331580D01*
X140870130Y-90298098D01*
X140939822Y-90303082D01*
X140995756Y-90344953D01*
X141008211Y-90365466D01*
X141008957Y-90367016D01*
X141039178Y-90415112D01*
X141105889Y-90521281D01*
X141234719Y-90650111D01*
X141388985Y-90747043D01*
X141560953Y-90807217D01*
X141560958Y-90807218D01*
X141741996Y-90827616D01*
X141742000Y-90827616D01*
X141742004Y-90827616D01*
X141923041Y-90807218D01*
X141923044Y-90807217D01*
X141923047Y-90807217D01*
X142095015Y-90747043D01*
X142249281Y-90650111D01*
X142378111Y-90521281D01*
X142475043Y-90367015D01*
X142535217Y-90195047D01*
X142546999Y-90090479D01*
X142555616Y-90014003D01*
X142555616Y-90013996D01*
X142535218Y-89832958D01*
X142535217Y-89832953D01*
X142516338Y-89779000D01*
X142475043Y-89660985D01*
X142378111Y-89506719D01*
X142378110Y-89506718D01*
X142373770Y-89501276D01*
X142375373Y-89499997D01*
X142346681Y-89447451D01*
X142351665Y-89377759D01*
X142374812Y-89341741D01*
X142373770Y-89340910D01*
X142378106Y-89335471D01*
X142378111Y-89335467D01*
X142475043Y-89181201D01*
X142535217Y-89009233D01*
X142537859Y-88985783D01*
X142555616Y-88828189D01*
X142555616Y-88828182D01*
X142535218Y-88647144D01*
X142535217Y-88647139D01*
X142524282Y-88615889D01*
X142475043Y-88475171D01*
X142378111Y-88320905D01*
X142249281Y-88192075D01*
X142203074Y-88163041D01*
X142095017Y-88095144D01*
X142095016Y-88095143D01*
X142095015Y-88095143D01*
X142040693Y-88076135D01*
X141923046Y-88034968D01*
X141923041Y-88034967D01*
X141742004Y-88014570D01*
X141741996Y-88014570D01*
X141560958Y-88034967D01*
X141560953Y-88034968D01*
X141388982Y-88095144D01*
X141234718Y-88192075D01*
X141105889Y-88320904D01*
X141008958Y-88475168D01*
X140948782Y-88647139D01*
X140948781Y-88647144D01*
X140928384Y-88828182D01*
X140928384Y-88828189D01*
X140948781Y-89009227D01*
X140948782Y-89009232D01*
X140961593Y-89045842D01*
X140965154Y-89115621D01*
X140930425Y-89176249D01*
X140868432Y-89208476D01*
X140798856Y-89202071D01*
X140756870Y-89174478D01*
X140725281Y-89142889D01*
X140571017Y-89045958D01*
X140571016Y-89045957D01*
X140571015Y-89045957D01*
X140516693Y-89026949D01*
X140399046Y-88985782D01*
X140399041Y-88985781D01*
X140218004Y-88965384D01*
X140217996Y-88965384D01*
X140036958Y-88985781D01*
X140036953Y-88985782D01*
X139864982Y-89045958D01*
X139710718Y-89142889D01*
X139581889Y-89271718D01*
X139484958Y-89425982D01*
X139424782Y-89597953D01*
X139424781Y-89597958D01*
X139404384Y-89778996D01*
X124385756Y-89778996D01*
X124344111Y-89712719D01*
X124215281Y-89583889D01*
X124092466Y-89506719D01*
X124061017Y-89486958D01*
X124061016Y-89486957D01*
X124061015Y-89486957D01*
X124006693Y-89467949D01*
X123889046Y-89426782D01*
X123889041Y-89426781D01*
X123708004Y-89406384D01*
X123707996Y-89406384D01*
X123526958Y-89426781D01*
X123526953Y-89426782D01*
X123354982Y-89486958D01*
X123200718Y-89583889D01*
X123071889Y-89712718D01*
X122974959Y-89866982D01*
X122974957Y-89866985D01*
X122967565Y-89888111D01*
X122967127Y-89889362D01*
X122926404Y-89946137D01*
X122863970Y-89971625D01*
X122764958Y-89982781D01*
X122628069Y-90030680D01*
X122558290Y-90034241D01*
X122497663Y-89999512D01*
X122465436Y-89937518D01*
X122471842Y-89867942D01*
X122499430Y-89825961D01*
X122566111Y-89759281D01*
X122663043Y-89605015D01*
X122723217Y-89433047D01*
X122724564Y-89421093D01*
X122743616Y-89252003D01*
X122743616Y-89251996D01*
X122723218Y-89070958D01*
X122723217Y-89070953D01*
X122714471Y-89045958D01*
X122663043Y-88898985D01*
X122566111Y-88744719D01*
X122437281Y-88615889D01*
X122283015Y-88518957D01*
X122198206Y-88489281D01*
X122111046Y-88458782D01*
X122111041Y-88458781D01*
X121930004Y-88438384D01*
X121929996Y-88438384D01*
X121748958Y-88458781D01*
X121748953Y-88458782D01*
X121576982Y-88518958D01*
X121422718Y-88615889D01*
X121293889Y-88744718D01*
X121196958Y-88898982D01*
X121136782Y-89070953D01*
X121136781Y-89070958D01*
X121116384Y-89251996D01*
X120457616Y-89251996D01*
X120437218Y-89070958D01*
X120437217Y-89070953D01*
X120428471Y-89045958D01*
X120377043Y-88898985D01*
X120280111Y-88744719D01*
X120151281Y-88615889D01*
X119997015Y-88518957D01*
X119912206Y-88489281D01*
X119825046Y-88458782D01*
X119825041Y-88458781D01*
X119644004Y-88438384D01*
X119643996Y-88438384D01*
X119462958Y-88458781D01*
X119462953Y-88458782D01*
X119290982Y-88518958D01*
X119136718Y-88615889D01*
X119007889Y-88744718D01*
X118910958Y-88898982D01*
X118850782Y-89070953D01*
X118850781Y-89070958D01*
X118830384Y-89251996D01*
X106000500Y-89251996D01*
X106000500Y-86965996D01*
X117814384Y-86965996D01*
X117814384Y-86966003D01*
X117834781Y-87147041D01*
X117834782Y-87147046D01*
X117894958Y-87319017D01*
X117913239Y-87348111D01*
X117991889Y-87473281D01*
X118120719Y-87602111D01*
X118274985Y-87699043D01*
X118446953Y-87759217D01*
X118446958Y-87759218D01*
X118627996Y-87779616D01*
X118628000Y-87779616D01*
X118628004Y-87779616D01*
X118809041Y-87759218D01*
X118809044Y-87759217D01*
X118809047Y-87759217D01*
X118981015Y-87699043D01*
X119135281Y-87602111D01*
X119264111Y-87473281D01*
X119361043Y-87319015D01*
X119421217Y-87147047D01*
X119424000Y-87122347D01*
X119441616Y-86966003D01*
X119441616Y-86965996D01*
X119421218Y-86784958D01*
X119421217Y-86784953D01*
X119420616Y-86783235D01*
X119395688Y-86711996D01*
X123148384Y-86711996D01*
X123148384Y-86712003D01*
X123168781Y-86893041D01*
X123168782Y-86893046D01*
X123200553Y-86983841D01*
X123212400Y-87017699D01*
X123228958Y-87065017D01*
X123310360Y-87194567D01*
X123325889Y-87219281D01*
X123454719Y-87348111D01*
X123608985Y-87445043D01*
X123780953Y-87505217D01*
X123780958Y-87505218D01*
X123961996Y-87525616D01*
X123962000Y-87525616D01*
X123962004Y-87525616D01*
X124143041Y-87505218D01*
X124143044Y-87505217D01*
X124143047Y-87505217D01*
X124232272Y-87473996D01*
X133562384Y-87473996D01*
X133562384Y-87474003D01*
X133582781Y-87655041D01*
X133582782Y-87655046D01*
X133619234Y-87759218D01*
X133642957Y-87827015D01*
X133739889Y-87981281D01*
X133868719Y-88110111D01*
X134022985Y-88207043D01*
X134194953Y-88267217D01*
X134194958Y-88267218D01*
X134375996Y-88287616D01*
X134376000Y-88287616D01*
X134376004Y-88287616D01*
X134557041Y-88267218D01*
X134557044Y-88267217D01*
X134557047Y-88267217D01*
X134729015Y-88207043D01*
X134883281Y-88110111D01*
X135012111Y-87981281D01*
X135109043Y-87827015D01*
X135169217Y-87655047D01*
X135169218Y-87655041D01*
X135189616Y-87474003D01*
X135189616Y-87473996D01*
X135169218Y-87292958D01*
X135169217Y-87292953D01*
X135134790Y-87194567D01*
X135109043Y-87120985D01*
X135012111Y-86966719D01*
X134883281Y-86837889D01*
X134729015Y-86740957D01*
X134646269Y-86712003D01*
X134557046Y-86680782D01*
X134557041Y-86680781D01*
X134376004Y-86660384D01*
X134375996Y-86660384D01*
X134194958Y-86680781D01*
X134194953Y-86680782D01*
X134022982Y-86740958D01*
X133868718Y-86837889D01*
X133739889Y-86966718D01*
X133642958Y-87120982D01*
X133582782Y-87292953D01*
X133582781Y-87292958D01*
X133562384Y-87473996D01*
X124232272Y-87473996D01*
X124315015Y-87445043D01*
X124469281Y-87348111D01*
X124598111Y-87219281D01*
X124695043Y-87065015D01*
X124755217Y-86893047D01*
X124755218Y-86893041D01*
X124775616Y-86712003D01*
X124775616Y-86711996D01*
X124755218Y-86530958D01*
X124755217Y-86530953D01*
X124719969Y-86430220D01*
X124695043Y-86358985D01*
X124598111Y-86204719D01*
X124469281Y-86075889D01*
X124315015Y-85978957D01*
X124260693Y-85959949D01*
X124143046Y-85918782D01*
X124143041Y-85918781D01*
X123962004Y-85898384D01*
X123961996Y-85898384D01*
X123780958Y-85918781D01*
X123780953Y-85918782D01*
X123608982Y-85978958D01*
X123454718Y-86075889D01*
X123325889Y-86204718D01*
X123228958Y-86358982D01*
X123168782Y-86530953D01*
X123168781Y-86530958D01*
X123148384Y-86711996D01*
X119395688Y-86711996D01*
X119361043Y-86612985D01*
X119264111Y-86458719D01*
X119135281Y-86329889D01*
X118981015Y-86232957D01*
X118926693Y-86213949D01*
X118809046Y-86172782D01*
X118809041Y-86172781D01*
X118628004Y-86152384D01*
X118627996Y-86152384D01*
X118446958Y-86172781D01*
X118446953Y-86172782D01*
X118274982Y-86232958D01*
X118120718Y-86329889D01*
X117991889Y-86458718D01*
X117894958Y-86612982D01*
X117834782Y-86784953D01*
X117834781Y-86784958D01*
X117814384Y-86965996D01*
X106000500Y-86965996D01*
X106000500Y-84679996D01*
X144738384Y-84679996D01*
X144738384Y-84680003D01*
X144758781Y-84861041D01*
X144758782Y-84861046D01*
X144799949Y-84978693D01*
X144818957Y-85033015D01*
X144915889Y-85187281D01*
X145044719Y-85316111D01*
X145198985Y-85413043D01*
X145370953Y-85473217D01*
X145370958Y-85473218D01*
X145551996Y-85493616D01*
X145552000Y-85493616D01*
X145552004Y-85493616D01*
X145733041Y-85473218D01*
X145733044Y-85473217D01*
X145733047Y-85473217D01*
X145905015Y-85413043D01*
X146059281Y-85316111D01*
X146188111Y-85187281D01*
X146285043Y-85033015D01*
X146296595Y-85000000D01*
X172894592Y-85000000D01*
X172914201Y-85286680D01*
X172914201Y-85286684D01*
X172914202Y-85286686D01*
X172920317Y-85316111D01*
X172972666Y-85568034D01*
X172972667Y-85568037D01*
X173068894Y-85838793D01*
X173068893Y-85838793D01*
X173201098Y-86093935D01*
X173366812Y-86328700D01*
X173395094Y-86358982D01*
X173562947Y-86538708D01*
X173654246Y-86612985D01*
X173785853Y-86720055D01*
X174031382Y-86869365D01*
X174188249Y-86937501D01*
X174294942Y-86983844D01*
X174571642Y-87061371D01*
X174821920Y-87095771D01*
X174856321Y-87100500D01*
X174856322Y-87100500D01*
X175143679Y-87100500D01*
X175174370Y-87096281D01*
X175428358Y-87061371D01*
X175587324Y-87016831D01*
X175657189Y-87017699D01*
X175715493Y-87056200D01*
X175743727Y-87120111D01*
X175743999Y-87122347D01*
X175746781Y-87147041D01*
X175806957Y-87319016D01*
X175903889Y-87473281D01*
X175910671Y-87480063D01*
X175944156Y-87541386D01*
X175939172Y-87611078D01*
X175933530Y-87622498D01*
X175933977Y-87622713D01*
X175930959Y-87628978D01*
X175870782Y-87800953D01*
X175870781Y-87800958D01*
X175850384Y-87981996D01*
X175850384Y-87982003D01*
X175870781Y-88163041D01*
X175870782Y-88163046D01*
X175907234Y-88267218D01*
X175926019Y-88320904D01*
X175930958Y-88335017D01*
X176008725Y-88458782D01*
X176027889Y-88489281D01*
X176156719Y-88618111D01*
X176310985Y-88715043D01*
X176482953Y-88775217D01*
X176482958Y-88775218D01*
X176663996Y-88795616D01*
X176664000Y-88795616D01*
X176664004Y-88795616D01*
X176845041Y-88775218D01*
X176845044Y-88775217D01*
X176845047Y-88775217D01*
X177017015Y-88715043D01*
X177171281Y-88618111D01*
X177300111Y-88489281D01*
X177397043Y-88335015D01*
X177457217Y-88163047D01*
X177457218Y-88163041D01*
X177477616Y-87982003D01*
X177477616Y-87981997D01*
X177465351Y-87873147D01*
X177477405Y-87804325D01*
X177524754Y-87752946D01*
X177547611Y-87742223D01*
X177671015Y-87699043D01*
X177825281Y-87602111D01*
X177954111Y-87473281D01*
X178051043Y-87319015D01*
X178111217Y-87147047D01*
X178114000Y-87122347D01*
X178131616Y-86966003D01*
X178131616Y-86965996D01*
X178774384Y-86965996D01*
X178774384Y-86966003D01*
X178794781Y-87147041D01*
X178794782Y-87147046D01*
X178854958Y-87319017D01*
X178910887Y-87408028D01*
X178929887Y-87475265D01*
X178910887Y-87539972D01*
X178854958Y-87628982D01*
X178794782Y-87800953D01*
X178794781Y-87800958D01*
X178774384Y-87981996D01*
X178774384Y-87982003D01*
X178794781Y-88163041D01*
X178794782Y-88163046D01*
X178831234Y-88267218D01*
X178850019Y-88320904D01*
X178854958Y-88335017D01*
X178932725Y-88458782D01*
X178951889Y-88489281D01*
X179080719Y-88618111D01*
X179234985Y-88715043D01*
X179406953Y-88775217D01*
X179406958Y-88775218D01*
X179587996Y-88795616D01*
X179588000Y-88795616D01*
X179588004Y-88795616D01*
X179769041Y-88775218D01*
X179769044Y-88775217D01*
X179769047Y-88775217D01*
X179941015Y-88715043D01*
X180095281Y-88618111D01*
X180224111Y-88489281D01*
X180321043Y-88335015D01*
X180381217Y-88163047D01*
X180381218Y-88163041D01*
X180401616Y-87982003D01*
X180401616Y-87981996D01*
X180381218Y-87800958D01*
X180381217Y-87800953D01*
X180345557Y-87699042D01*
X180321043Y-87628985D01*
X180321041Y-87628982D01*
X180321041Y-87628981D01*
X180265113Y-87539973D01*
X180246112Y-87472736D01*
X180265113Y-87408027D01*
X180271122Y-87398463D01*
X180321043Y-87319015D01*
X180344722Y-87251342D01*
X180385444Y-87194567D01*
X180420811Y-87175255D01*
X180455083Y-87163263D01*
X180609349Y-87066331D01*
X180738179Y-86937501D01*
X180835111Y-86783235D01*
X180895285Y-86611267D01*
X180895286Y-86611261D01*
X180915684Y-86430223D01*
X180915684Y-86430216D01*
X180895286Y-86249178D01*
X180895285Y-86249173D01*
X180888906Y-86230944D01*
X180835111Y-86077205D01*
X180738179Y-85922939D01*
X180609349Y-85794109D01*
X180455083Y-85697177D01*
X180400761Y-85678169D01*
X180283114Y-85637002D01*
X180283109Y-85637001D01*
X180102072Y-85616604D01*
X180102064Y-85616604D01*
X179921026Y-85637001D01*
X179921021Y-85637002D01*
X179749050Y-85697178D01*
X179594786Y-85794109D01*
X179465957Y-85922938D01*
X179369026Y-86077201D01*
X179345344Y-86144879D01*
X179304621Y-86201654D01*
X179269261Y-86220962D01*
X179234987Y-86232956D01*
X179234982Y-86232958D01*
X179080718Y-86329889D01*
X178951889Y-86458718D01*
X178854958Y-86612982D01*
X178794782Y-86784953D01*
X178794781Y-86784958D01*
X178774384Y-86965996D01*
X178131616Y-86965996D01*
X178111218Y-86784958D01*
X178111217Y-86784953D01*
X178110616Y-86783235D01*
X178051043Y-86612985D01*
X177954111Y-86458719D01*
X177825281Y-86329889D01*
X177671015Y-86232957D01*
X177616693Y-86213949D01*
X177499046Y-86172782D01*
X177499041Y-86172781D01*
X177318004Y-86152384D01*
X177317996Y-86152384D01*
X177136958Y-86172781D01*
X177136950Y-86172783D01*
X176969953Y-86231218D01*
X176900174Y-86234779D01*
X176888049Y-86231219D01*
X176887263Y-86230944D01*
X176830485Y-86190225D01*
X176804736Y-86125273D01*
X176818116Y-86056852D01*
X176858478Y-85978958D01*
X176931104Y-85838797D01*
X177027334Y-85568032D01*
X177085798Y-85286686D01*
X177105408Y-85000000D01*
X198394592Y-85000000D01*
X198414201Y-85286680D01*
X198414201Y-85286684D01*
X198414202Y-85286686D01*
X198420317Y-85316111D01*
X198472666Y-85568034D01*
X198472667Y-85568037D01*
X198568894Y-85838793D01*
X198568893Y-85838793D01*
X198701098Y-86093935D01*
X198866812Y-86328700D01*
X198895094Y-86358982D01*
X199062947Y-86538708D01*
X199154246Y-86612985D01*
X199285853Y-86720055D01*
X199531382Y-86869365D01*
X199688249Y-86937501D01*
X199794942Y-86983844D01*
X200071642Y-87061371D01*
X200321920Y-87095771D01*
X200356321Y-87100500D01*
X200356322Y-87100500D01*
X200643679Y-87100500D01*
X200674370Y-87096281D01*
X200928358Y-87061371D01*
X201205058Y-86983844D01*
X201318015Y-86934779D01*
X201468617Y-86869365D01*
X201468620Y-86869363D01*
X201468625Y-86869361D01*
X201714147Y-86720055D01*
X201937053Y-86538708D01*
X202133189Y-86328698D01*
X202298901Y-86093936D01*
X202431104Y-85838797D01*
X202527334Y-85568032D01*
X202585798Y-85286686D01*
X202605408Y-85000000D01*
X202585798Y-84713314D01*
X202527334Y-84431968D01*
X202431105Y-84161206D01*
X202431106Y-84161206D01*
X202298901Y-83906064D01*
X202133187Y-83671299D01*
X202054554Y-83587105D01*
X201937053Y-83461292D01*
X201719268Y-83284111D01*
X201714146Y-83279944D01*
X201468617Y-83130634D01*
X201205063Y-83016158D01*
X201205061Y-83016157D01*
X201205058Y-83016156D01*
X201075578Y-82979877D01*
X200928364Y-82938630D01*
X200928359Y-82938629D01*
X200928358Y-82938629D01*
X200667098Y-82902719D01*
X200643679Y-82899500D01*
X200643678Y-82899500D01*
X200356322Y-82899500D01*
X200356321Y-82899500D01*
X200071642Y-82938629D01*
X200071635Y-82938630D01*
X199863861Y-82996845D01*
X199794942Y-83016156D01*
X199794939Y-83016156D01*
X199794936Y-83016158D01*
X199794935Y-83016158D01*
X199531382Y-83130634D01*
X199285853Y-83279944D01*
X199062950Y-83461289D01*
X199062947Y-83461291D01*
X199062947Y-83461292D01*
X199043513Y-83482100D01*
X198866812Y-83671299D01*
X198701098Y-83906064D01*
X198568894Y-84161206D01*
X198472667Y-84431962D01*
X198472666Y-84431965D01*
X198414201Y-84713319D01*
X198394592Y-85000000D01*
X177105408Y-85000000D01*
X177085798Y-84713314D01*
X177027334Y-84431968D01*
X176931105Y-84161206D01*
X176931106Y-84161206D01*
X176798901Y-83906064D01*
X176633187Y-83671299D01*
X176554554Y-83587105D01*
X176437053Y-83461292D01*
X176219268Y-83284111D01*
X176214146Y-83279944D01*
X175968617Y-83130634D01*
X175705063Y-83016158D01*
X175705061Y-83016157D01*
X175705058Y-83016156D01*
X175575578Y-82979877D01*
X175428364Y-82938630D01*
X175428359Y-82938629D01*
X175428358Y-82938629D01*
X175167098Y-82902719D01*
X175143679Y-82899500D01*
X175143678Y-82899500D01*
X174856322Y-82899500D01*
X174856321Y-82899500D01*
X174571642Y-82938629D01*
X174571635Y-82938630D01*
X174363861Y-82996845D01*
X174294942Y-83016156D01*
X174294939Y-83016156D01*
X174294936Y-83016158D01*
X174294935Y-83016158D01*
X174031382Y-83130634D01*
X173785853Y-83279944D01*
X173562950Y-83461289D01*
X173562947Y-83461291D01*
X173562947Y-83461292D01*
X173543513Y-83482100D01*
X173366812Y-83671299D01*
X173201098Y-83906064D01*
X173068894Y-84161206D01*
X172972667Y-84431962D01*
X172972666Y-84431965D01*
X172914201Y-84713319D01*
X172894592Y-85000000D01*
X146296595Y-85000000D01*
X146345217Y-84861047D01*
X146345218Y-84861041D01*
X146365616Y-84680003D01*
X146365616Y-84679996D01*
X146345218Y-84498958D01*
X146345217Y-84498953D01*
X146318006Y-84421188D01*
X146285043Y-84326985D01*
X146188111Y-84172719D01*
X146059281Y-84043889D01*
X145905015Y-83946957D01*
X145820206Y-83917281D01*
X145733046Y-83886782D01*
X145733041Y-83886781D01*
X145552004Y-83866384D01*
X145551996Y-83866384D01*
X145370958Y-83886781D01*
X145370953Y-83886782D01*
X145198982Y-83946958D01*
X145044718Y-84043889D01*
X144915889Y-84172718D01*
X144818958Y-84326982D01*
X144758782Y-84498953D01*
X144758781Y-84498958D01*
X144738384Y-84679996D01*
X106000500Y-84679996D01*
X106000500Y-83409996D01*
X121878384Y-83409996D01*
X121878384Y-83410003D01*
X121898781Y-83591041D01*
X121898782Y-83591046D01*
X121958958Y-83763017D01*
X122036725Y-83886782D01*
X122055889Y-83917281D01*
X122184719Y-84046111D01*
X122338985Y-84143043D01*
X122510953Y-84203217D01*
X122510958Y-84203218D01*
X122691996Y-84223616D01*
X122692000Y-84223616D01*
X122692004Y-84223616D01*
X122873041Y-84203218D01*
X122873044Y-84203217D01*
X122873047Y-84203217D01*
X123045015Y-84143043D01*
X123199281Y-84046111D01*
X123328111Y-83917281D01*
X123425043Y-83763015D01*
X123485217Y-83591047D01*
X123485218Y-83591041D01*
X123505616Y-83410003D01*
X123505616Y-83409996D01*
X124164384Y-83409996D01*
X124164384Y-83410003D01*
X124184781Y-83591041D01*
X124184782Y-83591046D01*
X124244958Y-83763017D01*
X124322725Y-83886782D01*
X124341889Y-83917281D01*
X124470719Y-84046111D01*
X124624985Y-84143043D01*
X124796953Y-84203217D01*
X124796958Y-84203218D01*
X124977996Y-84223616D01*
X124978000Y-84223616D01*
X124978004Y-84223616D01*
X125159041Y-84203218D01*
X125159044Y-84203217D01*
X125159047Y-84203217D01*
X125331015Y-84143043D01*
X125485281Y-84046111D01*
X125614111Y-83917281D01*
X125711043Y-83763015D01*
X125771217Y-83591047D01*
X125771218Y-83591041D01*
X125791616Y-83410003D01*
X125791616Y-83409996D01*
X128736384Y-83409996D01*
X128736384Y-83410003D01*
X128756781Y-83591041D01*
X128756782Y-83591046D01*
X128816958Y-83763017D01*
X128894725Y-83886782D01*
X128913889Y-83917281D01*
X129042719Y-84046111D01*
X129196985Y-84143043D01*
X129368953Y-84203217D01*
X129368958Y-84203218D01*
X129549996Y-84223616D01*
X129550000Y-84223616D01*
X129550004Y-84223616D01*
X129731041Y-84203218D01*
X129731044Y-84203217D01*
X129731047Y-84203217D01*
X129903015Y-84143043D01*
X130057281Y-84046111D01*
X130186111Y-83917281D01*
X130283043Y-83763015D01*
X130343217Y-83591047D01*
X130343218Y-83591041D01*
X130363616Y-83410003D01*
X130363616Y-83409996D01*
X133054384Y-83409996D01*
X133054384Y-83410003D01*
X133074781Y-83591041D01*
X133074782Y-83591046D01*
X133134958Y-83763017D01*
X133212725Y-83886782D01*
X133231889Y-83917281D01*
X133360719Y-84046111D01*
X133514985Y-84143043D01*
X133686953Y-84203217D01*
X133686958Y-84203218D01*
X133867996Y-84223616D01*
X133868000Y-84223616D01*
X133868004Y-84223616D01*
X134049041Y-84203218D01*
X134049044Y-84203217D01*
X134049047Y-84203217D01*
X134221015Y-84143043D01*
X134375281Y-84046111D01*
X134504111Y-83917281D01*
X134601043Y-83763015D01*
X134661217Y-83591047D01*
X134661218Y-83591041D01*
X134681616Y-83410003D01*
X134681616Y-83409996D01*
X134661218Y-83228958D01*
X134661217Y-83228953D01*
X134635438Y-83155281D01*
X134601043Y-83056985D01*
X134504111Y-82902719D01*
X134375281Y-82773889D01*
X134221015Y-82676957D01*
X134138269Y-82648003D01*
X134049046Y-82616782D01*
X134049041Y-82616781D01*
X133868004Y-82596384D01*
X133867996Y-82596384D01*
X133686958Y-82616781D01*
X133686953Y-82616782D01*
X133514982Y-82676958D01*
X133360718Y-82773889D01*
X133231889Y-82902718D01*
X133134958Y-83056982D01*
X133074782Y-83228953D01*
X133074781Y-83228958D01*
X133054384Y-83409996D01*
X130363616Y-83409996D01*
X130343218Y-83228958D01*
X130343217Y-83228953D01*
X130317438Y-83155281D01*
X130283043Y-83056985D01*
X130186111Y-82902719D01*
X130057281Y-82773889D01*
X129903015Y-82676957D01*
X129820269Y-82648003D01*
X129731046Y-82616782D01*
X129731041Y-82616781D01*
X129550004Y-82596384D01*
X129549996Y-82596384D01*
X129368958Y-82616781D01*
X129368953Y-82616782D01*
X129196982Y-82676958D01*
X129042718Y-82773889D01*
X128913889Y-82902718D01*
X128816958Y-83056982D01*
X128756782Y-83228953D01*
X128756781Y-83228958D01*
X128736384Y-83409996D01*
X125791616Y-83409996D01*
X125771218Y-83228958D01*
X125771217Y-83228953D01*
X125745438Y-83155281D01*
X125711043Y-83056985D01*
X125614111Y-82902719D01*
X125485281Y-82773889D01*
X125331015Y-82676957D01*
X125248269Y-82648003D01*
X125159046Y-82616782D01*
X125159041Y-82616781D01*
X124978004Y-82596384D01*
X124977996Y-82596384D01*
X124796958Y-82616781D01*
X124796953Y-82616782D01*
X124624982Y-82676958D01*
X124470718Y-82773889D01*
X124341889Y-82902718D01*
X124244958Y-83056982D01*
X124184782Y-83228953D01*
X124184781Y-83228958D01*
X124164384Y-83409996D01*
X123505616Y-83409996D01*
X123485218Y-83228958D01*
X123485217Y-83228953D01*
X123459438Y-83155281D01*
X123425043Y-83056985D01*
X123328111Y-82902719D01*
X123199281Y-82773889D01*
X123045015Y-82676957D01*
X122962269Y-82648003D01*
X122873046Y-82616782D01*
X122873041Y-82616781D01*
X122692004Y-82596384D01*
X122691996Y-82596384D01*
X122510958Y-82616781D01*
X122510953Y-82616782D01*
X122338982Y-82676958D01*
X122184718Y-82773889D01*
X122055889Y-82902718D01*
X121958958Y-83056982D01*
X121898782Y-83228953D01*
X121898781Y-83228958D01*
X121878384Y-83409996D01*
X106000500Y-83409996D01*
X106000500Y-80991996D01*
X131906384Y-80991996D01*
X131906384Y-80992003D01*
X131926781Y-81173041D01*
X131926782Y-81173046D01*
X131986958Y-81345017D01*
X132031998Y-81416697D01*
X132083889Y-81499281D01*
X132212719Y-81628111D01*
X132366985Y-81725043D01*
X132538953Y-81785217D01*
X132538958Y-81785218D01*
X132719996Y-81805616D01*
X132720000Y-81805616D01*
X132720004Y-81805616D01*
X132901041Y-81785218D01*
X132901044Y-81785217D01*
X132901047Y-81785217D01*
X133073015Y-81725043D01*
X133227281Y-81628111D01*
X133356111Y-81499281D01*
X133453043Y-81345015D01*
X133513217Y-81173047D01*
X133518743Y-81124003D01*
X133533616Y-80992003D01*
X133533616Y-80991996D01*
X133513218Y-80810958D01*
X133513217Y-80810953D01*
X133508349Y-80797041D01*
X133453043Y-80638985D01*
X133356111Y-80484719D01*
X133227281Y-80355889D01*
X133182821Y-80327953D01*
X133073017Y-80258958D01*
X133073016Y-80258957D01*
X133073015Y-80258957D01*
X133007722Y-80236110D01*
X132901046Y-80198782D01*
X132901041Y-80198781D01*
X132720004Y-80178384D01*
X132719996Y-80178384D01*
X132538958Y-80198781D01*
X132538953Y-80198782D01*
X132366982Y-80258958D01*
X132212718Y-80355889D01*
X132083889Y-80484718D01*
X131986958Y-80638982D01*
X131926782Y-80810953D01*
X131926781Y-80810958D01*
X131906384Y-80991996D01*
X106000500Y-80991996D01*
X106000500Y-79599996D01*
X128736384Y-79599996D01*
X128736384Y-79600003D01*
X128756781Y-79781041D01*
X128756782Y-79781046D01*
X128782562Y-79854719D01*
X128816957Y-79953015D01*
X128913889Y-80107281D01*
X129042719Y-80236111D01*
X129196985Y-80333043D01*
X129362494Y-80390957D01*
X129368953Y-80393217D01*
X129368958Y-80393218D01*
X129549996Y-80413616D01*
X129550000Y-80413616D01*
X129550004Y-80413616D01*
X129731041Y-80393218D01*
X129731044Y-80393217D01*
X129731047Y-80393217D01*
X129903015Y-80333043D01*
X130057281Y-80236111D01*
X130186111Y-80107281D01*
X130283043Y-79953015D01*
X130317691Y-79853996D01*
X141690384Y-79853996D01*
X141690384Y-79854003D01*
X141710781Y-80035041D01*
X141710782Y-80035046D01*
X141770958Y-80207017D01*
X141848725Y-80330782D01*
X141867889Y-80361281D01*
X141996719Y-80490111D01*
X142150985Y-80587043D01*
X142322953Y-80647217D01*
X142322958Y-80647218D01*
X142503996Y-80667616D01*
X142504000Y-80667616D01*
X142504004Y-80667616D01*
X142685041Y-80647218D01*
X142685044Y-80647217D01*
X142685047Y-80647217D01*
X142774272Y-80615996D01*
X144992384Y-80615996D01*
X144992384Y-80616003D01*
X145012781Y-80797041D01*
X145012782Y-80797046D01*
X145047925Y-80897478D01*
X145072956Y-80969013D01*
X145072958Y-80969017D01*
X145091239Y-80998111D01*
X145169889Y-81123281D01*
X145298719Y-81252111D01*
X145452985Y-81349043D01*
X145624953Y-81409217D01*
X145624958Y-81409218D01*
X145691338Y-81416697D01*
X145755752Y-81443763D01*
X145795307Y-81501358D01*
X145797445Y-81571195D01*
X145761487Y-81631101D01*
X145718413Y-81656957D01*
X145706989Y-81660954D01*
X145706984Y-81660956D01*
X145552718Y-81757889D01*
X145423889Y-81886718D01*
X145326958Y-82040982D01*
X145266782Y-82212953D01*
X145266781Y-82212958D01*
X145246384Y-82393996D01*
X145246384Y-82394003D01*
X145266781Y-82575041D01*
X145266782Y-82575046D01*
X145281387Y-82616783D01*
X145326957Y-82747015D01*
X145423889Y-82901281D01*
X145552719Y-83030111D01*
X145706985Y-83127043D01*
X145878953Y-83187217D01*
X145878958Y-83187218D01*
X146059996Y-83207616D01*
X146060000Y-83207616D01*
X146060004Y-83207616D01*
X146241041Y-83187218D01*
X146241044Y-83187217D01*
X146241047Y-83187217D01*
X146413015Y-83127043D01*
X146567281Y-83030111D01*
X146696111Y-82901281D01*
X146793043Y-82747015D01*
X146827691Y-82647996D01*
X154390384Y-82647996D01*
X154390384Y-82648003D01*
X154410781Y-82829041D01*
X154410782Y-82829046D01*
X154470958Y-83001017D01*
X154489239Y-83030111D01*
X154567889Y-83155281D01*
X154696719Y-83284111D01*
X154850985Y-83381043D01*
X155022953Y-83441217D01*
X155022958Y-83441218D01*
X155203996Y-83461616D01*
X155204000Y-83461616D01*
X155204004Y-83461616D01*
X155385041Y-83441218D01*
X155385044Y-83441217D01*
X155385047Y-83441217D01*
X155557015Y-83381043D01*
X155711281Y-83284111D01*
X155840111Y-83155281D01*
X155937043Y-83001015D01*
X155997217Y-82829047D01*
X156006460Y-82747015D01*
X156017616Y-82648003D01*
X156017616Y-82647996D01*
X155997218Y-82466958D01*
X155997217Y-82466953D01*
X155937043Y-82294985D01*
X155840111Y-82140719D01*
X155711281Y-82011889D01*
X155632646Y-81962479D01*
X155557017Y-81914958D01*
X155557016Y-81914957D01*
X155557015Y-81914957D01*
X155502693Y-81895949D01*
X155385046Y-81854782D01*
X155385041Y-81854781D01*
X155204004Y-81834384D01*
X155203996Y-81834384D01*
X155022958Y-81854781D01*
X155022953Y-81854782D01*
X154850982Y-81914958D01*
X154696718Y-82011889D01*
X154567889Y-82140718D01*
X154470958Y-82294982D01*
X154410782Y-82466953D01*
X154410781Y-82466958D01*
X154390384Y-82647996D01*
X146827691Y-82647996D01*
X146853217Y-82575047D01*
X146865396Y-82466958D01*
X146873616Y-82394003D01*
X146873616Y-82393996D01*
X146853218Y-82212958D01*
X146853217Y-82212953D01*
X146793043Y-82040985D01*
X146696111Y-81886719D01*
X146567281Y-81757889D01*
X146515004Y-81725041D01*
X146413017Y-81660958D01*
X146413016Y-81660957D01*
X146413015Y-81660957D01*
X146328197Y-81631278D01*
X146241046Y-81600782D01*
X146241042Y-81600781D01*
X146174660Y-81593302D01*
X146110246Y-81566235D01*
X146070691Y-81508640D01*
X146068554Y-81438803D01*
X146104513Y-81378897D01*
X146147592Y-81353039D01*
X146159015Y-81349043D01*
X146313281Y-81252111D01*
X146442111Y-81123281D01*
X146539043Y-80969015D01*
X146543973Y-80954924D01*
X146584692Y-80898147D01*
X146649643Y-80872397D01*
X146674895Y-80872653D01*
X146747616Y-80880847D01*
X146785498Y-80885116D01*
X146792464Y-80885116D01*
X146792464Y-80887125D01*
X146851578Y-80897478D01*
X146901636Y-80942672D01*
X146947886Y-81016277D01*
X146947887Y-81016279D01*
X146947889Y-81016281D01*
X147076719Y-81145111D01*
X147230985Y-81242043D01*
X147402953Y-81302217D01*
X147402958Y-81302218D01*
X147583996Y-81322616D01*
X147584000Y-81322616D01*
X147584004Y-81322616D01*
X147765041Y-81302218D01*
X147765044Y-81302217D01*
X147765047Y-81302217D01*
X147937015Y-81242043D01*
X148091281Y-81145111D01*
X148220111Y-81016281D01*
X148317043Y-80862015D01*
X148377217Y-80690047D01*
X148377218Y-80690041D01*
X148397616Y-80509003D01*
X148397616Y-80508996D01*
X148381053Y-80361996D01*
X153120384Y-80361996D01*
X153120384Y-80362003D01*
X153140781Y-80543041D01*
X153140782Y-80543046D01*
X153177234Y-80647218D01*
X153200957Y-80715015D01*
X153297889Y-80869281D01*
X153426719Y-80998111D01*
X153580985Y-81095043D01*
X153724069Y-81145110D01*
X153752953Y-81155217D01*
X153752958Y-81155218D01*
X153933996Y-81175616D01*
X153934000Y-81175616D01*
X153934004Y-81175616D01*
X154115041Y-81155218D01*
X154115044Y-81155217D01*
X154115047Y-81155217D01*
X154204272Y-81123996D01*
X162518384Y-81123996D01*
X162518384Y-81124003D01*
X162538781Y-81305041D01*
X162538782Y-81305046D01*
X162598958Y-81477017D01*
X162676725Y-81600782D01*
X162695889Y-81631281D01*
X162824719Y-81760111D01*
X162978985Y-81857043D01*
X163144494Y-81914957D01*
X163150953Y-81917217D01*
X163150958Y-81917218D01*
X163331996Y-81937616D01*
X163332000Y-81937616D01*
X163332004Y-81937616D01*
X163513041Y-81917218D01*
X163513043Y-81917217D01*
X163513047Y-81917217D01*
X163513050Y-81917215D01*
X163513054Y-81917215D01*
X163649929Y-81869320D01*
X163719708Y-81865758D01*
X163780335Y-81900486D01*
X163812563Y-81962479D01*
X163806158Y-82032055D01*
X163778566Y-82074042D01*
X163711888Y-82140720D01*
X163614958Y-82294982D01*
X163554782Y-82466953D01*
X163554781Y-82466958D01*
X163534384Y-82647996D01*
X163534384Y-82648003D01*
X163554781Y-82829041D01*
X163554782Y-82829046D01*
X163614958Y-83001017D01*
X163633239Y-83030111D01*
X163711889Y-83155281D01*
X163840719Y-83284111D01*
X163994985Y-83381043D01*
X164166953Y-83441217D01*
X164166958Y-83441218D01*
X164347996Y-83461616D01*
X164348000Y-83461616D01*
X164348004Y-83461616D01*
X164529041Y-83441218D01*
X164529044Y-83441217D01*
X164529047Y-83441217D01*
X164701015Y-83381043D01*
X164855281Y-83284111D01*
X164984111Y-83155281D01*
X165081043Y-83001015D01*
X165141217Y-82829047D01*
X165150460Y-82747015D01*
X165161616Y-82648003D01*
X165161616Y-82647996D01*
X165141218Y-82466958D01*
X165141217Y-82466953D01*
X165081043Y-82294985D01*
X164984111Y-82140719D01*
X164855281Y-82011889D01*
X164776646Y-81962479D01*
X164701017Y-81914958D01*
X164701016Y-81914957D01*
X164701015Y-81914957D01*
X164646693Y-81895949D01*
X164529046Y-81854782D01*
X164529041Y-81854781D01*
X164348004Y-81834384D01*
X164347996Y-81834384D01*
X164166958Y-81854781D01*
X164166950Y-81854783D01*
X164030069Y-81902680D01*
X163960290Y-81906241D01*
X163899663Y-81871512D01*
X163867436Y-81809519D01*
X163873841Y-81739943D01*
X163901430Y-81697961D01*
X163968111Y-81631281D01*
X164065043Y-81477015D01*
X164125217Y-81305047D01*
X164125536Y-81302217D01*
X164145616Y-81124003D01*
X164145616Y-81123996D01*
X164125218Y-80942958D01*
X164125217Y-80942953D01*
X164109539Y-80898147D01*
X164065043Y-80770985D01*
X163968111Y-80616719D01*
X163839281Y-80487889D01*
X163755034Y-80434953D01*
X163685017Y-80390958D01*
X163685016Y-80390957D01*
X163685015Y-80390957D01*
X163602269Y-80362003D01*
X163513046Y-80330782D01*
X163513041Y-80330781D01*
X163332004Y-80310384D01*
X163331996Y-80310384D01*
X163150958Y-80330781D01*
X163150953Y-80330782D01*
X162978982Y-80390958D01*
X162824718Y-80487889D01*
X162695889Y-80616718D01*
X162598958Y-80770982D01*
X162538782Y-80942953D01*
X162538781Y-80942958D01*
X162518384Y-81123996D01*
X154204272Y-81123996D01*
X154287015Y-81095043D01*
X154441281Y-80998111D01*
X154570111Y-80869281D01*
X154667043Y-80715015D01*
X154727217Y-80543047D01*
X154731054Y-80508996D01*
X154747616Y-80362003D01*
X154747616Y-80361996D01*
X154727218Y-80180958D01*
X154727217Y-80180953D01*
X154676162Y-80035047D01*
X154667043Y-80008985D01*
X154570111Y-79854719D01*
X154441281Y-79725889D01*
X154425194Y-79715781D01*
X154287017Y-79628958D01*
X154287016Y-79628957D01*
X154287015Y-79628957D01*
X154204269Y-79600003D01*
X154115046Y-79568782D01*
X154115041Y-79568781D01*
X153934004Y-79548384D01*
X153933996Y-79548384D01*
X153752958Y-79568781D01*
X153752953Y-79568782D01*
X153580982Y-79628958D01*
X153426718Y-79725889D01*
X153297889Y-79854718D01*
X153200958Y-80008982D01*
X153140782Y-80180953D01*
X153140781Y-80180958D01*
X153120384Y-80361996D01*
X148381053Y-80361996D01*
X148377218Y-80327958D01*
X148377217Y-80327953D01*
X148371069Y-80310384D01*
X148317043Y-80155985D01*
X148220111Y-80001719D01*
X148091281Y-79872889D01*
X148011538Y-79822783D01*
X147937017Y-79775958D01*
X147937016Y-79775957D01*
X147937015Y-79775957D01*
X147882693Y-79756949D01*
X147765046Y-79715782D01*
X147765041Y-79715781D01*
X147584004Y-79695384D01*
X147577037Y-79695384D01*
X147577037Y-79693381D01*
X147517889Y-79683005D01*
X147467862Y-79637826D01*
X147421611Y-79564219D01*
X147292781Y-79435389D01*
X147138517Y-79338458D01*
X147138516Y-79338457D01*
X147138515Y-79338457D01*
X147084193Y-79319449D01*
X146966546Y-79278282D01*
X146966541Y-79278281D01*
X146785504Y-79257884D01*
X146785496Y-79257884D01*
X146604458Y-79278281D01*
X146604453Y-79278282D01*
X146432482Y-79338458D01*
X146278218Y-79435389D01*
X146149389Y-79564218D01*
X146052458Y-79718482D01*
X146052457Y-79718485D01*
X146047523Y-79732584D01*
X146006799Y-79789359D01*
X145941845Y-79815103D01*
X145916600Y-79814845D01*
X145806004Y-79802384D01*
X145805996Y-79802384D01*
X145624958Y-79822781D01*
X145624953Y-79822782D01*
X145452982Y-79882958D01*
X145298718Y-79979889D01*
X145169889Y-80108718D01*
X145072958Y-80262982D01*
X145012782Y-80434953D01*
X145012781Y-80434958D01*
X144992384Y-80615996D01*
X142774272Y-80615996D01*
X142857015Y-80587043D01*
X143011281Y-80490111D01*
X143140111Y-80361281D01*
X143237043Y-80207015D01*
X143297217Y-80035047D01*
X143297218Y-80035041D01*
X143317616Y-79854003D01*
X143317616Y-79853996D01*
X143297218Y-79672958D01*
X143297217Y-79672953D01*
X143289751Y-79651616D01*
X143237043Y-79500985D01*
X143140111Y-79346719D01*
X143011281Y-79217889D01*
X142857015Y-79120957D01*
X142802693Y-79101949D01*
X142685046Y-79060782D01*
X142685041Y-79060781D01*
X142504004Y-79040384D01*
X142503996Y-79040384D01*
X142322958Y-79060781D01*
X142322953Y-79060782D01*
X142150982Y-79120958D01*
X141996718Y-79217889D01*
X141867889Y-79346718D01*
X141770958Y-79500982D01*
X141710782Y-79672953D01*
X141710781Y-79672958D01*
X141690384Y-79853996D01*
X130317691Y-79853996D01*
X130343217Y-79781047D01*
X130343218Y-79781041D01*
X130363616Y-79600003D01*
X130363616Y-79599996D01*
X130343218Y-79418958D01*
X130343217Y-79418953D01*
X130317438Y-79345281D01*
X130283043Y-79246985D01*
X130186111Y-79092719D01*
X130057281Y-78963889D01*
X129903015Y-78866957D01*
X129820269Y-78838003D01*
X129820249Y-78837996D01*
X136864384Y-78837996D01*
X136864384Y-78838003D01*
X136884781Y-79019041D01*
X136884782Y-79019046D01*
X136910562Y-79092719D01*
X136944957Y-79191015D01*
X137041889Y-79345281D01*
X137170719Y-79474111D01*
X137324985Y-79571043D01*
X137490494Y-79628957D01*
X137496953Y-79631217D01*
X137496958Y-79631218D01*
X137677996Y-79651616D01*
X137678000Y-79651616D01*
X137678004Y-79651616D01*
X137859041Y-79631218D01*
X137859044Y-79631217D01*
X137859047Y-79631217D01*
X138031015Y-79571043D01*
X138185281Y-79474111D01*
X138314111Y-79345281D01*
X138411043Y-79191015D01*
X138471217Y-79019047D01*
X138477432Y-78963889D01*
X138491616Y-78838003D01*
X138491616Y-78837996D01*
X138471218Y-78656958D01*
X138471217Y-78656953D01*
X138435557Y-78555043D01*
X138411043Y-78484985D01*
X138314111Y-78330719D01*
X138185281Y-78201889D01*
X138031015Y-78104957D01*
X137946206Y-78075281D01*
X137859046Y-78044782D01*
X137859041Y-78044781D01*
X137678004Y-78024384D01*
X137677996Y-78024384D01*
X137496958Y-78044781D01*
X137496953Y-78044782D01*
X137324982Y-78104958D01*
X137170718Y-78201889D01*
X137041889Y-78330718D01*
X136944958Y-78484982D01*
X136884782Y-78656953D01*
X136884781Y-78656958D01*
X136864384Y-78837996D01*
X129820249Y-78837996D01*
X129731046Y-78806782D01*
X129731041Y-78806781D01*
X129550004Y-78786384D01*
X129549996Y-78786384D01*
X129368958Y-78806781D01*
X129368953Y-78806782D01*
X129196982Y-78866958D01*
X129042718Y-78963889D01*
X128913889Y-79092718D01*
X128816958Y-79246982D01*
X128756782Y-79418953D01*
X128756781Y-79418958D01*
X128736384Y-79599996D01*
X106000500Y-79599996D01*
X106000500Y-78685327D01*
X117153715Y-78685327D01*
X117153715Y-78685334D01*
X117174112Y-78866372D01*
X117174113Y-78866377D01*
X117234289Y-79038348D01*
X117248386Y-79060783D01*
X117331220Y-79192612D01*
X117460050Y-79321442D01*
X117614316Y-79418374D01*
X117773601Y-79474110D01*
X117786284Y-79478548D01*
X117786289Y-79478549D01*
X117967327Y-79498947D01*
X117967331Y-79498947D01*
X117967335Y-79498947D01*
X118148372Y-79478549D01*
X118148375Y-79478548D01*
X118148378Y-79478548D01*
X118320346Y-79418374D01*
X118474612Y-79321442D01*
X118603442Y-79192612D01*
X118700374Y-79038346D01*
X118760548Y-78866378D01*
X118763745Y-78838003D01*
X118780947Y-78685334D01*
X118780947Y-78685327D01*
X118760549Y-78504289D01*
X118760548Y-78504284D01*
X118744391Y-78458110D01*
X118700374Y-78332316D01*
X118603442Y-78178050D01*
X118474612Y-78049220D01*
X118320346Y-77952288D01*
X118266024Y-77933280D01*
X118148377Y-77892113D01*
X118148372Y-77892112D01*
X117967335Y-77871715D01*
X117967327Y-77871715D01*
X117786289Y-77892112D01*
X117786284Y-77892113D01*
X117614313Y-77952289D01*
X117460049Y-78049220D01*
X117331220Y-78178049D01*
X117234289Y-78332313D01*
X117174113Y-78504284D01*
X117174112Y-78504289D01*
X117153715Y-78685327D01*
X106000500Y-78685327D01*
X106000500Y-77567996D01*
X109940384Y-77567996D01*
X109940384Y-77568003D01*
X109960781Y-77749041D01*
X109960782Y-77749046D01*
X109986309Y-77821996D01*
X110010843Y-77892112D01*
X110020958Y-77921017D01*
X110098725Y-78044782D01*
X110117889Y-78075281D01*
X110246719Y-78204111D01*
X110400985Y-78301043D01*
X110572953Y-78361217D01*
X110572958Y-78361218D01*
X110753996Y-78381616D01*
X110754000Y-78381616D01*
X110754004Y-78381616D01*
X110935041Y-78361218D01*
X110935044Y-78361217D01*
X110935047Y-78361217D01*
X111107015Y-78301043D01*
X111261281Y-78204111D01*
X111390111Y-78075281D01*
X111487043Y-77921015D01*
X111521691Y-77821996D01*
X139150384Y-77821996D01*
X139150384Y-77822003D01*
X139170781Y-78003041D01*
X139170782Y-78003046D01*
X139230958Y-78175017D01*
X139249239Y-78204111D01*
X139327889Y-78329281D01*
X139456719Y-78458111D01*
X139610985Y-78555043D01*
X139782953Y-78615217D01*
X139782958Y-78615218D01*
X139963996Y-78635616D01*
X139964000Y-78635616D01*
X139964004Y-78635616D01*
X140145041Y-78615218D01*
X140145044Y-78615217D01*
X140145047Y-78615217D01*
X140317015Y-78555043D01*
X140471281Y-78458111D01*
X140600111Y-78329281D01*
X140697043Y-78175015D01*
X140757217Y-78003047D01*
X140769716Y-77892114D01*
X140777616Y-77822003D01*
X140777616Y-77821996D01*
X140757218Y-77640958D01*
X140757217Y-77640953D01*
X140697043Y-77468985D01*
X140600111Y-77314719D01*
X140471281Y-77185889D01*
X140317015Y-77088957D01*
X140262693Y-77069949D01*
X140145046Y-77028782D01*
X140145041Y-77028781D01*
X139964004Y-77008384D01*
X139963996Y-77008384D01*
X139782958Y-77028781D01*
X139782953Y-77028782D01*
X139610982Y-77088958D01*
X139456718Y-77185889D01*
X139327889Y-77314718D01*
X139230958Y-77468982D01*
X139170782Y-77640953D01*
X139170781Y-77640958D01*
X139150384Y-77821996D01*
X111521691Y-77821996D01*
X111547217Y-77749047D01*
X111559396Y-77640958D01*
X111567616Y-77568003D01*
X111567616Y-77567996D01*
X111547218Y-77386958D01*
X111547217Y-77386953D01*
X111487043Y-77214985D01*
X111390111Y-77060719D01*
X111261281Y-76931889D01*
X111107015Y-76834957D01*
X111052693Y-76815949D01*
X110935046Y-76774782D01*
X110935041Y-76774781D01*
X110754004Y-76754384D01*
X110753996Y-76754384D01*
X110572958Y-76774781D01*
X110572953Y-76774782D01*
X110400982Y-76834958D01*
X110246718Y-76931889D01*
X110117889Y-77060718D01*
X110020958Y-77214982D01*
X109960782Y-77386953D01*
X109960781Y-77386958D01*
X109940384Y-77567996D01*
X106000500Y-77567996D01*
X106000500Y-75530076D01*
X107312174Y-75530076D01*
X107312174Y-75530083D01*
X107332571Y-75711121D01*
X107332572Y-75711126D01*
X107369981Y-75818034D01*
X107392747Y-75883095D01*
X107489679Y-76037361D01*
X107618509Y-76166191D01*
X107772775Y-76263123D01*
X107899675Y-76307527D01*
X107944743Y-76323297D01*
X107944748Y-76323298D01*
X108125786Y-76343696D01*
X108125790Y-76343696D01*
X108125794Y-76343696D01*
X108306831Y-76323298D01*
X108306834Y-76323297D01*
X108306837Y-76323297D01*
X108478805Y-76263123D01*
X108633071Y-76166191D01*
X108761901Y-76037361D01*
X108858833Y-75883095D01*
X108919007Y-75711127D01*
X108923558Y-75670739D01*
X108938740Y-75535996D01*
X131276384Y-75535996D01*
X131276384Y-75536003D01*
X131296781Y-75717041D01*
X131296782Y-75717046D01*
X131356958Y-75889017D01*
X131420868Y-75990728D01*
X131453889Y-76043281D01*
X131582719Y-76172111D01*
X131736985Y-76269043D01*
X131908953Y-76329217D01*
X131908958Y-76329218D01*
X132089996Y-76349616D01*
X132090000Y-76349616D01*
X132090004Y-76349616D01*
X132271041Y-76329218D01*
X132271044Y-76329217D01*
X132271047Y-76329217D01*
X132443015Y-76269043D01*
X132597281Y-76172111D01*
X132726111Y-76043281D01*
X132823043Y-75889015D01*
X132883217Y-75717047D01*
X132888435Y-75670739D01*
X132890967Y-75648264D01*
X140115530Y-75648264D01*
X140115530Y-75648271D01*
X140135927Y-75829309D01*
X140135928Y-75829314D01*
X140196104Y-76001285D01*
X140274344Y-76125803D01*
X140293035Y-76155549D01*
X140421865Y-76284379D01*
X140576131Y-76381311D01*
X140748099Y-76441485D01*
X140748104Y-76441486D01*
X140929142Y-76461884D01*
X140929146Y-76461884D01*
X140929150Y-76461884D01*
X141110187Y-76441486D01*
X141110190Y-76441485D01*
X141110193Y-76441485D01*
X141282161Y-76381311D01*
X141436427Y-76284379D01*
X141565257Y-76155549D01*
X141662189Y-76001283D01*
X141722363Y-75829315D01*
X141723634Y-75818034D01*
X141742762Y-75648271D01*
X141742762Y-75648264D01*
X141722364Y-75467226D01*
X141722363Y-75467221D01*
X141717385Y-75452996D01*
X141662189Y-75295253D01*
X141653859Y-75281996D01*
X143722384Y-75281996D01*
X143722384Y-75282003D01*
X143742781Y-75463041D01*
X143742782Y-75463046D01*
X143779234Y-75567218D01*
X143802618Y-75634047D01*
X143802958Y-75635017D01*
X143850778Y-75711121D01*
X143899889Y-75789281D01*
X144028719Y-75918111D01*
X144182985Y-76015043D01*
X144354953Y-76075217D01*
X144354958Y-76075218D01*
X144535996Y-76095616D01*
X144536000Y-76095616D01*
X144536004Y-76095616D01*
X144717041Y-76075218D01*
X144717044Y-76075217D01*
X144717047Y-76075217D01*
X144889015Y-76015043D01*
X145043281Y-75918111D01*
X145172111Y-75789281D01*
X145269043Y-75635015D01*
X145329217Y-75463047D01*
X145330349Y-75453000D01*
X145349616Y-75282003D01*
X145349616Y-75281996D01*
X145329218Y-75100958D01*
X145329217Y-75100953D01*
X145303941Y-75028718D01*
X145269043Y-74928985D01*
X145172111Y-74774719D01*
X145043281Y-74645889D01*
X144959034Y-74592953D01*
X144889017Y-74548958D01*
X144889016Y-74548957D01*
X144889015Y-74548957D01*
X144834693Y-74529949D01*
X144717046Y-74488782D01*
X144717041Y-74488781D01*
X144536004Y-74468384D01*
X144535996Y-74468384D01*
X144354958Y-74488781D01*
X144354953Y-74488782D01*
X144182982Y-74548958D01*
X144028718Y-74645889D01*
X143899889Y-74774718D01*
X143802958Y-74928982D01*
X143742782Y-75100953D01*
X143742781Y-75100958D01*
X143722384Y-75281996D01*
X141653859Y-75281996D01*
X141565257Y-75140987D01*
X141436427Y-75012157D01*
X141282161Y-74915225D01*
X141221415Y-74893969D01*
X141110192Y-74855050D01*
X141110187Y-74855049D01*
X140929150Y-74834652D01*
X140929142Y-74834652D01*
X140748104Y-74855049D01*
X140748099Y-74855050D01*
X140576128Y-74915226D01*
X140421864Y-75012157D01*
X140293035Y-75140986D01*
X140196104Y-75295250D01*
X140135928Y-75467221D01*
X140135927Y-75467226D01*
X140115530Y-75648264D01*
X132890967Y-75648264D01*
X132903616Y-75536003D01*
X132903616Y-75535996D01*
X132883218Y-75354958D01*
X132883217Y-75354953D01*
X132881147Y-75349038D01*
X132823043Y-75182985D01*
X132726111Y-75028719D01*
X132597281Y-74899889D01*
X132525922Y-74855051D01*
X132443017Y-74802958D01*
X132443016Y-74802957D01*
X132443015Y-74802957D01*
X132388693Y-74783949D01*
X132271046Y-74742782D01*
X132271041Y-74742781D01*
X132090004Y-74722384D01*
X132089996Y-74722384D01*
X131908958Y-74742781D01*
X131908953Y-74742782D01*
X131736982Y-74802958D01*
X131582718Y-74899889D01*
X131453889Y-75028718D01*
X131356958Y-75182982D01*
X131296782Y-75354953D01*
X131296781Y-75354958D01*
X131276384Y-75535996D01*
X108938740Y-75535996D01*
X108939406Y-75530083D01*
X108939406Y-75530076D01*
X108919008Y-75349038D01*
X108919007Y-75349033D01*
X108904211Y-75306749D01*
X108858833Y-75177065D01*
X108761901Y-75022799D01*
X108633071Y-74893969D01*
X108538669Y-74834652D01*
X108478807Y-74797038D01*
X108478806Y-74797037D01*
X108478805Y-74797037D01*
X108415021Y-74774718D01*
X108306836Y-74736862D01*
X108306831Y-74736861D01*
X108125794Y-74716464D01*
X108125786Y-74716464D01*
X107944748Y-74736861D01*
X107944743Y-74736862D01*
X107772772Y-74797038D01*
X107618508Y-74893969D01*
X107489679Y-75022798D01*
X107392748Y-75177062D01*
X107332572Y-75349033D01*
X107332571Y-75349038D01*
X107312174Y-75530076D01*
X106000500Y-75530076D01*
X106000500Y-74493129D01*
X114512384Y-74493129D01*
X114512384Y-74493136D01*
X114532781Y-74674174D01*
X114532782Y-74674179D01*
X114556787Y-74742781D01*
X114588934Y-74834652D01*
X114592958Y-74846150D01*
X114598551Y-74855051D01*
X114689889Y-75000414D01*
X114818719Y-75129244D01*
X114972985Y-75226176D01*
X115132530Y-75282003D01*
X115144953Y-75286350D01*
X115144958Y-75286351D01*
X115325996Y-75306749D01*
X115326000Y-75306749D01*
X115326004Y-75306749D01*
X115507041Y-75286351D01*
X115507044Y-75286350D01*
X115507047Y-75286350D01*
X115679015Y-75226176D01*
X115833281Y-75129244D01*
X115962111Y-75000414D01*
X116059043Y-74846148D01*
X116119217Y-74674180D01*
X116120839Y-74659783D01*
X116139616Y-74493136D01*
X116139616Y-74493129D01*
X116119218Y-74312091D01*
X116119217Y-74312086D01*
X116059043Y-74140118D01*
X115962111Y-73985852D01*
X115833281Y-73857022D01*
X115679017Y-73760091D01*
X115679016Y-73760090D01*
X115679015Y-73760090D01*
X115624693Y-73741082D01*
X115507046Y-73699915D01*
X115507041Y-73699914D01*
X115326004Y-73679517D01*
X115325996Y-73679517D01*
X115144958Y-73699914D01*
X115144953Y-73699915D01*
X114972982Y-73760091D01*
X114818718Y-73857022D01*
X114689889Y-73985851D01*
X114592958Y-74140115D01*
X114532782Y-74312086D01*
X114532781Y-74312091D01*
X114512384Y-74493129D01*
X106000500Y-74493129D01*
X106000500Y-72929996D01*
X110006384Y-72929996D01*
X110006384Y-72930003D01*
X110026781Y-73111041D01*
X110026782Y-73111046D01*
X110086958Y-73283017D01*
X110105239Y-73312111D01*
X110183889Y-73437281D01*
X110312719Y-73566111D01*
X110466985Y-73663043D01*
X110638953Y-73723217D01*
X110638958Y-73723218D01*
X110819996Y-73743616D01*
X110820000Y-73743616D01*
X110820004Y-73743616D01*
X111001041Y-73723218D01*
X111001044Y-73723217D01*
X111001047Y-73723217D01*
X111173015Y-73663043D01*
X111327281Y-73566111D01*
X111456111Y-73437281D01*
X111553043Y-73283015D01*
X111613217Y-73111047D01*
X111613218Y-73111041D01*
X111633616Y-72930003D01*
X111633616Y-72929996D01*
X111613218Y-72748958D01*
X111613217Y-72748953D01*
X111587688Y-72675996D01*
X111906384Y-72675996D01*
X111906384Y-72676003D01*
X111926781Y-72857041D01*
X111926782Y-72857046D01*
X111958462Y-72947582D01*
X111978185Y-73003947D01*
X111986958Y-73029017D01*
X112012055Y-73068958D01*
X112083889Y-73183281D01*
X112212719Y-73312111D01*
X112366985Y-73409043D01*
X112538953Y-73469217D01*
X112538958Y-73469218D01*
X112719996Y-73489616D01*
X112720000Y-73489616D01*
X112720004Y-73489616D01*
X112901041Y-73469218D01*
X112901044Y-73469217D01*
X112901047Y-73469217D01*
X113073015Y-73409043D01*
X113227281Y-73312111D01*
X113356111Y-73183281D01*
X113453043Y-73029015D01*
X113464597Y-72995996D01*
X119604854Y-72995996D01*
X119604854Y-72996003D01*
X119625251Y-73177041D01*
X119625252Y-73177046D01*
X119650779Y-73249996D01*
X119672513Y-73312110D01*
X119685428Y-73349017D01*
X119736976Y-73431054D01*
X119782359Y-73503281D01*
X119911189Y-73632111D01*
X120065455Y-73729043D01*
X120237423Y-73789217D01*
X120237428Y-73789218D01*
X120418466Y-73809616D01*
X120418470Y-73809616D01*
X120418474Y-73809616D01*
X120599511Y-73789218D01*
X120599514Y-73789217D01*
X120599517Y-73789217D01*
X120771485Y-73729043D01*
X120925751Y-73632111D01*
X121054581Y-73503281D01*
X121151513Y-73349015D01*
X121211687Y-73177047D01*
X121214791Y-73149500D01*
X121232086Y-72996003D01*
X121232086Y-72995996D01*
X121211688Y-72814958D01*
X121211687Y-72814953D01*
X121188594Y-72748958D01*
X121151513Y-72642985D01*
X121054581Y-72488719D01*
X120925751Y-72359889D01*
X120841504Y-72306953D01*
X120771487Y-72262958D01*
X120771486Y-72262957D01*
X120771485Y-72262957D01*
X120717163Y-72243949D01*
X120599516Y-72202782D01*
X120599511Y-72202781D01*
X120418474Y-72182384D01*
X120418466Y-72182384D01*
X120237428Y-72202781D01*
X120237423Y-72202782D01*
X120065452Y-72262958D01*
X119911188Y-72359889D01*
X119782359Y-72488718D01*
X119685428Y-72642982D01*
X119625252Y-72814953D01*
X119625251Y-72814958D01*
X119604854Y-72995996D01*
X113464597Y-72995996D01*
X113513217Y-72857047D01*
X113513218Y-72857041D01*
X113533616Y-72676003D01*
X113533616Y-72675996D01*
X113513218Y-72494958D01*
X113513217Y-72494953D01*
X113487941Y-72422718D01*
X113453043Y-72322985D01*
X113356111Y-72168719D01*
X113227281Y-72039889D01*
X113073015Y-71942957D01*
X113018693Y-71923949D01*
X112901046Y-71882782D01*
X112901041Y-71882781D01*
X112720004Y-71862384D01*
X112719996Y-71862384D01*
X112538958Y-71882781D01*
X112538953Y-71882782D01*
X112366982Y-71942958D01*
X112212718Y-72039889D01*
X112083889Y-72168718D01*
X111986958Y-72322982D01*
X111926782Y-72494953D01*
X111926781Y-72494958D01*
X111906384Y-72675996D01*
X111587688Y-72675996D01*
X111553043Y-72576985D01*
X111456111Y-72422719D01*
X111327281Y-72293889D01*
X111182287Y-72202783D01*
X111173017Y-72196958D01*
X111173016Y-72196957D01*
X111173015Y-72196957D01*
X111118693Y-72177949D01*
X111001046Y-72136782D01*
X111001041Y-72136781D01*
X110820004Y-72116384D01*
X110819996Y-72116384D01*
X110638958Y-72136781D01*
X110638953Y-72136782D01*
X110466982Y-72196958D01*
X110312718Y-72293889D01*
X110183889Y-72422718D01*
X110086958Y-72576982D01*
X110026782Y-72748953D01*
X110026781Y-72748958D01*
X110006384Y-72929996D01*
X106000500Y-72929996D01*
X106000500Y-70963996D01*
X118830384Y-70963996D01*
X118830384Y-70964003D01*
X118850781Y-71145041D01*
X118850782Y-71145046D01*
X118910958Y-71317017D01*
X118929239Y-71346111D01*
X119007889Y-71471281D01*
X119136719Y-71600111D01*
X119290985Y-71697043D01*
X119462953Y-71757217D01*
X119462958Y-71757218D01*
X119643996Y-71777616D01*
X119644000Y-71777616D01*
X119644004Y-71777616D01*
X119825041Y-71757218D01*
X119825044Y-71757217D01*
X119825047Y-71757217D01*
X119997015Y-71697043D01*
X120151281Y-71600111D01*
X120280111Y-71471281D01*
X120377043Y-71317015D01*
X120437217Y-71145047D01*
X120437218Y-71145041D01*
X120457616Y-70964003D01*
X120457616Y-70963996D01*
X120437218Y-70782958D01*
X120437217Y-70782953D01*
X120377043Y-70610985D01*
X120280111Y-70456719D01*
X120279388Y-70455996D01*
X126196384Y-70455996D01*
X126196384Y-70456003D01*
X126216781Y-70637041D01*
X126216782Y-70637046D01*
X126276958Y-70809017D01*
X126354725Y-70932782D01*
X126373889Y-70963281D01*
X126502719Y-71092111D01*
X126656985Y-71189043D01*
X126828953Y-71249217D01*
X126828958Y-71249218D01*
X127009996Y-71269616D01*
X127010000Y-71269616D01*
X127010004Y-71269616D01*
X127191041Y-71249218D01*
X127191044Y-71249217D01*
X127191047Y-71249217D01*
X127363015Y-71189043D01*
X127517281Y-71092111D01*
X127645396Y-70963996D01*
X141944384Y-70963996D01*
X141944384Y-70964003D01*
X141964781Y-71145041D01*
X141964782Y-71145046D01*
X142024958Y-71317017D01*
X142043239Y-71346111D01*
X142121889Y-71471281D01*
X142250719Y-71600111D01*
X142404985Y-71697043D01*
X142576953Y-71757217D01*
X142576958Y-71757218D01*
X142757996Y-71777616D01*
X142758000Y-71777616D01*
X142758004Y-71777616D01*
X142939041Y-71757218D01*
X142939044Y-71757217D01*
X142939047Y-71757217D01*
X143028272Y-71725996D01*
X146770384Y-71725996D01*
X146770384Y-71726003D01*
X146790781Y-71907041D01*
X146790783Y-71907049D01*
X146846418Y-72066046D01*
X146849979Y-72135825D01*
X146846418Y-72147954D01*
X146790783Y-72306950D01*
X146790781Y-72306958D01*
X146770384Y-72487996D01*
X146770384Y-72488003D01*
X146790781Y-72669041D01*
X146790783Y-72669049D01*
X146846418Y-72828046D01*
X146849979Y-72897825D01*
X146846418Y-72909954D01*
X146790783Y-73068950D01*
X146790781Y-73068958D01*
X146770384Y-73249996D01*
X146770384Y-73250003D01*
X146790781Y-73431041D01*
X146790783Y-73431049D01*
X146846418Y-73590046D01*
X146849979Y-73659825D01*
X146846418Y-73671954D01*
X146790783Y-73830950D01*
X146790781Y-73830958D01*
X146770384Y-74011996D01*
X146770384Y-74012003D01*
X146790781Y-74193041D01*
X146790783Y-74193049D01*
X146846418Y-74352046D01*
X146849979Y-74421825D01*
X146846418Y-74433954D01*
X146790783Y-74592950D01*
X146790781Y-74592958D01*
X146770384Y-74773996D01*
X146770384Y-74774003D01*
X146790781Y-74955041D01*
X146790782Y-74955046D01*
X146850958Y-75127017D01*
X146886123Y-75182982D01*
X146947889Y-75281281D01*
X147076719Y-75410111D01*
X147230985Y-75507043D01*
X147402947Y-75567215D01*
X147402953Y-75567217D01*
X147402958Y-75567218D01*
X147583996Y-75587616D01*
X147584000Y-75587616D01*
X147584004Y-75587616D01*
X147765041Y-75567218D01*
X147765043Y-75567217D01*
X147765047Y-75567217D01*
X147765050Y-75567215D01*
X147765054Y-75567215D01*
X147871190Y-75530076D01*
X147924046Y-75511580D01*
X147993823Y-75508018D01*
X148005948Y-75511578D01*
X148057528Y-75529627D01*
X148164945Y-75567215D01*
X148164951Y-75567216D01*
X148164953Y-75567217D01*
X148164954Y-75567217D01*
X148164958Y-75567218D01*
X148345996Y-75587616D01*
X148346000Y-75587616D01*
X148346004Y-75587616D01*
X148527041Y-75567218D01*
X148527043Y-75567217D01*
X148527047Y-75567217D01*
X148527050Y-75567215D01*
X148527054Y-75567215D01*
X148633190Y-75530076D01*
X148686046Y-75511580D01*
X148755823Y-75508018D01*
X148767948Y-75511578D01*
X148819528Y-75529627D01*
X148926945Y-75567215D01*
X148926951Y-75567216D01*
X148926953Y-75567217D01*
X148926954Y-75567217D01*
X148926958Y-75567218D01*
X149107996Y-75587616D01*
X149108000Y-75587616D01*
X149108004Y-75587616D01*
X149289041Y-75567218D01*
X149289043Y-75567217D01*
X149289047Y-75567217D01*
X149289050Y-75567215D01*
X149289054Y-75567215D01*
X149395190Y-75530076D01*
X149448046Y-75511580D01*
X149517823Y-75508018D01*
X149529948Y-75511578D01*
X149581528Y-75529627D01*
X149688945Y-75567215D01*
X149688951Y-75567216D01*
X149688953Y-75567217D01*
X149688954Y-75567217D01*
X149688958Y-75567218D01*
X149869996Y-75587616D01*
X149870000Y-75587616D01*
X149870004Y-75587616D01*
X150051041Y-75567218D01*
X150051044Y-75567217D01*
X150051047Y-75567217D01*
X150223015Y-75507043D01*
X150250634Y-75489689D01*
X152912691Y-75489689D01*
X152912691Y-75489696D01*
X152933088Y-75670734D01*
X152933089Y-75670739D01*
X152947222Y-75711127D01*
X152993264Y-75842708D01*
X153090196Y-75996974D01*
X153219026Y-76125804D01*
X153373292Y-76222736D01*
X153545260Y-76282910D01*
X153545265Y-76282911D01*
X153726303Y-76303309D01*
X153726307Y-76303309D01*
X153726311Y-76303309D01*
X153907348Y-76282911D01*
X153907351Y-76282910D01*
X153907354Y-76282910D01*
X154079322Y-76222736D01*
X154233588Y-76125804D01*
X154362418Y-75996974D01*
X154459350Y-75842708D01*
X154519524Y-75670740D01*
X154522056Y-75648268D01*
X154539923Y-75489696D01*
X154539923Y-75489689D01*
X154519525Y-75308651D01*
X154519524Y-75308646D01*
X154514838Y-75295253D01*
X154459350Y-75136678D01*
X154362418Y-74982412D01*
X154233588Y-74853582D01*
X154143599Y-74797038D01*
X154079324Y-74756651D01*
X154079323Y-74756650D01*
X154079322Y-74756650D01*
X154022768Y-74736861D01*
X153907353Y-74696475D01*
X153907348Y-74696474D01*
X153726311Y-74676077D01*
X153726303Y-74676077D01*
X153545265Y-74696474D01*
X153545260Y-74696475D01*
X153373289Y-74756651D01*
X153219025Y-74853582D01*
X153090196Y-74982411D01*
X152993265Y-75136675D01*
X152933089Y-75308646D01*
X152933088Y-75308651D01*
X152912691Y-75489689D01*
X150250634Y-75489689D01*
X150377281Y-75410111D01*
X150506111Y-75281281D01*
X150603043Y-75127015D01*
X150663217Y-74955047D01*
X150664268Y-74945718D01*
X150683616Y-74774003D01*
X150683616Y-74773996D01*
X150663218Y-74592958D01*
X150663215Y-74592945D01*
X150625627Y-74485528D01*
X150607580Y-74433953D01*
X150604018Y-74364177D01*
X150607581Y-74352045D01*
X150621564Y-74312086D01*
X150663217Y-74193047D01*
X150667384Y-74156064D01*
X150683616Y-74012003D01*
X150683616Y-74011996D01*
X150663218Y-73830958D01*
X150663215Y-73830945D01*
X150617365Y-73699915D01*
X150607580Y-73671953D01*
X150604018Y-73602177D01*
X150607581Y-73590045D01*
X150615957Y-73566110D01*
X150642723Y-73489616D01*
X150663215Y-73431054D01*
X150663218Y-73431041D01*
X150683616Y-73250003D01*
X150683616Y-73249996D01*
X150663218Y-73068958D01*
X150663215Y-73068945D01*
X150625627Y-72961528D01*
X150607580Y-72909953D01*
X150604018Y-72840177D01*
X150607581Y-72828045D01*
X150612161Y-72814958D01*
X150660784Y-72676000D01*
X150663215Y-72669054D01*
X150663218Y-72669041D01*
X150683616Y-72488003D01*
X150683616Y-72487996D01*
X150663218Y-72306958D01*
X150663215Y-72306945D01*
X150624728Y-72196957D01*
X150607580Y-72147953D01*
X150604018Y-72078177D01*
X150607581Y-72066045D01*
X150616734Y-72039889D01*
X150633206Y-71992811D01*
X150663215Y-71907054D01*
X150663218Y-71907041D01*
X150683616Y-71726003D01*
X150683616Y-71725996D01*
X156168384Y-71725996D01*
X156168384Y-71726003D01*
X156188781Y-71907041D01*
X156188783Y-71907049D01*
X156244418Y-72066046D01*
X156247979Y-72135825D01*
X156244418Y-72147954D01*
X156188783Y-72306950D01*
X156188781Y-72306958D01*
X156168384Y-72487996D01*
X156168384Y-72488003D01*
X156188781Y-72669041D01*
X156188783Y-72669049D01*
X156244418Y-72828046D01*
X156247979Y-72897825D01*
X156244418Y-72909954D01*
X156188783Y-73068950D01*
X156188781Y-73068958D01*
X156168384Y-73249996D01*
X156168384Y-73250003D01*
X156188781Y-73431041D01*
X156188783Y-73431049D01*
X156244418Y-73590046D01*
X156247979Y-73659825D01*
X156244418Y-73671954D01*
X156188783Y-73830950D01*
X156188781Y-73830958D01*
X156168384Y-74011996D01*
X156168384Y-74012003D01*
X156188781Y-74193041D01*
X156188783Y-74193049D01*
X156244418Y-74352046D01*
X156247979Y-74421825D01*
X156244418Y-74433954D01*
X156188783Y-74592950D01*
X156188781Y-74592958D01*
X156168384Y-74773996D01*
X156168384Y-74774003D01*
X156188781Y-74955041D01*
X156188782Y-74955046D01*
X156248958Y-75127017D01*
X156284123Y-75182982D01*
X156345889Y-75281281D01*
X156474719Y-75410111D01*
X156628985Y-75507043D01*
X156800947Y-75567215D01*
X156800953Y-75567217D01*
X156800958Y-75567218D01*
X156981996Y-75587616D01*
X156982000Y-75587616D01*
X156982004Y-75587616D01*
X157163041Y-75567218D01*
X157163044Y-75567217D01*
X157163047Y-75567217D01*
X157335015Y-75507043D01*
X157360527Y-75491013D01*
X157427764Y-75472012D01*
X157492473Y-75491013D01*
X157517981Y-75507041D01*
X157517982Y-75507041D01*
X157517985Y-75507043D01*
X157689947Y-75567215D01*
X157689953Y-75567217D01*
X157689958Y-75567218D01*
X157870996Y-75587616D01*
X157871000Y-75587616D01*
X157871004Y-75587616D01*
X158052041Y-75567218D01*
X158052044Y-75567217D01*
X158052047Y-75567217D01*
X158224015Y-75507043D01*
X158249527Y-75491013D01*
X158316764Y-75472012D01*
X158381473Y-75491013D01*
X158406981Y-75507041D01*
X158406982Y-75507041D01*
X158406985Y-75507043D01*
X158578947Y-75567215D01*
X158578953Y-75567217D01*
X158578958Y-75567218D01*
X158759996Y-75587616D01*
X158760000Y-75587616D01*
X158760004Y-75587616D01*
X158941041Y-75567218D01*
X158941044Y-75567217D01*
X158941047Y-75567217D01*
X159113015Y-75507043D01*
X159199030Y-75452996D01*
X162284384Y-75452996D01*
X162284384Y-75453003D01*
X162304781Y-75634041D01*
X162304782Y-75634046D01*
X162364958Y-75806017D01*
X162379597Y-75829314D01*
X162461889Y-75960281D01*
X162590719Y-76089111D01*
X162744985Y-76186043D01*
X162882702Y-76234232D01*
X162916953Y-76246217D01*
X162916958Y-76246218D01*
X163097996Y-76266616D01*
X163098000Y-76266616D01*
X163098004Y-76266616D01*
X163279041Y-76246218D01*
X163279044Y-76246217D01*
X163279047Y-76246217D01*
X163451015Y-76186043D01*
X163605281Y-76089111D01*
X163734111Y-75960281D01*
X163831043Y-75806015D01*
X163891217Y-75634047D01*
X163891218Y-75634041D01*
X163911616Y-75453003D01*
X163911616Y-75452996D01*
X163891218Y-75271958D01*
X163891217Y-75271953D01*
X163875198Y-75226174D01*
X163831043Y-75099985D01*
X163734111Y-74945719D01*
X163605281Y-74816889D01*
X163538168Y-74774719D01*
X163451017Y-74719958D01*
X163451016Y-74719957D01*
X163451015Y-74719957D01*
X163383904Y-74696474D01*
X163279046Y-74659782D01*
X163279041Y-74659781D01*
X163098004Y-74639384D01*
X163097996Y-74639384D01*
X162916958Y-74659781D01*
X162916953Y-74659782D01*
X162744982Y-74719958D01*
X162590718Y-74816889D01*
X162461889Y-74945718D01*
X162364958Y-75099982D01*
X162304782Y-75271953D01*
X162304781Y-75271958D01*
X162284384Y-75452996D01*
X159199030Y-75452996D01*
X159267281Y-75410111D01*
X159396111Y-75281281D01*
X159493043Y-75127015D01*
X159553217Y-74955047D01*
X159554268Y-74945718D01*
X159573616Y-74774003D01*
X159573616Y-74773996D01*
X159553218Y-74592958D01*
X159553215Y-74592945D01*
X159515627Y-74485528D01*
X159497580Y-74433953D01*
X159494018Y-74364177D01*
X159497581Y-74352045D01*
X159511564Y-74312086D01*
X159553217Y-74193047D01*
X159557384Y-74156064D01*
X159573616Y-74012003D01*
X159573616Y-74011996D01*
X159553218Y-73830958D01*
X159553215Y-73830945D01*
X159507365Y-73699915D01*
X159497580Y-73671953D01*
X159494018Y-73602177D01*
X159497581Y-73590045D01*
X159505957Y-73566110D01*
X159532723Y-73489616D01*
X159553215Y-73431054D01*
X159553218Y-73431041D01*
X159573616Y-73250003D01*
X159573616Y-73249996D01*
X159553218Y-73068956D01*
X159530470Y-73003947D01*
X159526908Y-72934168D01*
X159542516Y-72897021D01*
X159577709Y-72841015D01*
X159637883Y-72669047D01*
X159637884Y-72669041D01*
X159658282Y-72488003D01*
X159658282Y-72487996D01*
X159637884Y-72306958D01*
X159637881Y-72306945D01*
X159599394Y-72196957D01*
X159582246Y-72147953D01*
X159578684Y-72078177D01*
X159582247Y-72066045D01*
X159591400Y-72039889D01*
X159607872Y-71992811D01*
X159637881Y-71907054D01*
X159637884Y-71907041D01*
X159658282Y-71726003D01*
X159658282Y-71725996D01*
X165312384Y-71725996D01*
X165312384Y-71726003D01*
X165332781Y-71907041D01*
X165332783Y-71907049D01*
X165388418Y-72066046D01*
X165391979Y-72135825D01*
X165388418Y-72147954D01*
X165332783Y-72306950D01*
X165332781Y-72306958D01*
X165312384Y-72487996D01*
X165312384Y-72488003D01*
X165332781Y-72669041D01*
X165332783Y-72669049D01*
X165388418Y-72828046D01*
X165391979Y-72897825D01*
X165388418Y-72909954D01*
X165332783Y-73068950D01*
X165332781Y-73068958D01*
X165312384Y-73249996D01*
X165312384Y-73250003D01*
X165332781Y-73431041D01*
X165332783Y-73431049D01*
X165388418Y-73590046D01*
X165391979Y-73659825D01*
X165388418Y-73671954D01*
X165332783Y-73830950D01*
X165332781Y-73830958D01*
X165312384Y-74011996D01*
X165312384Y-74012003D01*
X165332781Y-74193041D01*
X165332783Y-74193049D01*
X165388418Y-74352046D01*
X165391979Y-74421825D01*
X165388418Y-74433954D01*
X165332783Y-74592950D01*
X165332781Y-74592958D01*
X165312384Y-74773996D01*
X165312384Y-74774003D01*
X165332781Y-74955041D01*
X165332782Y-74955046D01*
X165392958Y-75127017D01*
X165428123Y-75182982D01*
X165489889Y-75281281D01*
X165618719Y-75410111D01*
X165772985Y-75507043D01*
X165944947Y-75567215D01*
X165944953Y-75567217D01*
X165944958Y-75567218D01*
X166125996Y-75587616D01*
X166126000Y-75587616D01*
X166126004Y-75587616D01*
X166307041Y-75567218D01*
X166307043Y-75567217D01*
X166307047Y-75567217D01*
X166307050Y-75567215D01*
X166307054Y-75567215D01*
X166413190Y-75530076D01*
X166466046Y-75511580D01*
X166535823Y-75508018D01*
X166547948Y-75511578D01*
X166599528Y-75529627D01*
X166706945Y-75567215D01*
X166706951Y-75567216D01*
X166706953Y-75567217D01*
X166706954Y-75567217D01*
X166706958Y-75567218D01*
X166887996Y-75587616D01*
X166888000Y-75587616D01*
X166888004Y-75587616D01*
X167069041Y-75567218D01*
X167069043Y-75567217D01*
X167069047Y-75567217D01*
X167069050Y-75567215D01*
X167069054Y-75567215D01*
X167175190Y-75530076D01*
X167228046Y-75511580D01*
X167297823Y-75508018D01*
X167309948Y-75511578D01*
X167361528Y-75529627D01*
X167468945Y-75567215D01*
X167468951Y-75567216D01*
X167468953Y-75567217D01*
X167468954Y-75567217D01*
X167468958Y-75567218D01*
X167649996Y-75587616D01*
X167650000Y-75587616D01*
X167650004Y-75587616D01*
X167831041Y-75567218D01*
X167831043Y-75567217D01*
X167831047Y-75567217D01*
X167831050Y-75567215D01*
X167831054Y-75567215D01*
X167937190Y-75530076D01*
X167990046Y-75511580D01*
X168059823Y-75508018D01*
X168071948Y-75511578D01*
X168123528Y-75529627D01*
X168230945Y-75567215D01*
X168230951Y-75567216D01*
X168230953Y-75567217D01*
X168230954Y-75567217D01*
X168230958Y-75567218D01*
X168411996Y-75587616D01*
X168412000Y-75587616D01*
X168412004Y-75587616D01*
X168593041Y-75567218D01*
X168593043Y-75567217D01*
X168593047Y-75567217D01*
X168593050Y-75567215D01*
X168593054Y-75567215D01*
X168699190Y-75530076D01*
X168752046Y-75511580D01*
X168821823Y-75508018D01*
X168833948Y-75511578D01*
X168885528Y-75529627D01*
X168992945Y-75567215D01*
X168992951Y-75567216D01*
X168992953Y-75567217D01*
X168992954Y-75567217D01*
X168992958Y-75567218D01*
X169173996Y-75587616D01*
X169174000Y-75587616D01*
X169174004Y-75587616D01*
X169355041Y-75567218D01*
X169355044Y-75567217D01*
X169355047Y-75567217D01*
X169527015Y-75507043D01*
X169681281Y-75410111D01*
X169810111Y-75281281D01*
X169829766Y-75250000D01*
X185644592Y-75250000D01*
X185664201Y-75536680D01*
X185664201Y-75536684D01*
X185664202Y-75536686D01*
X185670547Y-75567218D01*
X185722666Y-75818034D01*
X185722667Y-75818037D01*
X185818894Y-76088793D01*
X185818893Y-76088793D01*
X185951098Y-76343935D01*
X186116812Y-76578700D01*
X186201923Y-76669831D01*
X186312947Y-76788708D01*
X186369795Y-76834957D01*
X186535853Y-76970055D01*
X186781382Y-77119365D01*
X186934538Y-77185889D01*
X187044942Y-77233844D01*
X187321642Y-77311371D01*
X187571920Y-77345771D01*
X187606321Y-77350500D01*
X187606322Y-77350500D01*
X187893679Y-77350500D01*
X187924370Y-77346281D01*
X188178358Y-77311371D01*
X188455058Y-77233844D01*
X188568015Y-77184779D01*
X188718617Y-77119365D01*
X188718620Y-77119363D01*
X188718625Y-77119361D01*
X188964147Y-76970055D01*
X189187053Y-76788708D01*
X189383189Y-76578698D01*
X189548901Y-76343936D01*
X189681104Y-76088797D01*
X189777334Y-75818032D01*
X189835798Y-75536686D01*
X189855408Y-75250000D01*
X189835798Y-74963314D01*
X189777334Y-74681968D01*
X189769449Y-74659783D01*
X189684879Y-74421825D01*
X189681105Y-74411206D01*
X189681106Y-74411206D01*
X189548901Y-74156064D01*
X189383187Y-73921299D01*
X189278881Y-73809616D01*
X189187053Y-73711292D01*
X188964147Y-73529945D01*
X188964146Y-73529944D01*
X188718617Y-73380634D01*
X188455063Y-73266158D01*
X188455061Y-73266157D01*
X188455058Y-73266156D01*
X188325578Y-73229877D01*
X188178364Y-73188630D01*
X188178359Y-73188629D01*
X188178358Y-73188629D01*
X188036018Y-73169064D01*
X187893679Y-73149500D01*
X187893678Y-73149500D01*
X187606322Y-73149500D01*
X187606321Y-73149500D01*
X187321642Y-73188629D01*
X187321635Y-73188630D01*
X187113861Y-73246845D01*
X187044942Y-73266156D01*
X187044939Y-73266156D01*
X187044936Y-73266158D01*
X187044935Y-73266158D01*
X186781382Y-73380634D01*
X186535853Y-73529944D01*
X186312950Y-73711289D01*
X186116812Y-73921299D01*
X185951098Y-74156064D01*
X185818894Y-74411206D01*
X185722667Y-74681962D01*
X185722666Y-74681965D01*
X185664201Y-74963319D01*
X185644592Y-75250000D01*
X169829766Y-75250000D01*
X169907043Y-75127015D01*
X169967217Y-74955047D01*
X169968268Y-74945718D01*
X169987616Y-74774003D01*
X169987616Y-74773996D01*
X169967218Y-74592958D01*
X169967215Y-74592945D01*
X169929627Y-74485528D01*
X169911580Y-74433953D01*
X169908018Y-74364177D01*
X169911581Y-74352045D01*
X169925564Y-74312086D01*
X169967217Y-74193047D01*
X169971384Y-74156064D01*
X169987616Y-74012003D01*
X169987616Y-74011996D01*
X169967218Y-73830958D01*
X169967215Y-73830945D01*
X169921365Y-73699915D01*
X169911580Y-73671953D01*
X169908018Y-73602177D01*
X169911581Y-73590045D01*
X169919957Y-73566110D01*
X169946723Y-73489616D01*
X169967215Y-73431054D01*
X169967218Y-73431041D01*
X169987616Y-73250003D01*
X169987616Y-73249996D01*
X169967218Y-73068958D01*
X169967215Y-73068945D01*
X169929627Y-72961528D01*
X169911580Y-72909953D01*
X169908018Y-72840177D01*
X169911581Y-72828045D01*
X169916161Y-72814958D01*
X169964784Y-72676000D01*
X169967215Y-72669054D01*
X169967218Y-72669041D01*
X169987616Y-72488003D01*
X169987616Y-72487996D01*
X169967218Y-72306958D01*
X169967215Y-72306945D01*
X169928728Y-72196957D01*
X169911580Y-72147953D01*
X169908018Y-72078177D01*
X169911581Y-72066045D01*
X169920734Y-72039889D01*
X169937206Y-71992811D01*
X169967215Y-71907054D01*
X169967218Y-71907041D01*
X169987616Y-71726003D01*
X169987616Y-71725996D01*
X169967218Y-71544958D01*
X169967217Y-71544953D01*
X169931557Y-71443043D01*
X169907043Y-71372985D01*
X169810111Y-71218719D01*
X169681281Y-71089889D01*
X169573695Y-71022288D01*
X169527017Y-70992958D01*
X169527016Y-70992957D01*
X169527015Y-70992957D01*
X169444269Y-70964003D01*
X169355046Y-70932782D01*
X169355041Y-70932781D01*
X169174004Y-70912384D01*
X169173996Y-70912384D01*
X168992958Y-70932781D01*
X168992950Y-70932783D01*
X168833954Y-70988418D01*
X168764175Y-70991979D01*
X168752046Y-70988418D01*
X168593049Y-70932783D01*
X168593041Y-70932781D01*
X168412004Y-70912384D01*
X168411996Y-70912384D01*
X168230958Y-70932781D01*
X168230950Y-70932783D01*
X168071954Y-70988418D01*
X168002175Y-70991979D01*
X167990046Y-70988418D01*
X167831049Y-70932783D01*
X167831041Y-70932781D01*
X167650004Y-70912384D01*
X167649996Y-70912384D01*
X167468958Y-70932781D01*
X167468950Y-70932783D01*
X167309954Y-70988418D01*
X167240175Y-70991979D01*
X167228046Y-70988418D01*
X167069049Y-70932783D01*
X167069041Y-70932781D01*
X166888004Y-70912384D01*
X166887996Y-70912384D01*
X166706958Y-70932781D01*
X166706950Y-70932783D01*
X166547954Y-70988418D01*
X166478175Y-70991979D01*
X166466046Y-70988418D01*
X166307049Y-70932783D01*
X166307041Y-70932781D01*
X166126004Y-70912384D01*
X166125996Y-70912384D01*
X165944958Y-70932781D01*
X165944953Y-70932782D01*
X165772982Y-70992958D01*
X165618718Y-71089889D01*
X165489889Y-71218718D01*
X165392958Y-71372982D01*
X165332782Y-71544953D01*
X165332781Y-71544958D01*
X165312384Y-71725996D01*
X159658282Y-71725996D01*
X159637884Y-71544958D01*
X159637883Y-71544953D01*
X159602223Y-71443043D01*
X159577709Y-71372985D01*
X159480777Y-71218719D01*
X159351947Y-71089889D01*
X159244361Y-71022288D01*
X159197683Y-70992958D01*
X159197682Y-70992957D01*
X159197681Y-70992957D01*
X159114935Y-70964003D01*
X159025712Y-70932782D01*
X159025707Y-70932781D01*
X158844670Y-70912384D01*
X158844662Y-70912384D01*
X158663624Y-70932781D01*
X158663619Y-70932782D01*
X158491649Y-70992957D01*
X158444969Y-71022288D01*
X158377732Y-71041287D01*
X158313028Y-71022287D01*
X158266350Y-70992958D01*
X158266349Y-70992957D01*
X158266348Y-70992957D01*
X158183602Y-70964003D01*
X158094379Y-70932782D01*
X158094374Y-70932781D01*
X157913337Y-70912384D01*
X157913329Y-70912384D01*
X157732291Y-70932781D01*
X157732286Y-70932782D01*
X157560316Y-70992957D01*
X157513636Y-71022288D01*
X157446399Y-71041287D01*
X157381695Y-71022287D01*
X157335017Y-70992958D01*
X157335016Y-70992957D01*
X157335015Y-70992957D01*
X157252269Y-70964003D01*
X157163046Y-70932782D01*
X157163041Y-70932781D01*
X156982004Y-70912384D01*
X156981996Y-70912384D01*
X156800958Y-70932781D01*
X156800953Y-70932782D01*
X156628982Y-70992958D01*
X156474718Y-71089889D01*
X156345889Y-71218718D01*
X156248958Y-71372982D01*
X156188782Y-71544953D01*
X156188781Y-71544958D01*
X156168384Y-71725996D01*
X150683616Y-71725996D01*
X150663218Y-71544958D01*
X150663217Y-71544953D01*
X150627557Y-71443043D01*
X150603043Y-71372985D01*
X150506111Y-71218719D01*
X150377281Y-71089889D01*
X150269695Y-71022288D01*
X150223017Y-70992958D01*
X150223016Y-70992957D01*
X150223015Y-70992957D01*
X150140269Y-70964003D01*
X150051046Y-70932782D01*
X150051041Y-70932781D01*
X149870004Y-70912384D01*
X149869996Y-70912384D01*
X149688958Y-70932781D01*
X149688950Y-70932783D01*
X149529954Y-70988418D01*
X149460175Y-70991979D01*
X149448046Y-70988418D01*
X149289049Y-70932783D01*
X149289041Y-70932781D01*
X149108004Y-70912384D01*
X149107996Y-70912384D01*
X148926958Y-70932781D01*
X148926950Y-70932783D01*
X148767954Y-70988418D01*
X148698175Y-70991979D01*
X148686046Y-70988418D01*
X148527049Y-70932783D01*
X148527041Y-70932781D01*
X148346004Y-70912384D01*
X148345996Y-70912384D01*
X148164958Y-70932781D01*
X148164950Y-70932783D01*
X148005954Y-70988418D01*
X147936175Y-70991979D01*
X147924046Y-70988418D01*
X147765049Y-70932783D01*
X147765041Y-70932781D01*
X147584004Y-70912384D01*
X147583996Y-70912384D01*
X147402958Y-70932781D01*
X147402953Y-70932782D01*
X147230982Y-70992958D01*
X147076718Y-71089889D01*
X146947889Y-71218718D01*
X146850958Y-71372982D01*
X146790782Y-71544953D01*
X146790781Y-71544958D01*
X146770384Y-71725996D01*
X143028272Y-71725996D01*
X143111015Y-71697043D01*
X143265281Y-71600111D01*
X143394111Y-71471281D01*
X143491043Y-71317015D01*
X143551217Y-71145047D01*
X143551218Y-71145041D01*
X143571616Y-70964003D01*
X143571616Y-70963996D01*
X143551218Y-70782958D01*
X143551217Y-70782953D01*
X143491043Y-70610985D01*
X143394111Y-70456719D01*
X143265281Y-70327889D01*
X143111015Y-70230957D01*
X143056693Y-70211949D01*
X143028249Y-70201996D01*
X151342384Y-70201996D01*
X151342384Y-70202003D01*
X151362781Y-70383041D01*
X151362782Y-70383046D01*
X151388562Y-70456719D01*
X151422957Y-70555015D01*
X151519889Y-70709281D01*
X151648719Y-70838111D01*
X151802985Y-70935043D01*
X151955523Y-70988418D01*
X151974953Y-70995217D01*
X151974958Y-70995218D01*
X152155996Y-71015616D01*
X152156000Y-71015616D01*
X152156004Y-71015616D01*
X152337041Y-70995218D01*
X152337044Y-70995217D01*
X152337047Y-70995217D01*
X152509015Y-70935043D01*
X152663281Y-70838111D01*
X152791396Y-70709996D01*
X160486384Y-70709996D01*
X160486384Y-70710003D01*
X160506781Y-70891041D01*
X160506782Y-70891046D01*
X160566958Y-71063017D01*
X160585239Y-71092111D01*
X160663889Y-71217281D01*
X160792719Y-71346111D01*
X160946985Y-71443043D01*
X161118953Y-71503217D01*
X161118958Y-71503218D01*
X161299996Y-71523616D01*
X161300000Y-71523616D01*
X161300004Y-71523616D01*
X161481041Y-71503218D01*
X161481044Y-71503217D01*
X161481047Y-71503217D01*
X161653015Y-71443043D01*
X161807281Y-71346111D01*
X161936111Y-71217281D01*
X162033043Y-71063015D01*
X162093217Y-70891047D01*
X162093218Y-70891041D01*
X162113616Y-70710003D01*
X162113616Y-70709996D01*
X162093218Y-70528958D01*
X162093217Y-70528953D01*
X162067941Y-70456718D01*
X162033043Y-70356985D01*
X161936111Y-70202719D01*
X161807281Y-70073889D01*
X161653015Y-69976957D01*
X161598693Y-69957949D01*
X161481046Y-69916782D01*
X161481041Y-69916781D01*
X161300004Y-69896384D01*
X161299996Y-69896384D01*
X161118958Y-69916781D01*
X161118953Y-69916782D01*
X160946982Y-69976958D01*
X160792718Y-70073889D01*
X160663889Y-70202718D01*
X160566958Y-70356982D01*
X160506782Y-70528953D01*
X160506781Y-70528958D01*
X160486384Y-70709996D01*
X152791396Y-70709996D01*
X152792111Y-70709281D01*
X152889043Y-70555015D01*
X152949217Y-70383047D01*
X152949218Y-70383041D01*
X152969616Y-70202003D01*
X152969616Y-70201996D01*
X152949218Y-70020958D01*
X152949217Y-70020953D01*
X152889043Y-69848985D01*
X152792111Y-69694719D01*
X152663281Y-69565889D01*
X152634910Y-69548062D01*
X152509017Y-69468958D01*
X152509016Y-69468957D01*
X152509015Y-69468957D01*
X152424206Y-69439281D01*
X152337046Y-69408782D01*
X152337041Y-69408781D01*
X152156004Y-69388384D01*
X152155996Y-69388384D01*
X151974958Y-69408781D01*
X151974953Y-69408782D01*
X151802982Y-69468958D01*
X151648718Y-69565889D01*
X151519889Y-69694718D01*
X151422958Y-69848982D01*
X151362782Y-70020953D01*
X151362781Y-70020958D01*
X151342384Y-70201996D01*
X143028249Y-70201996D01*
X142939046Y-70170782D01*
X142939041Y-70170781D01*
X142758004Y-70150384D01*
X142757996Y-70150384D01*
X142576958Y-70170781D01*
X142576953Y-70170782D01*
X142404982Y-70230958D01*
X142250718Y-70327889D01*
X142121889Y-70456718D01*
X142024958Y-70610982D01*
X141964782Y-70782953D01*
X141964781Y-70782958D01*
X141944384Y-70963996D01*
X127645396Y-70963996D01*
X127646111Y-70963281D01*
X127743043Y-70809015D01*
X127803217Y-70637047D01*
X127803218Y-70637041D01*
X127823616Y-70456003D01*
X127823616Y-70455996D01*
X127803218Y-70274958D01*
X127803217Y-70274953D01*
X127743043Y-70102985D01*
X127646111Y-69948719D01*
X127517281Y-69819889D01*
X127363017Y-69722958D01*
X127363016Y-69722957D01*
X127363015Y-69722957D01*
X127308693Y-69703949D01*
X127191046Y-69662782D01*
X127191041Y-69662781D01*
X127010004Y-69642384D01*
X127009996Y-69642384D01*
X126828958Y-69662781D01*
X126828953Y-69662782D01*
X126656982Y-69722958D01*
X126502718Y-69819889D01*
X126373889Y-69948718D01*
X126276958Y-70102982D01*
X126216782Y-70274953D01*
X126216781Y-70274958D01*
X126196384Y-70455996D01*
X120279388Y-70455996D01*
X120151281Y-70327889D01*
X119997015Y-70230957D01*
X119942693Y-70211949D01*
X119825046Y-70170782D01*
X119825041Y-70170781D01*
X119644004Y-70150384D01*
X119643996Y-70150384D01*
X119462958Y-70170781D01*
X119462953Y-70170782D01*
X119290982Y-70230958D01*
X119136718Y-70327889D01*
X119007889Y-70456718D01*
X118910958Y-70610982D01*
X118850782Y-70782953D01*
X118850781Y-70782958D01*
X118830384Y-70963996D01*
X106000500Y-70963996D01*
X106000500Y-68931996D01*
X107908384Y-68931996D01*
X107908384Y-68932003D01*
X107928781Y-69113041D01*
X107928782Y-69113046D01*
X107988958Y-69285017D01*
X108066725Y-69408782D01*
X108085889Y-69439281D01*
X108214719Y-69568111D01*
X108368985Y-69665043D01*
X108534494Y-69722957D01*
X108540953Y-69725217D01*
X108540958Y-69725218D01*
X108721996Y-69745616D01*
X108722000Y-69745616D01*
X108722004Y-69745616D01*
X108903041Y-69725218D01*
X108903044Y-69725217D01*
X108903047Y-69725217D01*
X109075015Y-69665043D01*
X109229281Y-69568111D01*
X109358111Y-69439281D01*
X109455043Y-69285015D01*
X109515217Y-69113047D01*
X109515218Y-69113041D01*
X109535616Y-68932003D01*
X109535616Y-68931996D01*
X109515656Y-68754841D01*
X137195229Y-68754841D01*
X137195229Y-68754848D01*
X137215626Y-68935886D01*
X137215627Y-68935891D01*
X137275803Y-69107862D01*
X137279061Y-69113047D01*
X137372734Y-69262126D01*
X137501564Y-69390956D01*
X137655830Y-69487888D01*
X137827798Y-69548062D01*
X137827803Y-69548063D01*
X138008841Y-69568461D01*
X138008845Y-69568461D01*
X138008849Y-69568461D01*
X138189886Y-69548063D01*
X138189889Y-69548062D01*
X138189892Y-69548062D01*
X138361860Y-69487888D01*
X138516126Y-69390956D01*
X138644956Y-69262126D01*
X138741888Y-69107860D01*
X138802062Y-68935892D01*
X138802063Y-68935886D01*
X138822461Y-68754848D01*
X138822461Y-68754841D01*
X138802063Y-68573803D01*
X138802062Y-68573798D01*
X138741888Y-68401830D01*
X138644956Y-68247564D01*
X138516126Y-68118734D01*
X138361860Y-68021802D01*
X138307538Y-68002794D01*
X138189891Y-67961627D01*
X138189886Y-67961626D01*
X138008849Y-67941229D01*
X138008841Y-67941229D01*
X137827803Y-67961626D01*
X137827798Y-67961627D01*
X137655827Y-68021803D01*
X137501563Y-68118734D01*
X137372734Y-68247563D01*
X137275803Y-68401827D01*
X137215627Y-68573798D01*
X137215626Y-68573803D01*
X137195229Y-68754841D01*
X109515656Y-68754841D01*
X109515218Y-68750958D01*
X109515217Y-68750953D01*
X109455043Y-68578985D01*
X109358111Y-68424719D01*
X109229281Y-68295889D01*
X109075017Y-68198958D01*
X109075016Y-68198957D01*
X109075015Y-68198957D01*
X109020693Y-68179949D01*
X108903046Y-68138782D01*
X108903041Y-68138781D01*
X108722004Y-68118384D01*
X108721996Y-68118384D01*
X108540958Y-68138781D01*
X108540953Y-68138782D01*
X108368982Y-68198958D01*
X108214718Y-68295889D01*
X108085889Y-68424718D01*
X107988958Y-68578982D01*
X107928782Y-68750953D01*
X107928781Y-68750958D01*
X107908384Y-68931996D01*
X106000500Y-68931996D01*
X106000500Y-65000000D01*
X107894747Y-65000000D01*
X107913741Y-65314023D01*
X107913741Y-65314028D01*
X107913742Y-65314029D01*
X107970451Y-65623478D01*
X107970452Y-65623482D01*
X107970453Y-65623486D01*
X108064039Y-65923816D01*
X108064043Y-65923827D01*
X108064044Y-65923830D01*
X108064046Y-65923835D01*
X108193163Y-66210721D01*
X108243521Y-66294023D01*
X108355924Y-66479960D01*
X108549942Y-66727605D01*
X108772394Y-66950057D01*
X109020039Y-67144075D01*
X109020044Y-67144078D01*
X109020048Y-67144081D01*
X109289279Y-67306837D01*
X109576165Y-67435954D01*
X109576175Y-67435957D01*
X109576183Y-67435960D01*
X109776403Y-67498350D01*
X109876522Y-67529549D01*
X110185971Y-67586258D01*
X110500000Y-67605253D01*
X110814029Y-67586258D01*
X111123478Y-67529549D01*
X111423835Y-67435954D01*
X111710721Y-67306837D01*
X111979952Y-67144081D01*
X112227602Y-66950060D01*
X112450060Y-66727602D01*
X112644081Y-66479952D01*
X112806837Y-66210721D01*
X112935954Y-65923835D01*
X113029549Y-65623478D01*
X113086258Y-65314029D01*
X113105253Y-65000000D01*
X113086258Y-64685971D01*
X113029549Y-64376522D01*
X112985830Y-64236222D01*
X114388610Y-64236222D01*
X114388610Y-64236229D01*
X114409007Y-64417267D01*
X114409008Y-64417272D01*
X114469184Y-64589243D01*
X114529963Y-64685971D01*
X114566115Y-64743507D01*
X114694945Y-64872337D01*
X114849211Y-64969269D01*
X115021179Y-65029443D01*
X115021184Y-65029444D01*
X115202222Y-65049842D01*
X115202226Y-65049842D01*
X115202230Y-65049842D01*
X115383267Y-65029444D01*
X115383270Y-65029443D01*
X115383273Y-65029443D01*
X115555241Y-64969269D01*
X115709507Y-64872337D01*
X115838337Y-64743507D01*
X115935269Y-64589241D01*
X115995443Y-64417273D01*
X115995444Y-64417267D01*
X116015842Y-64236229D01*
X116015842Y-64236222D01*
X115995444Y-64055184D01*
X115995443Y-64055179D01*
X115958995Y-63951017D01*
X115935269Y-63883211D01*
X115838337Y-63728945D01*
X115709507Y-63600115D01*
X115706135Y-63597996D01*
X125180384Y-63597996D01*
X125180384Y-63598003D01*
X125200781Y-63779041D01*
X125200782Y-63779046D01*
X125241949Y-63896693D01*
X125252650Y-63927276D01*
X125260958Y-63951017D01*
X125339594Y-64076165D01*
X125357889Y-64105281D01*
X125486719Y-64234111D01*
X125640985Y-64331043D01*
X125809541Y-64390023D01*
X125812953Y-64391217D01*
X125812958Y-64391218D01*
X125993996Y-64411616D01*
X125994000Y-64411616D01*
X125994004Y-64411616D01*
X126175041Y-64391218D01*
X126175044Y-64391217D01*
X126175047Y-64391217D01*
X126347015Y-64331043D01*
X126501281Y-64234111D01*
X126630111Y-64105281D01*
X126727043Y-63951015D01*
X126787217Y-63779047D01*
X126792862Y-63728945D01*
X126807616Y-63598003D01*
X126807616Y-63597996D01*
X126787218Y-63416958D01*
X126787217Y-63416953D01*
X126781460Y-63400500D01*
X126727043Y-63244985D01*
X126630111Y-63090719D01*
X126629386Y-63089994D01*
X159936844Y-63089994D01*
X159936844Y-63090005D01*
X159955434Y-63314359D01*
X159955436Y-63314371D01*
X160010703Y-63532614D01*
X160101140Y-63738792D01*
X160224276Y-63927265D01*
X160224284Y-63927276D01*
X160361355Y-64076172D01*
X160376760Y-64092906D01*
X160554424Y-64231189D01*
X160554425Y-64231189D01*
X160554427Y-64231191D01*
X160633240Y-64273842D01*
X160752426Y-64338342D01*
X160965365Y-64411444D01*
X161187431Y-64448500D01*
X161412569Y-64448500D01*
X161634635Y-64411444D01*
X161847574Y-64338342D01*
X162045576Y-64231189D01*
X162223240Y-64092906D01*
X162322614Y-63984957D01*
X162375715Y-63927276D01*
X162375716Y-63927274D01*
X162375722Y-63927268D01*
X162498860Y-63738791D01*
X162589296Y-63532616D01*
X162637060Y-63344000D01*
X168176807Y-63344000D01*
X168195557Y-63618130D01*
X168195558Y-63618132D01*
X168251458Y-63887141D01*
X168251463Y-63887158D01*
X168343476Y-64146056D01*
X168469889Y-64390024D01*
X168469893Y-64390030D01*
X168628340Y-64614499D01*
X168628343Y-64614502D01*
X168815889Y-64815314D01*
X169029031Y-64988718D01*
X169029033Y-64988719D01*
X169029034Y-64988720D01*
X169263801Y-65131485D01*
X169438254Y-65207260D01*
X169515823Y-65240953D01*
X169780404Y-65315085D01*
X170005245Y-65345989D01*
X170052614Y-65352500D01*
X170052615Y-65352500D01*
X170327386Y-65352500D01*
X170374755Y-65345989D01*
X170599596Y-65315085D01*
X170864177Y-65240953D01*
X171116200Y-65131484D01*
X171350969Y-64988718D01*
X171564111Y-64815314D01*
X171751657Y-64614502D01*
X171910111Y-64390023D01*
X172036523Y-64146058D01*
X172128538Y-63887153D01*
X172128539Y-63887146D01*
X172128541Y-63887141D01*
X172166187Y-63705977D01*
X172184442Y-63618130D01*
X172203193Y-63344000D01*
X173256807Y-63344000D01*
X173275557Y-63618130D01*
X173275558Y-63618132D01*
X173331458Y-63887141D01*
X173331463Y-63887158D01*
X173423476Y-64146056D01*
X173549889Y-64390024D01*
X173549893Y-64390030D01*
X173708340Y-64614499D01*
X173708343Y-64614502D01*
X173895889Y-64815314D01*
X174109031Y-64988718D01*
X174109033Y-64988719D01*
X174109034Y-64988720D01*
X174343801Y-65131485D01*
X174518254Y-65207260D01*
X174595823Y-65240953D01*
X174860404Y-65315085D01*
X175085245Y-65345989D01*
X175132614Y-65352500D01*
X175132615Y-65352500D01*
X175407386Y-65352500D01*
X175454755Y-65345989D01*
X175679596Y-65315085D01*
X175944177Y-65240953D01*
X176196200Y-65131484D01*
X176430969Y-64988718D01*
X176644111Y-64815314D01*
X176831657Y-64614502D01*
X176990111Y-64390023D01*
X177116523Y-64146058D01*
X177208538Y-63887153D01*
X177208539Y-63887146D01*
X177208541Y-63887141D01*
X177246187Y-63705977D01*
X177264442Y-63618130D01*
X177283193Y-63344000D01*
X177264442Y-63069870D01*
X177242003Y-62961889D01*
X177208541Y-62800858D01*
X177208536Y-62800841D01*
X177170266Y-62693161D01*
X177116523Y-62541942D01*
X176990111Y-62297977D01*
X176990110Y-62297975D01*
X176990106Y-62297969D01*
X176831659Y-62073500D01*
X176813031Y-62053555D01*
X176644111Y-61872686D01*
X176549046Y-61795345D01*
X178341500Y-61795345D01*
X178341500Y-64892654D01*
X178348011Y-64953202D01*
X178348011Y-64953204D01*
X178399111Y-65090204D01*
X178486739Y-65207261D01*
X178603796Y-65294889D01*
X178740799Y-65345989D01*
X178768050Y-65348918D01*
X178801345Y-65352499D01*
X178801362Y-65352500D01*
X181898638Y-65352500D01*
X181898654Y-65352499D01*
X181925692Y-65349591D01*
X181959201Y-65345989D01*
X182096204Y-65294889D01*
X182213261Y-65207261D01*
X182300889Y-65090204D01*
X182334534Y-65000000D01*
X197894747Y-65000000D01*
X197913741Y-65314023D01*
X197913741Y-65314028D01*
X197913742Y-65314029D01*
X197970451Y-65623478D01*
X197970452Y-65623482D01*
X197970453Y-65623486D01*
X198064039Y-65923816D01*
X198064043Y-65923827D01*
X198064044Y-65923830D01*
X198064046Y-65923835D01*
X198193163Y-66210721D01*
X198243521Y-66294023D01*
X198355924Y-66479960D01*
X198549942Y-66727605D01*
X198772394Y-66950057D01*
X199020039Y-67144075D01*
X199020044Y-67144078D01*
X199020048Y-67144081D01*
X199289279Y-67306837D01*
X199576165Y-67435954D01*
X199576175Y-67435957D01*
X199576183Y-67435960D01*
X199776403Y-67498350D01*
X199876522Y-67529549D01*
X200185971Y-67586258D01*
X200500000Y-67605253D01*
X200814029Y-67586258D01*
X201123478Y-67529549D01*
X201423835Y-67435954D01*
X201710721Y-67306837D01*
X201979952Y-67144081D01*
X202227602Y-66950060D01*
X202450060Y-66727602D01*
X202644081Y-66479952D01*
X202806837Y-66210721D01*
X202935954Y-65923835D01*
X203029549Y-65623478D01*
X203086258Y-65314029D01*
X203105253Y-65000000D01*
X203086258Y-64685971D01*
X203029549Y-64376522D01*
X202984262Y-64231191D01*
X202935960Y-64076183D01*
X202935956Y-64076172D01*
X202935954Y-64076165D01*
X202806837Y-63789279D01*
X202644081Y-63520048D01*
X202644078Y-63520044D01*
X202644075Y-63520039D01*
X202450057Y-63272394D01*
X202227605Y-63049942D01*
X201979960Y-62855924D01*
X201979952Y-62855919D01*
X201710721Y-62693163D01*
X201423835Y-62564046D01*
X201423830Y-62564044D01*
X201423827Y-62564043D01*
X201423816Y-62564039D01*
X201123486Y-62470453D01*
X201123482Y-62470452D01*
X201123478Y-62470451D01*
X200814029Y-62413742D01*
X200814028Y-62413741D01*
X200814023Y-62413741D01*
X200500000Y-62394747D01*
X200185976Y-62413741D01*
X200185971Y-62413742D01*
X199876522Y-62470451D01*
X199876519Y-62470451D01*
X199876513Y-62470453D01*
X199576183Y-62564039D01*
X199576172Y-62564043D01*
X199289283Y-62693161D01*
X199289281Y-62693162D01*
X199020039Y-62855924D01*
X198772394Y-63049942D01*
X198549942Y-63272394D01*
X198355924Y-63520039D01*
X198307517Y-63600115D01*
X198199349Y-63779047D01*
X198193162Y-63789281D01*
X198193161Y-63789283D01*
X198064043Y-64076172D01*
X198064039Y-64076183D01*
X197970453Y-64376513D01*
X197970451Y-64376519D01*
X197970451Y-64376522D01*
X197946773Y-64505727D01*
X197913741Y-64685976D01*
X197894747Y-65000000D01*
X182334534Y-65000000D01*
X182351989Y-64953201D01*
X182355591Y-64919692D01*
X182358499Y-64892654D01*
X182358500Y-64892637D01*
X182358500Y-61795362D01*
X182358499Y-61795345D01*
X182355157Y-61764270D01*
X182351989Y-61734799D01*
X182300889Y-61597796D01*
X182213261Y-61480739D01*
X182096204Y-61393111D01*
X182080997Y-61387439D01*
X181959203Y-61342011D01*
X181898654Y-61335500D01*
X181898638Y-61335500D01*
X178801362Y-61335500D01*
X178801345Y-61335500D01*
X178740797Y-61342011D01*
X178740795Y-61342011D01*
X178603795Y-61393111D01*
X178486739Y-61480739D01*
X178399111Y-61597795D01*
X178348011Y-61734795D01*
X178348011Y-61734797D01*
X178341500Y-61795345D01*
X176549046Y-61795345D01*
X176430969Y-61699282D01*
X176430967Y-61699281D01*
X176430965Y-61699279D01*
X176196198Y-61556514D01*
X175944178Y-61447047D01*
X175679602Y-61372916D01*
X175679597Y-61372915D01*
X175679596Y-61372915D01*
X175543490Y-61354207D01*
X175407386Y-61335500D01*
X175407385Y-61335500D01*
X175132615Y-61335500D01*
X175132614Y-61335500D01*
X174860404Y-61372915D01*
X174860397Y-61372916D01*
X174595821Y-61447047D01*
X174343801Y-61556514D01*
X174109034Y-61699279D01*
X173895892Y-61872683D01*
X173708340Y-62073500D01*
X173549893Y-62297969D01*
X173549889Y-62297975D01*
X173423476Y-62541943D01*
X173331463Y-62800841D01*
X173331458Y-62800858D01*
X173275558Y-63069867D01*
X173275557Y-63069869D01*
X173256807Y-63344000D01*
X172203193Y-63344000D01*
X172184442Y-63069870D01*
X172162003Y-62961889D01*
X172128541Y-62800858D01*
X172128536Y-62800841D01*
X172090266Y-62693161D01*
X172036523Y-62541942D01*
X171910111Y-62297977D01*
X171910110Y-62297975D01*
X171910106Y-62297969D01*
X171751659Y-62073500D01*
X171733031Y-62053555D01*
X171564111Y-61872686D01*
X171350969Y-61699282D01*
X171350967Y-61699281D01*
X171350965Y-61699279D01*
X171116198Y-61556514D01*
X170864178Y-61447047D01*
X170599602Y-61372916D01*
X170599597Y-61372915D01*
X170599596Y-61372915D01*
X170463490Y-61354207D01*
X170327386Y-61335500D01*
X170327385Y-61335500D01*
X170052615Y-61335500D01*
X170052614Y-61335500D01*
X169780404Y-61372915D01*
X169780397Y-61372916D01*
X169515821Y-61447047D01*
X169263801Y-61556514D01*
X169029034Y-61699279D01*
X168815892Y-61872683D01*
X168628340Y-62073500D01*
X168469893Y-62297969D01*
X168469889Y-62297975D01*
X168343476Y-62541943D01*
X168251463Y-62800841D01*
X168251458Y-62800858D01*
X168195558Y-63069867D01*
X168195557Y-63069869D01*
X168176807Y-63344000D01*
X162637060Y-63344000D01*
X162644564Y-63314368D01*
X162648042Y-63272394D01*
X162663156Y-63090005D01*
X162663156Y-63089994D01*
X162644565Y-62865640D01*
X162644563Y-62865628D01*
X162600889Y-62693163D01*
X162589296Y-62647384D01*
X162498860Y-62441209D01*
X162480914Y-62413741D01*
X162375723Y-62252734D01*
X162375715Y-62252723D01*
X162223243Y-62087097D01*
X162223238Y-62087092D01*
X162045577Y-61948812D01*
X162045572Y-61948808D01*
X161847580Y-61841661D01*
X161847577Y-61841659D01*
X161847574Y-61841658D01*
X161847571Y-61841657D01*
X161847569Y-61841656D01*
X161634637Y-61768556D01*
X161412569Y-61731500D01*
X161187431Y-61731500D01*
X160965362Y-61768556D01*
X160752430Y-61841656D01*
X160752419Y-61841661D01*
X160554427Y-61948808D01*
X160554422Y-61948812D01*
X160376761Y-62087092D01*
X160376756Y-62087097D01*
X160224284Y-62252723D01*
X160224276Y-62252734D01*
X160101140Y-62441207D01*
X160010703Y-62647385D01*
X159955436Y-62865628D01*
X159955434Y-62865640D01*
X159936844Y-63089994D01*
X126629386Y-63089994D01*
X126501281Y-62961889D01*
X126348102Y-62865640D01*
X126347017Y-62864958D01*
X126347016Y-62864957D01*
X126347015Y-62864957D01*
X126292693Y-62845949D01*
X126175046Y-62804782D01*
X126175041Y-62804781D01*
X125994004Y-62784384D01*
X125993996Y-62784384D01*
X125812958Y-62804781D01*
X125812953Y-62804782D01*
X125640982Y-62864958D01*
X125486718Y-62961889D01*
X125357889Y-63090718D01*
X125260958Y-63244982D01*
X125200782Y-63416953D01*
X125200781Y-63416958D01*
X125180384Y-63597996D01*
X115706135Y-63597996D01*
X115669274Y-63574835D01*
X115555243Y-63503184D01*
X115555242Y-63503183D01*
X115555241Y-63503183D01*
X115500919Y-63484175D01*
X115383272Y-63443008D01*
X115383267Y-63443007D01*
X115202230Y-63422610D01*
X115202222Y-63422610D01*
X115021184Y-63443007D01*
X115021179Y-63443008D01*
X114849208Y-63503184D01*
X114694944Y-63600115D01*
X114566115Y-63728944D01*
X114469184Y-63883208D01*
X114409008Y-64055179D01*
X114409007Y-64055184D01*
X114388610Y-64236222D01*
X112985830Y-64236222D01*
X112984262Y-64231191D01*
X112935960Y-64076183D01*
X112935956Y-64076172D01*
X112935954Y-64076165D01*
X112806837Y-63789279D01*
X112644081Y-63520048D01*
X112644078Y-63520044D01*
X112644075Y-63520039D01*
X112450057Y-63272394D01*
X112227605Y-63049942D01*
X111979960Y-62855924D01*
X111979952Y-62855919D01*
X111710721Y-62693163D01*
X111423835Y-62564046D01*
X111423830Y-62564044D01*
X111423827Y-62564043D01*
X111423816Y-62564039D01*
X111123486Y-62470453D01*
X111123482Y-62470452D01*
X111123478Y-62470451D01*
X110814029Y-62413742D01*
X110814028Y-62413741D01*
X110814023Y-62413741D01*
X110500000Y-62394747D01*
X110185976Y-62413741D01*
X110185971Y-62413742D01*
X109876522Y-62470451D01*
X109876519Y-62470451D01*
X109876513Y-62470453D01*
X109576183Y-62564039D01*
X109576172Y-62564043D01*
X109289283Y-62693161D01*
X109289281Y-62693162D01*
X109020039Y-62855924D01*
X108772394Y-63049942D01*
X108549942Y-63272394D01*
X108355924Y-63520039D01*
X108307517Y-63600115D01*
X108199349Y-63779047D01*
X108193162Y-63789281D01*
X108193161Y-63789283D01*
X108064043Y-64076172D01*
X108064039Y-64076183D01*
X107970453Y-64376513D01*
X107970451Y-64376519D01*
X107970451Y-64376522D01*
X107946773Y-64505727D01*
X107913741Y-64685976D01*
X107894747Y-65000000D01*
X106000500Y-65000000D01*
X106000500Y-62066024D01*
X106000501Y-62066021D01*
X106000500Y-62004534D01*
X106000814Y-61995722D01*
X106005593Y-61928650D01*
X106015027Y-61796240D01*
X106017524Y-61778808D01*
X106058953Y-61587664D01*
X106063902Y-61570750D01*
X106069192Y-61556514D01*
X106132012Y-61387436D01*
X106139311Y-61371390D01*
X106232736Y-61199581D01*
X106242234Y-61184736D01*
X106359085Y-61027910D01*
X106370586Y-61014570D01*
X106508506Y-60875893D01*
X106521780Y-60864322D01*
X106677964Y-60746615D01*
X106692761Y-60737034D01*
X106699035Y-60733578D01*
X106864060Y-60642668D01*
X106880044Y-60635291D01*
X107063015Y-60566165D01*
X107079881Y-60561131D01*
X107270799Y-60518657D01*
X107288224Y-60516064D01*
X107445703Y-60503977D01*
X107486269Y-60500864D01*
X107495758Y-60500500D01*
X203434080Y-60500500D01*
X203434084Y-60500501D01*
G37*
%TD.AperFunction*%
%TD*%
M02*
